<svg width="26.647" height="31" xmlns:xlink="http://www.w3.org/1999/xlink" xmlns="http://www.w3.org/2000/svg"><defs><clipPath id="g"><use xlink:href="#a"/></clipPath><clipPath id="h"><use xlink:href="#b"/></clipPath><clipPath id="i"><use xlink:href="#c"/></clipPath><clipPath id="j"><use xlink:href="#d"/></clipPath><clipPath id="k"><use xlink:href="#e"/></clipPath><clipPath id="l"><use xlink:href="#f"/></clipPath><path d="M12.824 10.78c2.36 0 4.274-2.414 4.274-5.39 0-2.977-1.913-5.39-4.274-5.39-2.361 0-4.275 2.413-4.275 5.39 0 2.976 1.914 5.39 4.275 5.39z" id="a"/><path d="M12.824 12.266l-1.301-1.858h2.602l-1.301 1.858z" id="b"/><path d="M4.275 14.868c2.36 0 4.274-2.413 4.274-5.39 0-2.976-1.914-5.39-4.274-5.39C1.914 4.089 0 6.503 0 9.479c0 2.977 1.914 5.39 4.275 5.39z" id="c"/><path d="M4.275 16.355l-1.301-1.859h2.602l-1.301 1.859z" id="d"/><path d="M21.373 16.727c2.36 0 4.274-2.414 4.274-5.39 0-2.977-1.913-5.39-4.274-5.39-2.361 0-4.275 2.413-4.275 5.39 0 2.976 1.914 5.39 4.275 5.39z" id="e"/><path d="M21.373 18.213l-1.301-1.858h2.602l-1.301 1.858z" id="f"/></defs><g transform="translate(.5 .5)"><use fill="#B18DC0" xlink:href="#a" fill-rule="evenodd"/><g clip-path="url(#g)"><use xlink:href="#a" fill="none" stroke="#B18DC0" stroke-width="4"/></g></g><g clip-path="url(#h)" transform="translate(.5 .5)"><use xlink:href="#b" fill="none" stroke="#B18DC0" stroke-width="4"/></g><path d="M13.3 11.098c-2.112 5.555 1.736 6.343-.715 12.822" fill="none" stroke="#B18DC0"/><g transform="translate(.5 .5)"><use fill="#B18DC0" xlink:href="#c" fill-rule="evenodd"/><g clip-path="url(#i)"><use xlink:href="#c" fill="none" stroke="#B18DC0" stroke-width="4"/></g></g><g clip-path="url(#j)" transform="translate(.5 .5)"><use xlink:href="#d" fill="none" stroke="#B18DC0" stroke-width="4"/></g><path d="M5.62 28.637c-2.485-5.555 2.044-6.343-.84-12.822" fill="none" stroke="#B18DC0"/><g transform="translate(.5 .5)"><use fill="#B18DC0" xlink:href="#e" fill-rule="evenodd"/><g clip-path="url(#k)"><use xlink:href="#e" fill="none" stroke="#B18DC0" stroke-width="4"/></g></g><path d="M10.97 4.273c.55.462 1.478.263 2.072-.445.594-.707.63-1.655.079-2.117-.55-.462-1.478-.263-2.072.445-.594.707-.629 1.656-.079 2.117zM2.421 8.734c.55.462 1.478.262 2.072-.445.594-.708.63-1.656.079-2.118-.55-.462-1.478-.262-2.072.445-.594.708-.63 1.656-.079 2.118zm17.099 1.858c.55.462 1.477.263 2.071-.445.594-.707.63-1.656.079-2.117-.55-.462-1.478-.263-2.072.445-.594.707-.629 1.655-.078 2.117z" fill="#EBE6E6" fill-opacity=".255" fill-rule="evenodd"/><g clip-path="url(#l)" transform="translate(.5 .5)"><use xlink:href="#f" fill="none" stroke="#B18DC0" stroke-width="4"/></g><path d="M21.754 17.667c2.013 5.591-1.847 6.312.49 12.833" fill="none" stroke="#B18DC0"/></svg>