<svg width="27.854" height="34" xmlns="http://www.w3.org/2000/svg"><g fill="none" stroke="#B18DC0" stroke-width="2"><path d="M13.84 24.361c-1.618-.042-4.251.554-4.376 8.062 1.51-.063 3.041-.097 4.593-.097 1.286 0 2.556.027 3.814.07-.238-3.043-1.028-7.957-4.031-8.035"/><path d="M2.056 33a103.95 103.95 0 017.408-.577c.125-7.508 2.758-8.104 4.376-8.062 3.002.078 3.793 4.992 4.031 8.036 2.74.094 5.405.291 7.976.579V20.861H2.057V33zm24.702-12.964L13.393 4.358l-.809.104L1.08 20.058a.4.4 0 00.322.639h25.052a.4.4 0 00.305-.66"/><path d="M12.64 1.104c.265 1.634-.072 3.36-.072 3.36l.016-.002.809-.104 5.935-.766c.147-.011.164-.232.018-.252-6.141-.835-6.8-2.813-6.706-2.236z"/></g></svg>