<svg width="33.538" height="32" xmlns="http://www.w3.org/2000/svg"><path d="M18.297 13.703c-2.613-2.613-5.458-4.23-7.2-4.241-.512-.004-.93.13-1.217.418-1.268 1.268.443 5.037 3.823 8.417s7.148 5.091 8.417 3.823c1.268-1.269-.443-5.037-3.823-8.417z" fill="none" stroke="#B88AC4" stroke-width="2"/><path d="M13.387 18.612c-2.906-2.906-4.515-6.107-3.926-7.605l-.21.626L1 31l20-8.454c-1.497.589-4.705-1.026-7.613-3.934z" fill="none" stroke="#B88AC4" stroke-width="2"/><g fill="#B88AC4"><path d="M31.722 12.056l-.53.53-.266.266.34.34.456.456.53-.53.266-.266-.398-.398-.398-.398zM11.054 6.388l-.547.546-.25.25.224.223.573.573.409-.409.387-.387-.44-.44-.356-.356zm5.833 0l-.647.647-.149.149.207.207.59.589.795-.796-.796-.796zm1.062 3.182l-.515.514-.281.282.36.36.436.436.462-.462.334-.334-.366-.366-.43-.43zm7.424 2.651l-.355.356-.44.44.296.297.5.5.488-.489.308-.308-.308-.308-.489-.488zm-.264 7.425l-.68.68-.382.382.356.355.706.706.748-.748.313-.313-.255-.255-.806-.807z"/><path d="M12.923 14.077c.055-.084.641-3.27.641-6.539 0-1.382-.22-2.453-.656-3.182-.71-1.188-1.796-1.17-1.814-1.177H11V1h.08c.048.002 1.608-.051 2.716 1.784.697 1.155 1.05 2.755 1.05 4.754 0 4.36-1.923 6.539-1.923 6.539zM29.5 2.54c-1.474.025-2.498.36-3.093.982a1.999 1.999 0 00-.56 1.37c.012.96.46 1.792.617 2.07.029.052.08.158.091.197-.392-.02-1.101-.173-1.546-.273-1.307-.293-2.434-.546-3.108.026-.283.242-.44.6-.44 1.011 0 .887.546 1.669.983 2.297.182.26.456.652.48.78 0 .4-.266.55-1.669.95-1.575.449-4.178 1.358-5.64 3.665 2.193-1.538 4.46-1.735 6.022-2.18 1.351-.385 2.748-.783 2.748-2.435 0-.597-.37-1.128-.763-1.69-.265-.381-.585-.84-.675-1.206.403-.012 1.23.169 1.757.287.716.16 1.375.298 1.902.3v.002c.626 0 1.063-.34 1.248-.631l.07-.142c.084-.218.114-.433.114-.631a2.2 2.2 0 00-.276-1.042c-.104-.166-.416-.74-.446-1.307a.418.418 0 01.12-.327c.124-.129.657-.546 2.43-.536h.365V2.54s-.628-.002-.731 0zm1.229 16.152h1.81c0-.106-.01-.208-.026-.307-.368-2.177-4.642-2.77-7.214-2.77-5.43 0-8.145 1.847-8.145 1.847s2.715-.616 8.145-.616c.054 0 5.43.05 5.43 1.846z"/></g></svg>