<svg width="31.708" height="34" xmlns:xlink="http://www.w3.org/1999/xlink" xmlns="http://www.w3.org/2000/svg"><defs><clipPath id="d"><use xlink:href="#a"/></clipPath><clipPath id="e"><use xlink:href="#b"/></clipPath><clipPath id="f"><use xlink:href="#c"/></clipPath><path d="M11.883 21.05a2.97 2.97 0 100-5.941 2.97 2.97 0 000 5.941z" id="a"/><path d="M0 0h8.912v8.912H0V0z" id="b"/><path d="M0 0h6.366v6.366H0V0z" id="c"/></defs><path d="M1 33l10.822-12.096" fill="none" stroke="#B18DC0" stroke-width="2" stroke-linecap="round"/><g clip-path="url(#d)" transform="translate(1 1)"><use xlink:href="#a" fill="none" stroke="#B18DC0" stroke-width="4"/></g><path d="M21.796 11.186h8.912v8.912h-8.912v-8.912z" fill="none"/><g clip-path="url(#e)" transform="translate(21.796 11.186)"><path d="M1.694 8.903l2.754-1.516 2.75 1.525-.515-3.223 2.23-2.277-3.08-.478L4.462 0 3.078 2.927 0 3.392l2.224 2.289-.53 3.222z" fill="#B18DC0" fill-rule="evenodd"/></g><path d="M15.43 1h6.366v6.366H15.43V1z" fill="none"/><g clip-path="url(#f)" transform="translate(15.43 1)"><path d="M1.21 6.36l1.967-1.084 1.964 1.09-.368-2.302 1.593-1.627-2.2-.341L3.188 0l-.99 2.091L0 2.423l1.588 1.635L1.21 6.36z" fill="#B18DC0" fill-rule="evenodd"/></g><path d="M3.97 4.82h6.367v6.366H3.97V4.82z" fill="none"/><g clip-path="url(#f)" transform="translate(3.97 4.82)"><path d="M1.21 6.36l1.967-1.084 1.964 1.09-.368-2.302 1.593-1.627-2.2-.341L3.188 0l-.99 2.091L0 2.423l1.588 1.635L1.21 6.36z" fill="#B18DC0" fill-rule="evenodd"/></g></svg>