<svg width="32" height="32" xmlns:xlink="http://www.w3.org/1999/xlink" xmlns="http://www.w3.org/2000/svg"><defs><clipPath id="b"><use xlink:href="#a"/></clipPath><path d="M15 30c8.284 0 15-6.716 15-15 0-8.284-6.716-15-15-15C6.716 0 0 6.716 0 15c0 8.284 6.716 15 15 15z" id="a"/></defs><g clip-path="url(#b)" transform="translate(1 1)"><use xlink:href="#a" fill="none" stroke="#979797" stroke-width="4"/></g><path d="M7.36 17.393a8.752 8.752 0 0017.277.014" fill="none" stroke="#B18DC0" stroke-width="2"/><path d="M19.125 14.75a1.875 1.875 0 100-3.75 1.875 1.875 0 000 3.75zm-6.25 0a1.875 1.875 0 100-3.75 1.875 1.875 0 000 3.75z" fill="#B18DC0" fill-rule="evenodd"/><g clip-path="url(#b)" transform="translate(1 1)"><use xlink:href="#a" fill="none" stroke="#B18DC0" stroke-width="4"/></g></svg>