<svg xmlns="http://www.w3.org/2000/svg" viewBox="0 0 52 49"><defs><style>.cls-1{fill:#00badf;}.cls-2{fill:#fff;fill-rule:evenodd;}</style></defs><g id="Слой_2" data-name="Слой 2"><g id="Слой_1-2" data-name="Слой 1"><rect class="cls-1" width="52" height="49" rx="8"/><path class="cls-2" d="M26.61,9.9a27.42,27.42,0,0,1,14.28,3.77V20a12.4,12.4,0,0,0-8.26-2.68c-4.54,0-8.86,2-8.86,7.26,0,5,4.14,7.26,8.86,7.26a12,12,0,0,0,8.26-2.74v6.55a27.42,27.42,0,0,1-14.28,3.77c-10,0-18.71-4.59-18.71-14.77C7.9,14,17,9.9,26.61,9.9ZM46.15,20.7H36v3.09h2.17v4.7H44v-4.7h2.17V20.7ZM33.28,11.47c.74.18,1.46.38,2.18.61a28.62,28.62,0,0,1,2.83,1.11c.61.29,1.2.6,1.79.94v4.28l-.88-.49-1.05-.45L37,17.1l-1.19-.28-1.25-.19-1.29-.09H32.19a16.39,16.39,0,0,0-2.21.23c-.43.08-.85.18-1.27.3s-.81.28-1.21.44l-.75.38c-.37.22-.71.45-1.06.7l-.63.56-.56.64-.49.71-.41.79-.31.86-.21.93-.11,1v1l.11,1,.2.9.3.84.39.78.48.71.55.64.62.57a10.59,10.59,0,0,0,1,.71,12.12,12.12,0,0,0,1.14.57c.41.16.82.3,1.24.42s.86.21,1.31.28.9.12,1.36.15l.93,0c.65,0,1.29,0,1.94-.1l1.23-.18L37,32.11l1.12-.37,1-.46.92-.52v4.45a26.81,26.81,0,0,1-2.57,1.29c-.81.33-1.63.63-2.47.9s-1.76.48-2.66.66-1.87.32-2.82.42-1.63.12-2.45.14-1.53,0-2.31,0L23,38.41l-1.71-.26-1.65-.37-1.56-.48L17.37,37l-.73-.31-.71-.34L15.25,36l-.65-.39L14,35.21l-.59-.45-.57-.46-.53-.5-.5-.53-.46-.55-.43-.58-.4-.61-.36-.64-.32-.66-.29-.7-.24-.73L9.09,28l-.16-.79-.12-.83-.07-.86,0-.89,0-.94.07-.9L8.93,22l.17-.82.21-.78.26-.75.29-.71.33-.68.37-.64L11,17l.44-.58.48-.55.51-.52.54-.49.57-.46.6-.43.63-.41.66-.37.68-.35.71-.32.73-.29,1.53-.51,1.59-.39L22.3,11l1.7-.19,1.74-.1h1.37A33.62,33.62,0,0,1,31,11c.77.12,1.53.27,2.29.44ZM45.34,23H43.16v4.7H39V23H36.79V21.52h8.55V23ZM16.79,16.41a5.35,5.35,0,0,1,0,10.7,5.5,5.5,0,0,1-1-.09V23.94a2.4,2.4,0,1,0-1.39-2.18h0V33.1a5.17,5.17,0,0,1-2.94-2.51V21.76a5.36,5.36,0,0,1,5.35-5.35Z"/></g></g></svg>