<svg xmlns="http://www.w3.org/2000/svg" viewBox="0 0 38.46 30.2"><defs><style>.cls-1{fill:none;}.cls-2{fill:#fff;}</style></defs><g id="Слой_2" data-name="Слой 2"><g id="Слой_1-2" data-name="Слой 1"><polygon class="cls-1" points="37.51 12.2 29.2 12.2 29.2 13.5 31.7 13.5 31.7 17.98 35 17.98 35 13.5 37.51 13.5 37.51 12.2"/><path class="cls-1" d="M32.5,9V4.59A29.53,29.53,0,0,0,18.35,1a28.72,28.72,0,0,0-7.53,1.11A13.69,13.69,0,0,0,1,15.1a13.69,13.69,0,0,0,9.87,13,28.78,28.78,0,0,0,7.53,1.11A29.51,29.51,0,0,0,32.5,25.63V21.16a20,20,0,0,1-9.14,2.3,8.36,8.36,0,1,1,0-16.72A20.14,20.14,0,0,1,32.5,9ZM9.1,17.46a6.25,6.25,0,0,1-1.27-.14l-.08,0V14.12l.15.08a2.48,2.48,0,0,0,1.2.3,2.4,2.4,0,1,0-2.4-2.4V23.46H6.6A2.92,2.92,0,0,1,3.75,20.6V12.1A5.36,5.36,0,1,1,9.1,17.46Z"/><path class="cls-2" d="M28.25,11.25v3.2h2.5v4.48H36V14.45h2.51v-3.2ZM35,13.5V18H31.7V13.5H29.2V12.2h8.31v1.3Z"/><path class="cls-2" d="M9.1,6.74A5.36,5.36,0,0,0,3.75,12.1v8.5A2.92,2.92,0,0,0,6.6,23.46h.1V12.1a2.41,2.41,0,1,1,2.4,2.4,2.48,2.48,0,0,1-1.2-.3l-.15-.08V17.3l.08,0a6.25,6.25,0,0,0,1.27.14,5.36,5.36,0,0,0,0-10.72Z"/><path class="cls-2" d="M23.36,22.49h0a7.39,7.39,0,0,1-5.2-12.63,7.31,7.31,0,0,1,5.2-2.15h0a19.24,19.24,0,0,1,9.94,3l.15.09V4L33.4,4a30.48,30.48,0,0,0-15-4,29.82,29.82,0,0,0-7.74,1.15A14.77,14.77,0,0,0,0,15.1a14.77,14.77,0,0,0,10.62,14,29.68,29.68,0,0,0,7.73,1.15,30.46,30.46,0,0,0,15-4l.05,0V19.42l-.15.09A19.46,19.46,0,0,1,23.36,22.49ZM15,15.1a8.37,8.37,0,0,0,8.36,8.36,20,20,0,0,0,9.14-2.3v4.47a29.51,29.51,0,0,1-14.15,3.62,28.78,28.78,0,0,1-7.53-1.11A13.69,13.69,0,0,1,1,15.1a13.69,13.69,0,0,1,9.87-13A28.72,28.72,0,0,1,18.35,1,29.53,29.53,0,0,1,32.5,4.59V9a20.14,20.14,0,0,0-9.14-2.28A8.37,8.37,0,0,0,15,15.1Z"/></g></g></svg>