<svg xmlns="http://www.w3.org/2000/svg" viewBox="0 0 38.25 29.54"><defs><style>.cls-1{fill:#fff;fill-rule:evenodd;}</style></defs><g id="Слой_2" data-name="Слой 2"><g id="Слой_1-2" data-name="Слой 1"><path class="cls-1" d="M18.71,0A27.42,27.42,0,0,1,33,3.77v6.35a12.4,12.4,0,0,0-8.26-2.68c-4.54,0-8.86,2-8.86,7.26,0,5,4.14,7.26,8.86,7.26A12,12,0,0,0,33,19.22v6.55a27.42,27.42,0,0,1-14.28,3.77C8.73,29.54,0,25,0,14.77,0,4.07,9.11,0,18.71,0ZM38.25,10.8H28.08v3.09h2.17v4.7h5.83v-4.7h2.17V10.8ZM25.38,1.57c.74.18,1.46.38,2.18.61a28.62,28.62,0,0,1,2.83,1.11c.61.29,1.2.6,1.79.94V8.51L31.3,8l-1.05-.45L29.13,7.2l-1.19-.28-1.25-.19L25.4,6.64H24.29a16.39,16.39,0,0,0-2.21.23c-.43.08-.85.18-1.27.3s-.81.28-1.21.44L18.85,8c-.37.22-.71.45-1.06.7l-.63.56-.56.64-.49.71-.41.79-.31.86-.21.93-.11,1v1l.11,1,.2.9.3.84.39.78.48.71.55.64.62.57a10.59,10.59,0,0,0,1,.71,12.12,12.12,0,0,0,1.14.57c.41.16.82.3,1.24.42s.86.21,1.31.28.9.12,1.36.15l.93,0c.65,0,1.29,0,1.94-.1l1.24-.18,1.17-.28,1.12-.37,1.05-.46.92-.52v4.45a26.81,26.81,0,0,1-2.57,1.29c-.81.33-1.63.63-2.47.9s-1.76.48-2.66.66-1.87.32-2.82.42-1.63.12-2.45.14-1.53,0-2.3,0l-1.77-.16-1.71-.26-1.65-.37-1.56-.48-.75-.28-.73-.31L8,26.47l-.68-.36-.65-.39-.62-.41-.59-.45-.57-.46-.53-.5-.5-.53-.46-.55L3,22.24l-.4-.61L2.24,21l-.32-.66-.29-.7-.24-.73-.2-.76L1,17.35l-.12-.83-.07-.86,0-.89,0-.94.07-.9L1,12.07l.17-.82.21-.78.26-.75L2,9l.33-.68.37-.64.41-.61.44-.58L4,6l.51-.52L5,4.94l.57-.46.6-.43.63-.41.66-.37.68-.35.71-.32.73-.29,1.53-.51,1.59-.39,1.66-.3L16.1.92l1.74-.1h1.37a33.45,33.45,0,0,1,3.88.31c.77.12,1.53.27,2.29.44ZM37.44,13.08H35.26v4.7H31.07v-4.7H28.89V11.62h8.55v1.46ZM8.89,6.51a5.35,5.35,0,0,1,0,10.7,5.5,5.5,0,0,1-1-.09V14a2.4,2.4,0,1,0-1.39-2.18h0V23.2a5.17,5.17,0,0,1-2.94-2.51V11.86A5.36,5.36,0,0,1,8.89,6.51Z"/></g></g></svg>