<svg width="202" height="160" xmlns="http://www.w3.org/2000/svg"><path d="M3.8 12.415A6.502 6.502 0 019.198.588a6.5 6.5 0 013.214 8.611A6.51 6.51 0 013.8 12.415m21 0A6.502 6.502 0 0130.198.588a6.5 6.5 0 013.214 8.611 6.51 6.51 0 01-8.612 3.217m21-.001A6.502 6.502 0 0151.198.588a6.5 6.5 0 013.214 8.611 6.51 6.51 0 01-8.612 3.217m21-.001A6.502 6.502 0 0172.198.588a6.5 6.5 0 013.214 8.611 6.51 6.51 0 01-8.612 3.217m21-.001A6.502 6.502 0 0193.198.588a6.5 6.5 0 013.214 8.611 6.51 6.51 0 01-8.612 3.217m21-.001a6.503 6.503 0 01-3.211-8.614 6.499 6.499 0 1111.823 5.397 6.51 6.51 0 01-8.612 3.217m21 0a6.503 6.503 0 01-3.211-8.614 6.499 6.499 0 1111.823 5.397 6.51 6.51 0 01-8.612 3.217m21 0a6.503 6.503 0 01-3.211-8.614 6.499 6.499 0 1111.823 5.397 6.51 6.51 0 01-8.612 3.217M3.8 33.416a6.502 6.502 0 015.398-11.83 6.5 6.5 0 013.214 8.612A6.51 6.51 0 013.8 33.416m21 0a6.502 6.502 0 015.398-11.83 6.5 6.5 0 013.214 8.612 6.51 6.51 0 01-8.612 3.218m21 0a6.502 6.502 0 015.398-11.83 6.5 6.5 0 013.214 8.612 6.51 6.51 0 01-8.612 3.218m21 0a6.502 6.502 0 015.398-11.83 6.5 6.5 0 013.214 8.612 6.51 6.51 0 01-8.612 3.218m21 0a6.502 6.502 0 015.398-11.83 6.5 6.5 0 013.214 8.612 6.51 6.51 0 01-8.612 3.218m21 0a6.503 6.503 0 01-3.211-8.615 6.499 6.499 0 1111.823 5.397 6.51 6.51 0 01-8.612 3.218m21 0a6.503 6.503 0 01-3.211-8.615 6.499 6.499 0 1111.823 5.397 6.51 6.51 0 01-8.612 3.218m21 0a6.503 6.503 0 01-3.211-8.615 6.499 6.499 0 1111.823 5.397 6.51 6.51 0 01-8.612 3.218m-147 21a6.502 6.502 0 015.398-11.83 6.5 6.5 0 013.214 8.612A6.51 6.51 0 013.8 54.416m21 0a6.502 6.502 0 015.398-11.83 6.5 6.5 0 013.214 8.612 6.51 6.51 0 01-8.612 3.218m21 0a6.502 6.502 0 015.398-11.83 6.5 6.5 0 013.214 8.612 6.51 6.51 0 01-8.612 3.218m21 0a6.502 6.502 0 015.398-11.83 6.5 6.5 0 013.214 8.612 6.51 6.51 0 01-8.612 3.218m21 0a6.502 6.502 0 015.398-11.83 6.5 6.5 0 013.214 8.612 6.51 6.51 0 01-8.612 3.218m21 0a6.503 6.503 0 01-3.211-8.615 6.499 6.499 0 1111.823 5.397 6.51 6.51 0 01-8.612 3.218m21 0a6.503 6.503 0 01-3.211-8.615 6.499 6.499 0 1111.823 5.397 6.51 6.51 0 01-8.612 3.218m21 0a6.503 6.503 0 01-3.211-8.615 6.499 6.499 0 1111.823 5.397 6.51 6.51 0 01-8.612 3.218M3.8 75.415a6.502 6.502 0 015.398-11.828 6.5 6.5 0 013.214 8.611A6.51 6.51 0 013.8 75.416m21-.001a6.502 6.502 0 015.398-11.828 6.5 6.5 0 013.214 8.611 6.51 6.51 0 01-8.612 3.218m21-.001a6.502 6.502 0 015.398-11.828 6.5 6.5 0 013.214 8.611 6.51 6.51 0 01-8.612 3.218m21-.001a6.502 6.502 0 015.398-11.828 6.5 6.5 0 013.214 8.611 6.51 6.51 0 01-8.612 3.218m21-.001a6.502 6.502 0 015.398-11.828 6.5 6.5 0 013.214 8.611 6.51 6.51 0 01-8.612 3.218m21-.001a6.503 6.503 0 01-3.211-8.614 6.499 6.499 0 1111.823 5.397 6.51 6.51 0 01-8.612 3.218m21-.001a6.503 6.503 0 01-3.211-8.614 6.499 6.499 0 1111.823 5.397 6.51 6.51 0 01-8.612 3.218m21-.001a6.503 6.503 0 01-3.211-8.614 6.499 6.499 0 1111.823 5.397 6.51 6.51 0 01-8.612 3.218M3.8 96.415a6.502 6.502 0 015.398-11.828 6.5 6.5 0 013.214 8.611A6.51 6.51 0 013.8 96.416m21-.001a6.502 6.502 0 015.398-11.828 6.5 6.5 0 013.214 8.611 6.51 6.51 0 01-8.612 3.218m21-.001a6.502 6.502 0 015.398-11.828 6.5 6.5 0 013.214 8.611 6.51 6.51 0 01-8.612 3.218m21-.001a6.502 6.502 0 015.398-11.828 6.5 6.5 0 013.214 8.611 6.51 6.51 0 01-8.612 3.218m21-.001a6.502 6.502 0 015.398-11.828 6.5 6.5 0 013.214 8.611 6.51 6.51 0 01-8.612 3.218m21-.001a6.503 6.503 0 01-3.211-8.614 6.499 6.499 0 1111.823 5.397 6.51 6.51 0 01-8.612 3.218m21-.001a6.503 6.503 0 01-3.211-8.614 6.499 6.499 0 1111.823 5.397 6.51 6.51 0 01-8.612 3.218m21-.001a6.503 6.503 0 01-3.211-8.614 6.499 6.499 0 1111.823 5.397 6.51 6.51 0 01-8.612 3.218m-147 21a6.503 6.503 0 01-3.21-8.615 6.498 6.498 0 1111.822 5.397 6.51 6.51 0 01-8.612 3.218m21 0a6.503 6.503 0 01-3.21-8.615 6.498 6.498 0 1111.822 5.397 6.51 6.51 0 01-8.612 3.218m21 0a6.503 6.503 0 01-3.21-8.615 6.498 6.498 0 1111.822 5.397 6.51 6.51 0 01-8.612 3.218m21 0a6.503 6.503 0 01-3.21-8.615 6.498 6.498 0 1111.822 5.397 6.51 6.51 0 01-8.612 3.218m21 0a6.503 6.503 0 01-3.21-8.615 6.498 6.498 0 1111.822 5.397 6.51 6.51 0 01-8.612 3.218m21 0a6.503 6.503 0 01-3.211-8.615 6.498 6.498 0 1111.823 5.397 6.51 6.51 0 01-8.612 3.218m21 0a6.503 6.503 0 01-3.211-8.615 6.498 6.498 0 1111.823 5.397 6.51 6.51 0 01-8.612 3.218m21 0a6.503 6.503 0 01-3.211-8.615 6.498 6.498 0 1111.823 5.397 6.51 6.51 0 01-8.612 3.218m-147 21a6.503 6.503 0 01-3.21-8.615 6.498 6.498 0 1111.822 5.397 6.51 6.51 0 01-8.612 3.218m21 0a6.503 6.503 0 01-3.21-8.615 6.498 6.498 0 1111.822 5.397 6.51 6.51 0 01-8.612 3.218m21 0a6.503 6.503 0 01-3.21-8.615 6.498 6.498 0 1111.822 5.397 6.51 6.51 0 01-8.612 3.218m21 0a6.503 6.503 0 01-3.21-8.615 6.498 6.498 0 1111.822 5.397 6.51 6.51 0 01-8.612 3.218m21 0a6.503 6.503 0 01-3.21-8.615 6.498 6.498 0 1111.822 5.397 6.51 6.51 0 01-8.612 3.218m21 0a6.503 6.503 0 01-3.211-8.615 6.498 6.498 0 1111.823 5.397 6.51 6.51 0 01-8.612 3.218m21 0a6.503 6.503 0 01-3.211-8.615 6.498 6.498 0 1111.823 5.397 6.51 6.51 0 01-8.612 3.218m21 0a6.503 6.503 0 01-3.211-8.615 6.498 6.498 0 1111.823 5.397 6.51 6.51 0 01-8.612 3.218m-147 21a6.503 6.503 0 01-3.21-8.615 6.498 6.498 0 1111.822 5.397 6.51 6.51 0 01-8.612 3.218m21 0a6.503 6.503 0 01-3.21-8.615 6.498 6.498 0 1111.822 5.397 6.51 6.51 0 01-8.612 3.218m21 0a6.503 6.503 0 01-3.21-8.615 6.498 6.498 0 1111.822 5.397 6.51 6.51 0 01-8.612 3.218m21 0a6.503 6.503 0 01-3.21-8.615 6.498 6.498 0 1111.822 5.397 6.51 6.51 0 01-8.612 3.218m21 0a6.503 6.503 0 01-3.21-8.615 6.498 6.498 0 1111.822 5.397 6.51 6.51 0 01-8.612 3.218m21 0a6.503 6.503 0 01-3.211-8.615 6.498 6.498 0 1111.823 5.397 6.51 6.51 0 01-8.612 3.218m21 0a6.503 6.503 0 01-3.211-8.615 6.498 6.498 0 1111.823 5.397 6.51 6.51 0 01-8.612 3.218m21 0a6.503 6.503 0 01-3.211-8.615 6.498 6.498 0 1111.823 5.397 6.51 6.51 0 01-8.612 3.218m21-147.001a6.503 6.503 0 01-3.211-8.614 6.499 6.499 0 1111.823 5.397 6.51 6.51 0 01-8.612 3.217m21 0a6.503 6.503 0 01-3.211-8.614 6.499 6.499 0 1111.823 5.397 6.51 6.51 0 01-8.612 3.217m-21 21.001a6.503 6.503 0 01-3.211-8.615 6.499 6.499 0 1111.823 5.397 6.51 6.51 0 01-8.612 3.218m21 0a6.503 6.503 0 01-3.211-8.615 6.499 6.499 0 1111.823 5.397 6.51 6.51 0 01-8.612 3.218m-21 21a6.503 6.503 0 01-3.211-8.615 6.499 6.499 0 1111.823 5.397 6.51 6.51 0 01-8.612 3.218m21 0a6.503 6.503 0 01-3.211-8.615 6.499 6.499 0 1111.823 5.397 6.51 6.51 0 01-8.612 3.218m-21 20.999a6.503 6.503 0 01-3.211-8.614 6.499 6.499 0 1111.823 5.397 6.51 6.51 0 01-8.612 3.218m21-.001a6.503 6.503 0 01-3.211-8.614 6.499 6.499 0 1111.823 5.397 6.51 6.51 0 01-8.612 3.218m-21 20.999a6.503 6.503 0 01-3.211-8.614 6.499 6.499 0 1111.823 5.397 6.51 6.51 0 01-8.612 3.218m21-.001a6.503 6.503 0 01-3.211-8.614 6.499 6.499 0 1111.823 5.397 6.51 6.51 0 01-8.612 3.218m-21 21a6.503 6.503 0 01-3.211-8.615 6.498 6.498 0 1111.823 5.397 6.51 6.51 0 01-8.612 3.218m21 0a6.503 6.503 0 01-3.211-8.615 6.498 6.498 0 1111.823 5.397 6.51 6.51 0 01-8.612 3.218m-21 21a6.503 6.503 0 01-3.211-8.615 6.498 6.498 0 1111.823 5.397 6.51 6.51 0 01-8.612 3.218m21 0a6.503 6.503 0 01-3.211-8.615 6.498 6.498 0 1111.823 5.397 6.51 6.51 0 01-8.612 3.218m-21 21a6.503 6.503 0 01-3.211-8.615 6.498 6.498 0 1111.823 5.397 6.51 6.51 0 01-8.612 3.218m21 0a6.503 6.503 0 01-3.211-8.615 6.498 6.498 0 1111.823 5.397 6.51 6.51 0 01-8.612 3.218" fill="#4BB8DB" fill-rule="evenodd"/></svg>