<svg width="147.636" height="40" xmlns:xlink="http://www.w3.org/1999/xlink" xmlns="http://www.w3.org/2000/svg"><defs><clipPath id="c"><use xlink:href="#a"/></clipPath><clipPath id="d"><use xlink:href="#b"/></clipPath><path d="M0 0h26.91v24H0V0z" id="a"/><path d="M0 0h69.09v21.818H0V0z" id="b"/></defs><path d="M9.217 13.81a1.091 1.091 0 11-.252-2.167 1.091 1.091 0 01.252 2.168" fill="#4BB8DB" fill-rule="evenodd"/><path d="M2.03 12.351a1.818 1.818 0 11-.423-3.611 1.818 1.818 0 01.422 3.611" fill="#B18DC0" fill-rule="evenodd"/><path d="M4.6 18.19a1.09 1.09 0 11.254 2.166 1.09 1.09 0 11-.254-2.167" fill="#2A307E" fill-rule="evenodd"/><path d="M12.177 3.802l.305 1.268-.846.977 1.27.098.642 1.128.482-1.212 1.243-.279-.972-.844.126-1.302-1.083.69-1.167-.524zM14.055 24.2L16 23.475l-1.77-1.074-.1-2.037-1.588 1.318-2.008-.535.787 1.889-1.14 1.707 2.075-.151 1.305 1.59.494-1.982z" fill="#EFCEDC" fill-rule="evenodd"/><path d="M127.574 18.91a1.09 1.09 0 11.124 2.18 1.09 1.09 0 01-.124-2.18" fill="#4BB8DB" fill-rule="evenodd"/><path d="M145.713 12.367a1.817 1.817 0 11.21 3.63 1.818 1.818 0 11-.21-3.63" fill="#B18DC0" fill-rule="evenodd"/><path d="M134.119 11.638a1.09 1.09 0 11-1.026 1.152 1.09 1.09 0 011.026-1.152" fill="#2A307E" fill-rule="evenodd"/><path d="M137.394 19.666l.231 1.307-.898.939 1.258.176.576 1.185.548-1.2 1.255-.207-.92-.917.199-1.313-1.117.633-1.132-.603z" fill="#B18DC0" fill-rule="evenodd"/><path d="M137.963 4.146L136 4.762l1.683 1.183L137.661 8l1.647-1.233 1.949.654-.665-1.945 1.226-1.65-2.056.031-1.194-1.675-.605 1.964z" fill="#EFCEDC" fill-rule="evenodd"/><path d="M40.42 11.602a2.088 2.088 0 00-.805-.868c-.439-.252-.96-.32-1.468-.37-2.585-.262-5.204-.18-7.797-.07-.74.027-1.476.052-2.227.112-.733.057-1.445.22-2.166.334a5.861 5.861 0 00-.557-.013c-.22 0-.489.048-.654.066l-.336.042c.21-.295.43-.584.677-.849a8.5 8.5 0 011.897-1.584 8.99 8.99 0 012.293-1c.404-.121.822-.206 1.241-.28l.616-.086c.125.28.19.495.401.908.246.481.75.799 1.298.83.463.026.92-.117 1.34-.305a6.26 6.26 0 001.652-1.073c.244-.22.48-.476.556-.791.077-.318-.017-.65-.11-.963l-.48-1.612c-.242-.812-.495-1.576-1.441-1.765-.798-.168-1.518-.044-2.193.044a21.03 21.03 0 00-4.022.975 16.914 16.914 0 00-6.818 4.432 18.629 18.629 0 00-2.381 3.26c-.324.59-.655 1.193-.747 1.911-.035.379.057.72.18 1.055.13.334.348.65.648.877.607.466 1.381.548 2.077.528l2.044-.132 4.063-.251c1.352-.1 2.703-.11 4.047-.1.67.015 1.34.03 1.96.136.317.052.626.122.906.212.274.086.528.23.595.336.02.024.024.043.03.06.004.008 0 .018.006.027l.004.085c.001.12-.014.252-.04.388a4.476 4.476 0 01-.27.841 4.818 4.818 0 01-.97 1.503c-.416.44-.91.785-1.472 1.09-.565.308-1.154.57-1.765.772-1.214.397-2.528.6-3.811.532-1.274-.058-2.523-.448-3.524-1.23L21.87 18.55l-.039-.042c-.48-.428-1.192-.592-1.795-.486-.302.043-.639.142-.896.388-.261.248-.354.605-.347.903.075 1.177.636 2.206 1.391 3.033.378.415.8.786 1.254 1.111.448.328.924.635 1.44.864 1.044.483 2.229.457 3.33.316 2.933-.329 5.743-1.435 8.2-3.04 1.222-.812 2.387-1.72 3.405-2.793 1.019-1.066 1.892-2.303 2.446-3.7.307-.774.527-1.626.456-2.463a2.794 2.794 0 00-.294-1.04" fill="#B18DC0" fill-rule="evenodd"/><path d="M40.727 0h26.91v24h-26.91V0z" fill="none"/><g clip-path="url(#c)" transform="translate(40.727)"><path d="M26.117 1.185C25.71.71 25.195.225 24.432.048c-.362-.079-.8-.076-1.202.122a1.86 1.86 0 00-.497.357c-.124.121-.24.25-.342.389-.399.537-.611 1.152-.731 1.75a876.354 876.354 0 00-2.811 8.82 54.021 54.021 0 00-.527-1.203c-.422-.929-.863-1.865-1.254-2.78-.396-.931-.82-1.819-1.194-2.786a9.534 9.534 0 00-.32-.753 1.96 1.96 0 00-.7-.79 1.883 1.883 0 00-1.022-.292 2.57 2.57 0 00-.954.192c-.61.252-1.05.72-1.365 1.193-.32.478-.541.984-.72 1.49l-.979 2.91c-.328.965-.657 1.93-.905 2.93l-.533 1.963a162.55 162.55 0 01-1.53-3.71C6.214 8.297 5.598 6.7 4.988 5.124c-.323-.781-.714-1.558-1.316-2.222a1.82 1.82 0 00-.567-.414.967.967 0 00-.379-.078c-.132 0-.232.02-.348.043-.449.09-.854.315-1.197.591a4.294 4.294 0 00-.893.974 1.831 1.831 0 00-.27.653c-.047.252.004.505.069.718.136.437.357.82.585 1.18l.668 1.054c1.133 2.36 2.068 4.817 2.951 7.287.464 1.296.875 2.61 1.327 3.91.456 1.307.747 2.703 1.378 3.94.205.403.465.8.854 1.027.426.248.954.257 1.433.144.471-.11.92-.318 1.218-.715.235-.312.375-.686.487-1.06.508-1.715.706-3.532 1.147-5.27a115.11 115.11 0 011.597-5.663c.393.713.786 1.427 1.152 2.15.511.906.878 1.88 1.278 2.84l1.177 2.895c.204.48.42.96.696 1.409.139.224.29.443.478.634.184.186.426.365.72.359.561-.011 1.185-.188 1.543-.68.181-.237.284-.52.346-.803l.176-.83c.247-1.103.53-2.197.83-3.285.636-2.165 1.312-4.328 2.146-6.415l1.223-3.133.152-.39.196-.375.392-.746a10.248 10.248 0 00.548-1.207c.046-.153.126-.29.124-.602-.032-.773-.403-1.361-.792-1.858" fill="#4BB8DB" fill-rule="evenodd"/></g><path d="M89.078 8.783c-.294-.282-.657-.463-1.02-.617a8.698 8.698 0 00-2.309-.551 37.526 37.526 0 00-2.36-.083 44.227 44.227 0 00-8.7.868c.049-.721.096-1.443.137-2.163 1.292-.436 2.6-.846 3.887-1.064 1.415-.199 2.95-.237 4.444-.299.37-.019.747-.014 1.185-.065.423-.057.871-.124 1.358-.416a1.57 1.57 0 00.62-.693c.392-.917-.192-1.906-.913-2.49-.788-.638-1.801-.968-2.818-1.098-2.18-.28-4.565 0-6.7.457-.89.19-1.77.432-2.632.723-.775.261-1.712.483-2.415.884-.398.214-.8.624-.951 1.1-.147.47-.143.868-.133 1.265l.053 1.103c.057 1.387.101 2.759.33 4.174-.251.13-.493.301-.687.54a1.666 1.666 0 00-.36 1.148c.012.378.138.785.392 1.1a2.2 2.2 0 00.756.588c.063 1.555.097 3.103.188 4.672.078.807.117 1.636.45 2.441.17.394.43.776.8 1.042.362.268.826.414 1.25.427 3.37.166 6.696-.16 9.979-.868a24.051 24.051 0 002.427-.685l.596-.214c.19-.075.4-.145.617-.262.422-.224.772-.53 1.072-.872.301-.348.566-.807.604-1.339.027-.264-.037-.628-.261-.89-.218-.265-.5-.395-.748-.477-.506-.155-.953-.164-1.412-.15a4.71 4.71 0 00-.686.08l-.611.107c-1.629.279-3.251.607-4.876.897-1.484.218-2.991.438-4.454.521a47.56 47.56 0 01-.626-4.965c1.971-.615 4.002-1.073 6.052-1.429a63.8 63.8 0 016.476-.704 9.278 9.278 0 001.173-.128c.379-.084.8-.156 1.093-.49.259-.406.014-.856-.267-1.125" fill="#EFCEDC" fill-rule="evenodd"/><path d="M110.97 10.1l-.011-.014c-.275-.323-.669-.525-1.063-.69-2.039-.848-4.291-.913-6.471-.911-1.108 0-2.211.008-3.319.082-.318.022-3.43.184-3.452.37.082-.666.16-1.332.237-1.998.007-.057.016-.118.055-.16a.273.273 0 01.12-.06c2.335-.703 4.595-.933 7.026-.9 1.005.013 2.145.2 3.12-.078.693-.197 1.34-.724 1.451-1.428.068-.43-.07-.872-.287-1.252-.512-.898-1.446-1.506-2.438-1.828-2.378-.773-5.299-.53-7.725-.13-.911.15-1.813.354-2.7.611-.748.216-1.64.373-2.33.722-.41.194-.832.585-1.011 1.058-.174.467-.193.87-.206 1.271l-.01 1.119c-.021 1.404-.056 2.793.09 4.236a2.136 2.136 0 00-.713.508 1.71 1.71 0 00-.423 1.14c-.01.384.092.801.327 1.133.192.277.45.48.719.636-.026 1.575-.08 3.141-.078 4.732.032.82.024 1.66.31 2.492.147.408.384.807.738 1.096.346.29.8.462 1.221.498 3.345.351 6.673.204 9.981-.333a23.854 23.854 0 002.455-.558l.605-.184c.193-.066.406-.125.63-.233a3.797 3.797 0 001.115-.822c.32-.335.609-.785.677-1.32.041-.268-.003-.639-.213-.915-.203-.278-.476-.425-.717-.521-.495-.183-.939-.217-1.396-.228a4.65 4.65 0 00-.687.043l-.614.076c-1.638.192-3.271.435-4.904.64-1.49.138-3.003.278-4.464.283a48.844 48.844 0 01-.34-5.05c1.997-.515 4.044-.866 6.106-1.115 2.152-.24 4.319-.34 6.486-.356.391 0 .784-.015 1.175-.066.915-.117 1.675-.701.928-1.597" fill="#4BB8DB" fill-rule="evenodd"/><path d="M117.106 24.019v-.002l-.003-.009.003.01zm13.333-17.663c-.54-.625-1.402-1.043-2.115-1.364-1.279-.574-2.679-.86-4.068-1.046a34.916 34.916 0 00-6.487-.26c-1.628.086-3.92.227-5.109 1.463-.443.458-.652 1.084-.66 1.652-.01.594.178 1.132.418 1.59l.012.023.021.033c.379.592 1.086 1.014 1.75 1.123.083.016.166.028.248.039l.123.013c.058.004.122.007.167.006.194-.004.34-.023.49-.043.295-.042.571-.094.846-.15a55.7 55.7 0 001.621-.36c.26-.062.52-.128.785-.202l-.187 3.057-.193 3.968-.211 3.963-.13 1.98-.047.992-.022.497-.009.251-.001.129c.006.058-.012.055.021.187.047.181.17.336.307.433.145.104.299.169.452.219.309.093.604.141.921.17.631.043 1.245-.077 1.833-.25.296-.099.598-.186.896-.45a.8.8 0 00.193-.274c.051-.137.049-.216.062-.289a5.13 5.13 0 00.03-.456c.009-.296-.008-.604-.02-.884l-.032-.805v-.035c-.005-1.106.049-2.21.117-3.312a91.48 91.48 0 01.263-3.304l.163-1.652c.09-.546.153-1.096.231-1.644.137-1.011.244-2.029.363-3.048l3.665.116c.994.031 2.023.167 2.992-.12.189-.055.378-.13.519-.264.288-.27.311-.727.162-1.088a2.217 2.217 0 00-.38-.604" fill="#B18DC0" fill-rule="evenodd"/><path d="M65.444 24.674c1.075-.452.92-2.528-.108-3.25-.537-.357-1.243-.492-1.711-.076-.338.37-.37.708-.346 1.386.025.73 1.17 2.303 2.164 1.94" fill="#2A307E" fill-rule="evenodd"/><path d="M43.636 18.182h69.091V40h-69.09V18.182z" fill="none"/><g clip-path="url(#d)" transform="translate(43.636 18.182)"><path d="M56.867 10.655c-.004-.51 1.01-1.382 2.03-1.361 1.131.018 1.244.583 1.273.76.14.696-2.006 1.083-3.27 1.347-.057-.298-.03-.354-.033-.746M45.244 6.008c1.303-1.34 3.242-3.24 5.049-3.05.305.029.5.213.532.505.144 1.119-6.52 6.35-8.19 7.756.357-1.424 1.656-4.276 2.609-5.211M29.44 5.66c1.275-1.683 3.175-4.11 4.985-3.97.306.02.506.24.543.601.164 1.425-6.391 8.097-8.03 9.794.327-1.736 1.568-5.245 2.502-6.425m38.057 6.269c-1.516.584-2.945 1.134-6.022 1.325-2.061.15-3.6.004-4.074-1.035 1.591-.368 4.398-.792 4.395-2.127-.002-1.103-1.496-1.655-2.627-1.675-1.988-.053-3.747.905-3.874 1.994-.05.652-.101 1.02.068 1.531-.188.095-6.546 2.355-8.383 2.473-3.756.216-4.048-.705-4.181-1.859 2.503-2.309 9.7-7.21 9.682-9.733-.007-.725-.622-1.081-1.485-1.184-2.531-.317-5.28 1.576-7.145 3.885-1.3 1.557-2.383 5.185-2.685 6.493-.689.462-7.99 3.76-9.823 3.917-3.747.295-4.059-.824-4.214-2.225 2.452-2.8 9.548-9.1 9.482-12.297-.022-.905-.644-1.316-1.508-1.395-2.538-.25-5.248 2.226-7.066 5.102-1.267 1.948-2.276 6.373-2.55 7.96-1.149.962-2.453 1.783-3.7 2.61-1.214.807-3.505 2.79-4.97 1.504-.44-.387-.622-.994-.685-1.578-.171-1.582.441-2.984 1.36-4.23.659-.893 1.61-1.656 1.677-2.845.013-.224.056-.546-.147-.643-.71-.34-1.32-.075-1.824.434a2.018 2.018 0 00-.316.178c-1.234.879-3.142.524-4.504-.235-.04-.548-.232-1.06-.853-1.158-.49-.076-2.463.195-2.305 1 .07.348.556.64.988.848.05.975-.313 1.723-.717 2.592-.872 1.873-1.816 3.691-3.13 5.295-.915 1.117-1.903 2.364-3.032 3.267-.119.095-.258.19-.41.17-.467-.059-.09-1.607-.043-1.89.282-1.68.735-3.339 1.223-4.97.188-.63.382-1.258.601-1.878.17-.48.571-1.12.37-1.631-.307-.783-1.72-.435-2.283-.278-.975.273-1.981.77-2.689 1.51-.342.357.301.404.524.395.93-.037 2.464-1.134 2.191-.272-.445 1.405-.958 2.78-1.34 4.205-.379 1.415-.746 2.86-.885 4.32-.087.911.074 2.019 1.31 1.675.046-.013.095-.028.14-.013.044.016.073.058.103.095.75.91 2.642-.804 3.197-1.262 2.296-1.895 4.99-6.361 5.934-8.328.358-.745.762-1.474.97-2.265 1.325.316 2.73.32 4.038-.03-.263.516-.466 1.03-.605 1.392-1.121 2.94-2.29 8.72 2.62 7.966 1.442-.234 6.686-3.83 7.274-4.293.7 1.226.328 3.263 6.331 2.472 1.52-.203 8.724-3.445 9.321-3.821.681 1.018.274 2.693 6.296 2.065 1.579-.167 7.515-2.214 8.43-2.68.75 1.01 2.07 1.506 5.035 1.287 3.624-.256 5.273-.835 7.476-1.629.441-.164.827-.466.526-.638-.33-.185-1.047-.012-1.487.137z" fill="#2A307E" fill-rule="evenodd"/></g></svg>