<svg xmlns="http://www.w3.org/2000/svg" viewBox="0 0 52 49"><g data-name="Слой 2"><g data-name="Слой 1"><rect width="52" height="49" rx="8" fill="#00badf"/><path d="M26.61 9.9a27.42 27.42 0 0114.28 3.77V20a12.4 12.4 0 00-8.26-2.68c-4.54 0-8.86 2-8.86 7.26 0 5 4.14 7.26 8.86 7.26a12 12 0 008.26-2.74v6.55a27.42 27.42 0 01-14.28 3.77c-10 0-18.71-4.59-18.71-14.77C7.9 14 17 9.9 26.61 9.9zm19.54 10.8H36v3.09h2.17v4.7H44v-4.7h2.17V20.7zm-12.87-9.23c.74.18 1.46.38 2.18.61a28.62 28.62 0 012.83 1.11c.61.29 1.2.6 1.79.94v4.28l-.88-.49-1.05-.45L37 17.1l-1.19-.28-1.25-.19-1.29-.09h-1.08a16.39 16.39 0 00-2.21.23c-.43.08-.85.18-1.27.3s-.81.28-1.21.44l-.75.38c-.37.22-.71.45-1.06.7l-.63.56-.56.64-.49.71-.41.79-.31.86-.21.93-.11 1v1l.11 1 .2.9.3.84.39.78.48.71.55.64.62.57a10.59 10.59 0 001 .71 12.12 12.12 0 001.14.57c.41.16.82.3 1.24.42s.86.21 1.31.28.9.12 1.36.15h.93c.65 0 1.29 0 1.94-.1l1.23-.18 1.23-.26 1.12-.37 1-.46.92-.52v4.45a26.81 26.81 0 01-2.57 1.29c-.81.33-1.63.63-2.47.9s-1.76.48-2.66.66-1.87.32-2.82.42-1.63.12-2.45.14-1.53 0-2.31 0L23 38.41l-1.71-.26-1.65-.37-1.56-.48-.71-.3-.73-.31-.71-.34-.68-.35-.65-.39-.6-.4-.59-.45-.57-.46-.53-.5-.5-.53-.46-.55-.43-.58-.4-.61-.36-.64-.32-.66-.29-.7-.24-.73-.22-.8-.16-.79-.12-.83-.07-.86v-1.83l.07-.9.12-.79.17-.82.21-.78.26-.75.29-.71.33-.68.37-.64L11 17l.44-.58.48-.55.51-.52.54-.49.57-.46.6-.43.63-.41.66-.37.68-.35.71-.32.73-.29 1.53-.51 1.59-.39L22.3 11l1.7-.19 1.74-.1h1.37A33.62 33.62 0 0131 11c.77.12 1.53.27 2.29.44zM45.34 23h-2.18v4.7H39V23h-2.21v-1.48h8.55V23zm-28.55-6.59a5.35 5.35 0 010 10.7 5.5 5.5 0 01-1-.09v-3.08a2.4 2.4 0 10-1.39-2.18V33.1a5.17 5.17 0 01-2.94-2.51v-8.83a5.36 5.36 0 015.35-5.35z" fill="#fff" fill-rule="evenodd"/></g></g></svg>