<svg width="52.216" height="49.216" xmlns="http://www.w3.org/2000/svg"><defs><filter id="a"><feColorMatrix in="SourceGraphic" values="0 0 0 0 1 0 0 0 0 1 0 0 0 0 1 0 0 0 1 0"/></filter></defs><path d="M8.107.108h36.002q.196 0 .393.01.196.01.391.028.196.02.39.049.194.028.387.067.192.038.383.086.19.047.378.104.188.057.373.124.185.066.366.14.182.076.359.16.178.084.35.176.174.093.342.194.169.101.332.21.163.11.321.226.158.117.31.242.151.124.297.256.145.132.284.27.139.14.27.285.133.146.257.297.125.152.242.31.117.158.226.321t.21.332q.1.168.194.341.092.173.176.351.084.177.16.359.074.181.14.366.067.185.124.373.057.188.104.378.048.19.086.383.039.193.067.387.03.195.049.39.019.195.028.391.01.197.01.393v33.002q0 .196-.01.392-.01.197-.028.392-.02.195-.049.39-.028.194-.067.386-.038.193-.086.384-.047.19-.104.378-.057.188-.124.373-.066.185-.14.366-.076.181-.16.359-.084.177-.176.35-.093.174-.194.342-.101.169-.21.332-.11.163-.226.321-.117.158-.242.31-.124.151-.256.297-.132.145-.27.284-.14.139-.285.27-.146.133-.297.257-.152.125-.31.242-.158.117-.321.226t-.332.21q-.168.1-.341.193-.173.093-.351.177-.177.084-.359.16-.181.074-.366.14-.185.067-.373.124-.188.057-.378.104-.19.048-.383.086-.193.039-.387.067-.194.03-.39.048-.195.02-.391.03-.197.009-.393.009H8.107q-.196 0-.392-.01-.197-.01-.392-.029-.195-.019-.39-.048-.194-.028-.386-.067-.193-.038-.384-.086-.19-.047-.378-.104-.188-.057-.373-.124-.185-.066-.366-.14-.181-.076-.359-.16-.177-.084-.35-.177-.174-.092-.342-.193-.169-.101-.332-.21-.163-.11-.321-.226-.158-.117-.31-.242-.151-.124-.297-.256-.145-.132-.284-.27-.139-.14-.27-.285-.133-.146-.257-.298-.125-.151-.242-.309-.117-.158-.226-.321t-.21-.332q-.1-.168-.193-.341-.093-.174-.177-.351-.084-.178-.16-.359-.074-.181-.14-.366-.067-.185-.124-.373-.057-.188-.104-.378-.048-.19-.086-.384-.039-.192-.067-.386-.03-.195-.048-.39-.02-.195-.03-.392-.009-.196-.009-.392V8.107q0-.196.01-.393.01-.196.029-.391.019-.195.048-.39.028-.194.067-.387.038-.192.086-.383.047-.19.104-.378.057-.188.124-.373.066-.185.14-.366.076-.182.16-.359.084-.178.177-.35.092-.174.193-.342.101-.169.21-.332.11-.163.226-.321.117-.158.242-.31.124-.151.256-.297.132-.145.27-.284.14-.139.285-.27.146-.133.298-.257.151-.125.309-.242.158-.117.321-.226t.332-.21q.168-.1.341-.194.174-.092.351-.176.178-.084.359-.16.181-.074.366-.14.185-.067.373-.124.188-.057.378-.104.19-.048.384-.086.192-.039.386-.067.195-.03.39-.049.195-.019.392-.028.196-.01.392-.01z" fill="#00BADF" fill-rule="evenodd"/><g transform="translate(7.108 10.108)" filter="url(#a)"><path d="M3.747 20.5c0 1.511 1.27 2.718 2.756 2.756V12.002A2.499 2.499 0 019.005 9.5a2.499 2.499 0 012.502 2.502 2.499 2.499 0 01-2.502 2.503c-.457 0-.889-.115-1.257-.318v2.934c.406.089.825.14 1.257.14a5.253 5.253 0 005.258-5.258 5.252 5.252 0 00-5.258-5.259 5.253 5.253 0 00-5.258 5.258V20.5zm31.257-7v4.484H31.5V13.5h-2.502v-1.498h8.51V13.5h-2.503zm.75.75v4.483h-5.005V14.25h-2.502v-2.998h10.009v2.998h-2.502zm-12.498 9.005C18.709 23.256 15 19.547 15 15c0-4.547 3.709-8.256 8.256-8.256 3.15 0 6.465.864 9.246 2.337V4.433C28.234 2.045 23.13.749 18.252.749c-2.515 0-5.144.458-7.558 1.118C4.864 3.557.75 8.942.75 15c0 6.058 4.116 11.444 9.945 13.133 2.413.66 5.043 1.118 7.557 1.118 4.878 0 9.97-1.27 14.251-3.658v-4.7c-2.781 1.499-6.096 2.363-9.246 2.363zm9.995-3.76c-3.022 1.855-6.528 2.998-9.995 2.998-4.14.012-7.507-3.353-7.507-7.494 0-4.14 3.366-7.506 7.507-7.494 3.467 0 6.96 1.156 9.995 3.01V3.989C28.794 1.41 23.409 0 18.252 0c-2.578 0-5.27.47-7.71 1.143C4.459 2.87 0 8.6 0 15c0 6.401 4.458 12.13 10.542 13.857C12.98 29.53 15.673 30 18.252 30c5.156 0 10.541-1.41 15-4v-6.504z" fill="#1A1919" fill-rule="evenodd"/><path d="M3.747 20.5c0 1.511 1.27 2.718 2.756 2.756V12.002A2.499 2.499 0 019.005 9.5a2.499 2.499 0 012.502 2.502 2.499 2.499 0 01-2.502 2.503c-.457 0-.889-.115-1.257-.318v2.934c.406.089.825.14 1.257.14a5.253 5.253 0 005.258-5.258 5.252 5.252 0 00-5.258-5.259 5.253 5.253 0 00-5.258 5.258V20.5zm31.257-7v4.484H31.5V13.5h-2.502v-1.498h8.51V13.5h-2.503zm.75.75v4.483h-5.005V14.25h-2.502v-2.998h10.009v2.998h-2.502zm-12.498 9.005C18.709 23.256 15 19.547 15 15c0-4.547 3.709-8.256 8.256-8.256 3.15 0 6.465.864 9.246 2.337V4.433C28.234 2.045 23.13.749 18.252.749c-2.515 0-5.144.458-7.558 1.118C4.864 3.557.75 8.942.75 15c0 6.058 4.116 11.444 9.945 13.133 2.413.66 5.043 1.118 7.557 1.118 4.878 0 9.97-1.27 14.251-3.658v-4.7c-2.781 1.499-6.096 2.363-9.246 2.363zm9.995 2.743v-6.503c-3.022 1.855-6.528 2.998-9.995 2.998-4.14.012-7.507-3.353-7.507-7.494 0-4.14 3.366-7.506 7.507-7.494 3.467 0 6.96 1.156 9.995 3.01V3.989C28.794 1.41 23.409 0 18.252 0c-2.578 0-5.27.47-7.71 1.143C4.459 2.87 0 8.6 0 15c0 6.401 4.458 12.13 10.542 13.857C12.98 29.53 15.673 30 18.252 30c5.156 0 10.541-1.41 15-4z" fill="none" stroke="#1A1919" stroke-width=".216"/></g></svg>