<?xml version="1.0" encoding="utf-8"?>
<svg width="52.216064px" height="49.216003px" viewBox="0 0 52.216064 49.216003" version="1.1" xmlns:xlink="http://www.w3.org/1999/xlink" xmlns="http://www.w3.org/2000/svg">
  <defs>
    <filter id="filter_1">
      <feColorMatrix in="SourceGraphic" type="matrix" values="0 0 0 0 1 0 0 0 0 1 0 0 0 0 1 0 0 0 1 0" />
    </filter>
  </defs>
  <g id="РСТ" transform="translate(0.10803223 0.10797119)">
    <path d="M7.999 0L44.001 0Q44.1974 0 44.3935 0.00963514Q44.5896 0.0192703 44.785 0.0385174Q44.9805 0.0577644 45.1747 0.0865771Q45.3689 0.11539 45.5615 0.153699Q45.7541 0.192007 45.9446 0.23972Q46.1351 0.287433 46.323 0.344434Q46.5109 0.401436 46.6958 0.467589Q46.8807 0.533742 47.0621 0.608888Q47.2435 0.684033 47.421 0.76799Q47.5985 0.851946 47.7717 0.944512Q47.9449 1.03708 48.1133 1.13803Q48.2817 1.23898 48.445 1.34807Q48.6083 1.45717 48.766 1.57414Q48.9237 1.69112 49.0755 1.81569Q49.2273 1.94026 49.3728 2.07213Q49.5183 2.204 49.6571 2.34285Q49.796 2.4817 49.9279 2.6272Q50.0597 2.7727 50.1843 2.92449Q50.3089 3.07628 50.4258 3.234Q50.5428 3.39172 50.6519 3.55499Q50.761 3.71826 50.862 3.88669Q50.9629 4.05512 51.0555 4.2283Q51.148 4.40148 51.232 4.57899Q51.316 4.7565 51.3911 4.93791Q51.4662 5.11933 51.5324 5.30422Q51.5986 5.4891 51.6556 5.67701Q51.7126 5.86492 51.7603 6.0554Q51.808 6.24588 51.8463 6.43847Q51.8846 6.63106 51.9134 6.8253Q51.9422 7.01954 51.9615 7.21496Q51.9807 7.41038 51.9904 7.60651Q52 7.80264 52 7.999L52 41.001Q52 41.1974 51.9904 41.3935Q51.9807 41.5896 51.9615 41.785Q51.9422 41.9805 51.9134 42.1747Q51.8846 42.3689 51.8463 42.5615Q51.808 42.7541 51.7603 42.9446Q51.7126 43.1351 51.6556 43.323Q51.5986 43.5109 51.5324 43.6958Q51.4662 43.8807 51.3911 44.0621Q51.316 44.2435 51.232 44.421Q51.148 44.5985 51.0555 44.7717Q50.9629 44.9449 50.862 45.1133Q50.761 45.2817 50.6519 45.445Q50.5428 45.6083 50.4258 45.766Q50.3089 45.9237 50.1843 46.0755Q50.0597 46.2273 49.9279 46.3728Q49.796 46.5183 49.6571 46.6571Q49.5183 46.796 49.3728 46.9279Q49.2273 47.0597 49.0755 47.1843Q48.9237 47.3089 48.766 47.4259Q48.6083 47.5428 48.445 47.6519Q48.2817 47.761 48.1133 47.862Q47.9449 47.9629 47.7717 48.0555Q47.5985 48.148 47.421 48.232Q47.2435 48.316 47.0621 48.3911Q46.8807 48.4663 46.6958 48.5324Q46.5109 48.5986 46.323 48.6556Q46.1351 48.7126 45.9446 48.7603Q45.7541 48.808 45.5615 48.8463Q45.3689 48.8846 45.1747 48.9134Q44.9805 48.9422 44.785 48.9615Q44.5896 48.9807 44.3935 48.9904Q44.1974 49 44.001 49L7.999 49Q7.80264 49 7.60651 48.9904Q7.41038 48.9807 7.21496 48.9615Q7.01954 48.9422 6.8253 48.9134Q6.63106 48.8846 6.43847 48.8463Q6.24588 48.808 6.0554 48.7603Q5.86492 48.7126 5.67701 48.6556Q5.4891 48.5986 5.30422 48.5324Q5.11933 48.4663 4.93791 48.3911Q4.7565 48.316 4.57899 48.232Q4.40148 48.148 4.2283 48.0555Q4.05512 47.9629 3.88669 47.862Q3.71826 47.761 3.55499 47.6519Q3.39172 47.5428 3.234 47.4258Q3.07628 47.3089 2.92449 47.1843Q2.7727 47.0597 2.6272 46.9279Q2.4817 46.796 2.34285 46.6571Q2.204 46.5183 2.07213 46.3728Q1.94026 46.2273 1.81569 46.0755Q1.69112 45.9237 1.57414 45.766Q1.45717 45.6083 1.34807 45.445Q1.23898 45.2817 1.13803 45.1133Q1.03708 44.9449 0.944512 44.7717Q0.851946 44.5985 0.76799 44.421Q0.684033 44.2435 0.608888 44.0621Q0.533742 43.8807 0.467589 43.6958Q0.401436 43.5109 0.344434 43.323Q0.287433 43.1351 0.23972 42.9446Q0.192007 42.7541 0.153699 42.5615Q0.11539 42.3689 0.0865771 42.1747Q0.0577644 41.9805 0.0385174 41.785Q0.0192703 41.5896 0.00963514 41.3935Q0 41.1974 0 41.001L0 7.999Q0 7.80264 0.00963514 7.60651Q0.0192703 7.41038 0.0385174 7.21496Q0.0577644 7.01954 0.0865771 6.8253Q0.11539 6.63106 0.153699 6.43847Q0.192007 6.24588 0.23972 6.0554Q0.287433 5.86492 0.344434 5.67701Q0.401436 5.4891 0.467589 5.30422Q0.533742 5.11933 0.608888 4.93791Q0.684033 4.7565 0.76799 4.57899Q0.851946 4.40148 0.944512 4.2283Q1.03708 4.05512 1.13803 3.88669Q1.23898 3.71826 1.34807 3.55499Q1.45717 3.39172 1.57414 3.234Q1.69112 3.07628 1.81569 2.92449Q1.94026 2.7727 2.07213 2.6272Q2.204 2.4817 2.34285 2.34285Q2.4817 2.204 2.6272 2.07213Q2.7727 1.94026 2.92449 1.81569Q3.07628 1.69112 3.234 1.57414Q3.39172 1.45717 3.55499 1.34807Q3.71826 1.23898 3.88669 1.13803Q4.05512 1.03708 4.2283 0.944512Q4.40148 0.851946 4.57899 0.76799Q4.7565 0.684033 4.93791 0.608888Q5.11933 0.533742 5.30422 0.467589Q5.4891 0.401436 5.67701 0.344434Q5.86492 0.287433 6.0554 0.23972Q6.24588 0.192007 6.43847 0.153699Q6.63106 0.11539 6.8253 0.0865771Q7.01954 0.0577644 7.21496 0.0385174Q7.41038 0.0192703 7.60651 0.00963514Q7.80264 0 7.999 0L7.999 0Z" id="Rectangle" fill="#00BADF" fill-rule="evenodd" stroke="none" />
    <g id="rost" transform="translate(7 10)" filter="url(#filter_1)">
      <path d="M3.74682 20.4996C3.74682 22.011 5.01693 23.2176 6.50296 23.2557C6.50296 23.1668 6.50296 12.0914 6.50296 12.0025C6.50296 10.618 7.62066 9.50042 9.00508 9.50042C10.3895 9.50042 11.5072 10.6181 11.5072 12.0025C11.5072 13.3869 10.3895 14.5047 9.00508 14.5047C8.54784 14.5046 8.116 14.3903 7.74767 14.1871L7.74767 17.121C8.15411 17.2099 8.57324 17.2608 9.00508 17.2608C11.9136 17.2608 14.2633 14.9111 14.2633 12.0025C14.2633 9.0939 11.9136 6.74428 9.00508 6.74428C6.09653 6.74428 3.74682 9.09399 3.74682 12.0025L3.74682 20.4996ZM35.0042 13.5013L35.0042 17.9848L31.4987 17.9848L31.4987 13.5013L28.9966 13.5013L28.9966 12.0025L37.5064 12.0025L37.5064 13.5013L35.0042 13.5013ZM35.7536 14.2506L35.7536 18.734L30.7494 18.734L30.7494 14.2506L28.2472 14.2506L28.2472 11.2532L38.2557 11.2532L38.2557 14.2506L35.7536 14.2506ZM23.2557 23.2557C18.7087 23.2557 15 19.547 15 15C15 10.453 18.7087 6.74428 23.2557 6.74428C26.4056 6.74428 29.7206 7.60796 32.5021 9.08129L32.5021 4.43268C28.2345 2.04479 23.1287 0.749365 18.2515 0.749365C15.7367 0.749277 13.1075 1.2066 10.6943 1.86706C4.86452 3.55631 0.749365 8.94158 0.749365 15C0.749365 21.0584 4.86452 26.4437 10.6943 28.1329C13.1075 28.7934 15.7367 29.2506 18.2515 29.2506C23.1287 29.2506 28.2218 27.9805 32.5021 25.5927L32.5021 20.8933C29.7206 22.392 26.4056 23.2557 23.2557 23.2557ZM33.2515 19.4962C30.2286 21.3505 26.7231 22.4937 23.2557 22.4937C19.1152 22.5063 15.7494 19.1406 15.7494 15C15.7494 10.8594 19.1152 7.49365 23.2557 7.50635C26.7231 7.50626 30.2159 8.66215 33.2515 10.5165L33.2515 3.98806C28.7934 1.40982 23.4081 0 18.2515 0C15.6732 0 12.9805 0.469941 10.5419 1.1431C4.45809 2.87045 0 8.59865 0 15C0 21.4014 4.45809 27.1296 10.5419 28.8569C12.9805 29.5301 15.6732 30 18.2515 30C23.4081 30 28.7934 28.5902 33.2515 25.9992L33.2515 19.4962Z" id="Fill-1" fill="#1A1919" fill-rule="evenodd" stroke="none" />
      <path d="M3.74682 20.4996C3.74682 22.011 5.01693 23.2176 6.50296 23.2557C6.50296 23.1668 6.50296 12.0914 6.50296 12.0025C6.50296 10.618 7.62066 9.50042 9.00508 9.50042C10.3895 9.50042 11.5072 10.6181 11.5072 12.0025C11.5072 13.3869 10.3895 14.5047 9.00508 14.5047C8.54784 14.5046 8.116 14.3903 7.74767 14.1871L7.74767 17.121C8.15411 17.2099 8.57324 17.2608 9.00508 17.2608C11.9136 17.2608 14.2633 14.9111 14.2633 12.0025C14.2633 9.0939 11.9136 6.74428 9.00508 6.74428C6.09653 6.74428 3.74682 9.09399 3.74682 12.0025L3.74682 20.4996ZM35.0042 13.5013L35.0042 17.9848L31.4987 17.9848L31.4987 13.5013L28.9966 13.5013L28.9966 12.0025L37.5064 12.0025L37.5064 13.5013L35.0042 13.5013ZM35.7536 14.2506L35.7536 18.734L30.7494 18.734L30.7494 14.2506L28.2472 14.2506L28.2472 11.2532L38.2557 11.2532L38.2557 14.2506L35.7536 14.2506ZM23.2557 23.2557C18.7087 23.2557 15 19.547 15 15C15 10.453 18.7087 6.74428 23.2557 6.74428C26.4056 6.74428 29.7206 7.60796 32.5021 9.08129L32.5021 4.43268C28.2345 2.04479 23.1287 0.749365 18.2515 0.749365C15.7367 0.749277 13.1075 1.2066 10.6943 1.86706C4.86452 3.55631 0.749365 8.94158 0.749365 15C0.749365 21.0584 4.86452 26.4437 10.6943 28.1329C13.1075 28.7934 15.7367 29.2506 18.2515 29.2506C23.1287 29.2506 28.2218 27.9805 32.5021 25.5927L32.5021 20.8933C29.7206 22.392 26.4056 23.2557 23.2557 23.2557ZM33.2515 25.9992L33.2515 19.4962C30.2286 21.3505 26.7231 22.4937 23.2557 22.4937C19.1152 22.5063 15.7494 19.1406 15.7494 15C15.7494 10.8594 19.1152 7.49365 23.2557 7.50635C26.7231 7.50626 30.2159 8.66215 33.2515 10.5165L33.2515 3.98806C28.7934 1.40982 23.4081 0 18.2515 0C15.6732 0 12.9805 0.469941 10.5419 1.1431C4.45809 2.87045 0 8.59865 0 15C0 21.4014 4.45809 27.1296 10.5419 28.8569C12.9805 29.5301 15.6732 30 18.2515 30C23.4081 30 28.7934 28.5902 33.2515 25.9992Z" id="Stroke-2" fill="none" fill-rule="evenodd" stroke="#1A1919" stroke-width="0.216" />
    </g>
  </g>
</svg>