<svg width="223.805" height="215.792" xmlns:xlink="http://www.w3.org/1999/xlink" xmlns="http://www.w3.org/2000/svg"><defs><clipPath id="b"><use xlink:href="#a"/></clipPath><path d="M0 0h20.805v19.792H0V0z" id="a"/></defs><path d="M116 0h20.805v19.792H116V0z" fill="none"/><g clip-path="url(#b)" transform="translate(116)"><path d="M3.955 19.772l6.429-3.368 6.418 3.388-1.202-7.158 5.205-5.058-7.19-1.06L10.419 0 7.186 6.501 0 7.533l5.19 5.082-1.235 7.157z" fill="#B88AC4" fill-rule="evenodd"/></g><path d="M145 0h20.805v19.792H145V0z" fill="none"/><g clip-path="url(#b)" transform="translate(145)"><path d="M3.955 19.772l6.429-3.368 6.418 3.388-1.202-7.158 5.205-5.058-7.19-1.06L10.419 0 7.186 6.501 0 7.533l5.19 5.082-1.235 7.157z" fill="#B88AC4" fill-rule="evenodd"/></g><path d="M116 28h20.805v19.792H116V28z" fill="none"/><g clip-path="url(#b)" transform="translate(116 28)"><path d="M3.955 19.772l6.429-3.368 6.418 3.388-1.202-7.158 5.205-5.058-7.19-1.06L10.419 0 7.186 6.501 0 7.533l5.19 5.082-1.235 7.157z" fill="#B88AC4" fill-rule="evenodd"/></g><path d="M145 28h20.805v19.792H145V28z" fill="none"/><g clip-path="url(#b)" transform="translate(145 28)"><path d="M3.955 19.772l6.429-3.368 6.418 3.388-1.202-7.158 5.205-5.058-7.19-1.06L10.419 0 7.186 6.501 0 7.533l5.19 5.082-1.235 7.157z" fill="#B88AC4" fill-rule="evenodd"/></g><path d="M174 0h20.805v19.792H174V0z" fill="none"/><g clip-path="url(#b)" transform="translate(174)"><path d="M3.955 19.772l6.429-3.368 6.418 3.388-1.202-7.158 5.205-5.058-7.19-1.06L10.419 0 7.186 6.501 0 7.533l5.19 5.082-1.235 7.157z" fill="#B88AC4" fill-rule="evenodd"/></g><path d="M203 0h20.805v19.792H203V0z" fill="none"/><g clip-path="url(#b)" transform="translate(203)"><path d="M3.955 19.772l6.429-3.368 6.418 3.388-1.202-7.158 5.205-5.058-7.19-1.06L10.419 0 7.186 6.501 0 7.533l5.19 5.082-1.235 7.157z" fill="#B88AC4" fill-rule="evenodd"/></g><path d="M174 28h20.805v19.792H174V28z" fill="none"/><g clip-path="url(#b)" transform="translate(174 28)"><path d="M3.955 19.772l6.429-3.368 6.418 3.388-1.202-7.158 5.205-5.058-7.19-1.06L10.419 0 7.186 6.501 0 7.533l5.19 5.082-1.235 7.157z" fill="#B88AC4" fill-rule="evenodd"/></g><path d="M203 28h20.805v19.792H203V28z" fill="none"/><g clip-path="url(#b)" transform="translate(203 28)"><path d="M3.955 19.772l6.429-3.368 6.418 3.388-1.202-7.158 5.205-5.058-7.19-1.06L10.419 0 7.186 6.501 0 7.533l5.19 5.082-1.235 7.157z" fill="#B88AC4" fill-rule="evenodd"/></g><path d="M116 56h20.805v19.792H116V56z" fill="none"/><g clip-path="url(#b)" transform="translate(116 56)"><path d="M3.955 19.772l6.429-3.368 6.418 3.388-1.202-7.158 5.205-5.058-7.19-1.06L10.419 0 7.186 6.501 0 7.533l5.19 5.082-1.235 7.157z" fill="#B88AC4" fill-rule="evenodd"/></g><path d="M145 56h20.805v19.792H145V56z" fill="none"/><g clip-path="url(#b)" transform="translate(145 56)"><path d="M3.955 19.772l6.429-3.368 6.418 3.388-1.202-7.158 5.205-5.058-7.19-1.06L10.419 0 7.186 6.501 0 7.533l5.19 5.082-1.235 7.157z" fill="#B88AC4" fill-rule="evenodd"/></g><path d="M116 84h20.805v19.792H116V84z" fill="none"/><g clip-path="url(#b)" transform="translate(116 84)"><path d="M3.955 19.772l6.429-3.368 6.418 3.388-1.202-7.158 5.205-5.058-7.19-1.06L10.419 0 7.186 6.501 0 7.533l5.19 5.082-1.235 7.157z" fill="#B88AC4" fill-rule="evenodd"/></g><path d="M145 84h20.805v19.792H145V84z" fill="none"/><g clip-path="url(#b)" transform="translate(145 84)"><path d="M3.955 19.772l6.429-3.368 6.418 3.388-1.202-7.158 5.205-5.058-7.19-1.06L10.419 0 7.186 6.501 0 7.533l5.19 5.082-1.235 7.157z" fill="#B88AC4" fill-rule="evenodd"/></g><path d="M174 56h20.805v19.792H174V56z" fill="none"/><g clip-path="url(#b)" transform="translate(174 56)"><path d="M3.955 19.772l6.429-3.368 6.418 3.388-1.202-7.158 5.205-5.058-7.19-1.06L10.419 0 7.186 6.501 0 7.533l5.19 5.082-1.235 7.157z" fill="#B88AC4" fill-rule="evenodd"/></g><path d="M203 56h20.805v19.792H203V56z" fill="none"/><g clip-path="url(#b)" transform="translate(203 56)"><path d="M3.955 19.772l6.429-3.368 6.418 3.388-1.202-7.158 5.205-5.058-7.19-1.06L10.419 0 7.186 6.501 0 7.533l5.19 5.082-1.235 7.157z" fill="#B88AC4" fill-rule="evenodd"/></g><path d="M174 84h20.805v19.792H174V84z" fill="none"/><g clip-path="url(#b)" transform="translate(174 84)"><path d="M3.955 19.772l6.429-3.368 6.418 3.388-1.202-7.158 5.205-5.058-7.19-1.06L10.419 0 7.186 6.501 0 7.533l5.19 5.082-1.235 7.157z" fill="#B88AC4" fill-rule="evenodd"/></g><path d="M203 84h20.805v19.792H203V84z" fill="none"/><g clip-path="url(#b)" transform="translate(203 84)"><path d="M3.955 19.772l6.429-3.368 6.418 3.388-1.202-7.158 5.205-5.058-7.19-1.06L10.419 0 7.186 6.501 0 7.533l5.19 5.082-1.235 7.157z" fill="#B88AC4" fill-rule="evenodd"/></g><path d="M0 0h20.805v19.792H0V0z" fill="none"/><g clip-path="url(#b)"><path d="M3.955 19.772l6.429-3.368 6.418 3.388-1.202-7.158 5.205-5.058-7.19-1.06L10.419 0 7.186 6.501 0 7.533l5.19 5.082-1.235 7.157z" fill="#B88AC4" fill-rule="evenodd"/></g><path d="M29 0h20.805v19.792H29V0z" fill="none"/><g clip-path="url(#b)" transform="translate(29)"><path d="M3.955 19.772l6.429-3.368 6.418 3.388-1.202-7.158 5.205-5.058-7.19-1.06L10.419 0 7.186 6.501 0 7.533l5.19 5.082-1.235 7.157z" fill="#B88AC4" fill-rule="evenodd"/></g><path d="M0 28h20.805v19.792H0V28z" fill="none"/><g clip-path="url(#b)" transform="translate(0 28)"><path d="M3.955 19.772l6.429-3.368 6.418 3.388-1.202-7.158 5.205-5.058-7.19-1.06L10.419 0 7.186 6.501 0 7.533l5.19 5.082-1.235 7.157z" fill="#B88AC4" fill-rule="evenodd"/></g><path d="M29 28h20.805v19.792H29V28z" fill="none"/><g clip-path="url(#b)" transform="translate(29 28)"><path d="M3.955 19.772l6.429-3.368 6.418 3.388-1.202-7.158 5.205-5.058-7.19-1.06L10.419 0 7.186 6.501 0 7.533l5.19 5.082-1.235 7.157z" fill="#B88AC4" fill-rule="evenodd"/></g><path d="M58 0h20.805v19.792H58V0z" fill="none"/><g clip-path="url(#b)" transform="translate(58)"><path d="M3.955 19.772l6.429-3.368 6.418 3.388-1.202-7.158 5.205-5.058-7.19-1.06L10.419 0 7.186 6.501 0 7.533l5.19 5.082-1.235 7.157z" fill="#B88AC4" fill-rule="evenodd"/></g><path d="M87 0h20.805v19.792H87V0z" fill="none"/><g clip-path="url(#b)" transform="translate(87)"><path d="M3.955 19.772l6.429-3.368 6.418 3.388-1.202-7.158 5.205-5.058-7.19-1.06L10.419 0 7.186 6.501 0 7.533l5.19 5.082-1.235 7.157z" fill="#B88AC4" fill-rule="evenodd"/></g><path d="M58 28h20.805v19.792H58V28z" fill="none"/><g clip-path="url(#b)" transform="translate(58 28)"><path d="M3.955 19.772l6.429-3.368 6.418 3.388-1.202-7.158 5.205-5.058-7.19-1.06L10.419 0 7.186 6.501 0 7.533l5.19 5.082-1.235 7.157z" fill="#B88AC4" fill-rule="evenodd"/></g><path d="M87 28h20.805v19.792H87V28z" fill="none"/><g clip-path="url(#b)" transform="translate(87 28)"><path d="M3.955 19.772l6.429-3.368 6.418 3.388-1.202-7.158 5.205-5.058-7.19-1.06L10.419 0 7.186 6.501 0 7.533l5.19 5.082-1.235 7.157z" fill="#B88AC4" fill-rule="evenodd"/></g><path d="M0 56h20.805v19.792H0V56z" fill="none"/><g clip-path="url(#b)" transform="translate(0 56)"><path d="M3.955 19.772l6.429-3.368 6.418 3.388-1.202-7.158 5.205-5.058-7.19-1.06L10.419 0 7.186 6.501 0 7.533l5.19 5.082-1.235 7.157z" fill="#B88AC4" fill-rule="evenodd"/></g><path d="M29 56h20.805v19.792H29V56z" fill="none"/><g clip-path="url(#b)" transform="translate(29 56)"><path d="M3.955 19.772l6.429-3.368 6.418 3.388-1.202-7.158 5.205-5.058-7.19-1.06L10.419 0 7.186 6.501 0 7.533l5.19 5.082-1.235 7.157z" fill="#B88AC4" fill-rule="evenodd"/></g><path d="M0 84h20.805v19.792H0V84z" fill="none"/><g clip-path="url(#b)" transform="translate(0 84)"><path d="M3.955 19.772l6.429-3.368 6.418 3.388-1.202-7.158 5.205-5.058-7.19-1.06L10.419 0 7.186 6.501 0 7.533l5.19 5.082-1.235 7.157z" fill="#B88AC4" fill-rule="evenodd"/></g><path d="M29 84h20.805v19.792H29V84z" fill="none"/><g clip-path="url(#b)" transform="translate(29 84)"><path d="M3.955 19.772l6.429-3.368 6.418 3.388-1.202-7.158 5.205-5.058-7.19-1.06L10.419 0 7.186 6.501 0 7.533l5.19 5.082-1.235 7.157z" fill="#B88AC4" fill-rule="evenodd"/></g><path d="M58 56h20.805v19.792H58V56z" fill="none"/><g clip-path="url(#b)" transform="translate(58 56)"><path d="M3.955 19.772l6.429-3.368 6.418 3.388-1.202-7.158 5.205-5.058-7.19-1.06L10.419 0 7.186 6.501 0 7.533l5.19 5.082-1.235 7.157z" fill="#B88AC4" fill-rule="evenodd"/></g><path d="M87 56h20.805v19.792H87V56z" fill="none"/><g clip-path="url(#b)" transform="translate(87 56)"><path d="M3.955 19.772l6.429-3.368 6.418 3.388-1.202-7.158 5.205-5.058-7.19-1.06L10.419 0 7.186 6.501 0 7.533l5.19 5.082-1.235 7.157z" fill="#B88AC4" fill-rule="evenodd"/></g><path d="M58 84h20.805v19.792H58V84z" fill="none"/><g clip-path="url(#b)" transform="translate(58 84)"><path d="M3.955 19.772l6.429-3.368 6.418 3.388-1.202-7.158 5.205-5.058-7.19-1.06L10.419 0 7.186 6.501 0 7.533l5.19 5.082-1.235 7.157z" fill="#B88AC4" fill-rule="evenodd"/></g><path d="M87 84h20.805v19.792H87V84z" fill="none"/><g clip-path="url(#b)" transform="translate(87 84)"><path d="M3.955 19.772l6.429-3.368 6.418 3.388-1.202-7.158 5.205-5.058-7.19-1.06L10.419 0 7.186 6.501 0 7.533l5.19 5.082-1.235 7.157z" fill="#B88AC4" fill-rule="evenodd"/></g><path d="M116 112h20.805v19.792H116V112z" fill="none"/><g clip-path="url(#b)" transform="translate(116 112)"><path d="M3.955 19.772l6.429-3.368 6.418 3.388-1.202-7.158 5.205-5.058-7.19-1.06L10.419 0 7.186 6.501 0 7.533l5.19 5.082-1.235 7.157z" fill="#B88AC4" fill-rule="evenodd"/></g><path d="M145 112h20.805v19.792H145V112z" fill="none"/><g clip-path="url(#b)" transform="translate(145 112)"><path d="M3.955 19.772l6.429-3.368 6.418 3.388-1.202-7.158 5.205-5.058-7.19-1.06L10.419 0 7.186 6.501 0 7.533l5.19 5.082-1.235 7.157z" fill="#B88AC4" fill-rule="evenodd"/></g><path d="M116 140h20.805v19.792H116V140z" fill="none"/><g clip-path="url(#b)" transform="translate(116 140)"><path d="M3.955 19.772l6.429-3.368 6.418 3.388-1.202-7.158 5.205-5.058-7.19-1.06L10.419 0 7.186 6.501 0 7.533l5.19 5.082-1.235 7.157z" fill="#B88AC4" fill-rule="evenodd"/></g><path d="M145 140h20.805v19.792H145V140z" fill="none"/><g clip-path="url(#b)" transform="translate(145 140)"><path d="M3.955 19.772l6.429-3.368 6.418 3.388-1.202-7.158 5.205-5.058-7.19-1.06L10.419 0 7.186 6.501 0 7.533l5.19 5.082-1.235 7.157z" fill="#B88AC4" fill-rule="evenodd"/></g><path d="M174 112h20.805v19.792H174V112z" fill="none"/><g clip-path="url(#b)" transform="translate(174 112)"><path d="M3.955 19.772l6.429-3.368 6.418 3.388-1.202-7.158 5.205-5.058-7.19-1.06L10.419 0 7.186 6.501 0 7.533l5.19 5.082-1.235 7.157z" fill="#B88AC4" fill-rule="evenodd"/></g><path d="M203 112h20.805v19.792H203V112z" fill="none"/><g clip-path="url(#b)" transform="translate(203 112)"><path d="M3.955 19.772l6.429-3.368 6.418 3.388-1.202-7.158 5.205-5.058-7.19-1.06L10.419 0 7.186 6.501 0 7.533l5.19 5.082-1.235 7.157z" fill="#B88AC4" fill-rule="evenodd"/></g><path d="M174 140h20.805v19.792H174V140z" fill="none"/><g clip-path="url(#b)" transform="translate(174 140)"><path d="M3.955 19.772l6.429-3.368 6.418 3.388-1.202-7.158 5.205-5.058-7.19-1.06L10.419 0 7.186 6.501 0 7.533l5.19 5.082-1.235 7.157z" fill="#B88AC4" fill-rule="evenodd"/></g><path d="M203 140h20.805v19.792H203V140z" fill="none"/><g clip-path="url(#b)" transform="translate(203 140)"><path d="M3.955 19.772l6.429-3.368 6.418 3.388-1.202-7.158 5.205-5.058-7.19-1.06L10.419 0 7.186 6.501 0 7.533l5.19 5.082-1.235 7.157z" fill="#B88AC4" fill-rule="evenodd"/></g><path d="M0 112h20.805v19.792H0V112z" fill="none"/><g clip-path="url(#b)" transform="translate(0 112)"><path d="M3.955 19.772l6.429-3.368 6.418 3.388-1.202-7.158 5.205-5.058-7.19-1.06L10.419 0 7.186 6.501 0 7.533l5.19 5.082-1.235 7.157z" fill="#B88AC4" fill-rule="evenodd"/></g><path d="M29 112h20.805v19.792H29V112z" fill="none"/><g clip-path="url(#b)" transform="translate(29 112)"><path d="M3.955 19.772l6.429-3.368 6.418 3.388-1.202-7.158 5.205-5.058-7.19-1.06L10.419 0 7.186 6.501 0 7.533l5.19 5.082-1.235 7.157z" fill="#B88AC4" fill-rule="evenodd"/></g><path d="M0 140h20.805v19.792H0V140z" fill="none"/><g clip-path="url(#b)" transform="translate(0 140)"><path d="M3.955 19.772l6.429-3.368 6.418 3.388-1.202-7.158 5.205-5.058-7.19-1.06L10.419 0 7.186 6.501 0 7.533l5.19 5.082-1.235 7.157z" fill="#B88AC4" fill-rule="evenodd"/></g><path d="M29 140h20.805v19.792H29V140z" fill="none"/><g clip-path="url(#b)" transform="translate(29 140)"><path d="M3.955 19.772l6.429-3.368 6.418 3.388-1.202-7.158 5.205-5.058-7.19-1.06L10.419 0 7.186 6.501 0 7.533l5.19 5.082-1.235 7.157z" fill="#B88AC4" fill-rule="evenodd"/></g><path d="M58 112h20.805v19.792H58V112z" fill="none"/><g clip-path="url(#b)" transform="translate(58 112)"><path d="M3.955 19.772l6.429-3.368 6.418 3.388-1.202-7.158 5.205-5.058-7.19-1.06L10.419 0 7.186 6.501 0 7.533l5.19 5.082-1.235 7.157z" fill="#B88AC4" fill-rule="evenodd"/></g><path d="M87 112h20.805v19.792H87V112z" fill="none"/><g clip-path="url(#b)" transform="translate(87 112)"><path d="M3.955 19.772l6.429-3.368 6.418 3.388-1.202-7.158 5.205-5.058-7.19-1.06L10.419 0 7.186 6.501 0 7.533l5.19 5.082-1.235 7.157z" fill="#B88AC4" fill-rule="evenodd"/></g><path d="M58 140h20.805v19.792H58V140z" fill="none"/><g clip-path="url(#b)" transform="translate(58 140)"><path d="M3.955 19.772l6.429-3.368 6.418 3.388-1.202-7.158 5.205-5.058-7.19-1.06L10.419 0 7.186 6.501 0 7.533l5.19 5.082-1.235 7.157z" fill="#B88AC4" fill-rule="evenodd"/></g><path d="M87 140h20.805v19.792H87V140z" fill="none"/><g clip-path="url(#b)" transform="translate(87 140)"><path d="M3.955 19.772l6.429-3.368 6.418 3.388-1.202-7.158 5.205-5.058-7.19-1.06L10.419 0 7.186 6.501 0 7.533l5.19 5.082-1.235 7.157z" fill="#B88AC4" fill-rule="evenodd"/></g><path d="M116 168h20.805v19.792H116V168z" fill="none"/><g clip-path="url(#b)" transform="translate(116 168)"><path d="M3.955 19.772l6.429-3.368 6.418 3.388-1.202-7.158 5.205-5.058-7.19-1.06L10.419 0 7.186 6.501 0 7.533l5.19 5.082-1.235 7.157z" fill="#B88AC4" fill-rule="evenodd"/></g><path d="M145 168h20.805v19.792H145V168z" fill="none"/><g clip-path="url(#b)" transform="translate(145 168)"><path d="M3.955 19.772l6.429-3.368 6.418 3.388-1.202-7.158 5.205-5.058-7.19-1.06L10.419 0 7.186 6.501 0 7.533l5.19 5.082-1.235 7.157z" fill="#B88AC4" fill-rule="evenodd"/></g><path d="M116 196h20.805v19.792H116V196z" fill="none"/><g clip-path="url(#b)" transform="translate(116 196)"><path d="M3.955 19.772l6.429-3.368 6.418 3.388-1.202-7.158 5.205-5.058-7.19-1.06L10.419 0 7.186 6.501 0 7.533l5.19 5.082-1.235 7.157z" fill="#B88AC4" fill-rule="evenodd"/></g><path d="M145 196h20.805v19.792H145V196z" fill="none"/><g clip-path="url(#b)" transform="translate(145 196)"><path d="M3.955 19.772l6.429-3.368 6.418 3.388-1.202-7.158 5.205-5.058-7.19-1.06L10.419 0 7.186 6.501 0 7.533l5.19 5.082-1.235 7.157z" fill="#B88AC4" fill-rule="evenodd"/></g><path d="M174 168h20.805v19.792H174V168z" fill="none"/><g clip-path="url(#b)" transform="translate(174 168)"><path d="M3.955 19.772l6.429-3.368 6.418 3.388-1.202-7.158 5.205-5.058-7.19-1.06L10.419 0 7.186 6.501 0 7.533l5.19 5.082-1.235 7.157z" fill="#B88AC4" fill-rule="evenodd"/></g><path d="M203 168h20.805v19.792H203V168z" fill="none"/><g clip-path="url(#b)" transform="translate(203 168)"><path d="M3.955 19.772l6.429-3.368 6.418 3.388-1.202-7.158 5.205-5.058-7.19-1.06L10.419 0 7.186 6.501 0 7.533l5.19 5.082-1.235 7.157z" fill="#B88AC4" fill-rule="evenodd"/></g><path d="M174 196h20.805v19.792H174V196z" fill="none"/><g clip-path="url(#b)" transform="translate(174 196)"><path d="M3.955 19.772l6.429-3.368 6.418 3.388-1.202-7.158 5.205-5.058-7.19-1.06L10.419 0 7.186 6.501 0 7.533l5.19 5.082-1.235 7.157z" fill="#B88AC4" fill-rule="evenodd"/></g><path d="M203 196h20.805v19.792H203V196z" fill="none"/><g clip-path="url(#b)" transform="translate(203 196)"><path d="M3.955 19.772l6.429-3.368 6.418 3.388-1.202-7.158 5.205-5.058-7.19-1.06L10.419 0 7.186 6.501 0 7.533l5.19 5.082-1.235 7.157z" fill="#B88AC4" fill-rule="evenodd"/></g><path d="M0 168h20.805v19.792H0V168z" fill="none"/><g clip-path="url(#b)" transform="translate(0 168)"><path d="M3.955 19.772l6.429-3.368 6.418 3.388-1.202-7.158 5.205-5.058-7.19-1.06L10.419 0 7.186 6.501 0 7.533l5.19 5.082-1.235 7.157z" fill="#B88AC4" fill-rule="evenodd"/></g><path d="M29 168h20.805v19.792H29V168z" fill="none"/><g clip-path="url(#b)" transform="translate(29 168)"><path d="M3.955 19.772l6.429-3.368 6.418 3.388-1.202-7.158 5.205-5.058-7.19-1.06L10.419 0 7.186 6.501 0 7.533l5.19 5.082-1.235 7.157z" fill="#B88AC4" fill-rule="evenodd"/></g><path d="M0 196h20.805v19.792H0V196z" fill="none"/><g clip-path="url(#b)" transform="translate(0 196)"><path d="M3.955 19.772l6.429-3.368 6.418 3.388-1.202-7.158 5.205-5.058-7.19-1.06L10.419 0 7.186 6.501 0 7.533l5.19 5.082-1.235 7.157z" fill="#B88AC4" fill-rule="evenodd"/></g><path d="M29 196h20.805v19.792H29V196z" fill="none"/><g clip-path="url(#b)" transform="translate(29 196)"><path d="M3.955 19.772l6.429-3.368 6.418 3.388-1.202-7.158 5.205-5.058-7.19-1.06L10.419 0 7.186 6.501 0 7.533l5.19 5.082-1.235 7.157z" fill="#B88AC4" fill-rule="evenodd"/></g><path d="M58 168h20.805v19.792H58V168z" fill="none"/><g clip-path="url(#b)" transform="translate(58 168)"><path d="M3.955 19.772l6.429-3.368 6.418 3.388-1.202-7.158 5.205-5.058-7.19-1.06L10.419 0 7.186 6.501 0 7.533l5.19 5.082-1.235 7.157z" fill="#B88AC4" fill-rule="evenodd"/></g><path d="M87 168h20.805v19.792H87V168z" fill="none"/><g clip-path="url(#b)" transform="translate(87 168)"><path d="M3.955 19.772l6.429-3.368 6.418 3.388-1.202-7.158 5.205-5.058-7.19-1.06L10.419 0 7.186 6.501 0 7.533l5.19 5.082-1.235 7.157z" fill="#B88AC4" fill-rule="evenodd"/></g><path d="M58 196h20.805v19.792H58V196z" fill="none"/><g clip-path="url(#b)" transform="translate(58 196)"><path d="M3.955 19.772l6.429-3.368 6.418 3.388-1.202-7.158 5.205-5.058-7.19-1.06L10.419 0 7.186 6.501 0 7.533l5.19 5.082-1.235 7.157z" fill="#B88AC4" fill-rule="evenodd"/></g><path d="M87 196h20.805v19.792H87V196z" fill="none"/><g clip-path="url(#b)" transform="translate(87 196)"><path d="M3.955 19.772l6.429-3.368 6.418 3.388-1.202-7.158 5.205-5.058-7.19-1.06L10.419 0 7.186 6.501 0 7.533l5.19 5.082-1.235 7.157z" fill="#B88AC4" fill-rule="evenodd"/></g></svg>