<svg width="225" height="225" fill="none" xmlns="http://www.w3.org/2000/svg"><circle cx="112.108" cy="112.233" r="88.393" fill="#B88AC4" fill-opacity=".334"/><circle cx="112.108" cy="112.233" r="64.286" fill="#B88AC4" fill-opacity=".437"/><circle cx="112.5" cy="112.5" r="112.5" fill="#B88AC4" fill-opacity=".095"/><path d="M150.061 94.192l-40.39 43.445c-1.127 1.211-2.621 1.972-4.334 2.2-.016.002-.064.005-.089.009-.364.042-.366.107-.924.107V140h-.14c-.256 0-.529-.065-.884-.105-.028-.005-.058-.032-.093-.036-1.705-.227-3.199-.998-4.323-2.21l-22.942-24.683a7.218 7.218 0 01-1.938-5.193 7.207 7.207 0 012.283-5.047 7.184 7.184 0 014.928-1.955c2.02 0 3.892.816 5.271 2.3l16.977 18.26c.422.455 1.209.454 1.631 0l34.424-37.03A7.133 7.133 0 01144.794 82c1.833 0 3.581.692 4.92 1.949 2.906 2.73 3.063 7.325.347 10.243z" fill="#B88AC4"/></svg>