<?xml version="1.0" encoding="utf-8"?>
<svg width="670px" height="642px" viewBox="0 0 670 642" version="1.1" xmlns:xlink="http://www.w3.org/1999/xlink" xmlns="http://www.w3.org/2000/svg">
  <defs>
    <filter filterUnits="userSpaceOnUse" color-interpolation-filters="sRGB" id="filter_1">
      <feFlood flood-opacity="0" result="BackgroundImageFix" />
      <feColorMatrix in="SourceAlpha" type="matrix" values="0 0 0 0 0 0 0 0 0 0 0 0 0 0 0 0 0 0 127 0" />
      <feOffset dx="0" dy="4" />
      <feGaussianBlur stdDeviation="3.5" />
      <feColorMatrix type="matrix" values="0 0 0 0 0.72156864 0 0 0 0 0.5411765 0 0 0 0 0.76862746 0 0 0 0.5254902 0" />
      <feBlend mode="normal" in2="BackgroundImageFix" result="effect0_dropShadow" />
      <feBlend mode="normal" in="SourceGraphic" in2="effect0_dropShadow" result="shape" />
    </filter>
    <path d="M0.508144 0.11922L15.5081 0.11922L15.5081 15.1192L0.508144 15.1192L0.508144 0.11922Z" id="path_1" />
    <path d="M0.193166 -0.231344L18.1932 -0.231344L18.1932 16.7687L0.193166 16.7687L0.193166 -0.231344Z" id="path_2" />
    <path d="M0.172511 -0.0827822L25.1725 -0.0827822L25.1725 25.9172L0.172511 25.9172L0.172511 -0.0827822Z" id="path_3" />
    <clipPath id="mask_1">
      <use xlink:href="#path_1" />
    </clipPath>
    <clipPath id="mask_2">
      <use xlink:href="#path_2" />
    </clipPath>
    <clipPath id="mask_3">
      <use xlink:href="#path_3" />
    </clipPath>
  </defs>
  <g id="Group-18" transform="translate(10.5 0.5)">
    <path d="M156.422 566.697L161.984 563.804L167.537 566.714L166.497 560.566L171 556.221L164.779 555.311L162.014 549.714L159.217 555.298L153 556.184L157.491 560.549L156.422 566.697Z" id="Fill-15" fill="#EFCEDC" fill-rule="evenodd" stroke="none" />
    <path d="M338.463 510.171C445.445 510.171 532.171 423.445 532.171 316.463C532.171 209.481 445.445 122.754 338.463 122.754C231.481 122.754 144.755 209.481 144.755 316.463C144.755 423.445 231.481 510.171 338.463 510.171Z" id="Oval" fill="#B88AC4" fill-opacity="0.33333334" fill-rule="evenodd" stroke="none" />
    <path d="M338.463 457.341C416.268 457.341 479.341 394.268 479.341 316.462C479.341 238.657 416.268 175.584 338.463 175.584C260.657 175.584 197.584 238.657 197.584 316.462C197.584 394.268 260.657 457.341 338.463 457.341Z" id="Oval" fill="#B88AC4" fill-opacity="0.4392157" fill-rule="evenodd" stroke="none" />
    <path d="M338.5 641C515.507 641 659 497.507 659 320.5C659 143.493 515.507 0 338.5 0C161.493 0 18 143.493 18 320.5C18 497.507 161.493 641 338.5 641Z" id="Oval" fill="#B88AC4" fill-opacity="0.047058824" fill-rule="evenodd" stroke="none" />
    <path d="M338.463 563C474.621 563 585 452.621 585 316.463C585 180.304 474.621 69.925 338.463 69.925C202.304 69.925 91.925 180.304 91.925 316.463C91.925 452.621 202.304 563 338.463 563Z" id="Oval" fill="#B88AC4" fill-opacity="0.09411765" fill-rule="evenodd" stroke="none" />
    <path d="M153.37 125.433C147.554 132.747 132.162 149.637 129.21 160.876C127.222 168.447 127.613 176.488 127.268 184.325C124.888 238.35 164.292 247.01 204.166 269.433" id="Path-2" fill="none" fill-rule="evenodd" stroke="#00BADF" stroke-width="1" stroke-dasharray="5 5" />
    <path d="M479.525 291.846C497.7 284.29 539.693 265.962 521.126 237.967" id="Path-3" fill="none" fill-rule="evenodd" stroke="#00BADF" stroke-width="1" stroke-dasharray="5 5" />
    <path d="M452.365 410.128C477.932 408.542 485.893 440.061 485.282 458.812C485.075 465.178 479.361 472.858 476.271 477.838" id="Path-4" fill="none" fill-rule="evenodd" stroke="#00BADF" stroke-width="1" stroke-dasharray="5 5" />
    <path d="M232.083 424.224C214.882 430.319 198.327 438.699 180.48 442.509C158.771 447.144 117.155 445.553 107.08 420.973" id="Path-5" fill="none" fill-rule="evenodd" stroke="#00BADF" stroke-width="1" stroke-dasharray="5 5" />
    <path d="M196.48 594.454C197.551 597.324 196.092 600.521 193.219 601.593C190.348 602.664 187.157 601.212 186.079 598.336C185.01 595.465 186.464 592.271 189.339 591.198C192.209 590.127 195.402 591.583 196.48 594.454" id="Fill-8" fill="#4BB8DB" fill-rule="evenodd" stroke="none" />
    <g id="Group-12" transform="translate(240.49182 490.59473)">
      <path d="M0.508144 0.11922L15.5081 0.11922L15.5081 15.1192L0.508144 15.1192L0.508144 0.11922Z" id="Clip-11" fill="none" fill-rule="evenodd" stroke="none" />
      <g clip-path="url(#mask_1)">
        <path d="M15.0306 4.99491C16.4823 8.87276 14.5131 13.1912 10.6328 14.6443C6.75769 16.0914 2.43082 14.1201 0.985116 10.2439C-0.464859 6.36437 1.50174 2.04255 5.38371 0.594548C9.26398 -0.852602 13.5883 1.11535 15.0306 4.99491" id="Fill-10" fill="#B18DC0" fill-rule="evenodd" stroke="none" />
      </g>
    </g>
    <path d="M191.856 526.629C190.883 524.03 192.202 521.145 194.804 520.175C197.392 519.205 200.285 520.522 201.255 523.119C202.225 525.713 200.903 528.603 198.309 529.572C195.711 530.542 192.823 529.222 191.856 526.629" id="Fill-13" fill="#2A307E" fill-rule="evenodd" stroke="none" />
    <g id="Group-17" transform="translate(492.8069 48.945297)">
      <path d="M0.193166 -0.231344L18.1932 -0.231344L18.1932 16.7687L0.193166 16.7687L0.193166 -0.231344Z" id="Clip-16" fill="none" fill-rule="evenodd" stroke="none" />
      <g clip-path="url(#mask_2)">
        <path d="M3.61494 16.7515L9.17716 13.8586L14.7299 16.7687L13.6899 10.6204L18.1932 6.27593L11.9725 5.36546L9.20744 -0.231344L6.41033 5.35258L0.193166 6.239L4.6843 10.6041L3.61494 16.7515Z" id="Fill-15" fill="#EFCEDC" fill-rule="evenodd" stroke="none" />
      </g>
    </g>
    <path d="M220.299 554.927L215.205 547.549L212.443 556.08L203.856 558.635L211.113 563.9L210.899 572.859L218.144 567.585L226.598 570.562L223.819 562.042L229.261 554.916L220.299 554.927Z" id="Fill-18" fill="#EFCEDC" fill-rule="evenodd" stroke="none" />
    <path d="M555.229 89.3311C552.442 88.0579 551.213 84.764 552.487 81.9755C553.759 79.1896 557.043 77.9604 559.838 79.231C562.625 80.5042 563.855 83.7919 562.583 86.584C561.308 89.3698 558.02 90.5981 555.229 89.3311" id="Fill-1" fill="#4BB8DB" fill-rule="evenodd" stroke="none" />
    <path d="M499.974 142.399C496.088 140.63 494.377 136.045 496.145 132.156C497.915 128.275 502.507 126.559 506.388 128.329C510.274 130.102 511.991 134.688 510.218 138.575C508.443 142.459 503.856 144.176 499.974 142.399" id="Fill-3" fill="#B18DC0" fill-rule="evenodd" stroke="none" />
    <g id="Group-7" transform="translate(550.8275 114.79674)">
      <path d="M0.172511 -0.0827822L25.1725 -0.0827822L25.1725 25.9172L0.172511 25.9172L0.172511 -0.0827822Z" id="Clip-6" fill="none" fill-rule="evenodd" stroke="none" />
      <g clip-path="url(#mask_3)">
        <path d="M15.9876 19.491L24.9822 21.1257L20.823 13.0407L25.1725 5.05925L16.1403 6.48611L9.83507 -0.0827822L8.41366 8.88144L0.172511 12.8062L8.31937 16.9173L9.53427 25.9172L15.9876 19.491Z" id="Fill-5" fill="#EFCEDC" fill-rule="evenodd" stroke="none" />
      </g>
    </g>
    <g id="Group-17" transform="translate(492.8069 48.945297)">
      <path d="M0.193166 -0.231344L18.1932 -0.231344L18.1932 16.7687L0.193166 16.7687L0.193166 -0.231344Z" id="Clip-16" fill="none" fill-rule="evenodd" stroke="none" />
      <g clip-path="url(#mask_2)">
        <path d="M3.61494 16.7515L9.17716 13.8586L14.7299 16.7687L13.6899 10.6204L18.1932 6.27593L11.9725 5.36546L9.20744 -0.231344L6.41033 5.35258L0.193166 6.239L4.6843 10.6041L3.61494 16.7515Z" id="Fill-15" fill="#EFCEDC" fill-rule="evenodd" stroke="none" />
      </g>
    </g>
    <path d="M555.229 89.3311C552.442 88.0579 551.213 84.764 552.487 81.9755C553.759 79.1896 557.043 77.9604 559.838 79.231C562.625 80.5042 563.855 83.7919 562.583 86.584C561.308 89.3698 558.02 90.5981 555.229 89.3311" id="Fill-1" fill="#4BB8DB" fill-rule="evenodd" stroke="none" />
    <path d="M499.974 142.399C496.088 140.63 494.377 136.045 496.145 132.156C497.915 128.275 502.507 126.559 506.388 128.329C510.274 130.102 511.991 134.688 510.218 138.575C508.443 142.459 503.856 144.176 499.974 142.399" id="Fill-3" fill="#B18DC0" fill-rule="evenodd" stroke="none" />
    <g id="Group-7" transform="translate(550.8275 114.79674)">
      <path d="M0.172511 -0.0827822L25.1725 -0.0827822L25.1725 25.9172L0.172511 25.9172L0.172511 -0.0827822Z" id="Clip-6" fill="none" fill-rule="evenodd" stroke="none" />
      <g clip-path="url(#mask_3)">
        <path d="M15.9876 19.491L24.9822 21.1257L20.823 13.0407L25.1725 5.05925L16.1403 6.48611L9.83507 -0.0827822L8.41366 8.88144L0.172511 12.8062L8.31937 16.9173L9.53427 25.9172L15.9876 19.491Z" id="Fill-5" fill="#EFCEDC" fill-rule="evenodd" stroke="none" />
      </g>
    </g>
    <g filter="url(#filter_1)">
      <g id="Работаем-с-2015-года" transform="translate(480 176.71396)">
        <path d="M4.999 0L134.001 0Q134.124 0 134.246 0.00602151Q134.369 0.012043 134.491 0.0240715Q134.613 0.0361001 134.735 0.0541066Q134.856 0.0721132 134.976 0.0960544Q135.097 0.119996 135.216 0.149814Q135.335 0.179632 135.452 0.215255Q135.57 0.250879 135.685 0.292221Q135.801 0.333564 135.914 0.380526Q136.027 0.427489 136.138 0.479957Q136.249 0.532426 136.357 0.590276Q136.466 0.648125 136.571 0.711215Q136.676 0.774305 136.778 0.842483Q136.88 0.910662 136.979 0.983765Q137.077 1.05687 137.172 1.13472Q137.267 1.21257 137.358 1.29499Q137.449 1.3774 137.536 1.46417Q137.623 1.55095 137.705 1.64188Q137.787 1.73281 137.865 1.82767Q137.943 1.92253 138.016 2.0211Q138.089 2.11967 138.158 2.2217Q138.226 2.32374 138.289 2.429Q138.352 2.53426 138.41 2.64249Q138.468 2.75072 138.52 2.86165Q138.572 2.97259 138.619 3.08597Q138.666 3.19934 138.708 3.31489Q138.749 3.43043 138.785 3.54787Q138.82 3.6653 138.85 3.78434Q138.88 3.90338 138.904 4.02374Q138.928 4.1441 138.946 4.26549Q138.964 4.38688 138.976 4.50901Q138.988 4.63114 138.994 4.75371Q139 4.87628 139 4.999L139 51.001Q139 51.1237 138.994 51.2463Q138.988 51.3689 138.976 51.491Q138.964 51.6131 138.946 51.7345Q138.928 51.8559 138.904 51.9763Q138.88 52.0966 138.85 52.2157Q138.82 52.3347 138.785 52.4521Q138.749 52.5696 138.708 52.6851Q138.666 52.8007 138.619 52.914Q138.572 53.0274 138.52 53.1383Q138.468 53.2493 138.41 53.3575Q138.352 53.4657 138.289 53.571Q138.226 53.6763 138.158 53.7783Q138.089 53.8803 138.016 53.9789Q137.943 54.0775 137.865 54.1723Q137.787 54.2672 137.705 54.3581Q137.623 54.449 137.536 54.5358Q137.449 54.6226 137.358 54.705Q137.267 54.7874 137.172 54.8653Q137.077 54.9431 136.979 55.0162Q136.88 55.0893 136.778 55.1575Q136.676 55.2257 136.571 55.2888Q136.466 55.3519 136.358 55.4097Q136.249 55.4676 136.138 55.52Q136.027 55.5725 135.914 55.6195Q135.801 55.6664 135.685 55.7078Q135.57 55.7491 135.452 55.7847Q135.335 55.8204 135.216 55.8502Q135.097 55.88 134.976 55.9039Q134.856 55.9279 134.735 55.9459Q134.613 55.9639 134.491 55.9759Q134.369 55.9879 134.246 55.994Q134.124 56 134.001 56L4.999 56Q4.87628 56 4.75371 55.994Q4.63114 55.9879 4.50901 55.9759Q4.38688 55.9639 4.26549 55.9459Q4.1441 55.9279 4.02374 55.9039Q3.90338 55.88 3.78434 55.8502Q3.6653 55.8204 3.54787 55.7847Q3.43043 55.7491 3.31489 55.7078Q3.19934 55.6664 3.08597 55.6195Q2.97259 55.5725 2.86165 55.52Q2.75072 55.4676 2.64249 55.4097Q2.53426 55.3519 2.429 55.2888Q2.32374 55.2257 2.2217 55.1575Q2.11967 55.0893 2.0211 55.0162Q1.92253 54.9431 1.82767 54.8653Q1.73281 54.7874 1.64188 54.705Q1.55095 54.6226 1.46417 54.5358Q1.3774 54.449 1.29499 54.3581Q1.21257 54.2672 1.13472 54.1723Q1.05687 54.0775 0.983765 53.9789Q0.910662 53.8803 0.842483 53.7783Q0.774305 53.6763 0.711215 53.571Q0.648125 53.4657 0.590276 53.3575Q0.532426 53.2493 0.479957 53.1383Q0.427489 53.0274 0.380526 52.914Q0.333564 52.8007 0.292221 52.6851Q0.250879 52.5696 0.215255 52.4521Q0.179632 52.3347 0.149814 52.2157Q0.119996 52.0966 0.0960544 51.9763Q0.0721132 51.8559 0.0541066 51.7345Q0.0361001 51.6131 0.0240715 51.491Q0.012043 51.3689 0.00602151 51.2463Q0 51.1237 0 51.001L0 4.999Q0 4.87628 0.00602151 4.75371Q0.012043 4.63114 0.0240715 4.50901Q0.0361001 4.38688 0.0541066 4.26549Q0.0721132 4.1441 0.0960544 4.02374Q0.119996 3.90338 0.149814 3.78434Q0.179632 3.6653 0.215255 3.54787Q0.250879 3.43043 0.292221 3.31489Q0.333564 3.19934 0.380526 3.08597Q0.427489 2.97259 0.479957 2.86165Q0.532426 2.75072 0.590276 2.64249Q0.648125 2.53426 0.711215 2.429Q0.774305 2.32374 0.842483 2.2217Q0.910662 2.11967 0.983765 2.0211Q1.05687 1.92253 1.13472 1.82767Q1.21257 1.73281 1.29499 1.64188Q1.3774 1.55095 1.46417 1.46417Q1.55095 1.3774 1.64188 1.29499Q1.73281 1.21257 1.82767 1.13472Q1.92253 1.05687 2.0211 0.983765Q2.11967 0.910662 2.2217 0.842483Q2.32374 0.774305 2.429 0.711215Q2.53426 0.648125 2.64249 0.590276Q2.75072 0.532426 2.86165 0.479957Q2.97259 0.427489 3.08597 0.380526Q3.19934 0.333564 3.31489 0.292221Q3.43043 0.250879 3.54787 0.215255Q3.6653 0.179632 3.78434 0.149814Q3.90338 0.119996 4.02374 0.0960544Q4.1441 0.0721132 4.26549 0.0541066Q4.38688 0.0361001 4.50901 0.0240715Q4.63114 0.012043 4.75371 0.00602151Q4.87628 0 4.999 0Z" id="Rectangle" fill="#FFFFFF" fill-rule="evenodd" stroke="none" />
        <path d="M67.29 38.4034C68.3913 38.4034 69.1893 38.618 69.684 39.0474C70.1787 39.4767 70.426 40.088 70.426 40.8814C70.426 41.712 70.1483 42.3397 69.593 42.7644C69.0377 43.189 68.3493 43.4014 67.528 43.4014L65.162 43.4014L65.162 36.0234L66.45 36.0234L66.45 38.4034L67.29 38.4034ZM71.49 36.0234L72.778 36.0234L72.778 43.4014L71.49 43.4014L71.49 36.0234ZM67.416 42.3934C67.9387 42.3934 68.3423 42.2767 68.627 42.0434C68.9117 41.81 69.054 41.4227 69.054 40.8814C69.054 40.368 68.921 39.99 68.655 39.7474C68.389 39.5047 67.9293 39.3834 67.276 39.3834L66.45 39.3834L66.45 42.3934L67.416 42.3934ZM62.992 43.4014L61.732 43.4014L61.396 39.9154C61.3587 39.5514 61.3353 39.1477 61.326 38.7044C61.3167 38.261 61.312 37.7827 61.312 37.2694L59.632 42.5894L58.414 42.5894L56.846 37.2834C56.846 38.5154 56.8273 39.388 56.79 39.9014L56.524 43.4014L55.278 43.4014L55.936 36.0234L57.602 36.0234L59.044 41.3014L60.626 36.0234L62.32 36.0234L62.992 43.4014ZM50.476 35.8554C51.12 35.8554 51.68 36.014 52.156 36.3314C52.632 36.6487 52.9983 37.0967 53.255 37.6754C53.5117 38.254 53.64 38.9307 53.64 39.7054C53.64 40.4334 53.5163 41.089 53.269 41.6724C53.0217 42.2557 52.6577 42.7177 52.177 43.0584C51.6963 43.399 51.1247 43.5694 50.462 43.5694C49.566 43.5694 48.8473 43.2544 48.306 42.6244C47.7647 41.9944 47.4567 41.1707 47.382 40.1534L46.066 40.1534L46.066 43.4014L44.778 43.4014L44.778 36.0234L46.066 36.0234L46.066 39.1174L47.396 39.1174C47.4987 38.156 47.823 37.372 48.369 36.7654C48.915 36.1587 49.6173 35.8554 50.476 35.8554L50.476 35.8554ZM50.462 42.5334C51.0967 42.5334 51.554 42.2954 51.834 41.8194C52.114 41.3434 52.254 40.6387 52.254 39.7054C52.254 38.8094 52.1 38.1187 51.792 37.6334C51.484 37.148 51.0453 36.9054 50.476 36.9054C49.2907 36.9054 48.698 37.8434 48.698 39.7194C48.698 40.6154 48.8473 41.3084 49.146 41.7984C49.4447 42.2884 49.8833 42.5334 50.462 42.5334L50.462 42.5334ZM43.448 36.0234L43.294 37.0734L40.928 37.0734L40.928 43.4014L39.64 43.4014L39.64 37.0734L37.204 37.0734L37.204 36.0234L43.448 36.0234ZM34.46 35.8554C34.8987 35.8554 35.3 35.9184 35.664 36.0444C36.028 36.1704 36.378 36.3734 36.714 36.6534L36.098 37.4654C35.8367 37.2787 35.5823 37.141 35.335 37.0524C35.0877 36.9637 34.8147 36.9194 34.516 36.9194C33.9187 36.9194 33.4543 37.1574 33.123 37.6334C32.7917 38.1094 32.626 38.814 32.626 39.7474C32.626 40.6807 32.7893 41.369 33.116 41.8124C33.4427 42.2557 33.9093 42.4774 34.516 42.4774C34.8053 42.4774 35.0713 42.433 35.314 42.3444C35.5567 42.2557 35.8273 42.1134 36.126 41.9174L36.714 42.7574C36.042 43.2987 35.2907 43.5694 34.46 43.5694C33.4613 43.5694 32.675 43.2334 32.101 42.5614C31.527 41.8894 31.24 40.9607 31.24 39.7754C31.24 38.9914 31.3707 38.3054 31.632 37.7174C31.8933 37.1294 32.2643 36.672 32.745 36.3454C33.2257 36.0187 33.7973 35.8554 34.46 35.8554L34.46 35.8554ZM26.368 35.8554C27.404 35.8554 28.209 36.2007 28.783 36.8914C29.357 37.582 29.644 38.52 29.644 39.7054C29.644 40.4707 29.5133 41.145 29.252 41.7284C28.9907 42.3117 28.6127 42.7644 28.118 43.0864C27.6233 43.4084 27.0353 43.5694 26.354 43.5694C25.318 43.5694 24.5107 43.224 23.932 42.5334C23.3533 41.8427 23.064 40.9047 23.064 39.7194C23.064 38.954 23.1947 38.2797 23.456 37.6964C23.7173 37.113 24.0953 36.6604 24.59 36.3384C25.0847 36.0164 25.6773 35.8554 26.368 35.8554L26.368 35.8554ZM26.368 36.8914C25.0893 36.8914 24.45 37.834 24.45 39.7194C24.45 41.5954 25.0847 42.5334 26.354 42.5334C27.6233 42.5334 28.258 41.5907 28.258 39.7054C28.258 37.8294 27.628 36.8914 26.368 36.8914L26.368 36.8914ZM21.86 36.0234L19.62 39.4394L22.126 43.4014L20.6 43.4014L18.556 39.9994L17.618 39.9994L17.618 43.4014L16.33 43.4014L16.33 36.0234L17.618 36.0234L17.618 38.9914L18.584 38.9914L20.446 36.0234L21.86 36.0234ZM122.352 22.417C122.352 22.6317 122.343 22.851 122.324 23.075L117.62 23.075C117.676 23.887 117.881 24.4843 118.236 24.867C118.591 25.2497 119.048 25.441 119.608 25.441C119.963 25.441 120.289 25.3897 120.588 25.287C120.887 25.1843 121.199 25.021 121.526 24.797L122.086 25.567C121.302 26.183 120.443 26.491 119.51 26.491C118.483 26.491 117.683 26.155 117.109 25.483C116.535 24.811 116.248 23.887 116.248 22.711C116.248 21.9457 116.372 21.2667 116.619 20.674C116.866 20.0813 117.221 19.617 117.683 19.281C118.145 18.945 118.689 18.777 119.314 18.777C120.294 18.777 121.045 19.099 121.568 19.743C122.091 20.387 122.352 21.2783 122.352 22.417L122.352 22.417ZM121.078 22.039C121.078 21.311 120.933 20.7557 120.644 20.373C120.355 19.9903 119.921 19.799 119.342 19.799C118.287 19.799 117.713 20.5737 117.62 22.123L121.078 22.123L121.078 22.039ZM114.12 26.323L112.846 26.323L112.846 22.991C112.846 22.431 112.865 21.899 112.902 21.395C112.939 20.891 112.972 20.5597 113 20.401L109.906 26.323L108.38 26.323L108.38 18.945L109.654 18.945L109.654 22.277C109.654 22.7717 109.635 23.2827 109.598 23.81C109.561 24.3373 109.533 24.6757 109.514 24.825L112.566 18.945L114.12 18.945L114.12 26.323ZM106.644 18.945L104.404 22.361L106.91 26.323L105.384 26.323L103.34 22.921L102.402 22.921L102.402 26.323L101.114 26.323L101.114 18.945L102.402 18.945L102.402 21.913L103.368 21.913L105.23 18.945L106.644 18.945ZM97.11 18.777C97.5487 18.777 97.95 18.84 98.314 18.966C98.678 19.092 99.028 19.295 99.364 19.575L98.748 20.387C98.4867 20.2003 98.2323 20.0627 97.985 19.974C97.7377 19.8853 97.4647 19.841 97.166 19.841C96.5687 19.841 96.1043 20.079 95.773 20.555C95.4417 21.031 95.276 21.7357 95.276 22.669C95.276 23.6023 95.4393 24.2907 95.766 24.734C96.0927 25.1773 96.5593 25.399 97.166 25.399C97.4553 25.399 97.7213 25.3547 97.964 25.266C98.2067 25.1773 98.4773 25.035 98.776 24.839L99.364 25.679C98.692 26.2203 97.9407 26.491 97.11 26.491C96.1113 26.491 95.325 26.155 94.751 25.483C94.177 24.811 93.89 23.8823 93.89 22.697C93.89 21.913 94.0207 21.227 94.282 20.639C94.5433 20.051 94.9143 19.5937 95.395 19.267C95.8757 18.9403 96.4473 18.777 97.11 18.777L97.11 18.777ZM92.364 22.417C92.364 22.6317 92.3547 22.851 92.336 23.075L87.632 23.075C87.688 23.887 87.8933 24.4843 88.248 24.867C88.6027 25.2497 89.06 25.441 89.62 25.441C89.9747 25.441 90.3013 25.3897 90.6 25.287C90.8987 25.1843 91.2113 25.021 91.538 24.797L92.098 25.567C91.314 26.183 90.4553 26.491 89.522 26.491C88.4953 26.491 87.695 26.155 87.121 25.483C86.547 24.811 86.26 23.887 86.26 22.711C86.26 21.9457 86.3837 21.2667 86.631 20.674C86.8783 20.0813 87.233 19.617 87.695 19.281C88.157 18.945 88.7007 18.777 89.326 18.777C90.306 18.777 91.0573 19.099 91.58 19.743C92.1027 20.387 92.364 21.2783 92.364 22.417L92.364 22.417ZM91.09 22.039C91.09 21.311 90.9453 20.7557 90.656 20.373C90.3667 19.9903 89.9327 19.799 89.354 19.799C88.2993 19.799 87.7253 20.5737 87.632 22.123L91.09 22.123L91.09 22.039ZM84.132 18.945L84.132 26.323L82.844 26.323L82.844 23.243C82.5733 23.495 82.2397 23.6933 81.843 23.838C81.4463 23.9827 81.038 24.055 80.618 24.055C79.918 24.055 79.3907 23.866 79.036 23.488C78.6813 23.11 78.504 22.571 78.504 21.871L78.504 18.945L79.792 18.945L79.792 21.717C79.792 22.1837 79.8877 22.522 80.079 22.732C80.2703 22.942 80.5667 23.047 80.968 23.047C81.2947 23.047 81.6377 22.9723 81.997 22.823C82.3563 22.6737 82.6387 22.4823 82.844 22.249L82.844 18.945L84.132 18.945ZM76.404 26.323L75.13 26.323L75.13 22.991C75.13 22.431 75.1487 21.899 75.186 21.395C75.2233 20.891 75.256 20.5597 75.284 20.401L72.19 26.323L70.664 26.323L70.664 18.945L71.938 18.945L71.938 22.277C71.938 22.7717 71.9193 23.2827 71.882 23.81C71.8447 24.3373 71.8167 24.6757 71.798 24.825L74.85 18.945L76.404 18.945L76.404 26.323ZM69.334 18.945L69.18 19.995L66.814 19.995L66.814 26.323L65.526 26.323L65.526 19.995L63.09 19.995L63.09 18.945L69.334 18.945ZM60.346 18.777C60.7847 18.777 61.186 18.84 61.55 18.966C61.914 19.092 62.264 19.295 62.6 19.575L61.984 20.387C61.7227 20.2003 61.4683 20.0627 61.221 19.974C60.9737 19.8853 60.7007 19.841 60.402 19.841C59.8047 19.841 59.3403 20.079 59.009 20.555C58.6777 21.031 58.512 21.7357 58.512 22.669C58.512 23.6023 58.6753 24.2907 59.002 24.734C59.3287 25.1773 59.7953 25.399 60.402 25.399C60.6913 25.399 60.9573 25.3547 61.2 25.266C61.4427 25.1773 61.7133 25.035 62.012 24.839L62.6 25.679C61.928 26.2203 61.1767 26.491 60.346 26.491C59.3473 26.491 58.561 26.155 57.987 25.483C57.413 24.811 57.126 23.8823 57.126 22.697C57.126 21.913 57.2567 21.227 57.518 20.639C57.7793 20.051 58.1503 19.5937 58.631 19.267C59.1117 18.9403 59.6833 18.777 60.346 18.777L60.346 18.777ZM55.012 24.601C55.012 24.8997 55.0633 25.1213 55.166 25.266C55.2687 25.4107 55.4227 25.5203 55.628 25.595L55.334 26.491C54.9513 26.4443 54.6433 26.337 54.41 26.169C54.1767 26.001 54.004 25.7397 53.892 25.385C53.3973 26.1223 52.6647 26.491 51.694 26.491C50.966 26.491 50.392 26.2857 49.972 25.875C49.552 25.4643 49.342 24.9277 49.342 24.265C49.342 23.481 49.6243 22.879 50.189 22.459C50.7537 22.039 51.554 21.829 52.59 21.829L53.724 21.829L53.724 21.283C53.724 20.7603 53.598 20.387 53.346 20.163C53.094 19.939 52.7067 19.827 52.184 19.827C51.6427 19.827 50.98 19.9577 50.196 20.219L49.874 19.281C50.7887 18.945 51.638 18.777 52.422 18.777C53.29 18.777 53.9387 18.9893 54.368 19.414C54.7973 19.8387 55.012 20.443 55.012 21.227L55.012 24.601ZM51.988 25.525C52.7253 25.525 53.304 25.1423 53.724 24.377L53.724 22.683L52.758 22.683C51.3953 22.683 50.714 23.187 50.714 24.195C50.714 24.6337 50.8213 24.965 51.036 25.189C51.2507 25.413 51.568 25.525 51.988 25.525L51.988 25.525ZM48.712 18.945L48.558 19.995L46.192 19.995L46.192 26.323L44.904 26.323L44.904 19.995L42.468 19.995L42.468 18.945L48.712 18.945ZM39.78 26.323L39.78 23.075L36.714 23.075L36.714 26.323L35.426 26.323L35.426 18.945L36.714 18.945L36.714 22.039L39.78 22.039L39.78 18.945L41.068 18.945L41.068 26.323L39.78 26.323ZM32.78 24.601C32.78 24.8997 32.8313 25.1213 32.934 25.266C33.0367 25.4107 33.1907 25.5203 33.396 25.595L33.102 26.491C32.7193 26.4443 32.4113 26.337 32.178 26.169C31.9447 26.001 31.772 25.7397 31.66 25.385C31.1653 26.1223 30.4327 26.491 29.462 26.491C28.734 26.491 28.16 26.2857 27.74 25.875C27.32 25.4643 27.11 24.9277 27.11 24.265C27.11 23.481 27.3923 22.879 27.957 22.459C28.5217 22.039 29.322 21.829 30.358 21.829L31.492 21.829L31.492 21.283C31.492 20.7603 31.366 20.387 31.114 20.163C30.862 19.939 30.4747 19.827 29.952 19.827C29.4107 19.827 28.748 19.9577 27.964 20.219L27.642 19.281C28.5567 18.945 29.406 18.777 30.19 18.777C31.058 18.777 31.7067 18.9893 32.136 19.414C32.5653 19.8387 32.78 20.443 32.78 21.227L32.78 24.601ZM29.756 25.525C30.4933 25.525 31.072 25.1423 31.492 24.377L31.492 22.683L30.526 22.683C29.1633 22.683 28.482 23.187 28.482 24.195C28.482 24.6337 28.5893 24.965 28.804 25.189C29.0187 25.413 29.336 25.525 29.756 25.525L29.756 25.525ZM25.92 21.423C25.92 22.8043 25.521 23.852 24.723 24.566C23.925 25.28 22.812 25.6557 21.384 25.693L21.384 26.785L20.096 26.785L20.096 25.693C18.612 25.6277 17.485 25.2333 16.715 24.51C15.945 23.7867 15.56 22.767 15.56 21.451C15.56 20.0697 15.959 19.022 16.757 18.308C17.555 17.594 18.668 17.2183 20.096 17.181L20.096 16.201L21.384 16.201L21.384 17.181C22.868 17.2463 23.995 17.6407 24.765 18.364C25.535 19.0873 25.92 20.107 25.92 21.423L25.92 21.423ZM16.932 21.451C16.932 22.5243 17.1957 23.3223 17.723 23.845C18.2503 24.3677 19.0507 24.6523 20.124 24.699L20.124 18.161C19.032 18.2263 18.227 18.5157 17.709 19.029C17.191 19.5423 16.932 20.3497 16.932 21.451L16.932 21.451ZM21.356 24.713C22.448 24.6477 23.253 24.3583 23.771 23.845C24.289 23.3317 24.548 22.5243 24.548 21.423C24.548 20.3497 24.2843 19.5517 23.757 19.029C23.2297 18.5063 22.4293 18.2217 21.356 18.175L21.356 24.713Z" id="Фантастические--костюмы" fill="#4B6B81" stroke="none" />
      </g>
    </g>
    <g filter="url(#filter_1)">
      <g id="Работаем-с-2015-года" transform="translate(162 84.71396)">
        <path d="M4.999 0L106.001 0Q106.124 0 106.246 0.00602151Q106.369 0.012043 106.491 0.0240715Q106.613 0.0361001 106.734 0.0541066Q106.856 0.0721132 106.976 0.0960544Q107.097 0.119996 107.216 0.149814Q107.335 0.179632 107.452 0.215255Q107.57 0.250879 107.685 0.292221Q107.801 0.333564 107.914 0.380526Q108.027 0.427489 108.138 0.479957Q108.249 0.532426 108.358 0.590276Q108.466 0.648125 108.571 0.711215Q108.676 0.774305 108.778 0.842483Q108.88 0.910662 108.979 0.983765Q109.077 1.05687 109.172 1.13472Q109.267 1.21257 109.358 1.29499Q109.449 1.3774 109.536 1.46417Q109.623 1.55095 109.705 1.64188Q109.787 1.73281 109.865 1.82767Q109.943 1.92253 110.016 2.0211Q110.089 2.11967 110.158 2.2217Q110.226 2.32374 110.289 2.429Q110.352 2.53426 110.41 2.64249Q110.468 2.75072 110.52 2.86165Q110.572 2.97259 110.619 3.08597Q110.666 3.19934 110.708 3.31489Q110.749 3.43043 110.785 3.54787Q110.82 3.6653 110.85 3.78434Q110.88 3.90338 110.904 4.02374Q110.928 4.1441 110.946 4.26549Q110.964 4.38688 110.976 4.50901Q110.988 4.63114 110.994 4.75371Q111 4.87628 111 4.999L111 51.001Q111 51.1237 110.994 51.2463Q110.988 51.3689 110.976 51.491Q110.964 51.6131 110.946 51.7345Q110.928 51.8559 110.904 51.9763Q110.88 52.0966 110.85 52.2157Q110.82 52.3347 110.785 52.4521Q110.749 52.5696 110.708 52.6851Q110.666 52.8007 110.619 52.914Q110.572 53.0274 110.52 53.1383Q110.468 53.2493 110.41 53.3575Q110.352 53.4657 110.289 53.571Q110.226 53.6763 110.158 53.7783Q110.089 53.8803 110.016 53.9789Q109.943 54.0775 109.865 54.1723Q109.787 54.2672 109.705 54.3581Q109.623 54.449 109.536 54.5358Q109.449 54.6226 109.358 54.705Q109.267 54.7874 109.172 54.8653Q109.077 54.9431 108.979 55.0162Q108.88 55.0893 108.778 55.1575Q108.676 55.2257 108.571 55.2888Q108.466 55.3519 108.358 55.4097Q108.249 55.4676 108.138 55.52Q108.027 55.5725 107.914 55.6195Q107.801 55.6664 107.685 55.7078Q107.57 55.7491 107.452 55.7847Q107.335 55.8204 107.216 55.8502Q107.097 55.88 106.976 55.9039Q106.856 55.9279 106.734 55.9459Q106.613 55.9639 106.491 55.9759Q106.369 55.9879 106.246 55.994Q106.124 56 106.001 56L4.999 56Q4.87628 56 4.75371 55.994Q4.63114 55.9879 4.50901 55.9759Q4.38688 55.9639 4.26549 55.9459Q4.1441 55.9279 4.02374 55.9039Q3.90338 55.88 3.78434 55.8502Q3.6653 55.8204 3.54787 55.7847Q3.43043 55.7491 3.31489 55.7078Q3.19934 55.6664 3.08597 55.6195Q2.97259 55.5725 2.86165 55.52Q2.75072 55.4676 2.64249 55.4097Q2.53426 55.3519 2.429 55.2888Q2.32374 55.2257 2.2217 55.1575Q2.11967 55.0893 2.0211 55.0162Q1.92253 54.9431 1.82767 54.8653Q1.73281 54.7874 1.64188 54.705Q1.55095 54.6226 1.46417 54.5358Q1.3774 54.449 1.29499 54.3581Q1.21257 54.2672 1.13472 54.1723Q1.05687 54.0775 0.983765 53.9789Q0.910662 53.8803 0.842483 53.7783Q0.774305 53.6763 0.711215 53.571Q0.648125 53.4657 0.590276 53.3575Q0.532426 53.2493 0.479957 53.1383Q0.427489 53.0274 0.380526 52.914Q0.333564 52.8007 0.292221 52.6851Q0.250879 52.5696 0.215255 52.4521Q0.179632 52.3347 0.149814 52.2157Q0.119996 52.0966 0.0960544 51.9763Q0.0721132 51.8559 0.0541066 51.7345Q0.0361001 51.6131 0.0240715 51.491Q0.012043 51.3689 0.00602151 51.2463Q0 51.1237 0 51.001L0 4.999Q0 4.87628 0.00602151 4.75371Q0.012043 4.63114 0.0240715 4.50901Q0.0361001 4.38688 0.0541066 4.26549Q0.0721132 4.1441 0.0960544 4.02374Q0.119996 3.90338 0.149814 3.78434Q0.179632 3.6653 0.215255 3.54787Q0.250879 3.43043 0.292221 3.31489Q0.333564 3.19934 0.380526 3.08597Q0.427489 2.97259 0.479957 2.86165Q0.532426 2.75072 0.590276 2.64249Q0.648125 2.53426 0.711215 2.429Q0.774305 2.32374 0.842483 2.2217Q0.910662 2.11967 0.983765 2.0211Q1.05687 1.92253 1.13472 1.82767Q1.21257 1.73281 1.29499 1.64188Q1.3774 1.55095 1.46417 1.46417Q1.55095 1.3774 1.64188 1.29499Q1.73281 1.21257 1.82767 1.13472Q1.92253 1.05687 2.0211 0.983765Q2.11967 0.910662 2.2217 0.842483Q2.32374 0.774305 2.429 0.711215Q2.53426 0.648125 2.64249 0.590276Q2.75072 0.532426 2.86165 0.479957Q2.97259 0.427489 3.08597 0.380526Q3.19934 0.333564 3.31489 0.292221Q3.43043 0.250879 3.54787 0.215255Q3.6653 0.179632 3.78434 0.149814Q3.90338 0.119996 4.02374 0.0960544Q4.1441 0.0721132 4.26549 0.0541066Q4.38688 0.0361001 4.50901 0.0240715Q4.63114 0.012043 4.75371 0.00602151Q4.87628 0 4.999 0L4.999 0Z" id="Rectangle" fill="#FFFFFF" fill-rule="evenodd" stroke="none" />
        <path d="M87.224 39.0571C87.224 39.3558 87.2753 39.5775 87.378 39.7221C87.4807 39.8668 87.6347 39.9765 87.84 40.0511L87.546 40.9471C87.1633 40.9005 86.8553 40.7931 86.622 40.6251C86.3887 40.4571 86.216 40.1958 86.104 39.8411C85.6093 40.5785 84.8767 40.9471 83.906 40.9471C83.178 40.9471 82.604 40.7418 82.184 40.3311C81.764 39.9205 81.554 39.3838 81.554 38.7211C81.554 37.9371 81.8363 37.3351 82.401 36.9151C82.9657 36.4951 83.766 36.2851 84.802 36.2851L85.936 36.2851L85.936 35.7391C85.936 35.2165 85.81 34.8431 85.558 34.6191C85.306 34.3951 84.9187 34.2831 84.396 34.2831C83.8547 34.2831 83.192 34.4138 82.408 34.6751L82.086 33.7371C83.0007 33.4011 83.85 33.2331 84.634 33.2331C85.502 33.2331 86.1507 33.4455 86.58 33.8701C87.0093 34.2948 87.224 34.8991 87.224 35.6831L87.224 39.0571ZM84.2 39.9811C84.9373 39.9811 85.516 39.5985 85.936 38.8331L85.936 37.1391L84.97 37.1391C83.6073 37.1391 82.926 37.6431 82.926 38.6511C82.926 39.0898 83.0333 39.4211 83.248 39.6451C83.4627 39.8691 83.78 39.9811 84.2 39.9811L84.2 39.9811ZM80.364 39.7431L80.364 42.8791L79.314 42.8791L79.104 40.7791L74.372 40.7791L74.162 42.8791L73.112 42.8791L73.112 39.7431L73.63 39.7431C73.854 39.5938 74.0313 39.4235 74.162 39.2321C74.2927 39.0408 74.4117 38.7071 74.519 38.2311C74.6263 37.7551 74.7127 37.0598 74.778 36.1451L74.974 33.4011L79.594 33.4011L79.594 39.7431L80.364 39.7431ZM78.306 34.4231L76.136 34.4231L76.024 35.9771C75.9587 36.8451 75.884 37.5125 75.8 37.9791C75.716 38.4458 75.597 38.8051 75.443 39.0571C75.289 39.3091 75.0673 39.5378 74.778 39.7431L78.306 39.7431L78.306 34.4231ZM69.038 33.2331C70.074 33.2331 70.879 33.5785 71.453 34.2691C72.027 34.9598 72.314 35.8978 72.314 37.0831C72.314 37.8485 72.1833 38.5228 71.922 39.1061C71.6607 39.6895 71.2827 40.1421 70.788 40.4641C70.2933 40.7861 69.7053 40.9471 69.024 40.9471C67.988 40.9471 67.1807 40.6018 66.602 39.9111C66.0233 39.2205 65.734 38.2825 65.734 37.0971C65.734 36.3318 65.8647 35.6575 66.126 35.0741C66.3873 34.4908 66.7653 34.0381 67.26 33.7161C67.7547 33.3941 68.3473 33.2331 69.038 33.2331L69.038 33.2331ZM69.038 34.2691C67.7593 34.2691 67.12 35.2118 67.12 37.0971C67.12 38.9731 67.7547 39.9111 69.024 39.9111C70.2933 39.9111 70.928 38.9685 70.928 37.0831C70.928 35.2071 70.298 34.2691 69.038 34.2691L69.038 34.2691ZM61.548 40.7791L60.26 40.7791L60.26 33.4011L64.866 33.4011L64.698 34.4651L61.548 34.4651L61.548 40.7791ZM54.086 32.4211L50.432 32.4211L50.432 35.1791C50.908 34.9365 51.4073 34.8151 51.93 34.8151C52.7327 34.8151 53.3767 35.0788 53.862 35.6061C54.3473 36.1335 54.59 36.8591 54.59 37.7831C54.59 38.3991 54.4547 38.9475 54.184 39.4281C53.9133 39.9088 53.533 40.2821 53.043 40.5481C52.553 40.8141 51.986 40.9471 51.342 40.9471C50.7727 40.9471 50.264 40.8468 49.816 40.6461C49.368 40.4455 48.9527 40.1491 48.57 39.7571L49.326 39.0151C49.6247 39.3138 49.9327 39.5355 50.25 39.6801C50.5673 39.8248 50.9267 39.8971 51.328 39.8971C51.9253 39.8971 52.3943 39.7105 52.735 39.3371C53.0757 38.9638 53.246 38.4365 53.246 37.7551C53.246 37.0738 53.092 36.5791 52.784 36.2711C52.476 35.9631 52.0607 35.8091 51.538 35.8091C51.2953 35.8091 51.0713 35.8348 50.866 35.8861C50.6607 35.9375 50.4413 36.0191 50.208 36.1311L49.2 36.1311L49.2 31.4131L54.268 31.4131L54.086 32.4211ZM46.666 31.4131L46.666 40.7791L45.378 40.7791L45.378 32.7851L43.194 34.1151L42.634 33.2051L45.532 31.4131L46.666 31.4131ZM38.238 31.2731C39.274 31.2731 40.0557 31.6861 40.583 32.5121C41.1103 33.3381 41.374 34.5351 41.374 36.1031C41.374 37.6711 41.1103 38.8705 40.583 39.7011C40.0557 40.5318 39.274 40.9471 38.238 40.9471C37.202 40.9471 36.4203 40.5318 35.893 39.7011C35.3657 38.8705 35.102 37.6711 35.102 36.1031C35.102 34.5351 35.3657 33.3381 35.893 32.5121C36.4203 31.6861 37.202 31.2731 38.238 31.2731L38.238 31.2731ZM38.238 32.2951C37.6313 32.2951 37.181 32.5938 36.887 33.1911C36.593 33.7885 36.446 34.7591 36.446 36.1031C36.446 37.4471 36.593 38.4201 36.887 39.0221C37.181 39.6241 37.6313 39.9251 38.238 39.9251C38.8353 39.9251 39.2833 39.6241 39.582 39.0221C39.8807 38.4201 40.03 37.4471 40.03 36.1031C40.03 34.7685 39.8807 33.8001 39.582 33.1981C39.2833 32.5961 38.8353 32.2951 38.238 32.2951L38.238 32.2951ZM30.594 31.2731C31.154 31.2731 31.6463 31.3851 32.071 31.6091C32.4957 31.8331 32.8247 32.1388 33.058 32.5261C33.2913 32.9135 33.408 33.3498 33.408 33.8351C33.408 34.4045 33.2797 34.9505 33.023 35.4731C32.7663 35.9958 32.372 36.5605 31.84 37.1671C31.308 37.7738 30.5007 38.6185 29.418 39.7011L33.632 39.7011L33.478 40.7791L27.948 40.7791L27.948 39.7571C29.1987 38.4598 30.0853 37.5101 30.608 36.9081C31.1307 36.3061 31.504 35.7811 31.728 35.3331C31.952 34.8851 32.064 34.4045 32.064 33.8911C32.064 33.4058 31.924 33.0255 31.644 32.7501C31.364 32.4748 30.9907 32.3371 30.524 32.3371C30.1413 32.3371 29.8053 32.4165 29.516 32.5751C29.2267 32.7338 28.9187 32.9951 28.592 33.3591L27.752 32.6871C28.1347 32.2111 28.5593 31.8565 29.026 31.6231C29.4927 31.3898 30.0153 31.2731 30.594 31.2731L30.594 31.2731ZM21.018 33.2331C21.4567 33.2331 21.858 33.2961 22.222 33.4221C22.586 33.5481 22.936 33.7511 23.272 34.0311L22.656 34.8431C22.3947 34.6565 22.1403 34.5188 21.893 34.4301C21.6457 34.3415 21.3727 34.2971 21.074 34.2971C20.4767 34.2971 20.0123 34.5351 19.681 35.0111C19.3497 35.4871 19.184 36.1918 19.184 37.1251C19.184 38.0585 19.3473 38.7468 19.674 39.1901C20.0007 39.6335 20.4673 39.8551 21.074 39.8551C21.3633 39.8551 21.6293 39.8108 21.872 39.7221C22.1147 39.6335 22.3853 39.4911 22.684 39.2951L23.272 40.1351C22.6 40.6765 21.8487 40.9471 21.018 40.9471C20.0193 40.9471 19.233 40.6111 18.659 39.9391C18.085 39.2671 17.798 38.3385 17.798 37.1531C17.798 36.3691 17.9287 35.6831 18.19 35.0951C18.4513 34.5071 18.8223 34.0498 19.303 33.7231C19.7837 33.3965 20.3553 33.2331 21.018 33.2331L21.018 33.2331ZM79.146 23.7008L77.886 23.7008L77.55 20.2148C77.5127 19.8508 77.4893 19.4471 77.48 19.0038C77.4707 18.5604 77.466 18.0821 77.466 17.5688L75.786 22.8888L74.568 22.8888L73 17.5828C73 18.8148 72.9813 19.6874 72.944 20.2008L72.678 23.7008L71.432 23.7008L72.09 16.3228L73.756 16.3228L75.198 21.6008L76.78 16.3228L78.474 16.3228L79.146 23.7008ZM69.864 19.7948C69.864 20.0094 69.8547 20.2288 69.836 20.4528L65.132 20.4528C65.188 21.2648 65.3933 21.8621 65.748 22.2448C66.1027 22.6274 66.56 22.8188 67.12 22.8188C67.4747 22.8188 67.8013 22.7674 68.1 22.6648C68.3987 22.5621 68.7113 22.3988 69.038 22.1748L69.598 22.9448C68.814 23.5608 67.9553 23.8688 67.022 23.8688C65.9953 23.8688 65.195 23.5328 64.621 22.8608C64.047 22.1888 63.76 21.2648 63.76 20.0888C63.76 19.3234 63.8837 18.6444 64.131 18.0518C64.3783 17.4591 64.733 16.9948 65.195 16.6588C65.657 16.3228 66.2007 16.1548 66.826 16.1548C67.806 16.1548 68.5573 16.4768 69.08 17.1208C69.6027 17.7648 69.864 18.6561 69.864 19.7948L69.864 19.7948ZM68.59 19.4168C68.59 18.6888 68.4453 18.1334 68.156 17.7508C67.8667 17.3681 67.4327 17.1768 66.854 17.1768C65.7993 17.1768 65.2253 17.9514 65.132 19.5008L68.59 19.5008L68.59 19.4168ZM61.646 21.9788C61.646 22.2774 61.6973 22.4991 61.8 22.6438C61.9027 22.7884 62.0567 22.8981 62.262 22.9728L61.968 23.8688C61.5853 23.8221 61.2773 23.7148 61.044 23.5468C60.8107 23.3788 60.638 23.1174 60.526 22.7628C60.0313 23.5001 59.2987 23.8688 58.328 23.8688C57.6 23.8688 57.026 23.6634 56.606 23.2528C56.186 22.8421 55.976 22.3054 55.976 21.6428C55.976 20.8588 56.2583 20.2568 56.823 19.8368C57.3877 19.4168 58.188 19.2068 59.224 19.2068L60.358 19.2068L60.358 18.6608C60.358 18.1381 60.232 17.7648 59.98 17.5408C59.728 17.3168 59.3407 17.2048 58.818 17.2048C58.2767 17.2048 57.614 17.3354 56.83 17.5968L56.508 16.6588C57.4227 16.3228 58.272 16.1548 59.056 16.1548C59.924 16.1548 60.5727 16.3671 61.002 16.7918C61.4313 17.2164 61.646 17.8208 61.646 18.6048L61.646 21.9788ZM58.622 22.9028C59.3593 22.9028 59.938 22.5201 60.358 21.7548L60.358 20.0608L59.392 20.0608C58.0293 20.0608 57.348 20.5648 57.348 21.5728C57.348 22.0114 57.4553 22.3428 57.67 22.5668C57.8847 22.7908 58.202 22.9028 58.622 22.9028L58.622 22.9028ZM55.346 16.3228L55.192 17.3728L52.826 17.3728L52.826 23.7008L51.538 23.7008L51.538 17.3728L49.102 17.3728L49.102 16.3228L55.346 16.3228ZM44.958 16.1548C45.994 16.1548 46.799 16.5001 47.373 17.1908C47.947 17.8814 48.234 18.8194 48.234 20.0048C48.234 20.7701 48.1033 21.4444 47.842 22.0278C47.5807 22.6111 47.2027 23.0638 46.708 23.3858C46.2133 23.7078 45.6253 23.8688 44.944 23.8688C43.908 23.8688 43.1007 23.5234 42.522 22.8328C41.9433 22.1421 41.654 21.2041 41.654 20.0188C41.654 19.2534 41.7847 18.5791 42.046 17.9958C42.3073 17.4124 42.6853 16.9598 43.18 16.6378C43.6747 16.3158 44.2673 16.1548 44.958 16.1548L44.958 16.1548ZM44.958 17.1908C43.6793 17.1908 43.04 18.1334 43.04 20.0188C43.04 21.8948 43.6747 22.8328 44.944 22.8328C46.2133 22.8328 46.848 21.8901 46.848 20.0048C46.848 18.1288 46.218 17.1908 44.958 17.1908L44.958 17.1908ZM37.3 16.7988C38.14 16.7988 38.8097 17.1021 39.309 17.7088C39.8083 18.3154 40.058 19.1414 40.058 20.1868C40.058 21.3534 39.764 22.2588 39.176 22.9028C38.588 23.5468 37.7993 23.8688 36.81 23.8688C35.8207 23.8688 35.0297 23.5188 34.437 22.8188C33.8443 22.1188 33.548 21.0594 33.548 19.6408C33.548 18.5674 33.6297 17.6878 33.793 17.0018C33.9563 16.3158 34.241 15.7511 34.647 15.3078C35.053 14.8644 35.6247 14.5168 36.362 14.2648C36.9127 14.0781 37.3537 13.9101 37.685 13.7608C38.0163 13.6114 38.3547 13.4201 38.7 13.1868L39.246 14.1528C38.9193 14.3581 38.581 14.5471 38.231 14.7198C37.881 14.8924 37.4633 15.0581 36.978 15.2168C36.5113 15.3754 36.1427 15.5551 35.872 15.7558C35.6013 15.9564 35.3843 16.2458 35.221 16.6238C35.0577 17.0018 34.948 17.5174 34.892 18.1708C35.1533 17.7414 35.4893 17.4054 35.9 17.1628C36.3107 16.9201 36.7773 16.7988 37.3 16.7988L37.3 16.7988ZM36.81 22.8328C37.3793 22.8328 37.832 22.6391 38.168 22.2518C38.504 21.8644 38.672 21.1901 38.672 20.2288C38.672 19.3794 38.5343 18.7681 38.259 18.3948C37.9837 18.0214 37.5847 17.8348 37.062 17.8348C36.6327 17.8348 36.2313 17.9491 35.858 18.1778C35.4847 18.4064 35.1767 18.7541 34.934 19.2208L34.934 20.1168C34.934 20.9848 35.0997 21.6544 35.431 22.1258C35.7623 22.5971 36.222 22.8328 36.81 22.8328L36.81 22.8328ZM31.434 21.9788C31.434 22.2774 31.4853 22.4991 31.588 22.6438C31.6907 22.7884 31.8447 22.8981 32.05 22.9728L31.756 23.8688C31.3733 23.8221 31.0653 23.7148 30.832 23.5468C30.5987 23.3788 30.426 23.1174 30.314 22.7628C29.8193 23.5001 29.0867 23.8688 28.116 23.8688C27.388 23.8688 26.814 23.6634 26.394 23.2528C25.974 22.8421 25.764 22.3054 25.764 21.6428C25.764 20.8588 26.0463 20.2568 26.611 19.8368C27.1757 19.4168 27.976 19.2068 29.012 19.2068L30.146 19.2068L30.146 18.6608C30.146 18.1381 30.02 17.7648 29.768 17.5408C29.516 17.3168 29.1287 17.2048 28.606 17.2048C28.0647 17.2048 27.402 17.3354 26.618 17.5968L26.296 16.6588C27.2107 16.3228 28.06 16.1548 28.844 16.1548C29.712 16.1548 30.3607 16.3671 30.79 16.7918C31.2193 17.2164 31.434 17.8208 31.434 18.6048L31.434 21.9788ZM28.41 22.9028C29.1473 22.9028 29.726 22.5201 30.146 21.7548L30.146 20.0608L29.18 20.0608C27.8173 20.0608 27.136 20.5648 27.136 21.5728C27.136 22.0114 27.2433 22.3428 27.458 22.5668C27.6727 22.7908 27.99 22.9028 28.41 22.9028L28.41 22.9028ZM20.934 14.0548C22.1287 14.0548 23.0527 14.3044 23.706 14.8038C24.3593 15.3031 24.686 16.0474 24.686 17.0368C24.686 18.0914 24.3453 18.8754 23.664 19.3888C22.9827 19.9021 22.0773 20.1588 20.948 20.1588L19.73 20.1588L19.73 23.7008L18.4 23.7008L18.4 14.0548L20.934 14.0548ZM20.892 19.1088C21.6667 19.1088 22.257 18.9594 22.663 18.6608C23.069 18.3621 23.272 17.8254 23.272 17.0508C23.272 16.3601 23.069 15.8608 22.663 15.5528C22.257 15.2448 21.676 15.0908 20.92 15.0908L19.73 15.0908L19.73 19.1088L20.892 19.1088Z" id="Работаем--с-2015-года" fill="#566A7D" stroke="none" />
      </g>
    </g>
    <g filter="url(#filter_1)">
      <g id="Профессиональные-актёры" transform="translate(421 477.714)">
        <path d="M4.999 0L157.001 0Q157.124 0 157.246 0.00602151Q157.369 0.012043 157.491 0.0240715Q157.613 0.0361001 157.735 0.0541066Q157.856 0.0721132 157.976 0.0960544Q158.097 0.119996 158.216 0.149814Q158.335 0.179632 158.452 0.215255Q158.57 0.250879 158.685 0.292221Q158.801 0.333564 158.914 0.380526Q159.027 0.427489 159.138 0.479957Q159.249 0.532426 159.358 0.590276Q159.466 0.648125 159.571 0.711215Q159.676 0.774305 159.778 0.842483Q159.88 0.910662 159.979 0.983765Q160.077 1.05687 160.172 1.13472Q160.267 1.21257 160.358 1.29499Q160.449 1.3774 160.536 1.46417Q160.623 1.55095 160.705 1.64188Q160.787 1.73281 160.865 1.82767Q160.943 1.92253 161.016 2.0211Q161.089 2.11967 161.158 2.2217Q161.226 2.32374 161.289 2.429Q161.352 2.53426 161.41 2.64249Q161.468 2.75072 161.52 2.86165Q161.572 2.97259 161.619 3.08597Q161.666 3.19934 161.708 3.31489Q161.749 3.43043 161.785 3.54787Q161.82 3.6653 161.85 3.78434Q161.88 3.90338 161.904 4.02374Q161.928 4.1441 161.946 4.26549Q161.964 4.38688 161.976 4.50901Q161.988 4.63114 161.994 4.75371Q162 4.87628 162 4.999L162 51.001Q162 51.1237 161.994 51.2463Q161.988 51.3689 161.976 51.491Q161.964 51.6131 161.946 51.7345Q161.928 51.8559 161.904 51.9763Q161.88 52.0966 161.85 52.2157Q161.82 52.3347 161.785 52.4521Q161.749 52.5696 161.708 52.6851Q161.666 52.8007 161.619 52.914Q161.572 53.0274 161.52 53.1383Q161.468 53.2493 161.41 53.3575Q161.352 53.4657 161.289 53.571Q161.226 53.6763 161.158 53.7783Q161.089 53.8803 161.016 53.9789Q160.943 54.0775 160.865 54.1723Q160.787 54.2672 160.705 54.3581Q160.623 54.449 160.536 54.5358Q160.449 54.6226 160.358 54.705Q160.267 54.7874 160.172 54.8653Q160.077 54.9431 159.979 55.0162Q159.88 55.0893 159.778 55.1575Q159.676 55.2257 159.571 55.2888Q159.466 55.3519 159.358 55.4097Q159.249 55.4676 159.138 55.52Q159.027 55.5725 158.914 55.6195Q158.801 55.6664 158.685 55.7078Q158.57 55.7491 158.452 55.7847Q158.335 55.8204 158.216 55.8502Q158.097 55.88 157.976 55.9039Q157.856 55.9279 157.735 55.9459Q157.613 55.9639 157.491 55.9759Q157.369 55.9879 157.246 55.994Q157.124 56 157.001 56L4.999 56Q4.87628 56 4.75371 55.994Q4.63114 55.9879 4.50901 55.9759Q4.38688 55.9639 4.26549 55.9459Q4.1441 55.9279 4.02374 55.9039Q3.90338 55.88 3.78434 55.8502Q3.6653 55.8204 3.54787 55.7847Q3.43043 55.7491 3.31489 55.7078Q3.19934 55.6664 3.08597 55.6195Q2.97259 55.5725 2.86165 55.52Q2.75072 55.4676 2.64249 55.4097Q2.53426 55.3519 2.429 55.2888Q2.32374 55.2257 2.2217 55.1575Q2.11967 55.0893 2.0211 55.0162Q1.92253 54.9431 1.82767 54.8653Q1.73281 54.7874 1.64188 54.705Q1.55095 54.6226 1.46417 54.5358Q1.3774 54.449 1.29499 54.3581Q1.21257 54.2672 1.13472 54.1723Q1.05687 54.0775 0.983765 53.9789Q0.910662 53.8803 0.842483 53.7783Q0.774305 53.6763 0.711215 53.571Q0.648125 53.4657 0.590276 53.3575Q0.532426 53.2493 0.479957 53.1383Q0.427489 53.0274 0.380526 52.914Q0.333564 52.8007 0.292221 52.6851Q0.250879 52.5696 0.215255 52.4521Q0.179632 52.3347 0.149814 52.2157Q0.119996 52.0966 0.0960544 51.9763Q0.0721132 51.8559 0.0541066 51.7345Q0.0361001 51.6131 0.0240715 51.491Q0.012043 51.3689 0.00602151 51.2463Q0 51.1237 0 51.001L0 4.999Q0 4.87628 0.00602151 4.75371Q0.012043 4.63114 0.0240715 4.50901Q0.0361001 4.38688 0.0541066 4.26549Q0.0721132 4.1441 0.0960544 4.02374Q0.119996 3.90338 0.149814 3.78434Q0.179632 3.6653 0.215255 3.54787Q0.250879 3.43043 0.292221 3.31489Q0.333564 3.19934 0.380526 3.08597Q0.427489 2.97259 0.479957 2.86165Q0.532426 2.75072 0.590276 2.64249Q0.648125 2.53426 0.711215 2.429Q0.774305 2.32374 0.842483 2.2217Q0.910662 2.11967 0.983765 2.0211Q1.05687 1.92253 1.13472 1.82767Q1.21257 1.73281 1.29499 1.64188Q1.3774 1.55095 1.46417 1.46417Q1.55095 1.3774 1.64188 1.29499Q1.73281 1.21257 1.82767 1.13472Q1.92253 1.05687 2.0211 0.983765Q2.11967 0.910662 2.2217 0.842483Q2.32374 0.774305 2.429 0.711215Q2.53426 0.648125 2.64249 0.590276Q2.75072 0.532426 2.86165 0.479957Q2.97259 0.427489 3.08597 0.380526Q3.19934 0.333564 3.31489 0.292221Q3.43043 0.250879 3.54787 0.215255Q3.6653 0.179632 3.78434 0.149814Q3.90338 0.119996 4.02374 0.0960544Q4.1441 0.0721132 4.26549 0.0541066Q4.38688 0.0361001 4.50901 0.0240715Q4.63114 0.012043 4.75371 0.00602151Q4.87628 0 4.999 0Z" id="Rectangle" fill="#FFFFFF" fill-rule="evenodd" stroke="none" />
        <path d="M55.6 36.4034C56.7013 36.4034 57.4993 36.618 57.994 37.0474C58.4887 37.4767 58.736 38.088 58.736 38.8814C58.736 39.712 58.4583 40.3397 57.903 40.7644C57.3477 41.189 56.6593 41.4014 55.838 41.4014L53.472 41.4014L53.472 34.0234L54.76 34.0234L54.76 36.4034L55.6 36.4034ZM59.8 34.0234L61.088 34.0234L61.088 41.4014L59.8 41.4014L59.8 34.0234ZM55.726 40.3934C56.2487 40.3934 56.6523 40.2767 56.937 40.0434C57.2217 39.81 57.364 39.4227 57.364 38.8814C57.364 38.368 57.231 37.99 56.965 37.7474C56.699 37.5047 56.2393 37.3834 55.586 37.3834L54.76 37.3834L54.76 40.3934L55.726 40.3934ZM48.544 33.8554C49.4867 33.8554 50.1773 34.1914 50.616 34.8634C51.0547 35.5354 51.274 36.4827 51.274 37.7054C51.274 38.8627 51.022 39.796 50.518 40.5054C50.014 41.2147 49.3 41.5694 48.376 41.5694C47.5547 41.5694 46.9107 41.2894 46.444 40.7294L46.444 44.2294L45.156 44.3834L45.156 34.0234L46.262 34.0234L46.36 35.0174C46.6307 34.644 46.9573 34.357 47.34 34.1564C47.7227 33.9557 48.124 33.8554 48.544 33.8554L48.544 33.8554ZM48.068 40.5194C49.2813 40.5194 49.888 39.5814 49.888 37.7054C49.888 35.82 49.3327 34.8774 48.222 34.8774C47.858 34.8774 47.5267 34.9847 47.228 35.1994C46.9293 35.414 46.668 35.6894 46.444 36.0254L46.444 39.6234C46.6307 39.9127 46.864 40.1344 47.144 40.2884C47.424 40.4424 47.732 40.5194 48.068 40.5194L48.068 40.5194ZM43.098 37.4954C43.098 37.71 43.0887 37.9294 43.07 38.1534L38.366 38.1534C38.422 38.9654 38.6273 39.5627 38.982 39.9454C39.3367 40.328 39.794 40.5194 40.354 40.5194C40.7087 40.5194 41.0353 40.468 41.334 40.3654C41.6327 40.2627 41.9453 40.0994 42.272 39.8754L42.832 40.6454C42.048 41.2614 41.1893 41.5694 40.256 41.5694C39.2293 41.5694 38.429 41.2334 37.855 40.5614C37.281 39.8894 36.994 38.9654 36.994 37.7894C36.994 37.024 37.1177 36.345 37.365 35.7524C37.6123 35.1597 37.967 34.6954 38.429 34.3594C38.891 34.0234 39.4347 33.8554 40.06 33.8554C41.04 33.8554 41.7913 34.1774 42.314 34.8214C42.8367 35.4654 43.098 36.3567 43.098 37.4954L43.098 37.4954ZM41.824 37.1174C41.824 36.3894 41.6793 35.834 41.39 35.4514C41.1007 35.0687 40.6667 34.8774 40.088 34.8774C39.0333 34.8774 38.4593 35.652 38.366 37.2014L41.824 37.2014L41.824 37.1174ZM38.632 30.6494C38.856 30.6494 39.045 30.7264 39.199 30.8804C39.353 31.0344 39.43 31.2234 39.43 31.4474C39.43 31.6714 39.353 31.8604 39.199 32.0144C39.045 32.1684 38.856 32.2454 38.632 32.2454C38.3987 32.2454 38.205 32.1684 38.051 32.0144C37.897 31.8604 37.82 31.6714 37.82 31.4474C37.82 31.2234 37.897 31.0344 38.051 30.8804C38.205 30.7264 38.3987 30.6494 38.632 30.6494L38.632 30.6494ZM41.558 30.6494C41.7913 30.6494 41.985 30.7264 42.139 30.8804C42.293 31.0344 42.37 31.2234 42.37 31.4474C42.37 31.6714 42.293 31.8604 42.139 32.0144C41.985 32.1684 41.7913 32.2454 41.558 32.2454C41.334 32.2454 41.145 32.1684 40.991 32.0144C40.837 31.8604 40.76 31.6714 40.76 31.4474C40.76 31.2234 40.837 31.0344 40.991 30.8804C41.145 30.7264 41.334 30.6494 41.558 30.6494L41.558 30.6494ZM36.196 34.0234L36.042 35.0734L33.676 35.0734L33.676 41.4014L32.388 41.4014L32.388 35.0734L29.952 35.0734L29.952 34.0234L36.196 34.0234ZM29.476 34.0234L27.236 37.4394L29.742 41.4014L28.216 41.4014L26.172 37.9994L25.234 37.9994L25.234 41.4014L23.946 41.4014L23.946 34.0234L25.234 34.0234L25.234 36.9914L26.2 36.9914L28.062 34.0234L29.476 34.0234ZM21.3 39.6794C21.3 39.978 21.3513 40.1997 21.454 40.3444C21.5567 40.489 21.7107 40.5987 21.916 40.6734L21.622 41.5694C21.2393 41.5227 20.9313 41.4154 20.698 41.2474C20.4647 41.0794 20.292 40.818 20.18 40.4634C19.6853 41.2007 18.9527 41.5694 17.982 41.5694C17.254 41.5694 16.68 41.364 16.26 40.9534C15.84 40.5427 15.63 40.006 15.63 39.3434C15.63 38.5594 15.9123 37.9574 16.477 37.5374C17.0417 37.1174 17.842 36.9074 18.878 36.9074L20.012 36.9074L20.012 36.3614C20.012 35.8387 19.886 35.4654 19.634 35.2414C19.382 35.0174 18.9947 34.9054 18.472 34.9054C17.9307 34.9054 17.268 35.036 16.484 35.2974L16.162 34.3594C17.0767 34.0234 17.926 33.8554 18.71 33.8554C19.578 33.8554 20.2267 34.0677 20.656 34.4924C21.0853 34.917 21.3 35.5214 21.3 36.3054L21.3 39.6794ZM18.276 40.6034C19.0133 40.6034 19.592 40.2207 20.012 39.4554L20.012 37.7614L19.046 37.7614C17.6833 37.7614 17.002 38.2654 17.002 39.2734C17.002 39.712 17.1093 40.0434 17.324 40.2674C17.5387 40.4914 17.856 40.6034 18.276 40.6034L18.276 40.6034ZM146.642 20.417C146.642 20.6317 146.633 20.851 146.614 21.075L141.91 21.075C141.966 21.887 142.171 22.4843 142.526 22.867C142.881 23.2497 143.338 23.441 143.898 23.441C144.253 23.441 144.579 23.3897 144.878 23.287C145.177 23.1843 145.489 23.021 145.816 22.797L146.376 23.567C145.592 24.183 144.733 24.491 143.8 24.491C142.773 24.491 141.973 24.155 141.399 23.483C140.825 22.811 140.538 21.887 140.538 20.711C140.538 19.9457 140.662 19.2667 140.909 18.674C141.156 18.0813 141.511 17.617 141.973 17.281C142.435 16.945 142.979 16.777 143.604 16.777C144.584 16.777 145.335 17.099 145.858 17.743C146.381 18.387 146.642 19.2783 146.642 20.417L146.642 20.417ZM145.368 20.039C145.368 19.311 145.223 18.7557 144.934 18.373C144.645 17.9903 144.211 17.799 143.632 17.799C142.577 17.799 142.003 18.5737 141.91 20.123L145.368 20.123L145.368 20.039ZM132.922 19.325C134.023 19.325 134.821 19.5397 135.316 19.969C135.811 20.3983 136.058 21.0097 136.058 21.803C136.058 22.6337 135.78 23.2613 135.225 23.686C134.67 24.1107 133.981 24.323 133.16 24.323L130.794 24.323L130.794 16.945L132.082 16.945L132.082 19.325L132.922 19.325ZM137.122 16.945L138.41 16.945L138.41 24.323L137.122 24.323L137.122 16.945ZM133.048 23.315C133.571 23.315 133.974 23.1983 134.259 22.965C134.544 22.7317 134.686 22.3443 134.686 21.803C134.686 21.2897 134.553 20.9117 134.287 20.669C134.021 20.4263 133.561 20.305 132.908 20.305L132.082 20.305L132.082 23.315L133.048 23.315ZM126.846 24.323L126.846 21.075L123.78 21.075L123.78 24.323L122.492 24.323L122.492 16.945L123.78 16.945L123.78 20.039L126.846 20.039L126.846 16.945L128.134 16.945L128.134 24.323L126.846 24.323ZM117.536 19.325C118.637 19.325 119.435 19.5397 119.93 19.969C120.425 20.3983 120.672 21.0097 120.672 21.803C120.672 22.6337 120.394 23.2613 119.839 23.686C119.284 24.1107 118.595 24.323 117.774 24.323L115.268 24.323L115.268 16.945L116.556 16.945L116.556 19.325L117.536 19.325ZM117.662 23.315C118.185 23.315 118.588 23.1983 118.873 22.965C119.158 22.7317 119.3 22.3443 119.3 21.803C119.3 21.2897 119.167 20.9117 118.901 20.669C118.635 20.4263 118.175 20.305 117.522 20.305L116.556 20.305L116.556 23.315L117.662 23.315ZM112.608 16.945L112.608 24.323L111.32 24.323L111.32 17.995L109.038 17.995L108.828 20.459C108.744 21.4577 108.639 22.2043 108.513 22.699C108.387 23.1937 108.191 23.574 107.925 23.84C107.659 24.106 107.255 24.323 106.714 24.491L106.392 23.469C106.709 23.357 106.933 23.2123 107.064 23.035C107.195 22.8577 107.293 22.587 107.358 22.223C107.423 21.859 107.493 21.2243 107.568 20.319L107.862 16.945L112.608 16.945ZM104.558 22.601C104.558 22.8997 104.609 23.1213 104.712 23.266C104.815 23.4107 104.969 23.5203 105.174 23.595L104.88 24.491C104.497 24.4443 104.189 24.337 103.956 24.169C103.723 24.001 103.55 23.7397 103.438 23.385C102.943 24.1223 102.211 24.491 101.24 24.491C100.512 24.491 99.938 24.2857 99.518 23.875C99.098 23.4643 98.888 22.9277 98.888 22.265C98.888 21.481 99.1703 20.879 99.735 20.459C100.3 20.039 101.1 19.829 102.136 19.829L103.27 19.829L103.27 19.283C103.27 18.7603 103.144 18.387 102.892 18.163C102.64 17.939 102.253 17.827 101.73 17.827C101.189 17.827 100.526 17.9577 99.742 18.219L99.42 17.281C100.335 16.945 101.184 16.777 101.968 16.777C102.836 16.777 103.485 16.9893 103.914 17.414C104.343 17.8387 104.558 18.443 104.558 19.227L104.558 22.601ZM101.534 23.525C102.271 23.525 102.85 23.1423 103.27 22.377L103.27 20.683L102.304 20.683C100.941 20.683 100.26 21.187 100.26 22.195C100.26 22.6337 100.367 22.965 100.582 23.189C100.797 23.413 101.114 23.525 101.534 23.525L101.534 23.525ZM95.64 24.323L95.64 21.075L92.574 21.075L92.574 24.323L91.286 24.323L91.286 16.945L92.574 16.945L92.574 20.039L95.64 20.039L95.64 16.945L96.928 16.945L96.928 24.323L95.64 24.323ZM85.882 16.777C86.918 16.777 87.723 17.1223 88.297 17.813C88.871 18.5037 89.158 19.4417 89.158 20.627C89.158 21.3923 89.0273 22.0667 88.766 22.65C88.5047 23.2333 88.1267 23.686 87.632 24.008C87.1373 24.33 86.5493 24.491 85.868 24.491C84.832 24.491 84.0247 24.1457 83.446 23.455C82.8673 22.7643 82.578 21.8263 82.578 20.641C82.578 19.8757 82.7087 19.2013 82.97 18.618C83.2313 18.0347 83.6093 17.582 84.104 17.26C84.5987 16.938 85.1913 16.777 85.882 16.777L85.882 16.777ZM85.882 17.813C84.6033 17.813 83.964 18.7557 83.964 20.641C83.964 22.517 84.5987 23.455 85.868 23.455C87.1373 23.455 87.772 22.5123 87.772 20.627C87.772 18.751 87.142 17.813 85.882 17.813L85.882 17.813ZM80.45 24.323L79.176 24.323L79.176 20.991C79.176 20.431 79.1947 19.899 79.232 19.395C79.2693 18.891 79.302 18.5597 79.33 18.401L76.236 24.323L74.71 24.323L74.71 16.945L75.984 16.945L75.984 20.277C75.984 20.7717 75.9653 21.2827 75.928 21.81C75.8907 22.3373 75.8627 22.6757 75.844 22.825L78.896 16.945L80.45 16.945L80.45 24.323ZM70.706 16.777C71.1447 16.777 71.546 16.84 71.91 16.966C72.274 17.092 72.624 17.295 72.96 17.575L72.344 18.387C72.0827 18.2003 71.8283 18.0627 71.581 17.974C71.3337 17.8853 71.0607 17.841 70.762 17.841C70.1647 17.841 69.7003 18.079 69.369 18.555C69.0377 19.031 68.872 19.7357 68.872 20.669C68.872 21.6023 69.0353 22.2907 69.362 22.734C69.6887 23.1773 70.1553 23.399 70.762 23.399C71.0513 23.399 71.3173 23.3547 71.56 23.266C71.8027 23.1773 72.0733 23.035 72.372 22.839L72.96 23.679C72.288 24.2203 71.5367 24.491 70.706 24.491C69.7073 24.491 68.921 24.155 68.347 23.483C67.773 22.811 67.486 21.8823 67.486 20.697C67.486 19.913 67.6167 19.227 67.878 18.639C68.1393 18.051 68.5103 17.5937 68.991 17.267C69.4717 16.9403 70.0433 16.777 70.706 16.777L70.706 16.777ZM64.014 16.777C64.4527 16.777 64.854 16.84 65.218 16.966C65.582 17.092 65.932 17.295 66.268 17.575L65.652 18.387C65.3907 18.2003 65.1363 18.0627 64.889 17.974C64.6417 17.8853 64.3687 17.841 64.07 17.841C63.4727 17.841 63.0083 18.079 62.677 18.555C62.3457 19.031 62.18 19.7357 62.18 20.669C62.18 21.6023 62.3433 22.2907 62.67 22.734C62.9967 23.1773 63.4633 23.399 64.07 23.399C64.3593 23.399 64.6253 23.3547 64.868 23.266C65.1107 23.1773 65.3813 23.035 65.68 22.839L66.268 23.679C65.596 24.2203 64.8447 24.491 64.014 24.491C63.0153 24.491 62.229 24.155 61.655 23.483C61.081 22.811 60.794 21.8823 60.794 20.697C60.794 19.913 60.9247 19.227 61.186 18.639C61.4473 18.051 61.8183 17.5937 62.299 17.267C62.7797 16.9403 63.3513 16.777 64.014 16.777L64.014 16.777ZM59.268 20.417C59.268 20.6317 59.2587 20.851 59.24 21.075L54.536 21.075C54.592 21.887 54.7973 22.4843 55.152 22.867C55.5067 23.2497 55.964 23.441 56.524 23.441C56.8787 23.441 57.2053 23.3897 57.504 23.287C57.8027 23.1843 58.1153 23.021 58.442 22.797L59.002 23.567C58.218 24.183 57.3593 24.491 56.426 24.491C55.3993 24.491 54.599 24.155 54.025 23.483C53.451 22.811 53.164 21.887 53.164 20.711C53.164 19.9457 53.2877 19.2667 53.535 18.674C53.7823 18.0813 54.137 17.617 54.599 17.281C55.061 16.945 55.6047 16.777 56.23 16.777C57.21 16.777 57.9613 17.099 58.484 17.743C59.0067 18.387 59.268 19.2783 59.268 20.417L59.268 20.417ZM57.994 20.039C57.994 19.311 57.8493 18.7557 57.56 18.373C57.2707 17.9903 56.8367 17.799 56.258 17.799C55.2033 17.799 54.6293 18.5737 54.536 20.123L57.994 20.123L57.994 20.039ZM48.992 16.777C49.888 16.777 50.5297 17.1083 50.917 17.771C51.3043 18.4337 51.498 19.3857 51.498 20.627C51.498 21.803 51.274 22.741 50.826 23.441C50.378 24.141 49.7573 24.491 48.964 24.491C48.264 24.491 47.6993 24.1783 47.27 23.553L47.27 27.151L46.038 27.305L46.038 23.553C45.8327 23.8517 45.5713 24.0827 45.254 24.246C44.9367 24.4093 44.596 24.491 44.232 24.491C43.4853 24.491 42.895 24.141 42.461 23.441C42.027 22.741 41.81 21.803 41.81 20.627C41.81 19.395 41.999 18.4453 42.377 17.778C42.755 17.1107 43.378 16.777 44.246 16.777C45.002 16.777 45.5993 17.0477 46.038 17.589L46.038 13.823L47.27 13.977L47.27 17.617C47.6993 17.057 48.2733 16.777 48.992 16.777L48.992 16.777ZM44.526 23.469C44.8247 23.469 45.1023 23.3873 45.359 23.224C45.6157 23.0607 45.842 22.8343 46.038 22.545L46.038 18.639C45.618 18.079 45.1093 17.799 44.512 17.799C44.0827 17.799 43.756 18.0347 43.532 18.506C43.308 18.9773 43.196 19.6843 43.196 20.627C43.196 21.5697 43.3127 22.279 43.546 22.755C43.7793 23.231 44.106 23.469 44.526 23.469L44.526 23.469ZM48.726 23.469C49.1647 23.469 49.5053 23.231 49.748 22.755C49.9907 22.279 50.112 21.5697 50.112 20.627C50.112 18.7417 49.65 17.799 48.726 17.799C48.138 17.799 47.6527 18.0883 47.27 18.667L47.27 22.559C47.466 22.8577 47.6807 23.084 47.914 23.238C48.1473 23.392 48.418 23.469 48.726 23.469L48.726 23.469ZM36.868 16.777C37.904 16.777 38.709 17.1223 39.283 17.813C39.857 18.5037 40.144 19.4417 40.144 20.627C40.144 21.3923 40.0133 22.0667 39.752 22.65C39.4907 23.2333 39.1127 23.686 38.618 24.008C38.1233 24.33 37.5353 24.491 36.854 24.491C35.818 24.491 35.0107 24.1457 34.432 23.455C33.8533 22.7643 33.564 21.8263 33.564 20.641C33.564 19.8757 33.6947 19.2013 33.956 18.618C34.2173 18.0347 34.5953 17.582 35.09 17.26C35.5847 16.938 36.1773 16.777 36.868 16.777L36.868 16.777ZM36.868 17.813C35.5893 17.813 34.95 18.7557 34.95 20.641C34.95 22.517 35.5847 23.455 36.854 23.455C38.1233 23.455 38.758 22.5123 38.758 20.627C38.758 18.751 38.128 17.813 36.868 17.813L36.868 17.813ZM29.168 16.777C30.1107 16.777 30.8013 17.113 31.24 17.785C31.6787 18.457 31.898 19.4043 31.898 20.627C31.898 21.7843 31.646 22.7177 31.142 23.427C30.638 24.1363 29.924 24.491 29 24.491C28.1787 24.491 27.5347 24.211 27.068 23.651L27.068 27.151L25.78 27.305L25.78 16.945L26.886 16.945L26.984 17.939C27.2547 17.5657 27.5813 17.2787 27.964 17.078C28.3467 16.8773 28.748 16.777 29.168 16.777L29.168 16.777ZM28.692 23.441C29.9053 23.441 30.512 22.503 30.512 20.627C30.512 18.7417 29.9567 17.799 28.846 17.799C28.482 17.799 28.1507 17.9063 27.852 18.121C27.5533 18.3357 27.292 18.611 27.068 18.947L27.068 22.545C27.2547 22.8343 27.488 23.056 27.768 23.21C28.048 23.364 28.356 23.441 28.692 23.441L28.692 23.441ZM23.05 14.677L23.05 24.323L21.72 24.323L21.72 15.811L17.73 15.811L17.73 24.323L16.4 24.323L16.4 14.677L23.05 14.677Z" id="Профессиональные--актёры" fill="#516A7F" stroke="none" />
      </g>
    </g>
    <g filter="url(#filter_1)">
      <g id="Профессиональные-актёры" transform="translate(0 360.71396)">
        <path d="M4.999 0L108.001 0Q108.124 0 108.246 0.00602151Q108.369 0.012043 108.491 0.0240715Q108.613 0.0361001 108.735 0.0541066Q108.856 0.0721132 108.976 0.0960544Q109.097 0.119996 109.216 0.149814Q109.335 0.179632 109.452 0.215255Q109.57 0.250879 109.685 0.292221Q109.801 0.333564 109.914 0.380526Q110.027 0.427489 110.138 0.479957Q110.249 0.532426 110.358 0.590276Q110.466 0.648125 110.571 0.711215Q110.676 0.774305 110.778 0.842483Q110.88 0.910662 110.979 0.983765Q111.077 1.05687 111.172 1.13472Q111.267 1.21257 111.358 1.29499Q111.449 1.3774 111.536 1.46417Q111.623 1.55095 111.705 1.64188Q111.787 1.73281 111.865 1.82767Q111.943 1.92253 112.016 2.0211Q112.089 2.11967 112.158 2.2217Q112.226 2.32374 112.289 2.429Q112.352 2.53426 112.41 2.64249Q112.468 2.75072 112.52 2.86165Q112.573 2.97259 112.619 3.08597Q112.666 3.19934 112.708 3.31489Q112.749 3.43043 112.785 3.54787Q112.82 3.6653 112.85 3.78434Q112.88 3.90338 112.904 4.02374Q112.928 4.1441 112.946 4.26549Q112.964 4.38688 112.976 4.50901Q112.988 4.63114 112.994 4.75371Q113 4.87628 113 4.999L113 51.001Q113 51.1237 112.994 51.2463Q112.988 51.3689 112.976 51.491Q112.964 51.6131 112.946 51.7345Q112.928 51.8559 112.904 51.9763Q112.88 52.0966 112.85 52.2157Q112.82 52.3347 112.785 52.4521Q112.749 52.5696 112.708 52.6851Q112.666 52.8007 112.619 52.914Q112.573 53.0274 112.52 53.1383Q112.468 53.2493 112.41 53.3575Q112.352 53.4657 112.289 53.571Q112.226 53.6763 112.158 53.7783Q112.089 53.8803 112.016 53.9789Q111.943 54.0775 111.865 54.1723Q111.787 54.2672 111.705 54.3581Q111.623 54.449 111.536 54.5358Q111.449 54.6226 111.358 54.705Q111.267 54.7874 111.172 54.8653Q111.077 54.9431 110.979 55.0162Q110.88 55.0893 110.778 55.1575Q110.676 55.2257 110.571 55.2888Q110.466 55.3519 110.358 55.4097Q110.249 55.4676 110.138 55.52Q110.027 55.5725 109.914 55.6195Q109.801 55.6664 109.685 55.7078Q109.57 55.7491 109.452 55.7847Q109.335 55.8204 109.216 55.8502Q109.097 55.88 108.976 55.9039Q108.856 55.9279 108.735 55.9459Q108.613 55.9639 108.491 55.9759Q108.369 55.9879 108.246 55.994Q108.124 56 108.001 56L4.999 56Q4.87628 56 4.75371 55.994Q4.63114 55.9879 4.50901 55.9759Q4.38688 55.9639 4.26549 55.9459Q4.1441 55.9279 4.02374 55.9039Q3.90338 55.88 3.78434 55.8502Q3.6653 55.8204 3.54787 55.7847Q3.43043 55.7491 3.31489 55.7078Q3.19934 55.6664 3.08597 55.6195Q2.97259 55.5725 2.86165 55.52Q2.75072 55.4676 2.64249 55.4097Q2.53426 55.3519 2.429 55.2888Q2.32374 55.2257 2.2217 55.1575Q2.11967 55.0893 2.0211 55.0162Q1.92253 54.9431 1.82767 54.8653Q1.73281 54.7874 1.64188 54.705Q1.55095 54.6226 1.46417 54.5358Q1.3774 54.449 1.29499 54.3581Q1.21257 54.2672 1.13472 54.1723Q1.05687 54.0775 0.983765 53.9789Q0.910662 53.8803 0.842483 53.7783Q0.774305 53.6763 0.711215 53.571Q0.648125 53.4657 0.590276 53.3575Q0.532426 53.2493 0.479957 53.1383Q0.427489 53.0274 0.380526 52.914Q0.333564 52.8007 0.292221 52.6851Q0.250879 52.5696 0.215255 52.4521Q0.179632 52.3347 0.149814 52.2157Q0.119996 52.0966 0.0960544 51.9763Q0.0721132 51.8559 0.0541066 51.7345Q0.0361001 51.6131 0.0240715 51.491Q0.012043 51.3689 0.00602151 51.2463Q0 51.1237 0 51.001L0 4.999Q0 4.87628 0.00602151 4.75371Q0.012043 4.63114 0.0240715 4.50901Q0.0361001 4.38688 0.0541066 4.26549Q0.0721132 4.1441 0.0960544 4.02374Q0.119996 3.90338 0.149814 3.78434Q0.179632 3.6653 0.215255 3.54787Q0.250879 3.43043 0.292221 3.31489Q0.333564 3.19934 0.380526 3.08597Q0.427489 2.97259 0.479957 2.86165Q0.532426 2.75072 0.590276 2.64249Q0.648125 2.53426 0.711215 2.429Q0.774305 2.32374 0.842483 2.2217Q0.910662 2.11967 0.983765 2.0211Q1.05687 1.92253 1.13472 1.82767Q1.21257 1.73281 1.29499 1.64188Q1.3774 1.55095 1.46417 1.46417Q1.55095 1.3774 1.64188 1.29499Q1.73281 1.21257 1.82767 1.13472Q1.92253 1.05687 2.0211 0.983765Q2.11967 0.910662 2.2217 0.842483Q2.32374 0.774305 2.429 0.711215Q2.53426 0.648125 2.64249 0.590276Q2.75072 0.532426 2.86165 0.479957Q2.97259 0.427489 3.08597 0.380526Q3.19934 0.333564 3.31489 0.292221Q3.43043 0.250879 3.54787 0.215255Q3.6653 0.179632 3.78434 0.149814Q3.90338 0.119996 4.02374 0.0960544Q4.1441 0.0721132 4.26549 0.0541066Q4.38688 0.0361001 4.50901 0.0240715Q4.63114 0.012043 4.75371 0.00602151Q4.87628 0 4.999 0Z" id="Rectangle" fill="#FFFFFF" fill-rule="evenodd" stroke="none" />
        <path d="M85.3 39.6794C85.3 39.978 85.3513 40.1997 85.454 40.3444C85.5567 40.489 85.7107 40.5987 85.916 40.6734L85.622 41.5694C85.2393 41.5227 84.9313 41.4154 84.698 41.2474C84.4647 41.0794 84.292 40.818 84.18 40.4634C83.6853 41.2007 82.9527 41.5694 81.982 41.5694C81.254 41.5694 80.68 41.364 80.26 40.9534C79.84 40.5427 79.63 40.006 79.63 39.3434C79.63 38.5594 79.9123 37.9574 80.477 37.5374C81.0417 37.1174 81.842 36.9074 82.878 36.9074L84.012 36.9074L84.012 36.3614C84.012 35.8387 83.886 35.4654 83.634 35.2414C83.382 35.0174 82.9947 34.9054 82.472 34.9054C81.9307 34.9054 81.268 35.036 80.484 35.2974L80.162 34.3594C81.0767 34.0234 81.926 33.8554 82.71 33.8554C83.578 33.8554 84.2267 34.0677 84.656 34.4924C85.0853 34.917 85.3 35.5214 85.3 36.3054L85.3 39.6794ZM82.276 40.6034C83.0133 40.6034 83.592 40.2207 84.012 39.4554L84.012 37.7614L83.046 37.7614C81.6833 37.7614 81.002 38.2654 81.002 39.2734C81.002 39.712 81.1093 40.0434 81.324 40.2674C81.5387 40.4914 81.856 40.6034 82.276 40.6034L82.276 40.6034ZM75.402 33.8554C76.3447 33.8554 77.0353 34.1914 77.474 34.8634C77.9127 35.5354 78.132 36.4827 78.132 37.7054C78.132 38.8627 77.88 39.796 77.376 40.5054C76.872 41.2147 76.158 41.5694 75.234 41.5694C74.4127 41.5694 73.7687 41.2894 73.302 40.7294L73.302 44.2294L72.014 44.3834L72.014 34.0234L73.12 34.0234L73.218 35.0174C73.4887 34.644 73.8153 34.357 74.198 34.1564C74.5807 33.9557 74.982 33.8554 75.402 33.8554L75.402 33.8554ZM74.926 40.5194C76.1393 40.5194 76.746 39.5814 76.746 37.7054C76.746 35.82 76.1907 34.8774 75.08 34.8774C74.716 34.8774 74.3847 34.9847 74.086 35.1994C73.7873 35.414 73.526 35.6894 73.302 36.0254L73.302 39.6234C73.4887 39.9127 73.722 40.1344 74.002 40.2884C74.282 40.4424 74.59 40.5194 74.926 40.5194L74.926 40.5194ZM68.08 41.4434C67.7907 42.302 67.387 42.981 66.869 43.4804C66.351 43.9797 65.6113 44.2807 64.65 44.3834L64.51 43.3754C64.9953 43.2914 65.3827 43.17 65.672 43.0114C65.9613 42.8527 66.1923 42.6497 66.365 42.4024C66.5377 42.155 66.6987 41.8214 66.848 41.4014L66.414 41.4014L63.936 34.0234L65.308 34.0234L67.282 40.4634L69.214 34.0234L70.544 34.0234L68.08 41.4434ZM61.122 33.8554C61.5607 33.8554 61.962 33.9184 62.326 34.0444C62.69 34.1704 63.04 34.3734 63.376 34.6534L62.76 35.4654C62.4987 35.2787 62.2443 35.141 61.997 35.0524C61.7497 34.9637 61.4767 34.9194 61.178 34.9194C60.5807 34.9194 60.1163 35.1574 59.785 35.6334C59.4537 36.1094 59.288 36.814 59.288 37.7474C59.288 38.6807 59.4513 39.369 59.778 39.8124C60.1047 40.2557 60.5713 40.4774 61.178 40.4774C61.4673 40.4774 61.7333 40.433 61.976 40.3444C62.2187 40.2557 62.4893 40.1134 62.788 39.9174L63.376 40.7574C62.704 41.2987 61.9527 41.5694 61.122 41.5694C60.1233 41.5694 59.337 41.2334 58.763 40.5614C58.189 39.8894 57.902 38.9607 57.902 37.7754C57.902 36.9914 58.0327 36.3054 58.294 35.7174C58.5553 35.1294 58.9263 34.672 59.407 34.3454C59.8877 34.0187 60.4593 33.8554 61.122 33.8554L61.122 33.8554ZM54.43 33.8554C54.8687 33.8554 55.27 33.9184 55.634 34.0444C55.998 34.1704 56.348 34.3734 56.684 34.6534L56.068 35.4654C55.8067 35.2787 55.5523 35.141 55.305 35.0524C55.0577 34.9637 54.7847 34.9194 54.486 34.9194C53.8887 34.9194 53.4243 35.1574 53.093 35.6334C52.7617 36.1094 52.596 36.814 52.596 37.7474C52.596 38.6807 52.7593 39.369 53.086 39.8124C53.4127 40.2557 53.8793 40.4774 54.486 40.4774C54.7753 40.4774 55.0413 40.433 55.284 40.3444C55.5267 40.2557 55.7973 40.1134 56.096 39.9174L56.684 40.7574C56.012 41.2987 55.2607 41.5694 54.43 41.5694C53.4313 41.5694 52.645 41.2334 52.071 40.5614C51.497 39.8894 51.21 38.9607 51.21 37.7754C51.21 36.9914 51.3407 36.3054 51.602 35.7174C51.8633 35.1294 52.2343 34.672 52.715 34.3454C53.1957 34.0187 53.7673 33.8554 54.43 33.8554L54.43 33.8554ZM49.082 41.4014L47.808 41.4014L47.808 38.0694C47.808 37.5094 47.8267 36.9774 47.864 36.4734C47.9013 35.9694 47.934 35.638 47.962 35.4794L44.868 41.4014L43.342 41.4014L43.342 34.0234L44.616 34.0234L44.616 37.3554C44.616 37.85 44.5973 38.361 44.56 38.8884C44.5227 39.4157 44.4947 39.754 44.476 39.9034L47.528 34.0234L49.082 34.0234L49.082 41.4014ZM41.466 34.0234L39.618 37.4814L41.732 41.4014L40.318 41.4014L38.568 38.0554L37.588 38.0554L37.588 41.4014L36.356 41.4014L36.356 38.0554L35.39 38.0554L33.626 41.4014L32.226 41.4014L34.34 37.4814L32.492 34.0234L33.836 34.0234L35.376 37.0474L36.356 37.0474L36.356 34.0234L37.588 34.0234L37.588 37.0474L38.582 37.0474L40.136 34.0234L41.466 34.0234ZM31.218 37.4954C31.218 37.71 31.2087 37.9294 31.19 38.1534L26.486 38.1534C26.542 38.9654 26.7473 39.5627 27.102 39.9454C27.4567 40.328 27.914 40.5194 28.474 40.5194C28.8287 40.5194 29.1553 40.468 29.454 40.3654C29.7527 40.2627 30.0653 40.0994 30.392 39.8754L30.952 40.6454C30.168 41.2614 29.3093 41.5694 28.376 41.5694C27.3493 41.5694 26.549 41.2334 25.975 40.5614C25.401 39.8894 25.114 38.9654 25.114 37.7894C25.114 37.024 25.2377 36.345 25.485 35.7524C25.7323 35.1597 26.087 34.6954 26.549 34.3594C27.011 34.0234 27.5547 33.8554 28.18 33.8554C29.16 33.8554 29.9113 34.1774 30.434 34.8214C30.9567 35.4654 31.218 36.3567 31.218 37.4954L31.218 37.4954ZM29.944 37.1174C29.944 36.3894 29.7993 35.834 29.51 35.4514C29.2207 35.0687 28.7867 34.8774 28.208 34.8774C27.1533 34.8774 26.5793 35.652 26.486 37.2014L29.944 37.2014L29.944 37.1174ZM20.718 33.8554C21.6607 33.8554 22.3513 34.1914 22.79 34.8634C23.2287 35.5354 23.448 36.4827 23.448 37.7054C23.448 38.8627 23.196 39.796 22.692 40.5054C22.188 41.2147 21.474 41.5694 20.55 41.5694C19.7287 41.5694 19.0847 41.2894 18.618 40.7294L18.618 44.2294L17.33 44.3834L17.33 34.0234L18.436 34.0234L18.534 35.0174C18.8047 34.644 19.1313 34.357 19.514 34.1564C19.8967 33.9557 20.298 33.8554 20.718 33.8554L20.718 33.8554ZM20.242 40.5194C21.4553 40.5194 22.062 39.5814 22.062 37.7054C22.062 35.82 21.5067 34.8774 20.396 34.8774C20.032 34.8774 19.7007 34.9847 19.402 35.1994C19.1033 35.414 18.842 35.6894 18.618 36.0254L18.618 39.6234C18.8047 39.9127 19.038 40.1344 19.318 40.2884C19.598 40.4424 19.906 40.5194 20.242 40.5194L20.242 40.5194ZM85.23 16.945L85.23 24.323L83.942 24.323L83.942 21.495L82.332 21.495L80.778 24.323L79.336 24.323L81.1 21.201C80.232 20.7903 79.798 20.123 79.798 19.199C79.798 18.471 80.0593 17.9133 80.582 17.526C81.1047 17.1387 81.8373 16.945 82.78 16.945L85.23 16.945ZM83.942 20.515L83.942 17.939L82.752 17.939C82.22 17.939 81.821 18.0393 81.555 18.24C81.289 18.4407 81.156 18.7603 81.156 19.199C81.156 19.6657 81.2797 20.0017 81.527 20.207C81.7743 20.4123 82.1733 20.515 82.724 20.515L83.942 20.515ZM77.53 22.601C77.53 22.8997 77.5813 23.1213 77.684 23.266C77.7867 23.4107 77.9407 23.5203 78.146 23.595L77.852 24.491C77.4693 24.4443 77.1613 24.337 76.928 24.169C76.6947 24.001 76.522 23.7397 76.41 23.385C75.9153 24.1223 75.1827 24.491 74.212 24.491C73.484 24.491 72.91 24.2857 72.49 23.875C72.07 23.4643 71.86 22.9277 71.86 22.265C71.86 21.481 72.1423 20.879 72.707 20.459C73.2717 20.039 74.072 19.829 75.108 19.829L76.242 19.829L76.242 19.283C76.242 18.7603 76.116 18.387 75.864 18.163C75.612 17.939 75.2247 17.827 74.702 17.827C74.1607 17.827 73.498 17.9577 72.714 18.219L72.392 17.281C73.3067 16.945 74.156 16.777 74.94 16.777C75.808 16.777 76.4567 16.9893 76.886 17.414C77.3153 17.8387 77.53 18.443 77.53 19.227L77.53 22.601ZM74.506 23.525C75.2433 23.525 75.822 23.1423 76.242 22.377L76.242 20.683L75.276 20.683C73.9133 20.683 73.232 21.187 73.232 22.195C73.232 22.6337 73.3393 22.965 73.554 23.189C73.7687 23.413 74.086 23.525 74.506 23.525L74.506 23.525ZM68.612 24.323L68.612 21.075L65.546 21.075L65.546 24.323L64.258 24.323L64.258 16.945L65.546 16.945L65.546 20.039L68.612 20.039L68.612 16.945L69.9 16.945L69.9 24.323L68.612 24.323ZM62.928 16.945L62.774 17.995L60.408 17.995L60.408 24.323L59.12 24.323L59.12 17.995L56.684 17.995L56.684 16.945L62.928 16.945ZM52.54 16.777C53.576 16.777 54.381 17.1223 54.955 17.813C55.529 18.5037 55.816 19.4417 55.816 20.627C55.816 21.3923 55.6853 22.0667 55.424 22.65C55.1627 23.2333 54.7847 23.686 54.29 24.008C53.7953 24.33 53.2073 24.491 52.526 24.491C51.49 24.491 50.6827 24.1457 50.104 23.455C49.5253 22.7643 49.236 21.8263 49.236 20.641C49.236 19.8757 49.3667 19.2013 49.628 18.618C49.8893 18.0347 50.2673 17.582 50.762 17.26C51.2567 16.938 51.8493 16.777 52.54 16.777L52.54 16.777ZM52.54 17.813C51.2613 17.813 50.622 18.7557 50.622 20.641C50.622 22.517 51.2567 23.455 52.526 23.455C53.7953 23.455 54.43 22.5123 54.43 20.627C54.43 18.751 53.8 17.813 52.54 17.813L52.54 17.813ZM47.598 24.323L46.338 24.323L46.002 20.837C45.9647 20.473 45.9413 20.0693 45.932 19.626C45.9227 19.1827 45.918 18.7043 45.918 18.191L44.238 23.511L43.02 23.511L41.452 18.205C41.452 19.437 41.4333 20.3097 41.396 20.823L41.13 24.323L39.884 24.323L40.542 16.945L42.208 16.945L43.65 22.223L45.232 16.945L46.926 16.945L47.598 24.323ZM37.728 22.601C37.728 22.8997 37.7793 23.1213 37.882 23.266C37.9847 23.4107 38.1387 23.5203 38.344 23.595L38.05 24.491C37.6673 24.4443 37.3593 24.337 37.126 24.169C36.8927 24.001 36.72 23.7397 36.608 23.385C36.1133 24.1223 35.3807 24.491 34.41 24.491C33.682 24.491 33.108 24.2857 32.688 23.875C32.268 23.4643 32.058 22.9277 32.058 22.265C32.058 21.481 32.3403 20.879 32.905 20.459C33.4697 20.039 34.27 19.829 35.306 19.829L36.44 19.829L36.44 19.283C36.44 18.7603 36.314 18.387 36.062 18.163C35.81 17.939 35.4227 17.827 34.9 17.827C34.3587 17.827 33.696 17.9577 32.912 18.219L32.59 17.281C33.5047 16.945 34.354 16.777 35.138 16.777C36.006 16.777 36.6547 16.9893 37.084 17.414C37.5133 17.8387 37.728 18.443 37.728 19.227L37.728 22.601ZM34.704 23.525C35.4413 23.525 36.02 23.1423 36.44 22.377L36.44 20.683L35.474 20.683C34.1113 20.683 33.43 21.187 33.43 22.195C33.43 22.6337 33.5373 22.965 33.752 23.189C33.9667 23.413 34.284 23.525 34.704 23.525L34.704 23.525ZM27.83 16.777C28.7727 16.777 29.4633 17.113 29.902 17.785C30.3407 18.457 30.56 19.4043 30.56 20.627C30.56 21.7843 30.308 22.7177 29.804 23.427C29.3 24.1363 28.586 24.491 27.662 24.491C26.8407 24.491 26.1967 24.211 25.73 23.651L25.73 27.151L24.442 27.305L24.442 16.945L25.548 16.945L25.646 17.939C25.9167 17.5657 26.2433 17.2787 26.626 17.078C27.0087 16.8773 27.41 16.777 27.83 16.777L27.83 16.777ZM27.354 23.441C28.5673 23.441 29.174 22.503 29.174 20.627C29.174 18.7417 28.6187 17.799 27.508 17.799C27.144 17.799 26.8127 17.9063 26.514 18.121C26.2153 18.3357 25.954 18.611 25.73 18.947L25.73 22.545C25.9167 22.8343 26.15 23.056 26.43 23.21C26.71 23.364 27.018 23.441 27.354 23.441L27.354 23.441ZM22.972 14.677L22.776 15.825L18.73 15.825L18.73 24.323L17.4 24.323L17.4 14.677L22.972 14.677Z" id="Грамотная--режиссура" fill="#5A6A7B" stroke="none" />
      </g>
    </g>
    <path d="M158.5 126.714C160.985 126.714 163 124.699 163 122.214C163 119.729 160.985 117.714 158.5 117.714C156.015 117.714 154 119.729 154 122.214C154 124.699 156.015 126.714 158.5 126.714Z" id="Oval" fill="#00BADF" fill-rule="evenodd" stroke="none" />
    <path d="M102.5 420.714C104.985 420.714 107 418.699 107 416.214C107 413.729 104.985 411.714 102.5 411.714C100.015 411.714 98 413.729 98 416.214C98 418.699 100.015 420.714 102.5 420.714Z" id="Oval" fill="#00BADF" fill-rule="evenodd" stroke="none" />
    <path d="M521.5 237.714C523.985 237.714 526 235.699 526 233.214C526 230.729 523.985 228.714 521.5 228.714C519.015 228.714 517 230.729 517 233.214C517 235.699 519.015 237.714 521.5 237.714Z" id="Oval" fill="#00BADF" fill-rule="evenodd" stroke="none" />
    <path d="M475.5 482.714C477.985 482.714 480 480.699 480 478.214C480 475.729 477.985 473.714 475.5 473.714C473.015 473.714 471 475.729 471 478.214C471 480.699 473.015 482.714 475.5 482.714Z" id="Oval" fill="#00BADF" fill-rule="evenodd" stroke="none" />
  </g>
</svg>