<svg viewBox="0 0 670 642" xmlns:xlink="http://www.w3.org/1999/xlink" xmlns="http://www.w3.org/2000/svg"><defs><clipPath id="d"><use xlink:href="#a"/></clipPath><clipPath id="e"><use xlink:href="#b"/></clipPath><clipPath id="f"><use xlink:href="#c"/></clipPath><path d="M.508.12h15v15h-15v-15z" id="a"/><path d="M.193-.231h18v17h-18v-17z" id="b"/><path d="M.173-.083h25v26h-25v-26z" id="c"/><filter filterUnits="userSpaceOnUse" color-interpolation-filters="sRGB" id="g"><feFlood flood-opacity="0" result="BackgroundImageFix"/><feColorMatrix in="SourceAlpha" values="0 0 0 0 0 0 0 0 0 0 0 0 0 0 0 0 0 0 127 0"/><feOffset dy="4"/><feGaussianBlur stdDeviation="3.5"/><feColorMatrix values="0 0 0 0 0.72156864 0 0 0 0 0.5411765 0 0 0 0 0.76862746 0 0 0 0.5254902 0"/><feBlend in2="BackgroundImageFix" result="effect0_dropShadow"/><feBlend in="SourceGraphic" in2="effect0_dropShadow" result="shape"/></filter></defs><path d="M166.922 567.197l5.562-2.893 5.553 2.91-1.04-6.148 4.503-4.345-6.221-.91-2.765-5.597-2.797 5.584-6.217.886 4.491 4.365-1.069 6.148z" fill="#EFCEDC" fill-rule="evenodd"/><path d="M348.963 510.671c106.982 0 193.708-86.726 193.708-193.708s-86.726-193.709-193.708-193.709-193.708 86.727-193.708 193.709 86.726 193.708 193.708 193.708z" fill="#B88AC4" fill-opacity=".333" fill-rule="evenodd"/><path d="M348.963 457.841c77.805 0 140.878-63.073 140.878-140.879 0-77.805-63.073-140.878-140.878-140.878-77.806 0-140.879 63.073-140.879 140.878 0 77.806 63.073 140.879 140.879 140.879z" fill="#B88AC4" fill-opacity=".439" fill-rule="evenodd"/><path d="M349 641.5c177.007 0 320.5-143.493 320.5-320.5S526.007.5 349 .5 28.5 143.993 28.5 321 171.993 641.5 349 641.5z" fill="#B88AC4" fill-opacity=".047" fill-rule="evenodd"/><path d="M348.963 563.5c136.158 0 246.537-110.379 246.537-246.537 0-136.159-110.379-246.538-246.537-246.538-136.159 0-246.538 110.379-246.538 246.538 0 136.158 110.379 246.537 246.538 246.537z" fill="#B88AC4" fill-opacity=".094" fill-rule="evenodd"/><path d="M163.87 125.933c-5.816 7.314-21.208 24.204-24.16 35.443-1.988 7.571-1.597 15.612-1.942 23.449-2.38 54.025 37.024 62.685 76.898 85.108m275.359 22.413c18.175-7.556 60.168-25.884 41.601-53.879m-68.761 172.161c25.567-1.586 33.528 29.933 32.917 48.684-.207 6.366-5.921 14.046-9.011 19.026m-244.188-53.614c-17.201 6.095-33.756 14.475-51.603 18.285-21.709 4.635-63.325 3.044-73.4-21.536" fill="none" stroke="#00BADF" stroke-dasharray="5 5"/><path d="M206.98 594.954a5.55 5.55 0 01-3.261 7.139 5.548 5.548 0 11-3.88-10.395 5.553 5.553 0 017.141 3.256" fill="#4BB8DB" fill-rule="evenodd"/><path d="M251.5 491.214h15v15h-15v-15z" fill="none"/><g clip-path="url(#d)" transform="translate(250.992 491.095)"><path d="M15.03 4.995a7.498 7.498 0 01-4.397 9.65C6.758 16.09 2.43 14.12.985 10.243A7.495 7.495 0 015.384.594c3.88-1.447 8.204.521 9.647 4.4" fill="#B18DC0" fill-rule="evenodd"/></g><path d="M202.356 527.129a5.008 5.008 0 012.948-6.454 5.014 5.014 0 113.505 9.397 5.014 5.014 0 01-6.453-2.943" fill="#2A307E" fill-rule="evenodd"/><path d="M503.5 49.214h18v17h-18v-17z" fill="none"/><g clip-path="url(#e)" transform="translate(503.307 49.445)"><path d="M3.615 16.752l5.562-2.893 5.553 2.91-1.04-6.149 4.503-4.344-6.22-.91L9.207-.232 6.41 5.353l-6.217.886 4.491 4.365-1.07 6.148z" fill="#EFCEDC" fill-rule="evenodd"/></g><path d="M230.799 555.427l-5.094-7.378-2.762 8.531-8.587 2.555 7.257 5.265-.214 8.959 7.245-5.274 8.454 2.977-2.779-8.52 5.442-7.126-8.962.011z" fill="#EFCEDC" fill-rule="evenodd"/><path d="M565.729 89.831a5.552 5.552 0 014.609-10.1 5.55 5.55 0 012.745 7.353 5.559 5.559 0 01-7.354 2.747" fill="#4BB8DB" fill-rule="evenodd"/><path d="M510.474 142.899c-3.886-1.769-5.597-6.354-3.829-10.243 1.77-3.881 6.362-5.597 10.243-3.827a7.735 7.735 0 013.83 10.246c-1.775 3.884-6.362 5.601-10.244 3.824" fill="#B18DC0" fill-rule="evenodd"/><path d="M561.5 115.214h25v26h-25v-26z" fill="none"/><g clip-path="url(#f)" transform="translate(561.327 115.297)"><path d="M15.988 19.491l8.994 1.635-4.159-8.085 4.35-7.982-9.033 1.427L9.835-.083 8.414 8.881.173 12.806l8.146 4.111 1.215 9 6.454-6.426z" fill="#EFCEDC" fill-rule="evenodd"/></g><path d="M503.5 49.214h18v17h-18v-17z" fill="none"/><g clip-path="url(#e)" transform="translate(503.307 49.445)"><path d="M3.615 16.752l5.562-2.893 5.553 2.91-1.04-6.149 4.503-4.344-6.22-.91L9.207-.232 6.41 5.353l-6.217.886 4.491 4.365-1.07 6.148z" fill="#EFCEDC" fill-rule="evenodd"/></g><path d="M565.729 89.831a5.552 5.552 0 014.609-10.1 5.55 5.55 0 012.745 7.353 5.559 5.559 0 01-7.354 2.747" fill="#4BB8DB" fill-rule="evenodd"/><path d="M510.474 142.899c-3.886-1.769-5.597-6.354-3.829-10.243 1.77-3.881 6.362-5.597 10.243-3.827a7.735 7.735 0 013.83 10.246c-1.775 3.884-6.362 5.601-10.244 3.824" fill="#B18DC0" fill-rule="evenodd"/><path d="M561.5 115.214h25v26h-25v-26z" fill="none"/><g clip-path="url(#f)" transform="translate(561.327 115.297)"><path d="M15.988 19.491l8.994 1.635-4.159-8.085 4.35-7.982-9.033 1.427L9.835-.083 8.414 8.881.173 12.806l8.146 4.111 1.215 9 6.454-6.426z" fill="#EFCEDC" fill-rule="evenodd"/></g><g filter="url(#g)" transform="translate(10.5 .5)"><path d="M484.999 176.714h129.002q.123 0 .245.006.123.006.245.018.122.012.244.03.121.018.241.042.121.024.24.054t.236.065q.118.036.233.077.116.042.229.088.113.047.224.1.111.052.219.11.109.058.214.121t.207.131q.102.069.201.142.098.073.193.15.095.079.186.16.091.083.178.17.087.087.169.178.082.09.16.186.078.094.151.193t.142.2q.068.103.131.208t.121.213q.058.109.11.22.052.11.099.224.047.113.089.229.041.115.077.233.035.117.065.236.03.12.054.24t.042.241q.018.122.03.244t.018.245q.006.122.006.245v46.002q0 .123-.006.245-.006.123-.018.245-.012.122-.03.243-.018.122-.042.242-.024.12-.054.24-.03.119-.065.236-.036.118-.077.233-.042.116-.089.229-.047.113-.099.224-.052.111-.11.22-.058.108-.121.213t-.131.207q-.069.102-.142.2-.073.1-.151.194-.078.095-.16.186t-.169.178q-.087.087-.178.169-.091.082-.186.16t-.193.151q-.099.073-.201.141-.102.069-.207.132t-.213.12q-.109.059-.22.111-.111.052-.224.1-.113.046-.229.088-.115.041-.233.077-.117.035-.236.065-.119.03-.24.054-.12.024-.241.042-.122.018-.244.03t-.245.018q-.122.006-.245.006H484.999q-.123 0-.245-.006-.123-.006-.245-.018-.122-.012-.244-.03-.12-.018-.241-.042-.12-.024-.24-.054-.119-.03-.236-.065-.118-.036-.233-.077-.116-.042-.229-.089-.113-.047-.224-.099-.111-.052-.22-.11-.108-.058-.213-.121t-.207-.132q-.102-.068-.2-.14-.1-.074-.194-.152-.095-.078-.186-.16t-.178-.17q-.087-.086-.169-.177-.082-.09-.16-.186-.078-.095-.151-.193-.073-.099-.142-.2-.068-.103-.13-.208-.064-.105-.122-.214-.058-.108-.11-.219-.053-.11-.1-.224-.046-.113-.088-.229-.041-.115-.077-.233-.035-.117-.065-.236-.03-.12-.054-.24t-.042-.242q-.018-.12-.03-.243-.012-.122-.018-.245-.006-.122-.006-.245v-46.002q0-.123.006-.245.006-.123.018-.245.012-.122.03-.244.018-.12.042-.241.024-.12.054-.24.03-.119.065-.236.036-.118.077-.233.042-.116.089-.23.046-.112.099-.223.052-.111.11-.22.058-.108.121-.213t.131-.207q.069-.102.142-.2.073-.1.15-.194.079-.095.161-.186t.17-.178q.086-.087.177-.17.09-.081.186-.16.095-.077.193-.15.099-.073.2-.142.103-.068.208-.13.105-.064.213-.122.109-.058.22-.11.11-.053.224-.1.113-.046.229-.088.115-.041.233-.077.117-.035.236-.065.12-.03.24-.054t.241-.042q.122-.018.244-.03t.245-.018q.122-.006.245-.006z" fill="#FFF" fill-rule="evenodd"/><path d="M547.29 215.117c1.101 0 1.9.215 2.394.644.495.43.742 1.041.742 1.834 0 .831-.278 1.459-.833 1.883-.555.425-1.244.637-2.065.637h-2.366v-7.378h1.288v2.38h.84zm4.2-2.38h1.288v7.378h-1.288v-7.378zm-4.074 6.37c.523 0 .926-.116 1.211-.35.285-.233.427-.62.427-1.162 0-.513-.133-.891-.399-1.134-.266-.242-.726-.364-1.379-.364h-.826v3.01h.966zm-4.424 1.008h-1.26l-.336-3.486a15.05 15.05 0 01-.07-1.21 64.27 64.27 0 01-.014-1.436l-1.68 5.32h-1.218l-1.568-5.306c0 1.232-.019 2.105-.056 2.618l-.266 3.5h-1.246l.658-7.378h1.666l1.442 5.278 1.582-5.278h1.694l.672 7.378zm-12.516-7.546c.644 0 1.204.159 1.68.476.476.318.842.766 1.099 1.344.257.579.385 1.256.385 2.03 0 .728-.124 1.384-.371 1.967a3.174 3.174 0 01-1.092 1.386c-.48.341-1.052.511-1.715.511-.896 0-1.615-.315-2.156-.945-.541-.63-.85-1.453-.924-2.47h-1.316v3.247h-1.288v-7.378h1.288v3.094h1.33c.103-.961.427-1.745.973-2.352.546-.606 1.248-.91 2.107-.91zm-.014 6.678c.635 0 1.092-.238 1.372-.714s.42-1.18.42-2.114c0-.896-.154-1.586-.462-2.072-.308-.485-.747-.728-1.316-.728-1.185 0-1.778.938-1.778 2.814 0 .896.15 1.59.448 2.08.299.49.737.734 1.316.734zm-7.014-6.51l-.154 1.05h-2.366v6.328h-1.288v-6.328h-2.436v-1.05h6.244zm-8.988-.168c.439 0 .84.063 1.204.19a3.36 3.36 0 011.05.608l-.616.812a3.159 3.159 0 00-.763-.413 2.411 2.411 0 00-.819-.133c-.597 0-1.062.238-1.393.714-.331.476-.497 1.181-.497 2.114 0 .934.163 1.622.49 2.065.327.444.793.665 1.4.665a2.3 2.3 0 00.798-.133c.243-.088.513-.23.812-.427l.588.84c-.672.542-1.423.812-2.254.812-.999 0-1.785-.336-2.359-1.008-.574-.672-.861-1.6-.861-2.786 0-.784.13-1.47.392-2.058.261-.588.632-1.045 1.113-1.372.48-.326 1.052-.49 1.715-.49zm-8.092 0c1.036 0 1.841.346 2.415 1.036.574.691.861 1.629.861 2.814 0 .766-.13 1.44-.392 2.023a3.072 3.072 0 01-1.134 1.358c-.495.322-1.083.483-1.764.483-1.036 0-1.843-.345-2.422-1.036-.579-.69-.868-1.628-.868-2.814 0-.765.13-1.44.392-2.023a3.078 3.078 0 011.134-1.358c.495-.322 1.087-.483 1.778-.483zm0 1.036c-1.279 0-1.918.943-1.918 2.828 0 1.876.635 2.814 1.904 2.814 1.27 0 1.904-.942 1.904-2.828 0-1.876-.63-2.814-1.89-2.814zm-4.508-.868l-2.24 3.416 2.506 3.962H500.6l-2.044-3.402h-.938v3.402h-1.288v-7.378h1.288v2.968h.966l1.862-2.968h1.414zm100.492-13.606c0 .215-.009.434-.028.658h-4.704c.056.812.261 1.41.616 1.792.355.383.812.574 1.372.574.355 0 .681-.051.98-.154.299-.103.611-.266.938-.49l.56.77c-.784.616-1.643.924-2.576.924-1.027 0-1.827-.336-2.401-1.008-.574-.672-.861-1.596-.861-2.772 0-.765.124-1.444.371-2.037s.602-1.057 1.064-1.393c.462-.336 1.006-.504 1.631-.504.98 0 1.731.322 2.254.966.523.644.784 1.535.784 2.674zm-1.274-.378c0-.728-.145-1.283-.434-1.666-.289-.383-.723-.574-1.302-.574-1.055 0-1.629.775-1.722 2.324h3.458v-.084zm-6.958 4.284h-1.274v-3.332c0-.56.019-1.092.056-1.596.037-.504.07-.835.098-.994l-3.094 5.922h-1.526v-7.378h1.274v3.332c0 .495-.019 1.006-.056 1.533-.037.527-.065.866-.084 1.015l3.052-5.88h1.554v7.378zm-7.476-7.378l-2.24 3.416 2.506 3.962h-1.526l-2.044-3.402h-.938v3.402h-1.288v-7.378h1.288v2.968h.966l1.862-2.968h1.414zm-9.534-.168c.439 0 .84.063 1.204.189a3.36 3.36 0 011.05.609l-.616.812a3.162 3.162 0 00-.763-.413 2.411 2.411 0 00-.819-.133c-.597 0-1.062.238-1.393.714-.331.476-.497 1.18-.497 2.114 0 .933.163 1.622.49 2.065.327.443.793.665 1.4.665a2.3 2.3 0 00.798-.133c.243-.089.513-.231.812-.427l.588.84c-.672.541-1.423.812-2.254.812-.999 0-1.785-.336-2.359-1.008-.574-.672-.861-1.6-.861-2.786 0-.784.13-1.47.392-2.058.261-.588.632-1.045 1.113-1.372.48-.327 1.052-.49 1.715-.49zm-4.746 3.64c0 .215-.01.434-.028.658h-4.704c.056.812.261 1.41.616 1.792.355.383.812.574 1.372.574.355 0 .681-.051.98-.154.299-.103.611-.266.938-.49l.56.77c-.784.616-1.643.924-2.576.924-1.027 0-1.827-.336-2.401-1.008-.574-.672-.861-1.596-.861-2.772 0-.765.124-1.444.371-2.037s.602-1.057 1.064-1.393c.462-.336 1.006-.504 1.631-.504.98 0 1.731.322 2.254.966.523.644.784 1.535.784 2.674zm-1.274-.378c0-.728-.145-1.283-.434-1.666-.29-.383-.723-.574-1.302-.574-1.055 0-1.629.775-1.722 2.324h3.458v-.084zm-6.958-3.094v7.378h-1.288v-3.08c-.27.252-.604.45-1.001.595a3.548 3.548 0 01-1.225.217c-.7 0-1.227-.189-1.582-.567-.355-.378-.532-.917-.532-1.617v-2.926h1.288v2.772c0 .467.096.805.287 1.015.191.21.488.315.889.315.327 0 .67-.075 1.029-.224.36-.15.642-.34.847-.574v-3.304h1.288zm-7.728 7.378h-1.274v-3.332c0-.56.019-1.092.056-1.596.037-.504.07-.835.098-.994l-3.094 5.922h-1.526v-7.378h1.274v3.332c0 .495-.019 1.006-.056 1.533-.037.527-.065.866-.084 1.015l3.052-5.88h1.554v7.378zm-7.07-7.378l-.154 1.05h-2.366v6.328h-1.288v-6.328h-2.436v-1.05h6.244zm-8.988-.168c.439 0 .84.063 1.204.189a3.36 3.36 0 011.05.609l-.616.812a3.162 3.162 0 00-.763-.413 2.411 2.411 0 00-.819-.133c-.597 0-1.062.238-1.393.714-.331.476-.497 1.18-.497 2.114 0 .933.163 1.622.49 2.065.327.443.793.665 1.4.665a2.3 2.3 0 00.798-.133c.243-.089.513-.231.812-.427l.588.84c-.672.541-1.423.812-2.254.812-.999 0-1.785-.336-2.359-1.008-.574-.672-.861-1.6-.861-2.786 0-.784.13-1.47.392-2.058.261-.588.632-1.045 1.113-1.372.48-.327 1.052-.49 1.715-.49zm-5.334 5.824c0 .299.051.52.154.665a.94.94 0 00.462.329l-.294.896c-.383-.047-.69-.154-.924-.322-.233-.168-.406-.43-.518-.784-.495.737-1.227 1.106-2.198 1.106-.728 0-1.302-.205-1.722-.616-.42-.41-.63-.947-.63-1.61 0-.784.282-1.386.847-1.806.565-.42 1.365-.63 2.401-.63h1.134v-.546c0-.523-.126-.896-.378-1.12-.252-.224-.64-.336-1.162-.336-.541 0-1.204.13-1.988.392l-.322-.938c.915-.336 1.764-.504 2.548-.504.868 0 1.517.212 1.946.637.43.425.644 1.029.644 1.813v3.374zm-3.024.924c.737 0 1.316-.383 1.736-1.148v-1.694h-.966c-1.363 0-2.044.504-2.044 1.512 0 .439.107.77.322.994.215.224.532.336.952.336zm-3.276-6.58l-.154 1.05h-2.366v6.328h-1.288v-6.328h-2.436v-1.05h6.244zm-8.932 7.378v-3.248h-3.066v3.248h-1.288v-7.378h1.288v3.094h3.066v-3.094h1.288v7.378h-1.288zm-7-1.722c0 .299.051.52.154.665a.94.94 0 00.462.329l-.294.896c-.383-.047-.69-.154-.924-.322-.233-.168-.406-.43-.518-.784-.495.737-1.227 1.106-2.198 1.106-.728 0-1.302-.205-1.722-.616-.42-.41-.63-.947-.63-1.61 0-.784.282-1.386.847-1.806.565-.42 1.365-.63 2.401-.63h1.134v-.546c0-.523-.126-.896-.378-1.12-.252-.224-.64-.336-1.162-.336-.541 0-1.204.13-1.988.392l-.322-.938c.915-.336 1.764-.504 2.548-.504.868 0 1.517.212 1.946.637.43.425.644 1.029.644 1.813v3.374zm-3.024.924c.737 0 1.316-.383 1.736-1.148v-1.694h-.966c-1.363 0-2.044.504-2.044 1.512 0 .439.107.77.322.994.215.224.532.336.952.336zm-3.836-4.102c0 1.381-.399 2.429-1.197 3.143s-1.911 1.09-3.339 1.127v1.092h-1.288v-1.092c-1.484-.065-2.611-.46-3.381-1.183-.77-.723-1.155-1.743-1.155-3.059 0-1.381.399-2.429 1.197-3.143s1.911-1.09 3.339-1.127v-.98h1.288v.98c1.484.065 2.611.46 3.381 1.183.77.723 1.155 1.743 1.155 3.059zm-8.988.028c0 1.073.264 1.871.791 2.394.527.523 1.328.807 2.401.854v-6.538c-1.092.065-1.897.355-2.415.868s-.777 1.32-.777 2.422zm4.424 3.262c1.092-.065 1.897-.355 2.415-.868s.777-1.32.777-2.422c0-1.073-.264-1.871-.791-2.394-.527-.523-1.328-.807-2.401-.854v6.538z" fill="#4B6B81"/></g><g filter="url(#g)" transform="translate(10.5 .5)"><path d="M166.999 84.714h101.002q.123 0 .245.006.123.006.245.018.122.012.243.03.122.018.242.042.121.024.24.054t.236.065q.118.036.233.077.116.042.229.088.113.047.224.1.111.052.22.11.108.058.213.121t.207.131q.102.069.201.142.098.073.193.15.095.079.186.161t.178.17q.087.086.169.177.082.09.16.186.078.094.151.193t.142.2q.068.103.131.208t.121.213q.058.109.11.22.052.11.099.224.047.113.089.229.041.115.077.233.035.117.065.236.03.12.054.24t.042.241q.018.122.03.244t.018.245q.006.122.006.245v46.002q0 .123-.006.245-.006.123-.018.245-.012.122-.03.243-.018.122-.042.242-.024.12-.054.24-.03.119-.065.236-.036.118-.077.233-.042.116-.089.229-.047.113-.099.224-.052.111-.11.22-.058.108-.121.213t-.131.207q-.069.102-.142.2-.073.1-.151.194-.078.095-.16.186t-.169.178q-.087.087-.178.169-.091.082-.186.16t-.193.151q-.099.073-.201.141-.102.069-.207.132t-.213.12q-.109.059-.22.111-.111.052-.224.1-.113.046-.229.088-.115.041-.233.077-.117.035-.236.065-.119.03-.24.054-.12.024-.242.042-.121.018-.243.03t-.245.018q-.122.006-.245.006H166.999q-.123 0-.245-.006-.123-.006-.245-.018-.122-.012-.244-.03-.12-.018-.241-.042-.12-.024-.24-.054-.119-.03-.236-.065-.118-.036-.233-.077-.116-.042-.229-.089-.113-.047-.224-.099-.111-.052-.22-.11-.108-.058-.213-.121t-.207-.132q-.102-.068-.2-.14-.1-.074-.194-.152-.095-.078-.186-.16t-.178-.17q-.087-.086-.169-.177-.082-.09-.16-.186-.078-.095-.151-.193-.073-.099-.142-.2-.068-.103-.13-.208-.064-.105-.122-.214-.058-.108-.11-.219-.053-.11-.1-.224-.046-.113-.088-.229-.041-.115-.077-.233-.035-.117-.065-.236-.03-.12-.054-.24t-.042-.242q-.018-.12-.03-.243-.012-.122-.018-.245-.006-.122-.006-.245V89.713q0-.123.006-.245.006-.123.018-.245.012-.122.03-.244.018-.12.042-.241.024-.12.054-.24.03-.119.065-.236.036-.118.077-.233.042-.116.089-.23.046-.112.099-.223.052-.111.11-.22.058-.108.121-.213t.131-.207q.069-.102.142-.2.073-.1.15-.194.079-.095.161-.186t.17-.178q.086-.087.177-.169.09-.082.186-.16.095-.078.193-.151.099-.073.2-.142.103-.068.208-.13.105-.064.213-.122.109-.058.22-.11.11-.053.224-.1.113-.046.229-.088.115-.041.233-.077.117-.035.236-.065.12-.03.24-.054t.241-.042q.122-.018.244-.03t.245-.018q.122-.006.245-.006z" fill="#FFF" fill-rule="evenodd"/><path d="M249.224 123.771c0 .299.051.52.154.665a.939.939 0 00.462.33l-.294.895c-.383-.047-.69-.154-.924-.322-.233-.168-.406-.43-.518-.784-.495.737-1.227 1.106-2.198 1.106-.728 0-1.302-.205-1.722-.616-.42-.41-.63-.947-.63-1.61 0-.784.282-1.386.847-1.806.565-.42 1.365-.63 2.401-.63h1.134v-.546c0-.523-.126-.896-.378-1.12-.252-.224-.64-.336-1.162-.336-.541 0-1.204.13-1.988.392l-.322-.938c.915-.336 1.764-.504 2.548-.504.868 0 1.517.212 1.946.637.43.425.644 1.03.644 1.813v3.374zm-3.024.924c.737 0 1.316-.383 1.736-1.148v-1.694h-.966c-1.363 0-2.044.504-2.044 1.512 0 .439.107.77.322.994.215.224.532.336.952.336zm-3.836-.238v3.136h-1.05l-.21-2.1h-4.732l-.21 2.1h-1.05v-3.136h.518c.224-.15.401-.32.532-.51.13-.192.25-.526.357-1.002.107-.476.194-1.171.259-2.086l.196-2.744h4.62v6.342h.77zm-2.058-5.32h-2.17l-.112 1.554c-.065.868-.14 1.535-.224 2.002-.084.467-.203.826-.357 1.078-.154.252-.376.48-.665.686h3.528v-5.32zm-9.268-1.19c1.036 0 1.841.345 2.415 1.036.574.69.861 1.629.861 2.814 0 .765-.13 1.44-.392 2.023a3.078 3.078 0 01-1.134 1.358c-.495.322-1.083.483-1.764.483-1.036 0-1.843-.345-2.422-1.036-.579-.69-.868-1.629-.868-2.814 0-.765.13-1.44.392-2.023a3.078 3.078 0 011.134-1.358c.495-.322 1.087-.483 1.778-.483zm0 1.036c-1.279 0-1.918.943-1.918 2.828 0 1.876.635 2.814 1.904 2.814 1.27 0 1.904-.943 1.904-2.828 0-1.876-.63-2.814-1.89-2.814zm-7.49 6.51h-1.288v-7.378h4.606l-.168 1.064h-3.15v6.314zm-7.462-8.358h-3.654v2.758a3.256 3.256 0 011.498-.364c.803 0 1.447.264 1.932.791.485.527.728 1.253.728 2.177 0 .616-.135 1.164-.406 1.645-.27.48-.651.854-1.141 1.12-.49.266-1.057.4-1.701.4-.57 0-1.078-.101-1.526-.302a4.064 4.064 0 01-1.246-.889l.756-.742c.299.299.607.52.924.665a2.57 2.57 0 001.078.217c.597 0 1.066-.187 1.407-.56.34-.373.511-.9.511-1.582 0-.681-.154-1.176-.462-1.484-.308-.308-.723-.462-1.246-.462a2.78 2.78 0 00-.672.077 3.495 3.495 0 00-.658.245H211.2v-4.718h5.068l-.182 1.008zm-7.42-1.008v9.366h-1.288V117.5l-2.184 1.33-.56-.91 2.898-1.792h1.134zm-8.428-.14c1.036 0 1.818.413 2.345 1.24.527.825.791 2.022.791 3.59s-.264 2.767-.791 3.598c-.527.83-1.309 1.246-2.345 1.246-1.036 0-1.818-.415-2.345-1.246-.527-.83-.791-2.03-.791-3.598s.264-2.765.791-3.59c.527-.827 1.309-1.24 2.345-1.24zm0 1.022c-.607 0-1.057.299-1.351.896-.294.597-.441 1.568-.441 2.912 0 1.344.147 2.317.441 2.92.294.601.744.902 1.351.902.597 0 1.045-.3 1.344-.903.299-.602.448-1.575.448-2.919 0-1.335-.15-2.303-.448-2.905-.299-.602-.747-.903-1.344-.903zm-7.644-1.022c.56 0 1.052.112 1.477.336.425.224.754.53.987.917.233.387.35.824.35 1.31a3.67 3.67 0 01-.385 1.637c-.257.523-.651 1.087-1.183 1.694s-1.34 1.451-2.422 2.534h4.214l-.154 1.078h-5.53v-1.022c1.25-1.297 2.137-2.247 2.66-2.849.523-.602.896-1.127 1.12-1.575a3.18 3.18 0 00.336-1.442c0-.485-.14-.866-.42-1.14-.28-.276-.653-.414-1.12-.414-.383 0-.719.08-1.008.238-.29.159-.597.42-.924.784l-.84-.672c.383-.476.807-.83 1.274-1.064.467-.233.99-.35 1.568-.35zm-9.576 1.96c.439 0 .84.063 1.204.19a3.36 3.36 0 011.05.608l-.616.812a3.166 3.166 0 00-.763-.413 2.413 2.413 0 00-.819-.133c-.597 0-1.062.238-1.393.714-.331.476-.497 1.18-.497 2.114 0 .933.163 1.622.49 2.065.327.443.793.665 1.4.665a2.3 2.3 0 00.798-.133c.243-.089.513-.23.812-.427l.588.84c-.672.541-1.423.812-2.254.812-.999 0-1.785-.336-2.359-1.008-.574-.672-.861-1.6-.861-2.786 0-.784.13-1.47.392-2.058.261-.588.632-1.045 1.113-1.372.48-.327 1.052-.49 1.715-.49zm58.128-9.532h-1.26l-.336-3.486a15.05 15.05 0 01-.07-1.211 64.24 64.24 0 01-.014-1.435l-1.68 5.32h-1.218L235 102.297c0 1.232-.019 2.104-.056 2.618l-.266 3.5h-1.246l.658-7.378h1.666l1.442 5.278 1.582-5.278h1.694l.672 7.378zm-9.282-3.906c0 .214-.01.434-.028.658h-4.704c.056.812.261 1.41.616 1.792.355.382.812.574 1.372.574.355 0 .681-.052.98-.154.299-.103.611-.266.938-.49l.56.77c-.784.616-1.643.924-2.576.924-1.027 0-1.827-.336-2.401-1.008-.574-.672-.861-1.596-.861-2.772 0-.766.124-1.445.371-2.037.247-.593.602-1.057 1.064-1.393.462-.336 1.006-.504 1.631-.504.98 0 1.731.322 2.254.966.523.644.784 1.535.784 2.674zm-1.274-.378c0-.728-.145-1.284-.434-1.666-.29-.383-.723-.574-1.302-.574-1.055 0-1.629.774-1.722 2.324h3.458v-.084zm-6.944 2.562c0 .298.051.52.154.665a.94.94 0 00.462.329l-.294.896c-.383-.047-.69-.154-.924-.322-.233-.168-.406-.43-.518-.784-.495.737-1.227 1.106-2.198 1.106-.728 0-1.302-.206-1.722-.616-.42-.41-.63-.948-.63-1.61 0-.784.282-1.386.847-1.806.565-.42 1.365-.63 2.401-.63h1.134v-.546c0-.523-.126-.896-.378-1.12-.252-.224-.64-.336-1.162-.336-.541 0-1.204.13-1.988.392l-.322-.938c.915-.336 1.764-.504 2.548-.504.868 0 1.517.212 1.946.637.43.424.644 1.029.644 1.813v3.374zm-3.024.924c.737 0 1.316-.383 1.736-1.148v-1.694h-.966c-1.363 0-2.044.504-2.044 1.512 0 .438.107.77.322.994.215.224.532.336.952.336zm-3.276-6.58l-.154 1.05h-2.366v6.328h-1.288v-6.328h-2.436v-1.05h6.244zm-10.388-.168c1.036 0 1.841.345 2.415 1.036.574.69.861 1.628.861 2.814 0 .765-.13 1.44-.392 2.023a3.078 3.078 0 01-1.134 1.358c-.495.322-1.083.483-1.764.483-1.036 0-1.843-.346-2.422-1.036-.579-.69-.868-1.629-.868-2.814 0-.766.13-1.44.392-2.023a3.072 3.072 0 011.134-1.358c.495-.322 1.087-.483 1.778-.483zm0 1.036c-1.279 0-1.918.942-1.918 2.828 0 1.876.635 2.814 1.904 2.814 1.27 0 1.904-.943 1.904-2.828 0-1.876-.63-2.814-1.89-2.814zm-7.658-.392c.84 0 1.51.303 2.009.91.5.606.749 1.432.749 2.478 0 1.166-.294 2.072-.882 2.716-.588.644-1.377.966-2.366.966-.99 0-1.78-.35-2.373-1.05-.593-.7-.889-1.76-.889-3.178 0-1.074.082-1.953.245-2.64.163-.685.448-1.25.854-1.693.406-.444.978-.791 1.715-1.043.55-.187.992-.355 1.323-.504.331-.15.67-.34 1.015-.574l.546.966c-.327.205-.665.394-1.015.567-.35.172-.768.338-1.253.497-.467.158-.835.338-1.106.539-.27.2-.488.49-.651.868-.163.378-.273.893-.329 1.547.261-.43.597-.766 1.008-1.008a2.7 2.7 0 011.4-.364zm-.49 6.034c.57 0 1.022-.194 1.358-.581.336-.388.504-1.062.504-2.023 0-.85-.138-1.46-.413-1.834-.275-.374-.674-.56-1.197-.56-.43 0-.83.114-1.204.343-.373.228-.681.576-.924 1.043v.896c0 .868.166 1.537.497 2.009.331.471.791.707 1.379.707zm-5.376-.854c0 .298.051.52.154.665a.94.94 0 00.462.329l-.294.896c-.383-.047-.69-.154-.924-.322-.233-.168-.406-.43-.518-.784-.495.737-1.227 1.106-2.198 1.106-.728 0-1.302-.206-1.722-.616-.42-.41-.63-.948-.63-1.61 0-.784.282-1.386.847-1.806.565-.42 1.365-.63 2.401-.63h1.134v-.546c0-.523-.126-.896-.378-1.12-.252-.224-.64-.336-1.162-.336-.541 0-1.204.13-1.988.392l-.322-.938c.915-.336 1.764-.504 2.548-.504.868 0 1.517.212 1.946.637.43.424.644 1.029.644 1.813v3.374zm-3.024.924c.737 0 1.316-.383 1.736-1.148v-1.694h-.966c-1.363 0-2.044.504-2.044 1.512 0 .438.107.77.322.994.215.224.532.336.952.336zm-7.476-8.848c1.195 0 2.119.25 2.772.749.653.5.98 1.243.98 2.233 0 1.054-.34 1.838-1.022 2.352-.681.513-1.587.77-2.716.77h-1.218v3.542h-1.33v-9.646h2.534zm-.042 5.054c.775 0 1.365-.15 1.771-.448.406-.299.609-.836.609-1.61 0-.69-.203-1.19-.609-1.498-.406-.308-.987-.462-1.743-.462h-1.19v4.018h1.162z" fill="#566A7D"/></g><g filter="url(#g)" transform="translate(10.5 .5)"><path d="M425.999 477.714h152.002q.123 0 .245.006.123.006.245.018.122.012.244.03.121.018.241.042.121.024.24.054t.236.065q.118.036.233.077.116.042.229.089.113.046.224.099.111.052.22.11.108.058.213.121t.207.131q.102.069.201.142.098.073.193.15.095.079.186.161t.178.17q.087.086.169.177.082.09.16.186.078.095.151.193.073.099.142.2.068.103.131.208t.121.213q.058.109.11.22.052.11.099.224.047.113.089.229.041.115.077.233.035.117.065.236.03.12.054.24t.042.241q.018.122.03.244t.018.245q.006.122.006.245v46.002q0 .123-.006.245-.006.123-.018.245-.012.122-.03.243-.018.122-.042.242-.024.12-.054.24-.03.119-.065.236-.036.118-.077.233-.042.116-.089.229-.047.113-.099.224-.052.111-.11.22-.058.108-.121.213t-.131.207q-.069.102-.142.2-.073.1-.151.194-.078.095-.16.186t-.169.178q-.087.087-.178.169-.091.082-.186.16t-.193.151q-.099.073-.201.141-.102.069-.207.132t-.213.12q-.109.059-.22.111-.111.052-.224.1-.113.046-.229.088-.115.041-.233.077-.117.035-.236.065-.119.03-.24.054-.12.024-.241.042-.122.018-.244.03t-.245.018q-.122.006-.245.006H425.999q-.123 0-.245-.006-.123-.006-.245-.018-.122-.012-.244-.03-.12-.018-.241-.042-.12-.024-.24-.054-.119-.03-.236-.065-.118-.036-.233-.077-.116-.042-.229-.089-.113-.047-.224-.099-.111-.052-.22-.11-.108-.058-.213-.121t-.207-.132q-.102-.068-.2-.14-.1-.074-.194-.152-.095-.078-.186-.16t-.178-.17q-.087-.086-.169-.177-.082-.09-.16-.186-.078-.095-.151-.193-.073-.099-.142-.2-.068-.103-.13-.208-.064-.105-.122-.214-.058-.108-.11-.219-.053-.11-.1-.224-.046-.113-.088-.229-.041-.115-.077-.233-.035-.117-.065-.236-.03-.12-.054-.24t-.042-.242q-.018-.12-.03-.243-.012-.122-.018-.245-.006-.122-.006-.245v-46.002q0-.123.006-.245.006-.123.018-.245.012-.122.03-.244.018-.12.042-.241.024-.12.054-.24.03-.119.065-.236.036-.118.077-.233.042-.116.089-.229.046-.113.099-.224.052-.111.11-.22.058-.108.121-.213t.131-.207q.069-.102.142-.2.073-.1.15-.194.079-.095.161-.186t.17-.178q.086-.087.177-.169.09-.082.186-.16.095-.078.193-.151.099-.073.2-.142.103-.068.208-.13.105-.064.213-.122.109-.058.22-.11.11-.053.224-.1.113-.046.229-.088.115-.041.233-.077.117-.035.236-.065.12-.03.24-.054t.241-.042q.122-.018.244-.03t.245-.018q.122-.006.245-.006z" fill="#FFF" fill-rule="evenodd"/><path d="M476.6 514.117c1.101 0 1.9.215 2.394.644.495.43.742 1.041.742 1.834 0 .831-.278 1.459-.833 1.883-.555.425-1.244.637-2.065.637h-2.366v-7.378h1.288v2.38h.84zm4.2-2.38h1.288v7.378H480.8v-7.378zm-4.074 6.37c.523 0 .926-.116 1.211-.35.285-.233.427-.62.427-1.162 0-.513-.133-.891-.399-1.134-.266-.242-.726-.364-1.379-.364h-.826v3.01h.966zm-7.182-6.538c.943 0 1.633.336 2.072 1.008.439.672.658 1.62.658 2.842 0 1.158-.252 2.091-.756 2.8-.504.71-1.218 1.064-2.142 1.064-.821 0-1.465-.28-1.932-.84v3.5l-1.288.154v-10.36h1.106l.098.994c.27-.373.597-.66.98-.86a2.556 2.556 0 011.204-.302zm-.476 6.664c1.213 0 1.82-.938 1.82-2.814 0-1.885-.555-2.828-1.666-2.828a1.67 1.67 0 00-.994.322c-.299.215-.56.49-.784.826v3.598c.187.29.42.511.7.665.28.154.588.231.924.231zm-4.97-3.024c0 .215-.01.434-.028.658h-4.704c.056.812.261 1.41.616 1.792.355.383.812.574 1.372.574.355 0 .681-.051.98-.154.299-.102.611-.266.938-.49l.56.77c-.784.616-1.643.924-2.576.924-1.027 0-1.827-.336-2.401-1.008-.574-.672-.861-1.596-.861-2.772 0-.765.124-1.444.371-2.037.247-.592.602-1.057 1.064-1.393.462-.336 1.006-.504 1.631-.504.98 0 1.731.322 2.254.966.523.644.784 1.536.784 2.674zm-1.274-.378c0-.728-.145-1.283-.434-1.666-.29-.382-.723-.574-1.302-.574-1.055 0-1.629.775-1.722 2.324h3.458v-.084zm-3.192-6.468a.77.77 0 01.567.231.77.77 0 01.231.567.77.77 0 01-.231.567.77.77 0 01-.567.231.788.788 0 01-.812-.798.788.788 0 01.812-.798zm2.926 0a.788.788 0 01.812.798.788.788 0 01-.812.798.77.77 0 01-.567-.23.77.77 0 01-.231-.568.77.77 0 01.231-.567.77.77 0 01.567-.23zm-5.362 3.374l-.154 1.05h-2.366v6.328h-1.288v-6.328h-2.436v-1.05h6.244zm-6.72 0l-2.24 3.416 2.506 3.962h-1.526l-2.044-3.402h-.938v3.402h-1.288v-7.378h1.288v2.968h.966l1.862-2.968h1.414zm-8.176 5.656c0 .299.051.52.154.665a.94.94 0 00.462.33l-.294.895c-.383-.046-.69-.154-.924-.322-.233-.168-.406-.429-.518-.784-.495.738-1.227 1.106-2.198 1.106-.728 0-1.302-.205-1.722-.616-.42-.41-.63-.947-.63-1.61 0-.784.282-1.386.847-1.806.565-.42 1.365-.63 2.401-.63h1.134v-.546c0-.522-.126-.896-.378-1.12-.252-.224-.64-.336-1.162-.336-.541 0-1.204.131-1.988.392l-.322-.938c.915-.336 1.764-.504 2.548-.504.868 0 1.517.213 1.946.637.43.425.644 1.03.644 1.813v3.374zm-3.024.924c.737 0 1.316-.382 1.736-1.148v-1.694h-.966c-1.363 0-2.044.504-2.044 1.512 0 .439.107.77.322.994.215.224.532.336.952.336zm128.366-20.186c0 .215-.009.434-.028.658h-4.704c.056.812.261 1.41.616 1.792.355.383.812.574 1.372.574.355 0 .681-.051.98-.154.299-.103.611-.266.938-.49l.56.77c-.784.616-1.643.924-2.576.924-1.027 0-1.827-.336-2.401-1.008-.574-.672-.861-1.596-.861-2.772 0-.765.124-1.444.371-2.037s.602-1.057 1.064-1.393c.462-.336 1.006-.504 1.631-.504.98 0 1.731.322 2.254.966.523.644.784 1.535.784 2.674zm-1.274-.378c0-.728-.145-1.283-.434-1.666-.289-.383-.723-.574-1.302-.574-1.055 0-1.629.775-1.722 2.324h3.458v-.084zm-12.446-.714c1.101 0 1.899.215 2.394.644.495.43.742 1.04.742 1.834 0 .83-.278 1.458-.833 1.883-.555.425-1.244.637-2.065.637h-2.366v-7.378h1.288v2.38h.84zm4.2-2.38h1.288v7.378h-1.288v-7.378zm-4.074 6.37c.523 0 .926-.117 1.211-.35.285-.233.427-.62.427-1.162 0-.513-.133-.891-.399-1.134-.266-.243-.726-.364-1.379-.364h-.826v3.01h.966zm-6.202 1.008v-3.248h-3.066v3.248h-1.288v-7.378h1.288v3.094h3.066v-3.094h1.288v7.378h-1.288zm-9.31-4.998c1.101 0 1.899.215 2.394.644.495.43.742 1.04.742 1.834 0 .83-.278 1.458-.833 1.883-.555.425-1.244.637-2.065.637h-2.506v-7.378h1.288v2.38h.98zm.126 3.99c.523 0 .926-.117 1.211-.35.285-.233.427-.62.427-1.162 0-.513-.133-.891-.399-1.134-.266-.243-.726-.364-1.379-.364h-.966v3.01h1.106zm-5.054-6.37v7.378h-1.288v-6.328h-2.282l-.21 2.464c-.084.999-.189 1.745-.315 2.24-.126.495-.322.875-.588 1.141-.266.266-.67.483-1.211.651l-.322-1.022c.317-.112.541-.257.672-.434s.229-.448.294-.812c.065-.364.135-.999.21-1.904l.294-3.374h4.746zm-8.05 5.656c0 .299.051.52.154.665a.942.942 0 00.462.329l-.294.896c-.383-.047-.691-.154-.924-.322-.233-.168-.406-.43-.518-.784-.495.737-1.227 1.106-2.198 1.106-.728 0-1.302-.205-1.722-.616-.42-.41-.63-.947-.63-1.61 0-.784.282-1.386.847-1.806.565-.42 1.365-.63 2.401-.63h1.134v-.546c0-.523-.126-.896-.378-1.12-.252-.224-.639-.336-1.162-.336-.541 0-1.204.13-1.988.392l-.322-.938c.915-.336 1.764-.504 2.548-.504.868 0 1.517.212 1.946.637.429.425.644 1.029.644 1.813v3.374zm-3.024.924c.737 0 1.316-.383 1.736-1.148v-1.694h-.966c-1.363 0-2.044.504-2.044 1.512 0 .439.107.77.322.994.215.224.532.336.952.336zm-5.894.798v-3.248h-3.066v3.248h-1.288v-7.378h1.288v3.094h3.066v-3.094h1.288v7.378h-1.288zm-9.758-7.546c1.036 0 1.841.345 2.415 1.036.574.69.861 1.629.861 2.814 0 .765-.13 1.44-.392 2.023a3.078 3.078 0 01-1.134 1.358c-.495.322-1.083.483-1.764.483-1.036 0-1.843-.345-2.422-1.036-.579-.69-.868-1.629-.868-2.814 0-.765.13-1.44.392-2.023a3.078 3.078 0 011.134-1.358c.495-.322 1.087-.483 1.778-.483zm0 1.036c-1.279 0-1.918.943-1.918 2.828 0 1.876.635 2.814 1.904 2.814 1.27 0 1.904-.943 1.904-2.828 0-1.876-.63-2.814-1.89-2.814zm-5.432 6.51h-1.274v-3.332c0-.56.019-1.092.056-1.596.037-.504.07-.835.098-.994l-3.094 5.922h-1.526v-7.378h1.274v3.332c0 .495-.019 1.006-.056 1.533-.037.527-.065.866-.084 1.015l3.052-5.88h1.554v7.378zm-9.744-7.546c.439 0 .84.063 1.204.189a3.36 3.36 0 011.05.609l-.616.812a3.162 3.162 0 00-.763-.413 2.411 2.411 0 00-.819-.133c-.597 0-1.062.238-1.393.714-.331.476-.497 1.18-.497 2.114 0 .933.163 1.622.49 2.065.327.443.793.665 1.4.665a2.3 2.3 0 00.798-.133c.243-.089.513-.231.812-.427l.588.84c-.672.541-1.423.812-2.254.812-.999 0-1.785-.336-2.359-1.008-.574-.672-.861-1.6-.861-2.786 0-.784.13-1.47.392-2.058.261-.588.632-1.045 1.113-1.372.48-.327 1.052-.49 1.715-.49zm-6.692 0c.439 0 .84.063 1.204.189a3.36 3.36 0 011.05.609l-.616.812a3.162 3.162 0 00-.763-.413 2.411 2.411 0 00-.819-.133c-.597 0-1.062.238-1.393.714-.331.476-.497 1.18-.497 2.114 0 .933.163 1.622.49 2.065.327.443.793.665 1.4.665a2.3 2.3 0 00.798-.133c.243-.089.513-.231.812-.427l.588.84c-.672.541-1.423.812-2.254.812-.999 0-1.785-.336-2.359-1.008-.574-.672-.861-1.6-.861-2.786 0-.784.13-1.47.392-2.058.261-.588.632-1.045 1.113-1.372.48-.327 1.052-.49 1.715-.49zm-4.746 3.64c0 .215-.01.434-.028.658h-4.704c.056.812.261 1.41.616 1.792.355.383.812.574 1.372.574.355 0 .681-.051.98-.154.299-.103.611-.266.938-.49l.56.77c-.784.616-1.643.924-2.576.924-1.027 0-1.827-.336-2.401-1.008-.574-.672-.861-1.596-.861-2.772 0-.765.124-1.444.371-2.037s.602-1.057 1.064-1.393c.462-.336 1.006-.504 1.631-.504.98 0 1.731.322 2.254.966.523.644.784 1.535.784 2.674zm-1.274-.378c0-.728-.145-1.283-.434-1.666-.29-.383-.723-.574-1.302-.574-1.055 0-1.629.775-1.722 2.324h3.458v-.084zm-9.002-3.262c.896 0 1.538.331 1.925.994s.581 1.615.581 2.856c0 1.176-.224 2.114-.672 2.814-.448.7-1.069 1.05-1.862 1.05-.7 0-1.265-.313-1.694-.938v3.598l-1.232.154v-3.752c-.205.299-.467.53-.784.693a2.201 2.201 0 01-1.022.245c-.747 0-1.337-.35-1.771-1.05-.434-.7-.651-1.638-.651-2.814 0-1.232.189-2.182.567-2.849.378-.667 1.001-1.001 1.869-1.001.756 0 1.353.27 1.792.812v-3.766l1.232.154v3.64c.43-.56 1.003-.84 1.722-.84zm-4.466 6.692c.299 0 .576-.082.833-.245a2.35 2.35 0 00.679-.679v-3.906c-.42-.56-.929-.84-1.526-.84-.43 0-.756.236-.98.707-.224.471-.336 1.178-.336 2.121 0 .943.117 1.652.35 2.128.233.476.56.714.98.714zm4.2 0c.439 0 .78-.238 1.022-.714.243-.476.364-1.185.364-2.128 0-1.885-.462-2.828-1.386-2.828-.588 0-1.073.29-1.456.868v3.892c.196.299.41.525.644.679.233.154.504.231.812.231zm-11.858-6.692c1.036 0 1.841.345 2.415 1.036.574.69.861 1.629.861 2.814 0 .765-.13 1.44-.392 2.023a3.078 3.078 0 01-1.134 1.358c-.495.322-1.083.483-1.764.483-1.036 0-1.843-.345-2.422-1.036-.579-.69-.868-1.629-.868-2.814 0-.765.13-1.44.392-2.023a3.078 3.078 0 011.134-1.358c.495-.322 1.087-.483 1.778-.483zm0 1.036c-1.279 0-1.918.943-1.918 2.828 0 1.876.635 2.814 1.904 2.814 1.27 0 1.904-.943 1.904-2.828 0-1.876-.63-2.814-1.89-2.814zm-7.7-1.036c.943 0 1.633.336 2.072 1.008.439.672.658 1.62.658 2.842 0 1.157-.252 2.09-.756 2.8s-1.218 1.064-2.142 1.064c-.821 0-1.465-.28-1.932-.84v3.5l-1.288.154v-10.36h1.106l.098.994c.27-.373.597-.66.98-.861.383-.2.784-.301 1.204-.301zm-.476 6.664c1.213 0 1.82-.938 1.82-2.814 0-1.885-.555-2.828-1.666-2.828-.364 0-.695.107-.994.322-.299.215-.56.49-.784.826v3.598c.187.29.42.511.7.665.28.154.588.231.924.231zm-5.642-8.764v9.646h-1.33v-8.512h-3.99v8.512h-1.33v-9.646h6.65z" fill="#516A7F"/></g><g filter="url(#g)" transform="translate(10.5 .5)"><path d="M4.999 360.714h103.002q.123 0 .245.006.123.006.245.018.122.012.244.03.121.018.241.042.121.024.24.054t.236.065q.118.036.233.077.116.042.229.088.113.047.224.1.111.052.22.11.108.058.213.121t.207.131q.102.069.201.142.098.073.193.15.095.079.186.16.091.083.178.17.087.087.169.178.082.09.16.186.078.094.151.193t.142.2q.068.103.131.208t.121.213q.058.109.11.22.053.11.099.224.047.113.089.229.041.115.077.233.035.117.065.236.03.12.054.24t.042.241q.018.122.03.244t.018.245q.006.122.006.245v46.002q0 .123-.006.245-.006.123-.018.245-.012.122-.03.243-.018.122-.042.242-.024.12-.054.24-.03.119-.065.236-.036.118-.077.233-.042.116-.089.229-.046.113-.099.224-.052.111-.11.22-.058.108-.121.213t-.131.207q-.069.102-.142.2-.073.1-.151.194-.078.095-.16.186t-.169.178q-.087.087-.178.169-.091.082-.186.16t-.193.151q-.099.073-.201.141-.102.069-.207.132t-.213.12q-.109.059-.22.111-.111.052-.224.1-.113.046-.229.088-.115.041-.233.077-.117.035-.236.065-.119.03-.24.054-.12.024-.241.042-.122.018-.244.03t-.245.018q-.122.006-.245.006H4.999q-.123 0-.245-.006-.123-.006-.245-.018-.122-.012-.244-.03-.12-.018-.241-.042-.12-.024-.24-.054-.119-.03-.236-.065-.118-.036-.233-.077-.116-.042-.229-.089-.113-.047-.224-.099-.111-.052-.22-.11-.108-.058-.213-.121t-.207-.132q-.102-.068-.2-.14-.1-.074-.194-.152-.095-.078-.186-.16t-.178-.17q-.087-.086-.169-.177-.082-.09-.16-.186-.078-.095-.151-.193-.073-.099-.142-.2-.068-.103-.13-.208-.064-.105-.122-.214-.058-.108-.11-.219-.053-.11-.1-.224-.046-.113-.088-.229-.041-.115-.077-.233-.035-.117-.065-.236-.03-.12-.054-.24t-.042-.242q-.018-.12-.03-.243-.012-.122-.018-.245-.006-.122-.006-.245v-46.002q0-.123.006-.245.006-.123.018-.245.012-.122.03-.244.018-.12.042-.241.024-.12.054-.24.03-.119.065-.236.036-.118.077-.233.042-.116.089-.23.046-.112.099-.223.052-.111.11-.22.058-.108.121-.213t.131-.207q.069-.102.142-.2.073-.1.15-.194.079-.095.161-.186t.17-.178q.086-.087.177-.17.09-.081.186-.16.095-.077.193-.15.099-.073.2-.142.103-.068.208-.13.105-.064.213-.122.109-.058.22-.11.11-.053.224-.1.113-.046.229-.088.115-.041.233-.077.117-.035.236-.065.12-.03.24-.054t.241-.042q.122-.018.244-.03t.245-.018q.122-.006.245-.006z" fill="#FFF" fill-rule="evenodd"/><path d="M85.3 400.393c0 .299.051.52.154.665a.94.94 0 00.462.33l-.294.895c-.383-.046-.69-.154-.924-.322-.233-.168-.406-.429-.518-.784-.495.738-1.227 1.106-2.198 1.106-.728 0-1.302-.205-1.722-.616-.42-.41-.63-.947-.63-1.61 0-.784.282-1.386.847-1.806.565-.42 1.365-.63 2.401-.63h1.134v-.546c0-.522-.126-.896-.378-1.12-.252-.224-.64-.336-1.162-.336-.541 0-1.204.131-1.988.392l-.322-.938c.915-.336 1.764-.504 2.548-.504.868 0 1.517.213 1.946.637.43.425.644 1.03.644 1.813v3.374zm-3.024.924c.737 0 1.316-.382 1.736-1.148v-1.694h-.966c-1.363 0-2.044.504-2.044 1.512 0 .439.107.77.322.994.215.224.532.336.952.336zm-6.874-6.748c.943 0 1.633.336 2.072 1.008.439.672.658 1.62.658 2.842 0 1.158-.252 2.091-.756 2.8-.504.71-1.218 1.064-2.142 1.064-.821 0-1.465-.28-1.932-.84v3.5l-1.288.154v-10.36h1.106l.098.994c.27-.373.597-.66.98-.86a2.556 2.556 0 011.204-.302zm-.476 6.664c1.213 0 1.82-.938 1.82-2.814 0-1.885-.555-2.828-1.666-2.828a1.67 1.67 0 00-.994.322c-.299.215-.56.49-.784.826v3.598c.187.29.42.511.7.665.28.154.588.231.924.231zm-6.846.924c-.29.859-.693 1.538-1.211 2.037-.518.5-1.258.8-2.219.903l-.14-1.008c.485-.084.873-.205 1.162-.364.29-.158.52-.361.693-.609.173-.247.334-.58.483-1h-.434l-2.478-7.379h1.372l1.974 6.44 1.932-6.44h1.33l-2.464 7.42zm-6.958-7.588c.439 0 .84.063 1.204.19a3.36 3.36 0 011.05.608l-.616.812a3.159 3.159 0 00-.763-.413 2.411 2.411 0 00-.819-.133c-.597 0-1.062.238-1.393.714-.331.476-.497 1.181-.497 2.114 0 .934.163 1.622.49 2.065.327.444.793.665 1.4.665a2.3 2.3 0 00.798-.133c.243-.088.513-.23.812-.427l.588.84c-.672.542-1.423.812-2.254.812-.999 0-1.785-.336-2.359-1.008-.574-.672-.861-1.6-.861-2.786 0-.784.13-1.47.392-2.058.261-.588.632-1.045 1.113-1.372.48-.326 1.052-.49 1.715-.49zm-6.692 0c.439 0 .84.063 1.204.19a3.36 3.36 0 011.05.608l-.616.812a3.159 3.159 0 00-.763-.413 2.411 2.411 0 00-.819-.133c-.597 0-1.062.238-1.393.714-.331.476-.497 1.181-.497 2.114 0 .934.163 1.622.49 2.065.327.444.793.665 1.4.665a2.3 2.3 0 00.798-.133c.243-.088.513-.23.812-.427l.588.84c-.672.542-1.423.812-2.254.812-.999 0-1.785-.336-2.359-1.008-.574-.672-.861-1.6-.861-2.786 0-.784.13-1.47.392-2.058.261-.588.632-1.045 1.113-1.372.48-.326 1.052-.49 1.715-.49zm-5.348 7.546h-1.274v-3.332c0-.56.019-1.092.056-1.596a12.6 12.6 0 01.098-.994l-3.094 5.922h-1.526v-7.378h1.274v3.332c0 .495-.019 1.006-.056 1.533-.037.528-.065.866-.084 1.015l3.052-5.88h1.554v7.378zm-7.616-7.378l-1.848 3.458 2.114 3.92h-1.414l-1.75-3.346h-.98v3.346h-1.232v-3.346h-.966l-1.764 3.346h-1.4l2.114-3.92-1.848-3.458h1.344l1.54 3.024h.98v-3.024h1.232v3.024h.994l1.554-3.024h1.33zm-10.248 3.472c0 .215-.01.434-.028.658h-4.704c.056.812.261 1.41.616 1.792.355.383.812.574 1.372.574.355 0 .681-.051.98-.154.299-.102.611-.266.938-.49l.56.77c-.784.616-1.643.924-2.576.924-1.027 0-1.827-.336-2.401-1.008-.574-.672-.861-1.596-.861-2.772 0-.765.124-1.444.371-2.037.247-.592.602-1.057 1.064-1.393.462-.336 1.006-.504 1.631-.504.98 0 1.731.322 2.254.966.523.644.784 1.536.784 2.674zm-1.274-.378c0-.728-.145-1.283-.434-1.666-.29-.382-.723-.574-1.302-.574-1.055 0-1.629.775-1.722 2.324h3.458v-.084zm-9.226-3.262c.943 0 1.633.336 2.072 1.008.439.672.658 1.62.658 2.842 0 1.158-.252 2.091-.756 2.8-.504.71-1.218 1.064-2.142 1.064-.821 0-1.465-.28-1.932-.84v3.5l-1.288.154v-10.36h1.106l.098.994c.27-.373.597-.66.98-.86a2.556 2.556 0 011.204-.302zm-.476 6.664c1.213 0 1.82-.938 1.82-2.814 0-1.885-.555-2.828-1.666-2.828a1.67 1.67 0 00-.994.322c-.299.215-.56.49-.784.826v3.598c.187.29.42.511.7.665.28.154.588.231.924.231zM85.23 377.66v7.378h-1.288v-2.828h-1.61l-1.554 2.828h-1.442l1.764-3.122c-.868-.41-1.302-1.078-1.302-2.002 0-.728.261-1.286.784-1.673s1.255-.581 2.198-.581h2.45zm-1.288 3.57v-2.576h-1.19c-.532 0-.931.1-1.197.301-.266.2-.399.52-.399.959 0 .467.124.803.371 1.008.247.205.646.308 1.197.308h1.218zm-6.412 2.086c0 .299.051.52.154.665a.94.94 0 00.462.329l-.294.896c-.383-.047-.69-.154-.924-.322-.233-.168-.406-.43-.518-.784-.495.737-1.227 1.106-2.198 1.106-.728 0-1.302-.205-1.722-.616-.42-.41-.63-.947-.63-1.61 0-.784.282-1.386.847-1.806.565-.42 1.365-.63 2.401-.63h1.134v-.546c0-.523-.126-.896-.378-1.12-.252-.224-.64-.336-1.162-.336-.541 0-1.204.13-1.988.392l-.322-.938c.915-.336 1.764-.504 2.548-.504.868 0 1.517.212 1.946.637.43.425.644 1.029.644 1.813v3.374zm-3.024.924c.737 0 1.316-.383 1.736-1.148v-1.694h-.966c-1.363 0-2.044.504-2.044 1.512 0 .439.107.77.322.994.215.224.532.336.952.336zm-5.894.798v-3.248h-3.066v3.248h-1.288v-7.378h1.288v3.094h3.066v-3.094H69.9v7.378h-1.288zm-5.684-7.378l-.154 1.05h-2.366v6.328H59.12v-6.328h-2.436v-1.05h6.244zm-10.388-.168c1.036 0 1.841.345 2.415 1.036.574.69.861 1.629.861 2.814 0 .765-.13 1.44-.392 2.023a3.078 3.078 0 01-1.134 1.358c-.495.322-1.083.483-1.764.483-1.036 0-1.843-.345-2.422-1.036-.579-.69-.868-1.629-.868-2.814 0-.765.13-1.44.392-2.023a3.078 3.078 0 011.134-1.358c.495-.322 1.087-.483 1.778-.483zm0 1.036c-1.279 0-1.918.943-1.918 2.828 0 1.876.635 2.814 1.904 2.814 1.27 0 1.904-.943 1.904-2.828 0-1.876-.63-2.814-1.89-2.814zm-4.942 6.51h-1.26l-.336-3.486a15.05 15.05 0 01-.07-1.211c-.01-.443-.014-.922-.014-1.435l-1.68 5.32H43.02l-1.568-5.306c0 1.232-.019 2.105-.056 2.618l-.266 3.5h-1.246l.658-7.378h1.666l1.442 5.278 1.582-5.278h1.694l.672 7.378zm-9.87-1.722c0 .299.051.52.154.665a.94.94 0 00.462.329l-.294.896c-.383-.047-.69-.154-.924-.322-.233-.168-.406-.43-.518-.784-.495.737-1.227 1.106-2.198 1.106-.728 0-1.302-.205-1.722-.616-.42-.41-.63-.947-.63-1.61 0-.784.282-1.386.847-1.806.565-.42 1.365-.63 2.401-.63h1.134v-.546c0-.523-.126-.896-.378-1.12-.252-.224-.64-.336-1.162-.336-.541 0-1.204.13-1.988.392l-.322-.938c.915-.336 1.764-.504 2.548-.504.868 0 1.517.212 1.946.637.43.425.644 1.029.644 1.813v3.374zm-3.024.924c.737 0 1.316-.383 1.736-1.148v-1.694h-.966c-1.363 0-2.044.504-2.044 1.512 0 .439.107.77.322.994.215.224.532.336.952.336zm-6.874-6.748c.943 0 1.633.336 2.072 1.008.439.672.658 1.62.658 2.842 0 1.157-.252 2.09-.756 2.8s-1.218 1.064-2.142 1.064c-.821 0-1.465-.28-1.932-.84v3.5l-1.288.154v-10.36h1.106l.098.994c.27-.373.597-.66.98-.861.383-.2.784-.301 1.204-.301zm-.476 6.664c1.213 0 1.82-.938 1.82-2.814 0-1.885-.555-2.828-1.666-2.828-.364 0-.695.107-.994.322-.299.215-.56.49-.784.826v3.598c.187.29.42.511.7.665.28.154.588.231.924.231zm-4.382-8.764l-.196 1.148H18.73v8.498H17.4v-9.646h5.572z" fill="#5A6A7B"/></g><path d="M169 127.214a4.5 4.5 0 100-9 4.5 4.5 0 000 9zm-56 294a4.5 4.5 0 100-9 4.5 4.5 0 000 9zm419-183a4.5 4.5 0 100-9 4.5 4.5 0 000 9zm-46 245a4.5 4.5 0 100-9 4.5 4.5 0 000 9z" fill="#00BADF" fill-rule="evenodd"/></svg>