<svg width="670" height="642" xmlns:xlink="http://www.w3.org/1999/xlink" xmlns="http://www.w3.org/2000/svg"><defs><clipPath id="d"><use xlink:href="#a"/></clipPath><clipPath id="e"><use xlink:href="#b"/></clipPath><clipPath id="f"><use xlink:href="#c"/></clipPath><path d="M0 0h15v15H0V0z" id="a"/><path d="M0 0h18v17H0V0z" id="b"/><path d="M0 0h25v26H0V0z" id="c"/><filter filterUnits="userSpaceOnUse" color-interpolation-filters="sRGB" id="g"><feFlood flood-opacity="0" result="BackgroundImageFix"/><feColorMatrix in="SourceAlpha" values="0 0 0 0 0 0 0 0 0 0 0 0 0 0 0 0 0 0 127 0"/><feOffset dy="4"/><feGaussianBlur stdDeviation="3.5"/><feColorMatrix values="0 0 0 0 0.72156864 0 0 0 0 0.5411765 0 0 0 0 0.76862746 0 0 0 0.5254902 0"/><feBlend in2="BackgroundImageFix" result="effect0_dropShadow"/><feBlend in="SourceGraphic" in2="effect0_dropShadow" result="shape"/></filter></defs><path d="M166.922 567.197l5.562-2.893 5.553 2.91-1.04-6.148 4.503-4.345-6.221-.91-2.765-5.597-2.797 5.584-6.217.886 4.491 4.365-1.069 6.148z" fill="#EFCEDC" fill-rule="evenodd"/><path d="M348.963 510.671c106.982 0 193.708-86.726 193.708-193.708s-86.726-193.709-193.708-193.709-193.708 86.727-193.708 193.709 86.726 193.708 193.708 193.708z" fill="#B88AC4" fill-opacity=".333" fill-rule="evenodd"/><path d="M348.962 457.841c77.806 0 140.879-63.073 140.879-140.878 0-77.806-63.073-140.879-140.879-140.879-77.805 0-140.878 63.073-140.878 140.879 0 77.805 63.073 140.878 140.878 140.878z" fill="#B88AC4" fill-opacity=".439" fill-rule="evenodd"/><path d="M349 641.5c177.007 0 320.5-143.493 320.5-320.5S526.007.5 349 .5 28.5 143.993 28.5 321 171.993 641.5 349 641.5z" fill="#B88AC4" fill-opacity=".047" fill-rule="evenodd"/><path d="M348.963 563.5c136.158 0 246.537-110.379 246.537-246.537 0-136.159-110.379-246.538-246.537-246.538-136.159 0-246.538 110.379-246.538 246.538 0 136.158 110.379 246.537 246.538 246.537z" fill="#B88AC4" fill-opacity=".094" fill-rule="evenodd"/><path d="M163.87 125.933c-5.816 7.314-21.208 24.204-24.16 35.443-1.988 7.571-1.597 15.612-1.942 23.449-2.38 54.025 37.024 62.685 76.898 85.108m275.359 22.413c18.175-7.556 60.168-25.884 41.601-53.879m-68.761 172.161c25.567-1.585 33.528 29.933 32.917 48.684-.207 6.366-5.921 14.046-9.011 19.026m-244.188-53.614c-17.201 6.095-33.756 14.475-51.603 18.285-21.709 4.635-63.325 3.044-73.4-21.536" fill="none" stroke="#00BADF" stroke-dasharray="5 5"/><path d="M206.98 594.954a5.55 5.55 0 01-3.261 7.139 5.548 5.548 0 11-3.88-10.395 5.553 5.553 0 017.141 3.256" fill="#4BB8DB" fill-rule="evenodd"/><path d="M251.5 491.214h15v15h-15v-15z" fill="none"/><g clip-path="url(#d)" transform="translate(251.5 491.214)"><path d="M14.522 4.876a7.498 7.498 0 01-4.397 9.649c-3.875 1.447-8.202-.524-9.648-4.4A7.496 7.496 0 014.876.475c3.88-1.447 8.204.521 9.646 4.4" fill="#B18DC0" fill-rule="evenodd"/></g><path d="M202.356 527.129a5.009 5.009 0 012.948-6.454 5.014 5.014 0 113.505 9.397 5.014 5.014 0 01-6.453-2.943" fill="#2A307E" fill-rule="evenodd"/><path d="M503.5 49.214h18v17h-18v-17z" fill="none"/><g clip-path="url(#e)" transform="translate(503.5 49.214)"><path d="M3.422 16.983l5.562-2.893L14.537 17l-1.04-6.148L18 6.507l-6.22-.91L9.013 0 6.217 5.584 0 6.47l4.491 4.365-1.07 6.148z" fill="#EFCEDC" fill-rule="evenodd"/></g><path d="M230.799 555.427l-5.094-7.377-2.762 8.53-8.587 2.555 7.257 5.265-.214 8.959 7.245-5.274 8.454 2.977-2.779-8.52 5.442-7.126-8.962.011z" fill="#EFCEDC" fill-rule="evenodd"/><path d="M565.729 89.831a5.552 5.552 0 014.609-10.1 5.55 5.55 0 012.745 7.353 5.559 5.559 0 01-7.354 2.747" fill="#4BB8DB" fill-rule="evenodd"/><path d="M510.474 142.899c-3.886-1.769-5.597-6.354-3.829-10.243 1.77-3.881 6.362-5.597 10.243-3.827a7.735 7.735 0 013.83 10.246c-1.775 3.884-6.362 5.601-10.244 3.824" fill="#B18DC0" fill-rule="evenodd"/><path d="M561.5 115.214h25v26h-25v-26z" fill="none"/><g clip-path="url(#f)" transform="translate(561.5 115.214)"><path d="M15.815 19.574l8.995 1.634-4.16-8.084L25 5.141l-9.032 1.427L9.663 0 8.24 8.964 0 12.89 8.147 17l1.215 9 6.453-6.426z" fill="#EFCEDC" fill-rule="evenodd"/></g><path d="M503.5 49.214h18v17h-18v-17z" fill="none"/><g clip-path="url(#e)" transform="translate(503.5 49.214)"><path d="M3.422 16.983l5.562-2.893L14.537 17l-1.04-6.148L18 6.507l-6.22-.91L9.013 0 6.217 5.584 0 6.47l4.491 4.365-1.07 6.148z" fill="#EFCEDC" fill-rule="evenodd"/></g><path d="M565.729 89.831a5.552 5.552 0 014.609-10.1 5.55 5.55 0 012.745 7.353 5.559 5.559 0 01-7.354 2.747" fill="#4BB8DB" fill-rule="evenodd"/><path d="M510.474 142.899c-3.886-1.769-5.597-6.354-3.829-10.243 1.77-3.881 6.362-5.597 10.243-3.827a7.735 7.735 0 013.83 10.246c-1.775 3.884-6.362 5.601-10.244 3.824" fill="#B18DC0" fill-rule="evenodd"/><path d="M561.5 115.214h25v26h-25v-26z" fill="none"/><g clip-path="url(#f)" transform="translate(561.5 115.214)"><path d="M15.815 19.574l8.995 1.634-4.16-8.084L25 5.141l-9.032 1.427L9.663 0 8.24 8.964.001 12.89 8.146 17l1.215 9 6.453-6.426z" fill="#EFCEDC" fill-rule="evenodd"/></g><g filter="url(#g)" transform="translate(10.5 .5)"><path d="M484.999 176.714h129.002q.123 0 .245.006.123.006.245.018.122.012.244.03.121.018.241.042.121.024.24.054t.236.065q.118.036.233.077.116.042.229.088.113.047.224.1.111.052.219.11.109.058.214.121t.207.131q.102.069.201.142.098.073.193.15.095.079.186.16.091.083.178.17.087.087.169.178.082.09.16.186.078.094.151.193t.142.2q.068.103.131.208t.121.213q.058.109.11.22.052.11.099.224.047.113.089.229.041.115.077.233.035.117.065.236.03.12.054.24t.042.241q.018.122.03.244t.018.245q.006.122.006.245v46.002q0 .123-.006.245-.006.123-.018.245-.012.122-.03.243-.018.122-.042.242-.024.12-.054.24-.03.119-.065.236-.036.118-.077.233-.042.116-.089.229-.047.113-.099.224-.052.111-.11.22-.058.108-.121.213t-.131.207q-.069.102-.142.2-.073.1-.151.194-.078.095-.16.186t-.169.178q-.087.087-.178.169-.091.082-.186.16t-.193.151q-.099.073-.201.141-.102.069-.207.132t-.213.12q-.109.059-.22.111-.111.052-.224.1-.113.046-.229.088-.115.041-.233.077-.117.035-.236.065-.119.03-.24.054-.12.024-.241.042-.122.018-.244.03t-.245.018q-.122.006-.245.006H484.999q-.123 0-.245-.006-.123-.006-.245-.018-.122-.012-.244-.03-.12-.018-.241-.042-.12-.024-.24-.054-.119-.03-.236-.065-.118-.036-.233-.077-.116-.042-.229-.089-.113-.047-.224-.099-.111-.052-.22-.11-.108-.058-.213-.121t-.207-.132q-.102-.068-.2-.14-.1-.074-.194-.152-.095-.078-.186-.16t-.178-.17q-.087-.086-.169-.177-.082-.09-.16-.186-.078-.095-.151-.193-.073-.099-.142-.2-.068-.103-.13-.208-.064-.105-.122-.214-.058-.108-.11-.219-.053-.11-.1-.224-.046-.113-.088-.229-.041-.115-.077-.233-.035-.117-.065-.236-.03-.12-.054-.24t-.042-.242q-.018-.12-.03-.243-.012-.122-.018-.245-.006-.122-.006-.245v-46.002q0-.123.006-.245.006-.123.018-.245.012-.122.03-.244.018-.12.042-.241.024-.12.054-.24.03-.119.065-.236.036-.118.077-.233.042-.116.089-.23.046-.112.099-.223.052-.111.11-.22.058-.108.121-.213t.131-.207q.069-.102.142-.2.073-.1.15-.194.079-.095.161-.186t.17-.178q.086-.087.177-.17.09-.081.186-.16.095-.077.193-.15.099-.073.2-.142.103-.068.208-.13.105-.064.213-.122.109-.058.22-.11.11-.053.224-.1.113-.046.229-.088.115-.041.233-.077.117-.035.236-.065.12-.03.24-.054t.241-.042q.122-.018.244-.03t.245-.018q.122-.006.245-.006z" fill="#FFF" fill-rule="evenodd"/><path d="M504.723 201.28q1.197-1.071 1.197-3.143 0-1.974-1.155-3.059-1.155-1.085-3.381-1.183v-.98h-1.288v.98q-2.142.056-3.339 1.127t-1.197 3.143q0 1.974 1.155 3.059 1.155 1.085 3.381 1.183v1.092h1.288v-1.092q2.142-.056 3.339-1.127zm-7-.721q-.791-.784-.791-2.394 0-1.652.777-2.422.777-.77 2.415-.868v6.538q-1.61-.07-2.401-.854zm6.048 0q-.777.77-2.415.868v-6.538q1.61.07 2.401.854.791.784.791 2.394 0 1.652-.777 2.422zm9.163 1.421q-.154-.217-.154-.665v-3.374q0-1.176-.644-1.813t-1.946-.637q-1.176 0-2.548.504l.322.938q1.176-.392 1.988-.392.784 0 1.162.336.378.336.378 1.12v.546h-1.134q-1.554 0-2.401.63-.847.63-.847 1.806 0 .994.63 1.61.63.616 1.722.616 1.456 0 2.198-1.106.168.532.518.784t.924.322l.294-.896q-.308-.112-.462-.329zm22.078-.665q0 .448.154.665.154.217.462.329l-.294.896q-.574-.07-.924-.322-.35-.252-.518-.784-.742 1.106-2.198 1.106-1.092 0-1.722-.616-.63-.616-.63-1.61 0-1.176.847-1.806.847-.63 2.401-.63h1.134v-.546q0-.784-.378-1.12-.378-.336-1.162-.336-.812 0-1.988.392l-.322-.938q1.372-.504 2.548-.504 1.302 0 1.946.637.644.637.644 1.813v3.374zm6.538-5.635q-.546-.189-1.204-.189-.994 0-1.715.49-.721.49-1.113 1.372-.392.882-.392 2.058 0 1.778.861 2.786t2.359 1.008q1.246 0 2.254-.812l-.588-.84q-.448.294-.812.427-.364.133-.798.133-.91 0-1.4-.665-.49-.665-.49-2.065t.497-2.114q.497-.714 1.393-.714.448 0 .819.133.371.133.763.413l.616-.812q-.504-.42-1.05-.609zm30.786 4.109q.028-.336.028-.658 0-1.708-.784-2.674t-2.254-.966q-.938 0-1.631.504-.693.504-1.064 1.393-.371.889-.371 2.037 0 1.764.861 2.772.861 1.008 2.401 1.008 1.4 0 2.576-.924l-.56-.77q-.49.336-.938.49-.448.154-.98.154-.84 0-1.372-.574-.532-.574-.616-1.792h4.704zm4.774-4.298q.658 0 1.204.189.546.189 1.05.609l-.616.812q-.392-.28-.763-.413-.371-.133-.819-.133-.896 0-1.393.714t-.497 2.114q0 1.4.49 2.065t1.4.665q.434 0 .798-.133.364-.133.812-.427l.588.84q-1.008.812-2.254.812-1.498 0-2.359-1.008t-.861-2.786q0-1.176.392-2.058.392-.882 1.113-1.372.721-.49 1.715-.49zm25.214 4.298q.028-.336.028-.658 0-1.708-.784-2.674t-2.254-.966q-.938 0-1.631.504-.693.504-1.064 1.393-.371.889-.371 2.037 0 1.764.861 2.772.861 1.008 2.401 1.008 1.4 0 2.576-.924l-.56-.77q-.49.336-.938.49-.448.154-.98.154-.84 0-1.372-.574-.532-.574-.616-1.792h4.704zm-82.544 0h-3.066v3.248h-1.288v-7.378h1.288v3.094h3.066v-3.094h1.288v7.378h-1.288v-3.248zm8.778-3.08l.154-1.05h-6.244v1.05h2.436v6.328h1.288v-6.328h2.366zm20.776-1.05l-.154 1.05h-2.366v6.328h-1.288v-6.328h-2.436v-1.05h6.244zm5.796 7.378h1.274v-7.378h-1.554l-3.052 5.88q.028-.224.084-1.015.056-.791.056-1.533v-3.332h-1.274v7.378h1.526l3.094-5.922q-.042.238-.098.994t-.056 1.596v3.332zm9.002-7.378v7.378h-1.288v-3.08q-.406.378-1.001.595-.595.217-1.225.217-1.05 0-1.582-.567t-.532-1.617v-2.926h1.288v2.772q0 .7.287 1.015.287.315.889.315.49 0 1.029-.224.539-.224.847-.574v-3.304h1.288zm20.272 3.416l2.24-3.416h-1.414l-1.862 2.968h-.966v-2.968h-1.288v7.378h1.288v-3.402h.938l2.044 3.402h1.526l-2.506-3.962zm9.716 3.962h-1.274v-3.332q0-.84.056-1.596.056-.756.098-.994l-3.094 5.922h-1.526v-7.378h1.274v3.332q0 .742-.056 1.533-.056.791-.084 1.015l3.052-5.88h1.554v7.378zm-23.464-5.95q.434.574.434 1.666v.084h-3.458q.14-2.324 1.722-2.324.868 0 1.302.574zm29.988 0q.434.574.434 1.666v.084h-3.458q.14-2.324 1.722-2.324.868 0 1.302.574zm-89.152 4.004q-.63 1.148-1.736 1.148-.63 0-.952-.336-.322-.336-.322-.994 0-1.512 2.044-1.512h.966v1.694zm20.496 1.148q1.106 0 1.736-1.148v-1.694h-.966q-2.044 0-2.044 1.512 0 .658.322.994.322.336.952.336zm-25.62 10.331q1.554 0 2.415 1.035.861 1.036.861 2.814 0 1.148-.392 2.023-.392.875-1.134 1.358-.742.483-1.764.483-1.554 0-2.422-1.036-.868-1.036-.868-2.814 0-1.148.392-2.023.392-.875 1.134-1.358.742-.483 1.778-.483zm9.296.188q-.546-.189-1.204-.189-.994 0-1.715.49-.721.49-1.113 1.372-.392.882-.392 2.058 0 1.778.861 2.786t2.359 1.008q1.246 0 2.254-.812l-.588-.84q-.448.294-.812.427-.364.133-.798.133-.91 0-1.4-.665-.49-.665-.49-2.065t.497-2.114q.497-.714 1.393-.714.448 0 .819.133.371.133.763.413l.616-.812q-.504-.42-1.05-.609zm16.492.287q-.714-.476-1.68-.476-1.288 0-2.107.91-.819.91-.973 2.352h-1.33v-3.094h-1.288v7.378h1.288v-3.248h1.316q.112 1.526.924 2.471.812.945 2.156.945.994 0 1.715-.51.721-.512 1.092-1.387.371-.875.371-1.967 0-1.162-.385-2.03-.385-.868-1.099-1.344zm-30.296-.308l-2.24 3.416 2.506 3.962H500.6l-2.044-3.402h-.938v3.402h-1.288v-7.378h1.288v2.968h.966l1.862-2.968h1.414zm21.588 0l-.154 1.05h-2.366v6.328h-1.288v-6.328h-2.436v-1.05h6.244zm19.544 7.378h-1.26l-.336-3.486q-.056-.546-.07-1.21-.014-.666-.014-1.436l-1.68 5.32h-1.218l-1.568-5.306q0 1.848-.056 2.618l-.266 3.5h-1.246l.658-7.378h1.666l1.442 5.278 1.582-5.278h1.694l.672 7.378zm6.692-4.354q-.742-.644-2.394-.644h-.84v-2.38h-1.288v7.378h2.366q1.232 0 2.065-.637t.833-1.883q0-1.19-.742-1.834zm3.094-3.024h-1.288v7.378h1.288v-7.378zm-46.41.868q-1.918 0-1.918 2.828 0 2.814 1.904 2.814t1.904-2.828q0-2.814-1.89-2.814zm25.466 4.928q-.42.714-1.372.714-.868 0-1.316-.735-.448-.735-.448-2.079 0-2.814 1.778-2.814.854 0 1.316.728.462.728.462 2.072 0 1.4-.42 2.114zm16.793.224q-.427.35-1.211.35h-.966v-3.01h.826q.98 0 1.379.364t.399 1.134q0 .812-.427 1.162z" fill="#4B6B81"/></g><g filter="url(#g)" transform="translate(10.5 .5)"><path d="M166.999 84.714h101.002q.123 0 .245.006.123.006.245.018.122.012.243.03.122.018.242.042.121.024.24.054t.236.065q.118.036.233.077.116.042.229.088.113.047.224.1.111.052.22.11.108.058.213.121t.207.131q.102.069.201.142.098.073.193.15.095.079.186.161t.178.17q.087.086.169.177.082.09.16.186.078.094.151.193t.142.2q.068.103.131.208t.121.213q.058.109.11.22.052.11.099.224.047.113.089.229.041.115.077.233.035.117.065.236.03.12.054.24t.042.241q.018.122.03.244t.018.245q.006.122.006.245v46.002q0 .123-.006.245-.006.123-.018.245-.012.122-.03.243-.018.122-.042.242-.024.12-.054.24-.03.119-.065.236-.036.118-.077.233-.042.116-.089.229-.047.113-.099.224-.052.111-.11.22-.058.108-.121.213t-.131.207q-.069.102-.142.2-.073.1-.151.194-.078.095-.16.186t-.169.178q-.087.087-.178.169-.091.082-.186.16t-.193.151q-.099.073-.201.141-.102.069-.207.132t-.213.12q-.109.059-.22.111-.111.052-.224.1-.113.046-.229.088-.115.041-.233.077-.117.035-.236.065-.119.03-.24.054-.12.024-.242.042-.121.018-.243.03t-.245.018q-.122.006-.245.006H166.999q-.123 0-.245-.006-.123-.006-.245-.018-.122-.012-.244-.03-.12-.018-.241-.042-.12-.024-.24-.054-.119-.03-.236-.065-.118-.036-.233-.077-.116-.042-.229-.089-.113-.047-.224-.099-.111-.052-.22-.11-.108-.058-.213-.121t-.207-.132q-.102-.068-.2-.14-.1-.074-.194-.152-.095-.078-.186-.16t-.178-.17q-.087-.086-.169-.177-.082-.09-.16-.186-.078-.095-.151-.193-.073-.099-.142-.2-.068-.103-.13-.208-.064-.105-.122-.214-.058-.108-.11-.219-.053-.11-.1-.224-.046-.113-.088-.229-.041-.115-.077-.233-.035-.117-.065-.236-.03-.12-.054-.24t-.042-.242q-.018-.12-.03-.243-.012-.122-.018-.245-.006-.122-.006-.245V89.713q0-.123.006-.245.006-.123.018-.245.012-.122.03-.244.018-.12.042-.241.024-.12.054-.24.03-.119.065-.236.036-.118.077-.233.042-.116.089-.23.046-.112.099-.223.052-.111.11-.22.058-.108.121-.213t.131-.207q.069-.102.142-.2.073-.1.15-.194.079-.095.161-.186t.17-.178q.086-.087.177-.169.09-.082.186-.16.095-.078.193-.151.099-.073.2-.142.103-.068.208-.13.105-.064.213-.122.109-.058.22-.11.11-.053.224-.1.113-.046.229-.088.115-.041.233-.077.117-.035.236-.065.12-.03.24-.054t.241-.042q.122-.018.244-.03t.245-.018q.122-.006.245-.006z" fill="#FFF" fill-rule="evenodd"/><path d="M199.3 101.513q1.26 0 2.009.91.749.91.749 2.478 0 1.75-.882 2.716-.882.966-2.366.966t-2.373-1.05q-.889-1.05-.889-3.178 0-1.61.245-2.64.245-1.028.854-1.693t1.715-1.043q.826-.28 1.323-.504.497-.224 1.015-.574l.546.966q-.49.308-1.015.567-.525.259-1.253.497-.7.238-1.106.539-.406.3-.651.868-.245.567-.329 1.547.392-.644 1.008-1.008t1.4-.364zm-13.594-1.995q-.98-.75-2.772-.75H180.4v9.647h1.33v-3.542h1.218q1.694 0 2.716-.77 1.022-.77 1.022-2.352 0-1.484-.98-2.233zm-1.043 3.857q-.609.448-1.771.448h-1.162v-4.018h1.19q1.134 0 1.743.462.609.462.609 1.498 0 1.162-.609 1.61zm8.925 3.983q-.154-.217-.154-.665v-3.374q0-1.176-.644-1.813t-1.946-.637q-1.176 0-2.548.504l.322.938q1.176-.392 1.988-.392.784 0 1.162.336.378.336.378 1.12v.546h-1.134q-1.554 0-2.401.63-.847.63-.847 1.806 0 .994.63 1.61.63.616 1.722.616 1.456 0 2.198-1.106.168.532.518.784t.924.322l.294-.896q-.308-.112-.462-.33zm15.785-5.453q-.861-1.036-2.415-1.036-1.036 0-1.778.483t-1.134 1.358q-.392.875-.392 2.023 0 1.778.868 2.814t2.422 1.036q1.022 0 1.764-.483t1.134-1.358q.392-.875.392-2.023 0-1.778-.861-2.814zm14.427 5.453q-.154-.217-.154-.665v-3.374q0-1.176-.644-1.813t-1.946-.637q-1.176 0-2.548.504l.322.938q1.176-.392 1.988-.392.784 0 1.162.336.378.336.378 1.12v.546h-1.134q-1.554 0-2.401.63-.847.63-.847 1.806 0 .994.63 1.61.63.616 1.722.616 1.456 0 2.198-1.106.168.532.518.784t.924.322l.294-.896q-.308-.112-.462-.33zm8.064-2.85q0 .323-.028.659h-4.704q.084 1.218.616 1.792.532.574 1.372.574.532 0 .98-.154.448-.154.938-.49l.56.77q-1.176.924-2.576.924-1.54 0-2.401-1.008-.861-1.008-.861-2.772 0-1.148.371-2.037.371-.89 1.064-1.393.693-.504 1.631-.504 1.47 0 2.254.966t.784 2.674zm-14.518-3.471l-.154 1.05h-2.366v6.328h-1.288v-6.328h-2.436v-1.05h6.244zm22.54 7.378h1.26l-.672-7.378h-1.694l-1.582 5.278-1.442-5.278h-1.666l-.658 7.378h1.246l.266-3.5q.056-.77.056-2.618l1.568 5.306h1.218l1.68-5.32q0 .77.014 1.435t.07 1.21l.336 3.487zm-9.296-4.284q0-1.092-.434-1.666-.434-.574-1.302-.574-1.582 0-1.722 2.324h3.458v-.084zm-25.55.602q0-2.828 1.918-2.828 1.89 0 1.89 2.814 0 2.828-1.904 2.828t-1.904-2.814zm-6.23 2.814q.854 0 1.358-.581.504-.581.504-2.023 0-1.274-.413-1.834t-1.197-.56q-.644 0-1.204.343-.56.343-.924 1.043v.896q0 1.302.497 2.009.497.707 1.379.707zm-6.664-1.078q-.63 1.148-1.736 1.148-.63 0-.952-.336-.322-.336-.322-.994 0-1.512 2.044-1.512h.966v1.694zm30.212 0q-.63 1.148-1.736 1.148-.63 0-.952-.336-.322-.336-.322-.994 0-1.512 2.044-1.512h.966v1.694zm-29.764 9.518q.84 0 1.477.336.637.336.987.917t.35 1.31q0 .853-.385 1.637t-1.183 1.694q-.798.91-2.422 2.534h4.214l-.154 1.078h-5.53v-1.022q1.876-1.946 2.66-2.849.784-.903 1.12-1.575.336-.672.336-1.442 0-.728-.42-1.14-.42-.414-1.12-.414-.574 0-1.008.238-.434.238-.924.784l-.84-.672q.574-.714 1.274-1.064.7-.35 1.568-.35zm9.989 1.24q-.791-1.24-2.345-1.24-1.554 0-2.345 1.24-.791 1.238-.791 3.59t.791 3.598q.791 1.246 2.345 1.246 1.554 0 2.345-1.246.791-1.246.791-3.598t-.791-3.59zm6.083-1.1v9.366h-1.288V117.5l-2.184 1.33-.56-.91 2.898-1.792h1.134zm3.766 1.008h3.654l.182-1.008H211.2v4.718h1.008q.35-.168.658-.245.308-.077.672-.077.784 0 1.246.462.462.462.462 1.484t-.511 1.582q-.511.56-1.407.56-.602 0-1.078-.217-.476-.217-.924-.665l-.756.742q.574.588 1.246.89.672.3 1.526.3.966 0 1.701-.399.735-.399 1.141-1.12.406-.72.406-1.645 0-1.386-.728-2.177-.728-.79-1.932-.79-.784 0-1.498.363v-2.758zm-13.545.77q.441-.896 1.351-.896.896 0 1.344.903.448.903.448 2.905 0 2.016-.448 2.92-.448.902-1.344.902-.91 0-1.351-.903-.441-.903-.441-2.919t.441-2.912zm-15.869.042q.658 0 1.204.19.546.188 1.05.608l-.616.812q-.392-.28-.763-.413-.371-.133-.819-.133-.896 0-1.393.714t-.497 2.114q0 1.4.49 2.065t1.4.665q.434 0 .798-.133.364-.133.812-.427l.588.84q-1.008.812-2.254.812-1.498 0-2.359-1.008t-.861-2.786q0-1.176.392-2.058.392-.882 1.113-1.372.721-.49 1.715-.49zm50.435 1.036q-.861-1.036-2.415-1.036-1.036 0-1.778.483t-1.134 1.358q-.392.875-.392 2.023 0 1.778.868 2.814t2.422 1.036q1.022 0 1.764-.483t1.134-1.358q.392-.875.392-2.023 0-1.778-.861-2.814zm15.925 5.453q-.154-.217-.154-.665v-3.374q0-1.176-.644-1.813t-1.946-.637q-1.176 0-2.548.504l.322.938q1.176-.392 1.988-.392.784 0 1.162.336.378.336.378 1.12V121h-1.134q-1.554 0-2.401.63-.847.63-.847 1.806 0 .994.63 1.61.63.616 1.722.616 1.456 0 2.198-1.106.168.532.518.784t.924.322l.294-.896q-.308-.112-.462-.329zm-25.83 1.057h-1.288v-7.378h4.606l-.168 1.064h-3.15v6.314zm18.816-1.036v3.136h-1.05l-.21-2.1h-4.732l-.21 2.1h-1.05v-3.136h.518q.336-.224.532-.51.196-.288.357-1.002.161-.714.259-2.086l.196-2.744h4.62v6.342h.77zm-12.344-5.193q.414-.28 1.018-.28 1.89 0 1.89 2.813 0 2.828-1.904 2.828-.598 0-1.008-.277-.896-.607-.896-2.537 0-1.937.9-2.547zm10.286-.127h-2.17l-.112 1.554q-.098 1.302-.224 2.002-.126.7-.357 1.078-.231.378-.665.686h3.528v-5.32zm7.63 4.41q-.63 1.148-1.736 1.148-.63 0-.952-.336-.322-.336-.322-.994 0-1.512 2.044-1.512h.966v1.694z" fill="#566A7D"/></g><g filter="url(#g)" transform="translate(10.5 .5)"><path d="M425.999 477.714h152.002q.123 0 .245.006.123.006.245.018.122.012.244.03.121.018.241.042.121.024.24.054t.236.065q.118.036.233.077.116.042.229.088.113.047.224.1.111.052.22.11.108.058.213.121t.207.131q.102.069.201.142.098.073.193.15.095.079.186.16.091.083.178.17.087.087.169.178.082.09.16.186.078.094.151.193t.142.2q.068.103.131.208t.121.213q.058.109.11.22.052.11.099.224.047.113.089.229.041.115.077.233.035.117.065.236.03.12.054.24t.042.241q.018.122.03.244t.018.245q.006.122.006.245v46.002q0 .123-.006.245-.006.123-.018.245-.012.122-.03.243-.018.122-.042.242-.024.12-.054.24-.03.119-.065.236-.036.118-.077.233-.042.116-.089.229-.047.113-.099.224-.052.111-.11.22-.058.108-.121.213t-.131.207q-.069.102-.142.2-.073.1-.151.194-.078.095-.16.186t-.169.178q-.087.087-.178.169-.091.082-.186.16t-.193.151q-.099.073-.201.141-.102.069-.207.132t-.213.12q-.109.059-.22.111-.111.052-.224.1-.113.046-.229.088-.115.041-.233.077-.117.035-.236.065-.119.03-.24.054-.12.024-.241.042-.122.018-.244.03t-.245.018q-.122.006-.245.006H425.999q-.123 0-.245-.006-.123-.006-.245-.018-.122-.012-.244-.03-.12-.018-.241-.042-.12-.024-.24-.054-.119-.03-.236-.065-.118-.036-.233-.077-.116-.042-.229-.089-.113-.047-.224-.099-.111-.052-.22-.11-.108-.058-.213-.121t-.207-.132q-.102-.068-.2-.14-.1-.074-.194-.152-.095-.078-.186-.16t-.178-.17q-.087-.086-.169-.177-.082-.09-.16-.186-.078-.095-.151-.193-.073-.099-.142-.2-.068-.103-.13-.208-.064-.105-.122-.214-.058-.108-.11-.219-.053-.11-.1-.224-.046-.113-.088-.229-.041-.115-.077-.233-.035-.117-.065-.236-.03-.12-.054-.24t-.042-.242q-.018-.12-.03-.243-.012-.122-.018-.245-.006-.122-.006-.245v-46.002q0-.123.006-.245.006-.123.018-.245.012-.122.03-.244.018-.12.042-.241.024-.12.054-.24.03-.119.065-.236.036-.118.077-.233.042-.116.089-.23.046-.112.099-.223.052-.111.11-.22.058-.108.121-.213t.131-.207q.069-.102.142-.2.073-.1.15-.194.079-.095.161-.186t.17-.178q.086-.087.177-.17.09-.081.186-.16.095-.077.193-.15.099-.073.2-.142.103-.068.208-.13.105-.064.213-.122.109-.058.22-.11.11-.053.224-.1.113-.046.229-.088.115-.041.233-.077.117-.035.236-.065.12-.03.24-.054t.241-.042q.122-.018.244-.03t.245-.018q.122-.006.245-.006z" fill="#FFF" fill-rule="evenodd"/><path d="M471.917 495.485q-.581-.994-1.925-.994-1.078 0-1.722.84v-3.64l-1.232-.154v3.766q-.658-.812-1.792-.812-1.302 0-1.869 1-.567 1.002-.567 2.85 0 1.764.651 2.814t1.771 1.05q.546 0 1.022-.245t.784-.693v3.752l1.232-.154v-3.598q.644.938 1.694.938 1.19 0 1.862-1.05.672-1.05.672-2.814 0-1.862-.581-2.856zm-27.867 6.552v-9.646h-6.65v9.646h1.33v-8.512h3.99v8.512h1.33zm8.19-6.538q-.658-1.008-2.072-1.008-.63 0-1.204.3-.574.302-.98.862l-.098-.994h-1.106v10.36l1.288-.154v-3.5q.7.84 1.932.84 1.386 0 2.142-1.064t.756-2.8q0-1.834-.658-2.842zm5.628-1.008q1.554 0 2.415 1.036t.861 2.814q0 1.148-.392 2.023-.392.875-1.134 1.358-.742.483-1.764.483-1.554 0-2.422-1.036-.868-1.036-.868-2.814 0-1.148.392-2.023.392-.875 1.134-1.358.742-.483 1.778-.483zm22.4 3.64q0 .322-.028.658h-4.704q.084 1.218.616 1.792.532.574 1.372.574.532 0 .98-.154.448-.154.938-.49l.56.77q-1.176.924-2.576.924-1.54 0-2.401-1.008-.861-1.008-.861-2.772 0-1.148.371-2.037.371-.89 1.064-1.393.693-.504 1.631-.504 1.47 0 2.254.966t.784 2.674zm5.95-3.451q-.546-.19-1.204-.19-.994 0-1.715.49-.721.49-1.113 1.373-.392.882-.392 2.058 0 1.778.861 2.786t2.359 1.008q1.246 0 2.254-.812l-.588-.84q-.448.294-.812.427-.364.133-.798.133-.91 0-1.4-.665-.49-.665-.49-2.065t.497-2.114q.497-.714 1.393-.714.448 0 .819.133.371.133.763.413l.616-.812q-.504-.42-1.05-.61zm5.488-.19q.658 0 1.204.19.546.189 1.05.609l-.616.812q-.392-.28-.763-.413-.371-.133-.819-.133-.896 0-1.393.714t-.497 2.114q0 1.4.49 2.065t1.4.665q.434 0 .798-.133.364-.133.812-.427l.588.84q-1.008.812-2.254.812-1.498 0-2.359-1.008t-.861-2.786q0-1.176.392-2.058.392-.882 1.113-1.372.721-.49 1.715-.49zm15.176 0q1.554 0 2.415 1.037.861 1.036.861 2.814 0 1.148-.392 2.023-.392.875-1.134 1.358-.742.483-1.764.483-1.554 0-2.422-1.036-.868-1.036-.868-2.814 0-1.148.392-2.023.392-.875 1.134-1.358.742-.483 1.778-.483zm18.676 5.825q0 .448.154.665.154.217.462.329l-.294.896q-.574-.07-.924-.322-.35-.252-.518-.784-.742 1.106-2.198 1.106-1.092 0-1.722-.616-.63-.616-.63-1.61 0-1.176.847-1.806.847-.63 2.401-.63h1.134v-.546q0-.784-.378-1.12-.378-.336-1.162-.336-.812 0-1.988.392l-.322-.938q1.372-.504 2.548-.504 1.302 0 1.946.637.644.637.644 1.813v3.374zm42.056-1.526q.028-.336.028-.658 0-1.708-.784-2.674t-2.254-.966q-.938 0-1.631.504-.693.504-1.064 1.393-.371.889-.371 2.037 0 1.764.861 2.772.861 1.008 2.401 1.008 1.4 0 2.576-.924l-.56-.77q-.49.336-.938.49-.448.154-.98.154-.84 0-1.372-.574-.532-.574-.616-1.792h4.704zm-67.438 3.248h1.274v-7.378h-1.554l-3.052 5.88q.028-.224.084-1.015.056-.791.056-1.533v-3.332h-1.274v7.378h1.526l3.094-5.922q-.042.238-.098.994t-.056 1.596v3.332zm16.464-3.248v3.248h1.288v-7.378h-1.288v3.094h-3.066v-3.094h-1.288v7.378h1.288v-3.248h3.066zm16.968 3.248v-7.378h-4.746l-.294 3.374q-.112 1.358-.21 1.904-.098.546-.294.812-.196.266-.672.434l.322 1.022q.812-.252 1.211-.651.399-.4.588-1.141.189-.742.315-2.24l.21-2.464h2.282v6.328h1.288zm4.928-4.998q1.652 0 2.394.644.742.644.742 1.834 0 1.246-.833 1.883t-2.065.637h-2.506v-7.378h1.288v2.38h.98zm6.244 1.75h3.066v3.248h1.288v-7.378h-1.288v3.094h-3.066v-3.094h-1.288v7.378h1.288v-3.248zm9.142-1.75q1.652 0 2.394.644.742.644.742 1.834 0 1.246-.833 1.883t-2.065.637h-2.366v-7.378h1.288v2.38h.84zm4.2-2.38h1.288v7.378h-1.288v-7.378zm-106.61 3.682q0 2.814-1.82 2.814-.504 0-.924-.231-.42-.231-.7-.665v-3.598q.336-.504.784-.826.448-.322.994-.322 1.666 0 1.666 2.828zm14.847 2.597q-.385.245-.833.245-.63 0-.98-.714t-.35-2.128q0-1.414.336-2.121.336-.707.98-.707.896 0 1.526.84v3.906q-.294.434-.679.679zm4.389-.47q-.364.715-1.022.715-.462 0-.812-.231-.35-.231-.644-.68v-3.891q.574-.868 1.456-.868 1.386 0 1.386 2.828 0 1.414-.364 2.128zm8.246-2.715q0-1.092-.434-1.666-.434-.574-1.302-.574-1.582 0-1.722 2.324h3.458v-.084zm86.94-1.666q.434.574.434 1.666v.084h-3.458q.14-2.324 1.722-2.324.868 0 1.302.574zm-108.066-.56q-1.918 0-1.918 2.828 0 2.814 1.904 2.814t1.904-2.828q0-2.814-1.89-2.814zm49.014 0q-1.918 0-1.918 2.828 0 2.814 1.904 2.814t1.904-2.828q0-2.814-1.89-2.814zm31.78 5.502q.784 0 1.211-.35.427-.35.427-1.162 0-.77-.399-1.134-.399-.364-1.379-.364h-.966v3.01h1.106zm15.386 0q.784 0 1.211-.35.427-.35.427-1.162 0-.77-.399-1.134-.399-.364-1.379-.364h-.826v3.01h.966zm-31.514.21q1.106 0 1.736-1.148v-1.694h-.966q-2.044 0-2.044 1.512 0 .658.322.994.322.336.952.336zm-62.335 7.355q-.231-.23-.567-.23-.35 0-.581.23-.231.231-.231.567 0 .336.231.567.231.231.581.231.336 0 .567-.23.231-.232.231-.568 0-.336-.231-.567zm2.94 0q-.231-.23-.581-.23-.336 0-.567.23-.231.231-.231.567 0 .336.231.567.231.231.567.231.35 0 .581-.23.231-.232.231-.568 0-.336-.231-.567zm-20.685 9.464q-.154-.217-.154-.665v-3.374q0-1.176-.644-1.813t-1.946-.637q-1.176 0-2.548.504l.322.938q1.176-.392 1.988-.392.784 0 1.162.336.378.336.378 1.12v.546h-1.134q-1.554 0-2.401.63-.847.63-.847 1.806 0 .994.63 1.61.63.616 1.722.616 1.456 0 2.198-1.106.168.532.518.784t.924.322l.294-.896q-.308-.112-.462-.329zm21.616-2.19q.028-.337.028-.659 0-1.708-.784-2.674t-2.254-.966q-.938 0-1.631.504-.693.504-1.064 1.393-.371.89-.371 2.037 0 1.764.861 2.772.861 1.008 2.401 1.008 1.4 0 2.576-.924l-.56-.77q-.49.336-.938.49-.448.154-.98.154-.84 0-1.372-.574-.532-.574-.616-1.792h4.704zm5.474-4.299q1.414 0 2.072 1.008.658 1.008.658 2.842 0 1.736-.756 2.8-.756 1.064-2.142 1.064-1.232 0-1.932-.84v3.5l-1.288.154v-10.36h1.106l.098.994q.406-.56.98-.86.574-.302 1.204-.302zm-21.308 3.584l2.24-3.416h-1.414l-1.862 2.968h-.966v-2.968h-1.288v7.378h1.288v-3.402h.938l2.044 3.402h1.526l-2.506-3.962zm8.96-3.416l-.154 1.05h-2.366v6.328h-1.288v-6.328h-2.436v-1.05h6.244zm21.798 3.024q-.742-.644-2.394-.644h-.84v-2.38h-1.288v7.378h2.366q1.232 0 2.065-.637t.833-1.883q0-1.19-.742-1.834zm3.094-3.024H480.8v7.378h1.288v-7.378zm-19.698 1.428q.434.574.434 1.666v.084h-3.458q.14-2.324 1.722-2.324.868 0 1.302.574zm6.678 5.068q1.82 0 1.82-2.814 0-2.828-1.666-2.828-.546 0-.994.322-.448.322-.784.826v3.598q.28.434.7.665.42.231.924.231zm8.869-.476q-.427.35-1.211.35h-.966v-3.01h.826q.98 0 1.379.364t.399 1.134q0 .812-.427 1.162zm-36.925-.588q-.63 1.148-1.736 1.148-.63 0-.952-.336-.322-.336-.322-.994 0-.534.256-.88.467-.632 1.788-.632h.966v1.694z" fill="#516A7F"/></g><g filter="url(#g)" transform="translate(10.5 .5)"><path d="M4.999 360.714h103.002q.123 0 .245.006.123.006.245.018.122.012.244.03.121.018.241.042.121.024.24.054t.236.065q.118.036.233.077.116.042.229.088.113.047.224.1.111.052.22.11.108.058.213.121t.207.131q.102.069.201.142.098.073.193.15.095.079.186.16.091.083.178.17.087.087.169.178.082.09.16.186.078.094.151.193t.142.2q.068.103.131.208t.121.213q.058.109.11.22.053.11.099.224.047.113.089.229.041.115.077.233.035.117.065.236.03.12.054.24t.042.241q.018.122.03.244t.018.245q.006.122.006.245v46.002q0 .123-.006.245-.006.123-.018.245-.012.122-.03.243-.018.122-.042.242-.024.12-.054.24-.03.119-.065.236-.036.118-.077.233-.042.116-.089.229-.046.113-.099.224-.052.111-.11.22-.058.108-.121.213t-.131.207q-.069.102-.142.2-.073.1-.151.194-.078.095-.16.186t-.169.178q-.087.087-.178.169-.091.082-.186.16t-.193.151q-.099.073-.201.141-.102.069-.207.132t-.213.12q-.109.059-.22.111-.111.052-.224.1-.113.046-.229.088-.115.041-.233.077-.117.035-.236.065-.119.03-.24.054-.12.024-.241.042-.122.018-.244.03t-.245.018q-.122.006-.245.006H4.999q-.123 0-.245-.006-.123-.006-.245-.018-.122-.012-.244-.03-.12-.018-.241-.042-.12-.024-.24-.054-.119-.03-.236-.065-.118-.036-.233-.077-.116-.042-.229-.089-.113-.047-.224-.099-.111-.052-.22-.11-.108-.058-.213-.121t-.207-.132q-.102-.068-.2-.14-.1-.074-.194-.152-.095-.078-.186-.16t-.178-.17q-.087-.086-.169-.177-.082-.09-.16-.186-.078-.095-.151-.193-.073-.099-.142-.2-.068-.103-.13-.208-.064-.105-.122-.214-.058-.108-.11-.219-.053-.11-.1-.224-.046-.113-.088-.229-.041-.115-.077-.233-.035-.117-.065-.236-.03-.12-.054-.24t-.042-.242q-.018-.12-.03-.243-.012-.122-.018-.245-.006-.122-.006-.245v-46.002q0-.123.006-.245.006-.123.018-.245.012-.122.03-.244.018-.12.042-.241.024-.12.054-.24.03-.119.065-.236.036-.118.077-.233.042-.116.089-.23.046-.112.099-.223.052-.111.11-.22.058-.108.121-.213t.131-.207q.069-.102.142-.2.073-.1.15-.194.079-.095.161-.186t.17-.178q.086-.087.177-.17.09-.081.186-.16.095-.077.193-.15.099-.073.2-.142.103-.068.208-.13.105-.064.213-.122.109-.058.22-.11.11-.053.224-.1.113-.046.229-.088.115-.041.233-.077.117-.035.236-.065.12-.03.24-.054t.241-.042q.122-.018.244-.03t.245-.018q.122-.006.245-.006z" fill="#FFF" fill-rule="evenodd"/><path d="M22.972 375.39l-.196 1.149H18.73v8.498H17.4v-9.646h5.572zm4.858 2.1q1.414 0 2.072 1.009.658 1.008.658 2.842 0 1.736-.756 2.8-.756 1.064-2.142 1.064-1.232 0-1.932-.84v3.5l-1.288.154v-10.36h1.106l.098.994q.406-.56.98-.861.574-.301 1.204-.301zm10.052 6.49q-.154-.217-.154-.665v-3.374q0-1.176-.644-1.813t-1.946-.637q-1.176 0-2.548.504l.322.938q1.176-.392 1.988-.392.784 0 1.162.336.378.336.378 1.12v.546h-1.134q-1.554 0-2.401.63-.847.63-.847 1.806 0 .994.63 1.61.63.616 1.722.616 1.456 0 2.198-1.106.168.532.518.784t.924.322l.294-.896q-.308-.112-.462-.33zm17.073-5.453q-.861-1.036-2.415-1.036-1.036 0-1.778.483t-1.134 1.358q-.392.875-.392 2.023 0 1.778.868 2.814t2.422 1.036q1.022 0 1.764-.483t1.134-1.358q.392-.875.392-2.023 0-1.778-.861-2.814zm22.575 4.788q0 .448.154.665.154.217.462.329l-.294.896q-.574-.07-.924-.322-.35-.252-.518-.784-.742 1.106-2.198 1.106-1.092 0-1.722-.616-.63-.616-.63-1.61 0-1.176.847-1.806.847-.63 2.401-.63h1.134v-.546q0-.784-.378-1.12-.378-.336-1.162-.336-.812 0-1.988.392l-.322-.938q1.372-.504 2.548-.504 1.302 0 1.946.637.644.637.644 1.813v3.374zm-29.932 1.722h-1.26l-.336-3.486q-.056-.546-.07-1.211-.014-.665-.014-1.435l-1.68 5.32H43.02l-1.568-5.306q0 1.848-.056 2.618l-.266 3.5h-1.246l.658-7.378h1.666l1.442 5.278 1.582-5.278h1.694l.672 7.378zm15.33-7.378l-.154 1.05h-2.366v6.328H59.12v-6.328h-2.436v-1.05h6.244zm5.684 4.13v3.248H69.9v-7.378h-1.288v3.094h-3.066v-3.094h-1.288v7.378h1.288v-3.248h3.066zm16.618 3.248v-7.378h-2.45q-1.414 0-2.198.58-.784.582-.784 1.674 0 1.386 1.302 2.002l-1.764 3.122h1.442l1.554-2.828h1.61v2.828h1.288zm-57.876-.882q1.82 0 1.82-2.814 0-2.828-1.666-2.828-.546 0-.994.322-.448.322-.784.826v3.598q.28.434.7.665.42.23.924.23zm24.168-5.347q.414-.281 1.018-.281 1.89 0 1.89 2.814 0 2.828-1.904 2.828-.598 0-1.008-.278-.896-.606-.896-2.536 0-1.937.9-2.547zm31.23-.155h1.19v2.576h-1.218q-.826 0-1.197-.308-.371-.308-.371-1.008 0-.658.399-.96.399-.3 1.197-.3zM36.44 383.09q-.63 1.148-1.736 1.148-.63 0-.952-.336-.322-.336-.322-.994 0-1.512 2.044-1.512h.966v1.694zm38.066 1.148q1.106 0 1.736-1.148v-1.694h-.966q-2.044 0-2.044 1.512 0 .658.322.994.322.336.952.336zM20.718 394.57q1.414 0 2.072 1.007.658 1.008.658 2.842 0 1.736-.756 2.8-.756 1.064-2.142 1.064-1.232 0-1.932-.84v3.5l-1.288.154v-10.36h1.106l.098.994q.406-.56.98-.86.574-.302 1.204-.302zm10.5 3.64q0 .321-.028.657h-4.704q.084 1.218.616 1.792.532.574 1.372.574.532 0 .98-.154.448-.154.938-.49l.56.77q-1.176.924-2.576.924-1.54 0-2.401-1.008-.861-1.008-.861-2.772 0-1.148.371-2.037t1.064-1.393q.693-.504 1.631-.504 1.47 0 2.254.966t.784 2.674zm24.416-3.452q-.546-.189-1.204-.189-.994 0-1.715.49-.721.49-1.113 1.372-.392.882-.392 2.058 0 1.778.861 2.786t2.359 1.008q1.246 0 2.254-.812l-.588-.84q-.448.294-.812.427-.364.133-.798.133-.91 0-1.4-.665-.49-.665-.49-2.065t.497-2.114q.497-.714 1.393-.714.448 0 .819.133.371.133.763.413l.616-.812q-.504-.42-1.05-.609zm5.488-.189q.658 0 1.204.19.546.188 1.05.608l-.616.812q-.392-.28-.763-.413-.371-.133-.819-.133-.896 0-1.393.714t-.497 2.114q0 1.4.49 2.065t1.4.665q.434 0 .798-.133.364-.133.812-.427l.588.84q-1.008.812-2.254.812-1.498 0-2.359-1.008t-.861-2.786q0-1.176.392-2.058.392-.882 1.113-1.372.721-.49 1.715-.49zm14.28 0q1.414 0 2.072 1.008.658 1.008.658 2.842 0 1.736-.756 2.8-.756 1.064-2.142 1.064-1.232 0-1.932-.84v3.5l-1.288.154v-10.36h1.106l.098.994q.406-.56.98-.86.574-.302 1.204-.302zm10.052 6.49q-.154-.218-.154-.666v-3.374q0-1.176-.644-1.813t-1.946-.637q-1.176 0-2.548.504l.322.938q1.176-.392 1.988-.392.784 0 1.162.336.378.336.378 1.12v.546h-1.134q-1.554 0-2.401.63-.847.63-.847 1.806 0 .994.63 1.61.63.616 1.722.616 1.456 0 2.198-1.106.168.532.518.784t.924.322l.294-.896q-.308-.112-.462-.329zm-43.722 1.056l-2.114-3.92 1.848-3.458h-1.33l-1.554 3.024h-.994v-3.024h-1.232v3.024h-.98l-1.54-3.024h-1.344l1.848 3.458-2.114 3.92h1.4l1.764-3.346h.966v3.346h1.232v-3.346h.98l1.75 3.346h1.414zm7.35 0h-1.274v-3.332q0-.84.056-1.596.056-.756.098-.994l-3.094 5.922h-1.526v-7.378h1.274v3.332q0 .742-.056 1.533-.056.791-.084 1.015l3.052-5.88h1.554v7.378zm17.787 2.08q.777-.75 1.211-2.038l2.464-7.42h-1.33l-1.932 6.44-1.974-6.44h-1.372l2.478 7.378h.434q-.224.63-.483 1.001-.259.371-.693.61-.434.237-1.162.363l.14 1.008q1.442-.154 2.219-.903zm-46.627-2.962q1.82 0 1.82-2.814 0-2.828-1.666-2.828-.546 0-.994.322-.448.322-.784.826v3.598q.28.434.7.665.42.231.924.231zm9.702-3.402q0-1.092-.434-1.666-.434-.574-1.302-.574-1.582 0-1.722 2.324h3.458v-.084zm44.982 3.402q1.82 0 1.82-2.814 0-2.828-1.666-2.828-.546 0-.994.322-.448.322-.784.826v3.598q.28.434.7.665.42.231.924.231zm9.086-1.064q-.63 1.148-1.736 1.148-.63 0-.952-.336-.322-.336-.322-.994 0-1.512 2.044-1.512h.966v1.694z" fill="#5A6A7B"/></g><path d="M169 127.214a4.5 4.5 0 100-9 4.5 4.5 0 000 9zm-56 294a4.5 4.5 0 100-9 4.5 4.5 0 000 9zm419-183a4.5 4.5 0 100-9 4.5 4.5 0 000 9zm-46 245a4.5 4.5 0 100-9 4.5 4.5 0 000 9z" fill="#00BADF" fill-rule="evenodd"/></svg>