<svg width="340" height="301" viewBox="0 0 340 301" fill="none" xmlns="http://www.w3.org/2000/svg">
<rect width="340" height="301" fill="#F2F2F2"/>
<g clip-path="url(#clip0_0_1)">
<rect width="375" height="10547" transform="translate(-16 -294)" fill="white"/>
<circle cx="166.225" cy="148.396" r="90.659" fill="#B88AC4" fill-opacity="0.333847"/>
<circle cx="166.225" cy="148.396" r="65.9338" fill="#B88AC4" fill-opacity="0.437462"/>
<circle cx="166.243" cy="150.286" r="150" fill="#B88AC4" fill-opacity="0.0463901"/>
<circle cx="166.225" cy="148.396" r="115.384" fill="#B88AC4" fill-opacity="0.0948998"/>
<path d="M83.7108 58.9909C80.9887 62.4141 73.7853 70.3188 72.4037 75.5788C71.473 79.1223 71.6563 82.8857 71.4947 86.5535C70.3807 111.838 88.8225 115.891 107.484 126.386" stroke="#00BADF" stroke-dasharray="5"/>
<path d="M236.358 136.875C244.864 133.339 264.517 124.761 255.827 111.659" stroke="#00BADF" stroke-dasharray="5"/>
<path d="M223.646 192.233C235.612 191.492 239.338 206.243 239.052 215.019C238.955 217.998 236.281 221.592 234.835 223.923" stroke="#00BADF" stroke-dasharray="5"/>
<path d="M120.55 198.831C112.5 201.683 104.751 205.605 96.3988 207.389C86.2388 209.558 66.7617 208.813 62.0464 197.309" stroke="#00BADF" stroke-dasharray="5"/>
<path fill-rule="evenodd" clip-rule="evenodd" d="M103.887 278.502C104.388 279.845 103.705 281.341 102.361 281.843C101.017 282.344 99.5239 281.664 99.0191 280.318C98.5188 278.975 99.1996 277.48 100.545 276.978C101.888 276.477 103.383 277.158 103.887 278.502" fill="#4BB8DB"/>
<path fill-rule="evenodd" clip-rule="evenodd" d="M131.52 232.231C132.199 234.046 131.278 236.067 129.462 236.747C127.648 237.425 125.623 236.502 124.946 234.688C124.268 232.872 125.188 230.85 127.005 230.172C128.821 229.495 130.845 230.416 131.52 232.231" fill="#B18DC0"/>
<path fill-rule="evenodd" clip-rule="evenodd" d="M101.723 246.758C101.268 245.542 101.885 244.192 103.103 243.737C104.314 243.284 105.668 243.9 106.122 245.115C106.576 246.329 105.957 247.682 104.743 248.136C103.527 248.59 102.176 247.972 101.723 246.758" fill="#2A307E"/>
<path fill-rule="evenodd" clip-rule="evenodd" d="M115.035 260.002L112.651 256.549L111.358 260.542L107.339 261.738L110.735 264.202L110.635 268.395L114.026 265.926L117.983 267.32L116.682 263.332L119.229 259.997L115.035 260.002Z" fill="#EFCEDC"/>
<path fill-rule="evenodd" clip-rule="evenodd" d="M271.788 42.0947C270.484 41.4988 269.909 39.9572 270.505 38.6521C271.1 37.3483 272.638 36.773 273.946 37.3676C275.25 37.9635 275.825 39.5022 275.23 40.809C274.633 42.1128 273.095 42.6877 271.788 42.0947" fill="#4BB8DB"/>
<path fill-rule="evenodd" clip-rule="evenodd" d="M245.928 66.9313C244.109 66.1034 243.309 63.9577 244.136 62.1375C244.964 60.321 247.113 59.5179 248.93 60.3466C250.749 61.1761 251.552 63.3227 250.722 65.1416C249.892 66.9593 247.745 67.7633 245.928 66.9313" fill="#B18DC0"/>
<path fill-rule="evenodd" clip-rule="evenodd" d="M244.266 31.0334L246.869 29.6794L249.468 31.0414L248.981 28.1639L251.088 26.1306L248.177 25.7045L246.883 23.0851L245.574 25.6985L242.664 26.1133L244.766 28.1563L244.266 31.0334Z" fill="#EFCEDC"/>
<path fill-rule="evenodd" clip-rule="evenodd" d="M277.211 63.1352L281.42 63.9003L279.474 60.1164L281.51 56.3809L277.282 57.0487L274.331 53.9743L273.666 58.1697L269.809 60.0066L273.622 61.9307L274.191 66.1428L277.211 63.1352Z" fill="#EFCEDC"/>
<path fill-rule="evenodd" clip-rule="evenodd" d="M271.788 42.0947C270.484 41.4988 269.909 39.9572 270.505 38.6521C271.1 37.3483 272.638 36.773 273.946 37.3676C275.25 37.9635 275.825 39.5022 275.23 40.809C274.633 42.1128 273.095 42.6877 271.788 42.0947" fill="#4BB8DB"/>
<path fill-rule="evenodd" clip-rule="evenodd" d="M245.928 66.9313C244.109 66.1034 243.309 63.9577 244.136 62.1375C244.964 60.321 247.113 59.5179 248.93 60.3466C250.749 61.1761 251.552 63.3227 250.722 65.1416C249.892 66.9593 247.745 67.7633 245.928 66.9313" fill="#B18DC0"/>
<mask id="mask0_0_1" style="mask-type:alpha" maskUnits="userSpaceOnUse" x="269" y="53" width="13" height="14">
<path fill-rule="evenodd" clip-rule="evenodd" d="M269.809 53.9743H281.51V66.1428H269.809V53.9743Z" fill="white"/>
</mask>
<g mask="url(#mask0_0_1)">
<path fill-rule="evenodd" clip-rule="evenodd" d="M277.211 63.1352L281.42 63.9003L279.474 60.1164L281.51 56.3809L277.282 57.0487L274.331 53.9743L273.666 58.1697L269.809 60.0066L273.622 61.9307L274.191 66.1428L277.211 63.1352Z" fill="#EFCEDC"/>
</g>
<g filter="url(#filter0_d_0_1)">
<rect x="206" y="225.54" width="124" height="38" rx="5" fill="white"/>
<path d="M217.9 233.272V241.54H216.76V234.244H213.34V241.54H212.2V233.272H217.9Z" fill="#516A7F"/>
<path d="M223.142 235.072C223.95 235.072 224.542 235.36 224.918 235.936C225.294 236.512 225.482 237.324 225.482 238.372C225.482 239.364 225.266 240.164 224.834 240.772C224.402 241.38 223.79 241.684 222.998 241.684C222.294 241.684 221.742 241.444 221.342 240.964V243.964L220.238 244.096V235.216H221.186L221.27 236.068C221.502 235.748 221.782 235.504 222.11 235.336C222.438 235.16 222.782 235.072 223.142 235.072ZM222.734 240.784C223.774 240.784 224.294 239.98 224.294 238.372C224.294 236.756 223.818 235.948 222.866 235.948C222.554 235.948 222.27 236.04 222.014 236.224C221.758 236.408 221.534 236.644 221.342 236.932V240.016C221.502 240.264 221.702 240.456 221.942 240.592C222.182 240.72 222.446 240.784 222.734 240.784Z" fill="#516A7F"/>
<path d="M229.739 235.072C230.627 235.072 231.315 235.368 231.803 235.96C232.299 236.552 232.547 237.356 232.547 238.372C232.547 239.028 232.435 239.608 232.211 240.112C231.987 240.608 231.663 240.996 231.239 241.276C230.815 241.548 230.311 241.684 229.727 241.684C228.839 241.684 228.147 241.388 227.651 240.796C227.155 240.204 226.907 239.4 226.907 238.384C226.907 237.728 227.019 237.152 227.243 236.656C227.467 236.152 227.791 235.764 228.215 235.492C228.639 235.212 229.147 235.072 229.739 235.072ZM229.739 235.96C228.643 235.96 228.095 236.768 228.095 238.384C228.095 239.992 228.639 240.796 229.727 240.796C230.815 240.796 231.359 239.988 231.359 238.372C231.359 236.764 230.819 235.96 229.739 235.96Z" fill="#516A7F"/>
<path d="M240.131 235.072C240.899 235.072 241.447 235.356 241.775 235.924C242.111 236.492 242.279 237.308 242.279 238.372C242.279 239.38 242.087 240.184 241.703 240.784C241.319 241.384 240.787 241.684 240.107 241.684C239.507 241.684 239.023 241.416 238.655 240.88V243.964L237.599 244.096V240.88C237.423 241.136 237.199 241.336 236.927 241.48C236.655 241.616 236.363 241.684 236.051 241.684C235.411 241.684 234.903 241.384 234.527 240.784C234.159 240.184 233.975 239.38 233.975 238.372C233.975 237.316 234.135 236.504 234.455 235.936C234.783 235.36 235.319 235.072 236.063 235.072C236.711 235.072 237.223 235.304 237.599 235.768V232.54L238.655 232.672V235.792C239.023 235.312 239.515 235.072 240.131 235.072ZM236.303 240.808C236.559 240.808 236.795 240.74 237.011 240.604C237.235 240.46 237.431 240.264 237.599 240.016V236.668C237.239 236.188 236.803 235.948 236.291 235.948C235.923 235.948 235.643 236.152 235.451 236.56C235.259 236.96 235.163 237.564 235.163 238.372C235.163 239.18 235.263 239.788 235.463 240.196C235.663 240.604 235.943 240.808 236.303 240.808ZM239.903 240.808C240.279 240.808 240.571 240.604 240.779 240.196C240.987 239.788 241.091 239.18 241.091 238.372C241.091 236.756 240.695 235.948 239.903 235.948C239.399 235.948 238.983 236.196 238.655 236.692V240.028C238.823 240.284 239.007 240.48 239.207 240.616C239.407 240.744 239.639 240.808 239.903 240.808Z" fill="#516A7F"/>
<path d="M248.943 238.192C248.943 238.376 248.935 238.564 248.919 238.756H244.887C244.935 239.452 245.111 239.964 245.415 240.292C245.719 240.62 246.111 240.784 246.591 240.784C246.895 240.784 247.175 240.74 247.431 240.652C247.687 240.564 247.955 240.424 248.235 240.232L248.715 240.892C248.043 241.42 247.307 241.684 246.507 241.684C245.627 241.684 244.939 241.396 244.443 240.82C243.955 240.244 243.711 239.452 243.711 238.444C243.711 237.788 243.815 237.208 244.023 236.704C244.239 236.192 244.543 235.792 244.935 235.504C245.335 235.216 245.803 235.072 246.339 235.072C247.179 235.072 247.823 235.348 248.271 235.9C248.719 236.452 248.943 237.216 248.943 238.192ZM247.851 237.868C247.851 237.244 247.727 236.768 247.479 236.44C247.231 236.112 246.859 235.948 246.363 235.948C245.459 235.948 244.967 236.612 244.887 237.94H247.851V237.868Z" fill="#516A7F"/>
<path d="M253.01 235.072C253.386 235.072 253.73 235.128 254.042 235.24C254.354 235.344 254.654 235.516 254.942 235.756L254.414 236.452C254.19 236.292 253.97 236.176 253.754 236.104C253.546 236.024 253.314 235.984 253.058 235.984C252.546 235.984 252.146 236.188 251.858 236.596C251.578 237.004 251.438 237.608 251.438 238.408C251.438 239.208 251.578 239.8 251.858 240.184C252.138 240.56 252.538 240.748 253.058 240.748C253.306 240.748 253.534 240.712 253.742 240.64C253.95 240.56 254.182 240.436 254.438 240.268L254.942 240.988C254.366 241.452 253.722 241.684 253.01 241.684C252.154 241.684 251.478 241.396 250.982 240.82C250.494 240.244 250.25 239.448 250.25 238.432C250.25 237.76 250.362 237.172 250.586 236.668C250.81 236.164 251.126 235.772 251.534 235.492C251.95 235.212 252.442 235.072 253.01 235.072Z" fill="#516A7F"/>
<path d="M258.507 235.072C258.883 235.072 259.227 235.128 259.539 235.24C259.851 235.344 260.151 235.516 260.439 235.756L259.911 236.452C259.687 236.292 259.467 236.176 259.251 236.104C259.043 236.024 258.811 235.984 258.555 235.984C258.043 235.984 257.643 236.188 257.355 236.596C257.075 237.004 256.935 237.608 256.935 238.408C256.935 239.208 257.075 239.8 257.355 240.184C257.635 240.56 258.035 240.748 258.555 240.748C258.803 240.748 259.031 240.712 259.239 240.64C259.447 240.56 259.679 240.436 259.935 240.268L260.439 240.988C259.863 241.452 259.219 241.684 258.507 241.684C257.651 241.684 256.975 241.396 256.479 240.82C255.991 240.244 255.747 239.448 255.747 238.432C255.747 237.76 255.859 237.172 256.083 236.668C256.307 236.164 256.623 235.772 257.031 235.492C257.447 235.212 257.939 235.072 258.507 235.072Z" fill="#516A7F"/>
<path d="M266.853 241.54H265.761V238.684C265.761 238.204 265.777 237.748 265.809 237.316C265.841 236.884 265.869 236.6 265.893 236.464L263.241 241.54H261.933V235.216H263.025V238.072C263.025 238.496 263.009 238.936 262.977 239.392C262.945 239.84 262.921 240.128 262.905 240.256L265.521 235.216H266.853V241.54Z" fill="#516A7F"/>
<path d="M271.504 235.072C272.392 235.072 273.08 235.368 273.568 235.96C274.064 236.552 274.312 237.356 274.312 238.372C274.312 239.028 274.2 239.608 273.976 240.112C273.752 240.608 273.428 240.996 273.004 241.276C272.58 241.548 272.076 241.684 271.492 241.684C270.604 241.684 269.912 241.388 269.416 240.796C268.92 240.204 268.672 239.4 268.672 238.384C268.672 237.728 268.784 237.152 269.008 236.656C269.232 236.152 269.556 235.764 269.98 235.492C270.404 235.212 270.912 235.072 271.504 235.072ZM271.504 235.96C270.408 235.96 269.86 236.768 269.86 238.384C269.86 239.992 270.404 240.796 271.492 240.796C272.58 240.796 273.124 239.988 273.124 238.372C273.124 236.764 272.584 235.96 271.504 235.96Z" fill="#516A7F"/>
<path d="M279.868 241.54V238.756H277.24V241.54H276.136V235.216H277.24V237.868H279.868V235.216H280.972V241.54H279.868Z" fill="#516A7F"/>
<path d="M287.509 240.064C287.509 240.32 287.553 240.512 287.641 240.64C287.729 240.76 287.861 240.852 288.037 240.916L287.785 241.684C287.457 241.644 287.193 241.552 286.993 241.408C286.793 241.264 286.645 241.04 286.549 240.736C286.125 241.368 285.497 241.684 284.665 241.684C284.041 241.684 283.549 241.508 283.189 241.156C282.829 240.804 282.649 240.344 282.649 239.776C282.649 239.104 282.889 238.588 283.369 238.228C283.857 237.868 284.545 237.688 285.433 237.688H286.405V237.22C286.405 236.772 286.297 236.452 286.081 236.26C285.865 236.068 285.533 235.972 285.085 235.972C284.621 235.972 284.053 236.084 283.381 236.308L283.105 235.504C283.889 235.216 284.617 235.072 285.289 235.072C286.033 235.072 286.589 235.256 286.957 235.624C287.325 235.984 287.509 236.5 287.509 237.172V240.064ZM284.917 240.856C285.549 240.856 286.045 240.528 286.405 239.872V238.42H285.577C284.409 238.42 283.825 238.852 283.825 239.716C283.825 240.092 283.917 240.376 284.101 240.568C284.285 240.76 284.557 240.856 284.917 240.856Z" fill="#516A7F"/>
<path d="M294.409 235.216V241.54H293.305V236.116H291.349L291.169 238.228C291.097 239.084 291.005 239.724 290.893 240.148C290.789 240.572 290.621 240.9 290.389 241.132C290.165 241.356 289.821 241.54 289.357 241.684L289.081 240.808C289.353 240.712 289.545 240.588 289.657 240.436C289.769 240.284 289.853 240.052 289.909 239.74C289.965 239.428 290.025 238.884 290.089 238.108L290.341 235.216H294.409Z" fill="#516A7F"/>
<path d="M298.635 237.256C299.579 237.256 300.263 237.44 300.687 237.808C301.111 238.176 301.323 238.7 301.323 239.38C301.323 240.092 301.083 240.632 300.603 241C300.131 241.36 299.543 241.54 298.839 241.54H296.691V235.216H297.795V237.256H298.635ZM298.743 240.676C299.191 240.676 299.535 240.576 299.775 240.376C300.023 240.176 300.147 239.844 300.147 239.38C300.147 238.94 300.031 238.616 299.799 238.408C299.575 238.2 299.183 238.096 298.623 238.096H297.795V240.676H298.743Z" fill="#516A7F"/>
<path d="M306.61 241.54V238.756H303.982V241.54H302.878V235.216H303.982V237.868H306.61V235.216H307.714V241.54H306.61Z" fill="#516A7F"/>
<path d="M311.816 237.256C312.76 237.256 313.444 237.44 313.868 237.808C314.292 238.176 314.504 238.7 314.504 239.38C314.504 240.092 314.264 240.632 313.784 241C313.312 241.36 312.724 241.54 312.02 241.54H309.992V235.216H311.096V237.256H311.816ZM315.416 235.216H316.52V241.54H315.416V235.216ZM311.924 240.676C312.372 240.676 312.716 240.576 312.956 240.376C313.204 240.176 313.328 239.844 313.328 239.38C313.328 238.94 313.212 238.616 312.98 238.408C312.756 238.2 312.364 238.096 311.804 238.096H311.096V240.676H311.924Z" fill="#516A7F"/>
<path d="M323.58 238.192C323.58 238.376 323.572 238.564 323.556 238.756H319.524C319.572 239.452 319.748 239.964 320.052 240.292C320.356 240.62 320.748 240.784 321.228 240.784C321.532 240.784 321.812 240.74 322.068 240.652C322.324 240.564 322.592 240.424 322.872 240.232L323.352 240.892C322.68 241.42 321.944 241.684 321.144 241.684C320.264 241.684 319.576 241.396 319.08 240.82C318.592 240.244 318.348 239.452 318.348 238.444C318.348 237.788 318.452 237.208 318.66 236.704C318.876 236.192 319.18 235.792 319.572 235.504C319.972 235.216 320.44 235.072 320.976 235.072C321.816 235.072 322.46 235.348 322.908 235.9C323.356 236.452 323.58 237.216 323.58 238.192ZM322.488 237.868C322.488 237.244 322.364 236.768 322.116 236.44C321.868 236.112 321.496 235.948 321 235.948C320.096 235.948 319.604 236.612 319.524 237.94H322.488V237.868Z" fill="#516A7F"/>
<path d="M216.4 254.064C216.4 254.32 216.444 254.512 216.532 254.64C216.62 254.76 216.752 254.852 216.928 254.916L216.676 255.684C216.348 255.644 216.084 255.552 215.884 255.408C215.684 255.264 215.536 255.04 215.44 254.736C215.016 255.368 214.388 255.684 213.556 255.684C212.932 255.684 212.44 255.508 212.08 255.156C211.72 254.804 211.54 254.344 211.54 253.776C211.54 253.104 211.78 252.588 212.26 252.228C212.748 251.868 213.436 251.688 214.324 251.688H215.296V251.22C215.296 250.772 215.188 250.452 214.972 250.26C214.756 250.068 214.424 249.972 213.976 249.972C213.512 249.972 212.944 250.084 212.272 250.308L211.996 249.504C212.78 249.216 213.508 249.072 214.18 249.072C214.924 249.072 215.48 249.256 215.848 249.624C216.216 249.984 216.4 250.5 216.4 251.172V254.064ZM213.808 254.856C214.44 254.856 214.936 254.528 215.296 253.872V252.42H214.468C213.3 252.42 212.716 252.852 212.716 253.716C212.716 254.092 212.808 254.376 212.992 254.568C213.176 254.76 213.448 254.856 213.808 254.856Z" fill="#516A7F"/>
<path d="M223.407 249.216L221.487 252.144L223.635 255.54H222.327L220.575 252.624H219.771V255.54H218.667V249.216H219.771V251.76H220.599L222.195 249.216H223.407Z" fill="#516A7F"/>
<path d="M229.162 249.216L229.03 250.116H227.002V255.54H225.898V250.116H223.81V249.216H229.162Z" fill="#516A7F"/>
<path d="M234.775 252.192C234.775 252.376 234.767 252.564 234.751 252.756H230.719C230.767 253.452 230.943 253.964 231.247 254.292C231.551 254.62 231.943 254.784 232.423 254.784C232.727 254.784 233.007 254.74 233.263 254.652C233.519 254.564 233.787 254.424 234.067 254.232L234.547 254.892C233.875 255.42 233.139 255.684 232.339 255.684C231.459 255.684 230.771 255.396 230.275 254.82C229.787 254.244 229.543 253.452 229.543 252.444C229.543 251.788 229.647 251.208 229.855 250.704C230.071 250.192 230.375 249.792 230.767 249.504C231.167 249.216 231.635 249.072 232.171 249.072C233.011 249.072 233.655 249.348 234.103 249.9C234.551 250.452 234.775 251.216 234.775 252.192ZM233.683 251.868C233.683 251.244 233.559 250.768 233.311 250.44C233.063 250.112 232.691 249.948 232.195 249.948C231.291 249.948 230.799 250.612 230.719 251.94H233.683V251.868ZM230.947 246.324C231.139 246.324 231.299 246.392 231.427 246.528C231.563 246.656 231.631 246.816 231.631 247.008C231.631 247.2 231.563 247.364 231.427 247.5C231.299 247.628 231.139 247.692 230.947 247.692C230.747 247.692 230.579 247.628 230.443 247.5C230.315 247.364 230.251 247.2 230.251 247.008C230.251 246.816 230.315 246.656 230.443 246.528C230.579 246.392 230.747 246.324 230.947 246.324ZM233.455 246.324C233.655 246.324 233.819 246.392 233.947 246.528C234.083 246.656 234.151 246.816 234.151 247.008C234.151 247.2 234.083 247.364 233.947 247.5C233.819 247.628 233.655 247.692 233.455 247.692C233.263 247.692 233.099 247.628 232.963 247.5C232.835 247.364 232.771 247.2 232.771 247.008C232.771 246.816 232.835 246.656 232.963 246.528C233.099 246.392 233.263 246.324 233.455 246.324Z" fill="#516A7F"/>
<path d="M239.442 249.072C240.25 249.072 240.842 249.36 241.218 249.936C241.594 250.512 241.782 251.324 241.782 252.372C241.782 253.364 241.566 254.164 241.134 254.772C240.702 255.38 240.09 255.684 239.298 255.684C238.594 255.684 238.042 255.444 237.642 254.964V257.964L236.538 258.096V249.216H237.486L237.57 250.068C237.802 249.748 238.082 249.504 238.41 249.336C238.738 249.16 239.082 249.072 239.442 249.072ZM239.034 254.784C240.074 254.784 240.594 253.98 240.594 252.372C240.594 250.756 240.118 249.948 239.166 249.948C238.854 249.948 238.57 250.04 238.314 250.224C238.058 250.408 237.834 250.644 237.642 250.932V254.016C237.802 254.264 238.002 254.456 238.242 254.592C238.482 254.72 238.746 254.784 239.034 254.784Z" fill="#516A7F"/>
<path d="M245.487 251.256C246.431 251.256 247.115 251.44 247.539 251.808C247.963 252.176 248.175 252.7 248.175 253.38C248.175 254.092 247.935 254.632 247.455 255C246.983 255.36 246.395 255.54 245.691 255.54H243.663V249.216H244.767V251.256H245.487ZM249.087 249.216H250.191V255.54H249.087V249.216ZM245.595 254.676C246.043 254.676 246.387 254.576 246.627 254.376C246.875 254.176 246.999 253.844 246.999 253.38C246.999 252.94 246.883 252.616 246.651 252.408C246.427 252.2 246.035 252.096 245.475 252.096H244.767V254.676H245.595Z" fill="#516A7F"/>
</g>
<g filter="url(#filter1_d_0_1)">
<rect x="7.5105" y="154.142" width="72.3769" height="38" rx="5" fill="white"/>
<path d="M19.4865 161.874L19.3185 162.858H15.8505V170.142H14.7105V161.874H19.4865Z" fill="#5A6A7B"/>
<path d="M23.6483 163.674C24.4563 163.674 25.0483 163.962 25.4243 164.538C25.8003 165.114 25.9883 165.926 25.9883 166.974C25.9883 167.966 25.7723 168.766 25.3403 169.374C24.9083 169.982 24.2963 170.286 23.5043 170.286C22.8003 170.286 22.2483 170.046 21.8483 169.566V172.566L20.7443 172.698V163.818H21.6923L21.7763 164.67C22.0083 164.35 22.2883 164.106 22.6163 163.938C22.9443 163.762 23.2883 163.674 23.6483 163.674ZM23.2403 169.386C24.2803 169.386 24.8003 168.582 24.8003 166.974C24.8003 165.358 24.3243 164.55 23.3723 164.55C23.0603 164.55 22.7763 164.642 22.5203 164.826C22.2643 165.01 22.0403 165.246 21.8483 165.534V168.618C22.0083 168.866 22.2083 169.058 22.4483 169.194C22.6883 169.322 22.9523 169.386 23.2403 169.386Z" fill="#5A6A7B"/>
<path d="M32.0121 168.666C32.0121 168.922 32.0561 169.114 32.1441 169.242C32.2321 169.362 32.3641 169.454 32.5401 169.518L32.2881 170.286C31.9601 170.246 31.6961 170.154 31.4961 170.01C31.2961 169.866 31.1481 169.642 31.0521 169.338C30.6281 169.97 30.0001 170.286 29.1681 170.286C28.5441 170.286 28.0521 170.11 27.6921 169.758C27.3321 169.406 27.1521 168.946 27.1521 168.378C27.1521 167.706 27.3921 167.19 27.8721 166.83C28.3601 166.47 29.0481 166.29 29.9361 166.29H30.9081V165.822C30.9081 165.374 30.8001 165.054 30.5841 164.862C30.3681 164.67 30.0361 164.574 29.5881 164.574C29.1241 164.574 28.5561 164.686 27.8841 164.91L27.6081 164.106C28.3921 163.818 29.1201 163.674 29.7921 163.674C30.5361 163.674 31.0921 163.858 31.4601 164.226C31.8281 164.586 32.0121 165.102 32.0121 165.774V168.666ZM29.4201 169.458C30.0521 169.458 30.5481 169.13 30.9081 168.474V167.022H30.0801C28.9121 167.022 28.3281 167.454 28.3281 168.318C28.3281 168.694 28.4201 168.978 28.6041 169.17C28.7881 169.362 29.0601 169.458 29.4201 169.458Z" fill="#5A6A7B"/>
<path d="M40.4714 170.142H39.3914L39.1034 167.154C39.0714 166.842 39.0514 166.498 39.0434 166.122C39.0354 165.738 39.0314 165.326 39.0314 164.886L37.5914 169.446H36.5474L35.2034 164.898C35.2034 165.954 35.1874 166.702 35.1554 167.142L34.9274 170.142H33.8594L34.4234 163.818H35.8514L37.0874 168.342L38.4434 163.818H39.8954L40.4714 170.142Z" fill="#5A6A7B"/>
<path d="M44.7062 163.674C45.5942 163.674 46.2822 163.97 46.7702 164.562C47.2662 165.154 47.5142 165.958 47.5142 166.974C47.5142 167.63 47.4022 168.21 47.1782 168.714C46.9542 169.21 46.6302 169.598 46.2062 169.878C45.7822 170.15 45.2782 170.286 44.6942 170.286C43.8062 170.286 43.1142 169.99 42.6182 169.398C42.1222 168.806 41.8742 168.002 41.8742 166.986C41.8742 166.33 41.9862 165.754 42.2102 165.258C42.4342 164.754 42.7582 164.366 43.1822 164.094C43.6062 163.814 44.1142 163.674 44.7062 163.674ZM44.7062 164.562C43.6102 164.562 43.0622 165.37 43.0622 166.986C43.0622 168.594 43.6062 169.398 44.6942 169.398C45.7822 169.398 46.3262 168.59 46.3262 166.974C46.3262 165.366 45.7862 164.562 44.7062 164.562Z" fill="#5A6A7B"/>
<path d="M53.3053 163.818L53.1733 164.718H51.1453V170.142H50.0413V164.718H47.9533V163.818H53.3053Z" fill="#5A6A7B"/>
<path d="M58.1794 170.142V167.358H55.5514V170.142H54.4474V163.818H55.5514V166.47H58.1794V163.818H59.2834V170.142H58.1794Z" fill="#5A6A7B"/>
<path d="M65.8207 168.666C65.8207 168.922 65.8647 169.114 65.9527 169.242C66.0407 169.362 66.1727 169.454 66.3487 169.518L66.0967 170.286C65.7687 170.246 65.5047 170.154 65.3047 170.01C65.1047 169.866 64.9567 169.642 64.8607 169.338C64.4367 169.97 63.8087 170.286 62.9767 170.286C62.3527 170.286 61.8607 170.11 61.5007 169.758C61.1407 169.406 60.9607 168.946 60.9607 168.378C60.9607 167.706 61.2007 167.19 61.6807 166.83C62.1687 166.47 62.8567 166.29 63.7447 166.29H64.7167V165.822C64.7167 165.374 64.6087 165.054 64.3927 164.862C64.1767 164.67 63.8447 164.574 63.3967 164.574C62.9327 164.574 62.3647 164.686 61.6927 164.91L61.4167 164.106C62.2007 163.818 62.9287 163.674 63.6007 163.674C64.3447 163.674 64.9007 163.858 65.2687 164.226C65.6367 164.586 65.8207 165.102 65.8207 165.774V168.666ZM63.2287 169.458C63.8607 169.458 64.3567 169.13 64.7167 168.474V167.022H63.8887C62.7207 167.022 62.1367 167.454 62.1367 168.318C62.1367 168.694 62.2287 168.978 62.4127 169.17C62.5967 169.362 62.8687 169.458 63.2287 169.458Z" fill="#5A6A7B"/>
<path d="M72.42 163.818V170.142H71.316V167.718H69.936L68.604 170.142H67.368L68.88 167.466C68.136 167.114 67.764 166.542 67.764 165.75C67.764 165.126 67.988 164.65 68.436 164.322C68.884 163.986 69.512 163.818 70.32 163.818H72.42ZM71.316 166.878V164.67H70.296C69.84 164.67 69.496 164.758 69.264 164.934C69.04 165.102 68.928 165.374 68.928 165.75C68.928 166.15 69.032 166.438 69.24 166.614C69.456 166.79 69.8 166.878 70.272 166.878H71.316Z" fill="#5A6A7B"/>
<path d="M17.5545 177.674C18.3625 177.674 18.9545 177.962 19.3305 178.538C19.7065 179.114 19.8945 179.926 19.8945 180.974C19.8945 181.966 19.6785 182.766 19.2465 183.374C18.8145 183.982 18.2025 184.286 17.4105 184.286C16.7065 184.286 16.1545 184.046 15.7545 183.566V186.566L14.6505 186.698V177.818H15.5985L15.6825 178.67C15.9145 178.35 16.1945 178.106 16.5225 177.938C16.8505 177.762 17.1945 177.674 17.5545 177.674ZM17.1465 183.386C18.1865 183.386 18.7065 182.582 18.7065 180.974C18.7065 179.358 18.2305 178.55 17.2785 178.55C16.9665 178.55 16.6825 178.642 16.4265 178.826C16.1705 179.01 15.9465 179.246 15.7545 179.534V182.618C15.9145 182.866 16.1145 183.058 16.3545 183.194C16.5945 183.322 16.8585 183.386 17.1465 183.386Z" fill="#5A6A7B"/>
<path d="M26.5515 180.794C26.5515 180.978 26.5435 181.166 26.5275 181.358H22.4955C22.5435 182.054 22.7195 182.566 23.0235 182.894C23.3275 183.222 23.7195 183.386 24.1995 183.386C24.5035 183.386 24.7835 183.342 25.0395 183.254C25.2955 183.166 25.5635 183.026 25.8435 182.834L26.3235 183.494C25.6515 184.022 24.9155 184.286 24.1155 184.286C23.2355 184.286 22.5475 183.998 22.0515 183.422C21.5635 182.846 21.3195 182.054 21.3195 181.046C21.3195 180.39 21.4235 179.81 21.6315 179.306C21.8475 178.794 22.1515 178.394 22.5435 178.106C22.9435 177.818 23.4115 177.674 23.9475 177.674C24.7875 177.674 25.4315 177.95 25.8795 178.502C26.3275 179.054 26.5515 179.818 26.5515 180.794ZM25.4595 180.47C25.4595 179.846 25.3355 179.37 25.0875 179.042C24.8395 178.714 24.4675 178.55 23.9715 178.55C23.0675 178.55 22.5755 179.214 22.4955 180.542H25.4595V180.47Z" fill="#5A6A7B"/>
<path d="M35.2291 177.818L33.6451 180.782L35.4571 184.142H34.2451L32.7451 181.274H31.9051V184.142H30.8491V181.274H30.0211L28.5091 184.142H27.3091L29.1211 180.782L27.5371 177.818H28.6891L30.0091 180.41H30.8491V177.818H31.9051V180.41H32.7571L34.0891 177.818H35.2291Z" fill="#5A6A7B"/>
<path d="M41.7541 184.142H40.6621V181.286C40.6621 180.806 40.6781 180.35 40.7101 179.918C40.7421 179.486 40.7701 179.202 40.7941 179.066L38.1421 184.142H36.8341V177.818H37.9261V180.674C37.9261 181.098 37.9101 181.538 37.8781 181.994C37.8461 182.442 37.8221 182.73 37.8061 182.858L40.4221 177.818H41.7541V184.142Z" fill="#5A6A7B"/>
<path d="M46.3334 177.674C46.7094 177.674 47.0534 177.73 47.3654 177.842C47.6774 177.946 47.9774 178.118 48.2654 178.358L47.7374 179.054C47.5134 178.894 47.2934 178.778 47.0774 178.706C46.8694 178.626 46.6374 178.586 46.3814 178.586C45.8694 178.586 45.4694 178.79 45.1814 179.198C44.9014 179.606 44.7614 180.21 44.7614 181.01C44.7614 181.81 44.9014 182.402 45.1814 182.786C45.4614 183.162 45.8614 183.35 46.3814 183.35C46.6294 183.35 46.8574 183.314 47.0654 183.242C47.2734 183.162 47.5054 183.038 47.7614 182.87L48.2654 183.59C47.6894 184.054 47.0454 184.286 46.3334 184.286C45.4774 184.286 44.8014 183.998 44.3054 183.422C43.8174 182.846 43.5734 182.05 43.5734 181.034C43.5734 180.362 43.6854 179.774 43.9094 179.27C44.1334 178.766 44.4494 178.374 44.8574 178.094C45.2734 177.814 45.7654 177.674 46.3334 177.674Z" fill="#5A6A7B"/>
<path d="M51.8295 177.674C52.2055 177.674 52.5495 177.73 52.8615 177.842C53.1735 177.946 53.4735 178.118 53.7615 178.358L53.2335 179.054C53.0095 178.894 52.7895 178.778 52.5735 178.706C52.3655 178.626 52.1335 178.586 51.8775 178.586C51.3655 178.586 50.9655 178.79 50.6775 179.198C50.3975 179.606 50.2575 180.21 50.2575 181.01C50.2575 181.81 50.3975 182.402 50.6775 182.786C50.9575 183.162 51.3575 183.35 51.8775 183.35C52.1255 183.35 52.3535 183.314 52.5615 183.242C52.7695 183.162 53.0015 183.038 53.2575 182.87L53.7615 183.59C53.1855 184.054 52.5415 184.286 51.8295 184.286C50.9735 184.286 50.2975 183.998 49.8015 183.422C49.3135 182.846 49.0695 182.05 49.0695 181.034C49.0695 180.362 49.1815 179.774 49.4055 179.27C49.6295 178.766 49.9455 178.374 50.3535 178.094C50.7695 177.814 51.2615 177.674 51.8295 177.674Z" fill="#5A6A7B"/>
<path d="M57.788 184.178C57.54 184.914 57.192 185.494 56.744 185.918C56.304 186.35 55.672 186.61 54.848 186.698L54.728 185.834C55.144 185.762 55.476 185.658 55.724 185.522C55.972 185.386 56.168 185.21 56.312 184.994C56.464 184.786 56.604 184.502 56.732 184.142H56.36L54.236 177.818H55.412L57.104 183.338L58.76 177.818H59.9L57.788 184.178Z" fill="#5A6A7B"/>
<path d="M64.0662 177.674C64.8742 177.674 65.4662 177.962 65.8422 178.538C66.2182 179.114 66.4062 179.926 66.4062 180.974C66.4062 181.966 66.1902 182.766 65.7582 183.374C65.3262 183.982 64.7142 184.286 63.9222 184.286C63.2182 184.286 62.6662 184.046 62.2662 183.566V186.566L61.1622 186.698V177.818H62.1102L62.1942 178.67C62.4262 178.35 62.7062 178.106 63.0342 177.938C63.3622 177.762 63.7062 177.674 64.0662 177.674ZM63.6582 183.386C64.6982 183.386 65.2182 182.582 65.2182 180.974C65.2182 179.358 64.7422 178.55 63.7902 178.55C63.4782 178.55 63.1942 178.642 62.9382 178.826C62.6822 179.01 62.4582 179.246 62.2662 179.534V182.618C62.4262 182.866 62.6262 183.058 62.8662 183.194C63.1062 183.322 63.3702 183.386 63.6582 183.386Z" fill="#5A6A7B"/>
<path d="M72.43 182.666C72.43 182.922 72.474 183.114 72.562 183.242C72.65 183.362 72.782 183.454 72.958 183.518L72.706 184.286C72.378 184.246 72.114 184.154 71.914 184.01C71.714 183.866 71.566 183.642 71.47 183.338C71.046 183.97 70.418 184.286 69.586 184.286C68.962 184.286 68.47 184.11 68.11 183.758C67.75 183.406 67.57 182.946 67.57 182.378C67.57 181.706 67.81 181.19 68.29 180.83C68.778 180.47 69.466 180.29 70.354 180.29H71.326V179.822C71.326 179.374 71.218 179.054 71.002 178.862C70.786 178.67 70.454 178.574 70.006 178.574C69.542 178.574 68.974 178.686 68.302 178.91L68.026 178.106C68.81 177.818 69.538 177.674 70.21 177.674C70.954 177.674 71.51 177.858 71.878 178.226C72.246 178.586 72.43 179.102 72.43 179.774V182.666ZM69.838 183.458C70.47 183.458 70.966 183.13 71.326 182.474V181.022H70.498C69.33 181.022 68.746 181.454 68.746 182.318C68.746 182.694 68.838 182.978 69.022 183.17C69.206 183.362 69.478 183.458 69.838 183.458Z" fill="#5A6A7B"/>
</g>
<g filter="url(#filter2_d_0_1)">
<rect x="230" y="69" width="103" height="38" rx="5" fill="white"/>
<path d="M245.36 81.8C245.36 82.984 245.016 83.884 244.328 84.5C243.648 85.108 242.696 85.428 241.472 85.46V86.396H240.368V85.46C239.096 85.404 238.128 85.068 237.464 84.452C236.808 83.828 236.48 82.952 236.48 81.824C236.48 80.64 236.82 79.744 237.5 79.136C238.188 78.52 239.144 78.196 240.368 78.164V77.324H241.472V78.164C242.744 78.22 243.708 78.56 244.364 79.184C245.028 79.8 245.36 80.672 245.36 81.8ZM237.656 81.824C237.656 82.744 237.88 83.428 238.328 83.876C238.784 84.324 239.472 84.568 240.392 84.608V79.004C239.456 79.06 238.764 79.308 238.316 79.748C237.876 80.188 237.656 80.88 237.656 81.824ZM241.448 84.62C242.384 84.564 243.072 84.316 243.512 83.876C243.96 83.436 244.184 82.744 244.184 81.8C244.184 80.88 243.956 80.196 243.5 79.748C243.052 79.3 242.368 79.056 241.448 79.016V84.62Z" fill="#4B6B81"/>
<path d="M251.127 84.524C251.127 84.78 251.171 84.972 251.259 85.1C251.347 85.22 251.479 85.312 251.655 85.376L251.403 86.144C251.075 86.104 250.811 86.012 250.611 85.868C250.411 85.724 250.263 85.5 250.167 85.196C249.743 85.828 249.115 86.144 248.283 86.144C247.659 86.144 247.167 85.968 246.807 85.616C246.447 85.264 246.267 84.804 246.267 84.236C246.267 83.564 246.507 83.048 246.987 82.688C247.475 82.328 248.163 82.148 249.051 82.148H250.023V81.68C250.023 81.232 249.915 80.912 249.699 80.72C249.483 80.528 249.151 80.432 248.703 80.432C248.239 80.432 247.671 80.544 246.999 80.768L246.723 79.964C247.507 79.676 248.235 79.532 248.907 79.532C249.651 79.532 250.207 79.716 250.575 80.084C250.943 80.444 251.127 80.96 251.127 81.632V84.524ZM248.535 85.316C249.167 85.316 249.663 84.988 250.023 84.332V82.88H249.195C248.027 82.88 247.443 83.312 247.443 84.176C247.443 84.552 247.535 84.836 247.719 85.028C247.903 85.22 248.175 85.316 248.535 85.316Z" fill="#4B6B81"/>
<path d="M257.126 86V83.216H254.498V86H253.394V79.676H254.498V82.328H257.126V79.676H258.23V86H257.126Z" fill="#4B6B81"/>
<path d="M264.779 79.676L264.647 80.576H262.619V86H261.515V80.576H259.427V79.676H264.779Z" fill="#4B6B81"/>
<path d="M269.701 84.524C269.701 84.78 269.745 84.972 269.833 85.1C269.921 85.22 270.053 85.312 270.229 85.376L269.977 86.144C269.649 86.104 269.385 86.012 269.185 85.868C268.985 85.724 268.837 85.5 268.741 85.196C268.317 85.828 267.689 86.144 266.857 86.144C266.233 86.144 265.741 85.968 265.381 85.616C265.021 85.264 264.841 84.804 264.841 84.236C264.841 83.564 265.081 83.048 265.561 82.688C266.049 82.328 266.737 82.148 267.625 82.148H268.597V81.68C268.597 81.232 268.489 80.912 268.273 80.72C268.057 80.528 267.725 80.432 267.277 80.432C266.813 80.432 266.245 80.544 265.573 80.768L265.297 79.964C266.081 79.676 266.809 79.532 267.481 79.532C268.225 79.532 268.781 79.716 269.149 80.084C269.517 80.444 269.701 80.96 269.701 81.632V84.524ZM267.109 85.316C267.741 85.316 268.237 84.988 268.597 84.332V82.88H267.769C266.601 82.88 266.017 83.312 266.017 84.176C266.017 84.552 266.109 84.836 266.293 85.028C266.477 85.22 266.749 85.316 267.109 85.316Z" fill="#4B6B81"/>
<path d="M274.272 79.532C274.648 79.532 274.992 79.588 275.304 79.7C275.616 79.804 275.916 79.976 276.204 80.216L275.676 80.912C275.452 80.752 275.232 80.636 275.016 80.564C274.808 80.484 274.576 80.444 274.32 80.444C273.808 80.444 273.408 80.648 273.12 81.056C272.84 81.464 272.7 82.068 272.7 82.868C272.7 83.668 272.84 84.26 273.12 84.644C273.4 85.02 273.8 85.208 274.32 85.208C274.568 85.208 274.796 85.172 275.004 85.1C275.212 85.02 275.444 84.896 275.7 84.728L276.204 85.448C275.628 85.912 274.984 86.144 274.272 86.144C273.416 86.144 272.74 85.856 272.244 85.28C271.756 84.704 271.512 83.908 271.512 82.892C271.512 82.22 271.624 81.632 271.848 81.128C272.072 80.624 272.388 80.232 272.796 79.952C273.212 79.672 273.704 79.532 274.272 79.532Z" fill="#4B6B81"/>
<path d="M281.971 79.676L281.839 80.576H279.811V86H278.707V80.576H276.619V79.676H281.971Z" fill="#4B6B81"/>
<path d="M288.033 86H286.941V83.144C286.941 82.664 286.957 82.208 286.989 81.776C287.021 81.344 287.049 81.06 287.073 80.924L284.421 86H283.113V79.676H284.205V82.532C284.205 82.956 284.189 83.396 284.157 83.852C284.125 84.3 284.101 84.588 284.085 84.716L286.701 79.676H288.033V86Z" fill="#4B6B81"/>
<path d="M294.652 79.676V86H293.548V83.36C293.316 83.576 293.028 83.748 292.684 83.876C292.348 83.996 292 84.056 291.64 84.056C291.04 84.056 290.588 83.896 290.284 83.576C289.98 83.248 289.828 82.784 289.828 82.184V79.676H290.932V82.052C290.932 82.452 291.012 82.744 291.172 82.928C291.34 83.104 291.596 83.192 291.94 83.192C292.22 83.192 292.512 83.128 292.816 83C293.128 82.872 293.372 82.708 293.548 82.508V79.676H294.652Z" fill="#4B6B81"/>
<path d="M301.705 82.652C301.705 82.836 301.697 83.024 301.681 83.216H297.649C297.697 83.912 297.873 84.424 298.177 84.752C298.481 85.08 298.873 85.244 299.353 85.244C299.657 85.244 299.937 85.2 300.193 85.112C300.449 85.024 300.717 84.884 300.997 84.692L301.477 85.352C300.805 85.88 300.069 86.144 299.269 86.144C298.389 86.144 297.701 85.856 297.205 85.28C296.717 84.704 296.473 83.912 296.473 82.904C296.473 82.248 296.577 81.668 296.785 81.164C297.001 80.652 297.305 80.252 297.697 79.964C298.097 79.676 298.565 79.532 299.101 79.532C299.941 79.532 300.585 79.808 301.033 80.36C301.481 80.912 301.705 81.676 301.705 82.652ZM300.613 82.328C300.613 81.704 300.489 81.228 300.241 80.9C299.993 80.572 299.621 80.408 299.125 80.408C298.221 80.408 297.729 81.072 297.649 82.4H300.613V82.328Z" fill="#4B6B81"/>
<path d="M305.772 79.532C306.148 79.532 306.492 79.588 306.804 79.7C307.116 79.804 307.416 79.976 307.704 80.216L307.176 80.912C306.952 80.752 306.732 80.636 306.516 80.564C306.308 80.484 306.076 80.444 305.82 80.444C305.308 80.444 304.908 80.648 304.62 81.056C304.34 81.464 304.2 82.068 304.2 82.868C304.2 83.668 304.34 84.26 304.62 84.644C304.9 85.02 305.3 85.208 305.82 85.208C306.068 85.208 306.296 85.172 306.504 85.1C306.712 85.02 306.944 84.896 307.2 84.728L307.704 85.448C307.128 85.912 306.484 86.144 305.772 86.144C304.916 86.144 304.24 85.856 303.744 85.28C303.256 84.704 303.012 83.908 303.012 82.892C303.012 82.22 303.124 81.632 303.348 81.128C303.572 80.624 303.888 80.232 304.296 79.952C304.712 79.672 305.204 79.532 305.772 79.532Z" fill="#4B6B81"/>
<path d="M313.939 79.676L312.019 82.604L314.167 86H312.859L311.107 83.084H310.303V86H309.199V79.676H310.303V82.22H311.131L312.727 79.676H313.939Z" fill="#4B6B81"/>
<path d="M320.341 86H319.249V83.144C319.249 82.664 319.265 82.208 319.297 81.776C319.329 81.344 319.357 81.06 319.381 80.924L316.729 86H315.421V79.676H316.513V82.532C316.513 82.956 316.497 83.396 316.465 83.852C316.433 84.3 316.409 84.588 316.393 84.716L319.009 79.676H320.341V86Z" fill="#4B6B81"/>
<path d="M327.393 82.652C327.393 82.836 327.385 83.024 327.369 83.216H323.337C323.385 83.912 323.561 84.424 323.865 84.752C324.169 85.08 324.561 85.244 325.041 85.244C325.345 85.244 325.625 85.2 325.881 85.112C326.137 85.024 326.405 84.884 326.685 84.692L327.165 85.352C326.493 85.88 325.757 86.144 324.957 86.144C324.077 86.144 323.389 85.856 322.893 85.28C322.405 84.704 322.161 83.912 322.161 82.904C322.161 82.248 322.265 81.668 322.473 81.164C322.689 80.652 322.993 80.252 323.385 79.964C323.785 79.676 324.253 79.532 324.789 79.532C325.629 79.532 326.273 79.808 326.721 80.36C327.169 80.912 327.393 81.676 327.393 82.652ZM326.301 82.328C326.301 81.704 326.177 81.228 325.929 80.9C325.681 80.572 325.309 80.408 324.813 80.408C323.909 80.408 323.417 81.072 323.337 82.4H326.301V82.328Z" fill="#4B6B81"/>
<path d="M241.88 93.676L239.96 96.604L242.108 100H240.8L239.048 97.084H238.244V100H237.14V93.676H238.244V96.22H239.072L240.668 93.676H241.88Z" fill="#4B6B81"/>
<path d="M245.633 93.532C246.521 93.532 247.209 93.828 247.697 94.42C248.193 95.012 248.441 95.816 248.441 96.832C248.441 97.488 248.329 98.068 248.105 98.572C247.881 99.068 247.557 99.456 247.133 99.736C246.709 100.008 246.205 100.144 245.621 100.144C244.733 100.144 244.041 99.848 243.545 99.256C243.049 98.664 242.801 97.86 242.801 96.844C242.801 96.188 242.913 95.612 243.137 95.116C243.361 94.612 243.685 94.224 244.109 93.952C244.533 93.672 245.041 93.532 245.633 93.532ZM245.633 94.42C244.537 94.42 243.989 95.228 243.989 96.844C243.989 98.452 244.533 99.256 245.621 99.256C246.709 99.256 247.253 98.448 247.253 96.832C247.253 95.224 246.713 94.42 245.633 94.42Z" fill="#4B6B81"/>
<path d="M252.569 93.532C252.945 93.532 253.289 93.588 253.601 93.7C253.913 93.804 254.213 93.976 254.501 94.216L253.973 94.912C253.749 94.752 253.529 94.636 253.313 94.564C253.105 94.484 252.873 94.444 252.617 94.444C252.105 94.444 251.705 94.648 251.417 95.056C251.137 95.464 250.997 96.068 250.997 96.868C250.997 97.668 251.137 98.26 251.417 98.644C251.697 99.02 252.097 99.208 252.617 99.208C252.865 99.208 253.093 99.172 253.301 99.1C253.509 99.02 253.741 98.896 253.997 98.728L254.501 99.448C253.925 99.912 253.281 100.144 252.569 100.144C251.713 100.144 251.037 99.856 250.541 99.28C250.053 98.704 249.809 97.908 249.809 96.892C249.809 96.22 249.921 95.632 250.145 95.128C250.369 94.624 250.685 94.232 251.093 93.952C251.509 93.672 252.001 93.532 252.569 93.532Z" fill="#4B6B81"/>
<path d="M260.267 93.676L260.135 94.576H258.107V100H257.003V94.576H254.915V93.676H260.267Z" fill="#4B6B81"/>
<path d="M266.294 93.532C266.846 93.532 267.326 93.668 267.734 93.94C268.142 94.212 268.454 94.596 268.67 95.092C268.894 95.588 269.006 96.168 269.006 96.832C269.006 97.456 268.898 98.02 268.682 98.524C268.474 99.02 268.162 99.416 267.746 99.712C267.338 100 266.85 100.144 266.282 100.144C265.514 100.144 264.898 99.876 264.434 99.34C263.97 98.796 263.706 98.088 263.642 97.216H262.514V100H261.41V93.676H262.514V96.328H263.654C263.742 95.504 264.018 94.832 264.482 94.312C264.954 93.792 265.558 93.532 266.294 93.532ZM266.282 99.256C266.826 99.256 267.218 99.052 267.458 98.644C267.698 98.236 267.818 97.632 267.818 96.832C267.818 96.064 267.686 95.472 267.422 95.056C267.158 94.64 266.782 94.432 266.294 94.432C265.278 94.432 264.77 95.236 264.77 96.844C264.77 97.612 264.898 98.208 265.154 98.632C265.41 99.048 265.786 99.256 266.282 99.256Z" fill="#4B6B81"/>
<path d="M277.023 100H275.943L275.655 97.012C275.623 96.7 275.603 96.356 275.595 95.98C275.587 95.596 275.583 95.184 275.583 94.744L274.143 99.304H273.099L271.755 94.756C271.755 95.812 271.739 96.56 271.707 97L271.479 100H270.411L270.975 93.676H272.403L273.639 98.2L274.995 93.676H276.447L277.023 100Z" fill="#4B6B81"/>
<path d="M280.706 95.716C281.65 95.716 282.334 95.9 282.758 96.268C283.182 96.636 283.394 97.16 283.394 97.84C283.394 98.552 283.154 99.092 282.674 99.46C282.202 99.82 281.614 100 280.91 100H278.882V93.676H279.986V95.716H280.706ZM284.306 93.676H285.41V100H284.306V93.676ZM280.814 99.136C281.262 99.136 281.606 99.036 281.846 98.836C282.094 98.636 282.218 98.304 282.218 97.84C282.218 97.4 282.102 97.076 281.87 96.868C281.646 96.66 281.254 96.556 280.694 96.556H279.986V99.136H280.814Z" fill="#4B6B81"/>
</g>
<g filter="url(#filter3_d_0_1)">
<rect x="87.7498" y="36.7051" width="73" height="36.9867" rx="5" fill="white"/>
<path d="M98.1217 44.231C99.1457 44.231 99.9377 44.447 100.498 44.879C101.058 45.303 101.338 45.939 101.338 46.787C101.338 47.691 101.046 48.363 100.462 48.803C99.8777 49.243 99.1017 49.463 98.1337 49.463H97.0897V52.499H95.9497V44.231H98.1217ZM98.0857 48.563C98.7497 48.563 99.2537 48.435 99.5977 48.179C99.9497 47.923 100.126 47.463 100.126 46.799C100.126 46.207 99.9497 45.779 99.5977 45.515C99.2537 45.251 98.7577 45.119 98.1097 45.119H97.0897V48.563H98.0857Z" fill="#566A7D"/>
<path d="M106.466 51.023C106.466 51.279 106.51 51.471 106.598 51.599C106.686 51.719 106.818 51.811 106.994 51.875L106.742 52.643C106.414 52.603 106.15 52.511 105.95 52.367C105.75 52.223 105.602 51.999 105.506 51.695C105.082 52.327 104.454 52.643 103.622 52.643C102.998 52.643 102.506 52.467 102.146 52.115C101.786 51.763 101.606 51.303 101.606 50.735C101.606 50.063 101.846 49.547 102.326 49.187C102.814 48.827 103.502 48.647 104.39 48.647H105.362V48.179C105.362 47.731 105.254 47.411 105.038 47.219C104.822 47.027 104.49 46.931 104.042 46.931C103.578 46.931 103.01 47.043 102.338 47.267L102.062 46.463C102.846 46.175 103.574 46.031 104.246 46.031C104.99 46.031 105.546 46.215 105.914 46.583C106.282 46.943 106.466 47.459 106.466 48.131V51.023ZM103.874 51.815C104.506 51.815 105.002 51.487 105.362 50.831V49.379H104.534C103.366 49.379 102.782 49.811 102.782 50.675C102.782 51.051 102.874 51.335 103.058 51.527C103.242 51.719 103.514 51.815 103.874 51.815Z" fill="#566A7D"/>
<path d="M111.493 46.583C112.213 46.583 112.785 46.843 113.209 47.363C113.641 47.883 113.857 48.591 113.857 49.487C113.857 50.487 113.605 51.263 113.101 51.815C112.597 52.367 111.921 52.643 111.073 52.643C110.225 52.643 109.545 52.343 109.033 51.743C108.529 51.143 108.277 50.235 108.277 49.019C108.277 48.099 108.345 47.347 108.481 46.763C108.625 46.171 108.869 45.687 109.213 45.311C109.565 44.927 110.057 44.627 110.689 44.411C111.161 44.251 111.537 44.107 111.817 43.979C112.105 43.851 112.397 43.687 112.693 43.487L113.161 44.315C112.881 44.491 112.589 44.655 112.285 44.807C111.989 44.951 111.633 45.091 111.217 45.227C110.817 45.363 110.501 45.519 110.269 45.695C110.037 45.863 109.849 46.111 109.705 46.439C109.569 46.759 109.477 47.199 109.429 47.759C109.653 47.391 109.941 47.103 110.293 46.895C110.645 46.687 111.045 46.583 111.493 46.583ZM111.073 51.755C111.561 51.755 111.949 51.591 112.237 51.263C112.525 50.927 112.669 50.347 112.669 49.523C112.669 48.795 112.549 48.271 112.309 47.951C112.077 47.631 111.737 47.471 111.289 47.471C110.921 47.471 110.577 47.571 110.257 47.771C109.937 47.963 109.673 48.259 109.465 48.659V49.427C109.465 50.171 109.605 50.747 109.885 51.155C110.173 51.555 110.569 51.755 111.073 51.755Z" fill="#566A7D"/>
<path d="M118.059 46.031C118.947 46.031 119.635 46.327 120.123 46.919C120.619 47.511 120.867 48.315 120.867 49.331C120.867 49.987 120.755 50.567 120.531 51.071C120.307 51.567 119.983 51.955 119.559 52.235C119.135 52.507 118.631 52.643 118.047 52.643C117.159 52.643 116.467 52.347 115.971 51.755C115.475 51.163 115.227 50.359 115.227 49.343C115.227 48.687 115.339 48.111 115.563 47.615C115.787 47.111 116.111 46.723 116.535 46.451C116.959 46.171 117.467 46.031 118.059 46.031ZM118.059 46.919C116.963 46.919 116.415 47.727 116.415 49.343C116.415 50.951 116.959 51.755 118.047 51.755C119.135 51.755 119.679 50.947 119.679 49.331C119.679 47.723 119.139 46.919 118.059 46.919Z" fill="#566A7D"/>
<path d="M126.658 46.175L126.526 47.075H124.498V52.499H123.394V47.075H121.306V46.175H126.658Z" fill="#566A7D"/>
<path d="M131.579 51.023C131.579 51.279 131.623 51.471 131.711 51.599C131.799 51.719 131.931 51.811 132.107 51.875L131.855 52.643C131.527 52.603 131.263 52.511 131.063 52.367C130.863 52.223 130.715 51.999 130.619 51.695C130.195 52.327 129.567 52.643 128.735 52.643C128.111 52.643 127.619 52.467 127.259 52.115C126.899 51.763 126.719 51.303 126.719 50.735C126.719 50.063 126.959 49.547 127.439 49.187C127.927 48.827 128.615 48.647 129.503 48.647H130.475V48.179C130.475 47.731 130.367 47.411 130.151 47.219C129.935 47.027 129.603 46.931 129.155 46.931C128.691 46.931 128.123 47.043 127.451 47.267L127.175 46.463C127.959 46.175 128.687 46.031 129.359 46.031C130.103 46.031 130.659 46.215 131.027 46.583C131.395 46.943 131.579 47.459 131.579 48.131V51.023ZM128.987 51.815C129.619 51.815 130.115 51.487 130.475 50.831V49.379H129.647C128.479 49.379 127.895 49.811 127.895 50.675C127.895 51.051 127.987 51.335 128.171 51.527C128.355 51.719 128.627 51.815 128.987 51.815Z" fill="#566A7D"/>
<path d="M138.623 49.151C138.623 49.335 138.615 49.523 138.599 49.715H134.567C134.615 50.411 134.791 50.923 135.095 51.251C135.399 51.579 135.791 51.743 136.271 51.743C136.575 51.743 136.855 51.699 137.111 51.611C137.367 51.523 137.635 51.383 137.915 51.191L138.395 51.851C137.723 52.379 136.987 52.643 136.187 52.643C135.307 52.643 134.619 52.355 134.123 51.779C133.635 51.203 133.391 50.411 133.391 49.403C133.391 48.747 133.495 48.167 133.703 47.663C133.919 47.151 134.223 46.751 134.615 46.463C135.015 46.175 135.483 46.031 136.019 46.031C136.859 46.031 137.503 46.307 137.951 46.859C138.399 47.411 138.623 48.175 138.623 49.151ZM137.531 48.827C137.531 48.203 137.407 47.727 137.159 47.399C136.911 47.071 136.539 46.907 136.043 46.907C135.139 46.907 134.647 47.571 134.567 48.899H137.531V48.827Z" fill="#566A7D"/>
<path d="M146.578 52.499H145.498L145.21 49.511C145.178 49.199 145.158 48.855 145.15 48.479C145.142 48.095 145.138 47.683 145.138 47.243L143.698 51.803H142.654L141.31 47.255C141.31 48.311 141.294 49.059 141.262 49.499L141.034 52.499H139.966L140.53 46.175H141.958L143.194 50.699L144.55 46.175H146.002L146.578 52.499Z" fill="#566A7D"/>
<path d="M98.1937 60.031C98.5697 60.031 98.9137 60.087 99.2257 60.199C99.5377 60.303 99.8377 60.475 100.126 60.715L99.5977 61.411C99.3737 61.251 99.1537 61.135 98.9377 61.063C98.7297 60.983 98.4977 60.943 98.2417 60.943C97.7297 60.943 97.3297 61.147 97.0417 61.555C96.7617 61.963 96.6217 62.567 96.6217 63.367C96.6217 64.167 96.7617 64.759 97.0417 65.143C97.3217 65.519 97.7217 65.707 98.2417 65.707C98.4897 65.707 98.7177 65.671 98.9257 65.599C99.1337 65.519 99.3657 65.395 99.6217 65.227L100.126 65.947C99.5497 66.411 98.9057 66.643 98.1937 66.643C97.3377 66.643 96.6617 66.355 96.1657 65.779C95.6777 65.203 95.4337 64.407 95.4337 63.391C95.4337 62.719 95.5457 62.131 95.7697 61.627C95.9937 61.123 96.3097 60.731 96.7177 60.451C97.1337 60.171 97.6257 60.031 98.1937 60.031Z" fill="#566A7D"/>
<path d="M106.392 58.351C106.872 58.351 107.292 58.447 107.652 58.639C108.02 58.831 108.304 59.095 108.504 59.431C108.704 59.759 108.804 60.131 108.804 60.547C108.804 61.035 108.692 61.503 108.468 61.951C108.252 62.399 107.916 62.883 107.46 63.403C107.004 63.923 106.312 64.647 105.384 65.575H108.996L108.864 66.499H104.124V65.623C105.196 64.511 105.956 63.699 106.404 63.187C106.852 62.667 107.172 62.215 107.364 61.831C107.556 61.447 107.652 61.035 107.652 60.595C107.652 60.179 107.532 59.855 107.292 59.623C107.052 59.383 106.732 59.263 106.332 59.263C106.004 59.263 105.716 59.331 105.468 59.467C105.22 59.603 104.956 59.827 104.676 60.139L103.956 59.563C104.284 59.155 104.648 58.851 105.048 58.651C105.448 58.451 105.896 58.351 106.392 58.351Z" fill="#566A7D"/>
<path d="M112.945 58.351C113.833 58.351 114.501 58.707 114.949 59.419C115.405 60.123 115.633 61.147 115.633 62.491C115.633 63.835 115.405 64.863 114.949 65.575C114.501 66.287 113.833 66.643 112.945 66.643C112.057 66.643 111.385 66.287 110.929 65.575C110.481 64.863 110.257 63.835 110.257 62.491C110.257 61.147 110.481 60.123 110.929 59.419C111.385 58.707 112.057 58.351 112.945 58.351ZM112.945 59.227C112.425 59.227 112.037 59.483 111.781 59.995C111.533 60.507 111.409 61.339 111.409 62.491C111.409 63.643 111.533 64.479 111.781 64.999C112.037 65.511 112.425 65.767 112.945 65.767C113.457 65.767 113.841 65.511 114.097 64.999C114.353 64.479 114.481 63.643 114.481 62.491C114.481 61.347 114.353 60.519 114.097 60.007C113.841 59.487 113.457 59.227 112.945 59.227Z" fill="#566A7D"/>
<path d="M119.86 58.471V66.499H118.756V59.647L116.884 60.787L116.404 60.007L118.888 58.471H119.86Z" fill="#566A7D"/>
<path d="M126.215 59.335H123.083V61.699C123.491 61.491 123.919 61.387 124.367 61.387C125.055 61.387 125.607 61.615 126.023 62.071C126.439 62.519 126.647 63.139 126.647 63.931C126.647 64.459 126.531 64.931 126.299 65.347C126.067 65.755 125.739 66.075 125.315 66.307C124.899 66.531 124.415 66.643 123.863 66.643C123.375 66.643 122.939 66.559 122.555 66.391C122.171 66.215 121.815 65.959 121.487 65.623L122.135 64.987C122.391 65.243 122.655 65.435 122.927 65.563C123.199 65.683 123.507 65.743 123.851 65.743C124.363 65.743 124.763 65.583 125.051 65.263C125.347 64.943 125.495 64.491 125.495 63.907C125.495 63.323 125.363 62.899 125.099 62.635C124.835 62.371 124.479 62.239 124.031 62.239C123.823 62.239 123.631 62.263 123.455 62.311C123.279 62.351 123.091 62.419 122.891 62.515H122.027V58.471H126.371L126.215 59.335Z" fill="#566A7D"/>
<path d="M132.607 66.499H131.503V60.175H135.451L135.307 61.087H132.607V66.499Z" fill="#566A7D"/>
<path d="M138.719 60.031C139.607 60.031 140.295 60.327 140.783 60.919C141.279 61.511 141.527 62.315 141.527 63.331C141.527 63.987 141.415 64.567 141.191 65.071C140.967 65.567 140.643 65.955 140.219 66.235C139.795 66.507 139.291 66.643 138.707 66.643C137.819 66.643 137.127 66.347 136.631 65.755C136.135 65.163 135.887 64.359 135.887 63.343C135.887 62.687 135.999 62.111 136.223 61.615C136.447 61.111 136.771 60.723 137.195 60.451C137.619 60.171 138.127 60.031 138.719 60.031ZM138.719 60.919C137.623 60.919 137.075 61.727 137.075 63.343C137.075 64.951 137.619 65.755 138.707 65.755C139.795 65.755 140.339 64.947 140.339 63.331C140.339 61.723 139.799 60.919 138.719 60.919Z" fill="#566A7D"/>
<path d="M148.309 65.611V68.299H147.409L147.229 66.499H143.173L142.993 68.299H142.093V65.611H142.537C142.729 65.483 142.881 65.339 142.993 65.179C143.105 65.011 143.205 64.723 143.293 64.315C143.389 63.907 143.465 63.311 143.521 62.527L143.689 60.175H147.649V65.611H148.309ZM146.545 61.051H144.685L144.589 62.383C144.533 63.127 144.469 63.699 144.397 64.099C144.325 64.499 144.221 64.807 144.085 65.023C143.957 65.239 143.769 65.435 143.521 65.611H146.545V61.051Z" fill="#566A7D"/>
<path d="M154.185 65.023C154.185 65.279 154.229 65.471 154.317 65.599C154.405 65.719 154.537 65.811 154.713 65.875L154.461 66.643C154.133 66.603 153.869 66.511 153.669 66.367C153.469 66.223 153.321 65.999 153.225 65.695C152.801 66.327 152.173 66.643 151.341 66.643C150.717 66.643 150.225 66.467 149.865 66.115C149.505 65.763 149.325 65.303 149.325 64.735C149.325 64.063 149.565 63.547 150.045 63.187C150.533 62.827 151.221 62.647 152.109 62.647H153.081V62.179C153.081 61.731 152.973 61.411 152.757 61.219C152.541 61.027 152.209 60.931 151.761 60.931C151.297 60.931 150.729 61.043 150.057 61.267L149.781 60.463C150.565 60.175 151.293 60.031 151.965 60.031C152.709 60.031 153.265 60.215 153.633 60.583C154.001 60.943 154.185 61.459 154.185 62.131V65.023ZM151.593 65.815C152.225 65.815 152.721 65.487 153.081 64.831V63.379H152.253C151.085 63.379 150.501 63.811 150.501 64.675C150.501 65.051 150.593 65.335 150.777 65.527C150.961 65.719 151.233 65.815 151.593 65.815Z" fill="#566A7D"/>
</g>
<circle cx="86.1117" cy="57.4845" r="2.10608" fill="#00BADF"/>
<circle cx="59.9027" cy="195.082" r="2.10608" fill="#00BADF"/>
<circle cx="256.003" cy="109.435" r="2.10608" fill="#00BADF"/>
<circle cx="234.474" cy="224.099" r="2.10608" fill="#00BADF"/>
</g>
<defs>
<filter id="filter0_d_0_1" x="199" y="222.54" width="138" height="52" filterUnits="userSpaceOnUse" color-interpolation-filters="sRGB">
<feFlood flood-opacity="0" result="BackgroundImageFix"/>
<feColorMatrix in="SourceAlpha" type="matrix" values="0 0 0 0 0 0 0 0 0 0 0 0 0 0 0 0 0 0 127 0" result="hardAlpha"/>
<feOffset dy="4"/>
<feGaussianBlur stdDeviation="3.5"/>
<feColorMatrix type="matrix" values="0 0 0 0 0.721569 0 0 0 0 0.541176 0 0 0 0 0.768627 0 0 0 0.52641 0"/>
<feBlend mode="normal" in2="BackgroundImageFix" result="effect1_dropShadow_0_1"/>
<feBlend mode="normal" in="SourceGraphic" in2="effect1_dropShadow_0_1" result="shape"/>
</filter>
<filter id="filter1_d_0_1" x="0.510498" y="151.142" width="86.377" height="52" filterUnits="userSpaceOnUse" color-interpolation-filters="sRGB">
<feFlood flood-opacity="0" result="BackgroundImageFix"/>
<feColorMatrix in="SourceAlpha" type="matrix" values="0 0 0 0 0 0 0 0 0 0 0 0 0 0 0 0 0 0 127 0" result="hardAlpha"/>
<feOffset dy="4"/>
<feGaussianBlur stdDeviation="3.5"/>
<feColorMatrix type="matrix" values="0 0 0 0 0.721569 0 0 0 0 0.541176 0 0 0 0 0.768627 0 0 0 0.52641 0"/>
<feBlend mode="normal" in2="BackgroundImageFix" result="effect1_dropShadow_0_1"/>
<feBlend mode="normal" in="SourceGraphic" in2="effect1_dropShadow_0_1" result="shape"/>
</filter>
<filter id="filter2_d_0_1" x="223" y="66" width="117" height="52" filterUnits="userSpaceOnUse" color-interpolation-filters="sRGB">
<feFlood flood-opacity="0" result="BackgroundImageFix"/>
<feColorMatrix in="SourceAlpha" type="matrix" values="0 0 0 0 0 0 0 0 0 0 0 0 0 0 0 0 0 0 127 0" result="hardAlpha"/>
<feOffset dy="4"/>
<feGaussianBlur stdDeviation="3.5"/>
<feColorMatrix type="matrix" values="0 0 0 0 0.721569 0 0 0 0 0.541176 0 0 0 0 0.768627 0 0 0 0.52641 0"/>
<feBlend mode="normal" in2="BackgroundImageFix" result="effect1_dropShadow_0_1"/>
<feBlend mode="normal" in="SourceGraphic" in2="effect1_dropShadow_0_1" result="shape"/>
</filter>
<filter id="filter3_d_0_1" x="80.7498" y="33.7051" width="87" height="50.9867" filterUnits="userSpaceOnUse" color-interpolation-filters="sRGB">
<feFlood flood-opacity="0" result="BackgroundImageFix"/>
<feColorMatrix in="SourceAlpha" type="matrix" values="0 0 0 0 0 0 0 0 0 0 0 0 0 0 0 0 0 0 127 0" result="hardAlpha"/>
<feOffset dy="4"/>
<feGaussianBlur stdDeviation="3.5"/>
<feColorMatrix type="matrix" values="0 0 0 0 0.721569 0 0 0 0 0.541176 0 0 0 0 0.768627 0 0 0 0.52641 0"/>
<feBlend mode="normal" in2="BackgroundImageFix" result="effect1_dropShadow_0_1"/>
<feBlend mode="normal" in="SourceGraphic" in2="effect1_dropShadow_0_1" result="shape"/>
</filter>
<clipPath id="clip0_0_1">
<rect width="375" height="10547" fill="white" transform="translate(-16 -294)"/>
</clipPath>
</defs>
</svg>
