<svg width="340" height="301" fill="none" xmlns="http://www.w3.org/2000/svg"><circle cx="166.225" cy="148.396" r="90.659" fill="#B88AC4" fill-opacity=".334"/><circle cx="166.225" cy="148.396" r="65.934" fill="#B88AC4" fill-opacity=".437"/><circle cx="166.243" cy="150.286" r="150" fill="#B88AC4" fill-opacity=".046"/><circle cx="166.225" cy="148.396" r="115.384" fill="#B88AC4" fill-opacity=".095"/><path d="M83.71 58.99c-2.72 3.425-9.924 11.33-11.305 16.59-.931 3.543-.748 7.307-.91 10.975-1.113 25.284 17.329 29.337 35.99 39.832m128.873 10.488c8.506-3.536 28.159-12.114 19.469-25.216m-32.181 80.574c11.966-.741 15.692 14.01 15.406 22.786-.097 2.979-2.771 6.573-4.217 8.904M120.55 198.831c-8.05 2.852-15.799 6.774-24.151 8.558-10.16 2.169-29.637 1.424-34.353-10.08" stroke="#00BADF" stroke-dasharray="5"/><path fill-rule="evenodd" clip-rule="evenodd" d="M103.887 278.502a2.598 2.598 0 01-4.868 1.816 2.599 2.599 0 014.868-1.816" fill="#4BB8DB"/><mask id="a" style="mask-type:alpha" maskUnits="userSpaceOnUse" x="124" y="229" width="8" height="8"><path fill-rule="evenodd" clip-rule="evenodd" d="M124.723 229.949h7.021v7.021h-7.021v-7.021z" fill="#fff"/></mask><g mask="url(#a)"><path fill-rule="evenodd" clip-rule="evenodd" d="M131.52 232.231a3.51 3.51 0 11-6.574 2.458 3.51 3.51 0 016.574-2.458" fill="#B18DC0"/></g><path fill-rule="evenodd" clip-rule="evenodd" d="M101.723 246.758a2.348 2.348 0 114.4-1.642 2.348 2.348 0 01-4.4 1.642" fill="#2A307E"/><mask id="b" style="mask-type:alpha" maskUnits="userSpaceOnUse" x="242" y="23" width="10" height="9"><path fill-rule="evenodd" clip-rule="evenodd" d="M242.664 23.085h8.424v7.956h-8.424v-7.956z" fill="#fff"/></mask><g mask="url(#b)"><path fill-rule="evenodd" clip-rule="evenodd" d="M244.266 31.033l2.603-1.354 2.599 1.362-.487-2.877 2.107-2.033-2.911-.427-1.294-2.619-1.309 2.613-2.91.415 2.102 2.043-.5 2.877z" fill="#EFCEDC"/></g><path fill-rule="evenodd" clip-rule="evenodd" d="M115.035 260.002l-2.384-3.453-1.293 3.993-4.019 1.196 3.396 2.464-.1 4.193 3.391-2.469 3.957 1.394-1.301-3.988 2.547-3.335-4.194.005z" fill="#EFCEDC"/><path fill-rule="evenodd" clip-rule="evenodd" d="M271.788 42.095a2.599 2.599 0 012.158-4.727 2.598 2.598 0 01-2.158 4.727" fill="#4BB8DB"/><path fill-rule="evenodd" clip-rule="evenodd" d="M245.928 66.931a3.62 3.62 0 113.003-6.586 3.62 3.62 0 01-3.003 6.586" fill="#B18DC0"/><mask id="c" style="mask-type:alpha" maskUnits="userSpaceOnUse" x="269" y="53" width="13" height="14"><path fill-rule="evenodd" clip-rule="evenodd" d="M269.809 53.974h11.701v12.169h-11.701V53.974z" fill="#fff"/></mask><g mask="url(#c)"><path fill-rule="evenodd" clip-rule="evenodd" d="M277.211 63.135l4.209.765-1.946-3.784 2.036-3.735-4.228.668-2.951-3.075-.665 4.196-3.857 1.837 3.813 1.924.569 4.212 3.02-3.008z" fill="#EFCEDC"/></g><mask id="d" style="mask-type:alpha" maskUnits="userSpaceOnUse" x="242" y="23" width="10" height="9"><path fill-rule="evenodd" clip-rule="evenodd" d="M242.664 23.085h8.424v7.956h-8.424v-7.956z" fill="#fff"/></mask><g mask="url(#d)"><path fill-rule="evenodd" clip-rule="evenodd" d="M244.266 31.033l2.603-1.354 2.599 1.362-.487-2.877 2.107-2.033-2.911-.427-1.294-2.619-1.309 2.613-2.91.415 2.102 2.043-.5 2.877z" fill="#EFCEDC"/></g><path fill-rule="evenodd" clip-rule="evenodd" d="M271.788 42.095a2.599 2.599 0 012.158-4.727 2.598 2.598 0 01-2.158 4.727" fill="#4BB8DB"/><path fill-rule="evenodd" clip-rule="evenodd" d="M245.928 66.931a3.62 3.62 0 113.003-6.586 3.62 3.62 0 01-3.003 6.586" fill="#B18DC0"/><mask id="e" style="mask-type:alpha" maskUnits="userSpaceOnUse" x="269" y="53" width="13" height="14"><path fill-rule="evenodd" clip-rule="evenodd" d="M269.809 53.974h11.701v12.169h-11.701V53.974z" fill="#fff"/></mask><g mask="url(#e)"><path fill-rule="evenodd" clip-rule="evenodd" d="M277.211 63.135l4.209.765-1.946-3.784 2.036-3.735-4.228.668-2.951-3.075-.665 4.196-3.857 1.837 3.813 1.924.569 4.212 3.02-3.008z" fill="#EFCEDC"/></g><g filter="url(#filter0_d_0_5652)"><rect x="230" y="69" width="103" height="38" rx="5" fill="#fff"/><path d="M245.36 81.8c0 1.184-.344 2.084-1.032 2.7-.68.608-1.632.928-2.856.96v.936h-1.104v-.936c-1.272-.056-2.24-.392-2.904-1.008-.656-.624-.984-1.5-.984-2.628 0-1.184.34-2.08 1.02-2.688.688-.616 1.644-.94 2.868-.972v-.84h1.104v.84c1.272.056 2.236.396 2.892 1.02.664.616.996 1.488.996 2.616zm-7.704.024c0 .92.224 1.604.672 2.052.456.448 1.144.692 2.064.732v-5.604c-.936.056-1.628.304-2.076.744-.44.44-.66 1.132-.66 2.076zm3.792 2.796c.936-.056 1.624-.304 2.064-.744.448-.44.672-1.132.672-2.076 0-.92-.228-1.604-.684-2.052-.448-.448-1.132-.692-2.052-.732v5.604zm9.679-.096c0 .256.044.448.132.576.088.12.22.212.396.276l-.252.768c-.328-.04-.592-.132-.792-.276-.2-.144-.348-.368-.444-.672-.424.632-1.052.948-1.884.948-.624 0-1.116-.176-1.476-.528-.36-.352-.54-.812-.54-1.38 0-.672.24-1.188.72-1.548.488-.36 1.176-.54 2.064-.54h.972v-.468c0-.448-.108-.768-.324-.96-.216-.192-.548-.288-.996-.288-.464 0-1.032.112-1.704.336l-.276-.804c.784-.288 1.512-.432 2.184-.432.744 0 1.3.184 1.668.552.368.36.552.876.552 1.548v2.892zm-2.592.792c.632 0 1.128-.328 1.488-.984V82.88h-.828c-1.168 0-1.752.432-1.752 1.296 0 .376.092.66.276.852.184.192.456.288.816.288zm8.591.684v-2.784h-2.628V86h-1.104v-6.324h1.104v2.652h2.628v-2.652h1.104V86h-1.104zm7.653-6.324l-.132.9h-2.028V86h-1.104v-5.424h-2.088v-.9h5.352zm4.922 4.848c0 .256.044.448.132.576.088.12.22.212.396.276l-.252.768c-.328-.04-.592-.132-.792-.276-.2-.144-.348-.368-.444-.672-.424.632-1.052.948-1.884.948-.624 0-1.116-.176-1.476-.528-.36-.352-.54-.812-.54-1.38 0-.672.24-1.188.72-1.548.488-.36 1.176-.54 2.064-.54h.972v-.468c0-.448-.108-.768-.324-.96-.216-.192-.548-.288-.996-.288-.464 0-1.032.112-1.704.336l-.276-.804c.784-.288 1.512-.432 2.184-.432.744 0 1.3.184 1.668.552.368.36.552.876.552 1.548v2.892zm-2.592.792c.632 0 1.128-.328 1.488-.984V82.88h-.828c-1.168 0-1.752.432-1.752 1.296 0 .376.092.66.276.852.184.192.456.288.816.288zm7.163-5.784c.376 0 .72.056 1.032.168.312.104.612.276.9.516l-.528.696a2.512 2.512 0 00-.66-.348c-.208-.08-.44-.12-.696-.12-.512 0-.912.204-1.2.612-.28.408-.42 1.012-.42 1.812s.14 1.392.42 1.776c.28.376.68.564 1.2.564.248 0 .476-.036.684-.108.208-.08.44-.204.696-.372l.504.72a3.003 3.003 0 01-1.932.696c-.856 0-1.532-.288-2.028-.864-.488-.576-.732-1.372-.732-2.388 0-.672.112-1.26.336-1.764.224-.504.54-.896.948-1.176.416-.28.908-.42 1.476-.42zm7.699.144l-.132.9h-2.028V86h-1.104v-5.424h-2.088v-.9h5.352zM288.033 86h-1.092v-2.856c0-.48.016-.936.048-1.368.032-.432.06-.716.084-.852L284.421 86h-1.308v-6.324h1.092v2.856c0 .424-.016.864-.048 1.32-.032.448-.056.736-.072.864l2.616-5.04h1.332V86zm6.619-6.324V86h-1.104v-2.64a2.56 2.56 0 01-.864.516c-.336.12-.684.18-1.044.18-.6 0-1.052-.16-1.356-.48-.304-.328-.456-.792-.456-1.392v-2.508h1.104v2.376c0 .4.08.692.24.876.168.176.424.264.768.264.28 0 .572-.064.876-.192a1.93 1.93 0 00.732-.492v-2.832h1.104zm7.053 2.976c0 .184-.008.372-.024.564h-4.032c.048.696.224 1.208.528 1.536.304.328.696.492 1.176.492.304 0 .584-.044.84-.132.256-.088.524-.228.804-.42l.48.66c-.672.528-1.408.792-2.208.792-.88 0-1.568-.288-2.064-.864-.488-.576-.732-1.368-.732-2.376 0-.656.104-1.236.312-1.74.216-.512.52-.912.912-1.2.4-.288.868-.432 1.404-.432.84 0 1.484.276 1.932.828.448.552.672 1.316.672 2.292zm-1.092-.324c0-.624-.124-1.1-.372-1.428-.248-.328-.62-.492-1.116-.492-.904 0-1.396.664-1.476 1.992h2.964v-.072zm5.159-2.796c.376 0 .72.056 1.032.168.312.104.612.276.9.516l-.528.696a2.512 2.512 0 00-.66-.348c-.208-.08-.44-.12-.696-.12-.512 0-.912.204-1.2.612-.28.408-.42 1.012-.42 1.812s.14 1.392.42 1.776c.28.376.68.564 1.2.564.248 0 .476-.036.684-.108.208-.08.44-.204.696-.372l.504.72a3.003 3.003 0 01-1.932.696c-.856 0-1.532-.288-2.028-.864-.488-.576-.732-1.372-.732-2.388 0-.672.112-1.26.336-1.764.224-.504.54-.896.948-1.176.416-.28.908-.42 1.476-.42zm8.167.144l-1.92 2.928L314.167 86h-1.308l-1.752-2.916h-.804V86h-1.104v-6.324h1.104v2.544h.828l1.596-2.544h1.212zM320.341 86h-1.092v-2.856c0-.48.016-.936.048-1.368.032-.432.06-.716.084-.852L316.729 86h-1.308v-6.324h1.092v2.856c0 .424-.016.864-.048 1.32-.032.448-.056.736-.072.864l2.616-5.04h1.332V86zm7.052-3.348c0 .184-.008.372-.024.564h-4.032c.048.696.224 1.208.528 1.536.304.328.696.492 1.176.492.304 0 .584-.044.84-.132.256-.088.524-.228.804-.42l.48.66c-.672.528-1.408.792-2.208.792-.88 0-1.568-.288-2.064-.864-.488-.576-.732-1.368-.732-2.376 0-.656.104-1.236.312-1.74.216-.512.52-.912.912-1.2.4-.288.868-.432 1.404-.432.84 0 1.484.276 1.932.828.448.552.672 1.316.672 2.292zm-1.092-.324c0-.624-.124-1.1-.372-1.428-.248-.328-.62-.492-1.116-.492-.904 0-1.396.664-1.476 1.992h2.964v-.072zM241.88 93.676l-1.92 2.928 2.148 3.396H240.8l-1.752-2.916h-.804V100h-1.104v-6.324h1.104v2.544h.828l1.596-2.544h1.212zm3.753-.144c.888 0 1.576.296 2.064.888.496.592.744 1.396.744 2.412 0 .656-.112 1.236-.336 1.74a2.68 2.68 0 01-.972 1.164c-.424.272-.928.408-1.512.408-.888 0-1.58-.296-2.076-.888-.496-.592-.744-1.396-.744-2.412 0-.656.112-1.232.336-1.728.224-.504.548-.892.972-1.164.424-.28.932-.42 1.524-.42zm0 .888c-1.096 0-1.644.808-1.644 2.424 0 1.608.544 2.412 1.632 2.412 1.088 0 1.632-.808 1.632-2.424 0-1.608-.54-2.412-1.62-2.412zm6.936-.888c.376 0 .72.056 1.032.168.312.104.612.276.9.516l-.528.696a2.512 2.512 0 00-.66-.348c-.208-.08-.44-.12-.696-.12-.512 0-.912.204-1.2.612-.28.408-.42 1.012-.42 1.812s.14 1.392.42 1.776c.28.376.68.564 1.2.564.248 0 .476-.036.684-.108.208-.08.44-.204.696-.372l.504.72a3.003 3.003 0 01-1.932.696c-.856 0-1.532-.288-2.028-.864-.488-.576-.732-1.372-.732-2.388 0-.672.112-1.26.336-1.764.224-.504.54-.896.948-1.176.416-.28.908-.42 1.476-.42zm7.698.144l-.132.9h-2.028V100h-1.104v-5.424h-2.088v-.9h5.352zm6.027-.144c.552 0 1.032.136 1.44.408.408.272.72.656.936 1.152.224.496.336 1.076.336 1.74 0 .624-.108 1.188-.324 1.692-.208.496-.52.892-.936 1.188-.408.288-.896.432-1.464.432-.768 0-1.384-.268-1.848-.804-.464-.544-.728-1.252-.792-2.124h-1.128V100h-1.104v-6.324h1.104v2.652h1.14c.088-.824.364-1.496.828-2.016.472-.52 1.076-.78 1.812-.78zm-.012 5.724c.544 0 .936-.204 1.176-.612.24-.408.36-1.012.36-1.812 0-.768-.132-1.36-.396-1.776-.264-.416-.64-.624-1.128-.624-1.016 0-1.524.804-1.524 2.412 0 .768.128 1.364.384 1.788.256.416.632.624 1.128.624zm10.741.744h-1.08l-.288-2.988a12.85 12.85 0 01-.06-1.032 59.545 59.545 0 01-.012-1.236l-1.44 4.56h-1.044l-1.344-4.548c0 1.056-.016 1.804-.048 2.244l-.228 3h-1.068l.564-6.324h1.428l1.236 4.524 1.356-4.524h1.452l.576 6.324zm3.683-4.284c.944 0 1.628.184 2.052.552.424.368.636.892.636 1.572 0 .712-.24 1.252-.72 1.62-.472.36-1.06.54-1.764.54h-2.028v-6.324h1.104v2.04h.72zm3.6-2.04h1.104V100h-1.104v-6.324zm-3.492 5.46c.448 0 .792-.1 1.032-.3.248-.2.372-.532.372-.996 0-.44-.116-.764-.348-.972-.224-.208-.616-.312-1.176-.312h-.708v2.58h.828z" fill="#4B6B81"/></g><g filter="url(#filter1_d_0_5652)"><rect x="87.75" y="36.705" width="73" height="36.987" rx="5" fill="#fff"/><path d="M98.122 44.231c1.024 0 1.816.216 2.376.648.56.424.84 1.06.84 1.908 0 .904-.292 1.576-.876 2.016-.584.44-1.36.66-2.328.66H97.09v3.036h-1.14v-8.268h2.172zm-.036 4.332c.664 0 1.168-.128 1.512-.384.352-.256.528-.716.528-1.38 0-.592-.176-1.02-.528-1.284-.344-.264-.84-.396-1.488-.396h-1.02v3.444h.996zm8.38 2.46c0 .256.044.448.132.576.088.12.22.212.396.276l-.252.768c-.328-.04-.592-.132-.792-.276-.2-.144-.348-.368-.444-.672-.424.632-1.052.948-1.884.948-.624 0-1.116-.176-1.476-.528-.36-.352-.54-.812-.54-1.38 0-.672.24-1.188.72-1.548.488-.36 1.176-.54 2.064-.54h.972v-.468c0-.448-.108-.768-.324-.96-.216-.192-.548-.288-.996-.288-.464 0-1.032.112-1.704.336l-.276-.804c.784-.288 1.512-.432 2.184-.432.744 0 1.3.184 1.668.552.368.36.552.876.552 1.548v2.892zm-2.592.792c.632 0 1.128-.328 1.488-.984v-1.452h-.828c-1.168 0-1.752.432-1.752 1.296 0 .376.092.66.276.852.184.192.456.288.816.288zm7.619-5.232c.72 0 1.292.26 1.716.78.432.52.648 1.228.648 2.124 0 1-.252 1.776-.756 2.328-.504.552-1.18.828-2.028.828-.848 0-1.528-.3-2.04-.9-.504-.6-.756-1.508-.756-2.724 0-.92.068-1.672.204-2.256.144-.592.388-1.076.732-1.452.352-.384.844-.684 1.476-.9.472-.16.848-.304 1.128-.432.288-.128.58-.292.876-.492l.468.828c-.28.176-.572.34-.876.492a8.514 8.514 0 01-1.068.42c-.4.136-.716.292-.948.468-.232.168-.42.416-.564.744-.136.32-.228.76-.276 1.32.224-.368.512-.656.864-.864a2.314 2.314 0 011.2-.312zm-.42 5.172c.488 0 .876-.164 1.164-.492.288-.336.432-.916.432-1.74 0-.728-.12-1.252-.36-1.572-.232-.32-.572-.48-1.02-.48-.368 0-.712.1-1.032.3-.32.192-.584.488-.792.888v.768c0 .744.14 1.32.42 1.728.288.4.684.6 1.188.6zm6.986-5.724c.888 0 1.576.296 2.064.888.496.592.744 1.396.744 2.412 0 .656-.112 1.236-.336 1.74a2.68 2.68 0 01-.972 1.164c-.424.272-.928.408-1.512.408-.888 0-1.58-.296-2.076-.888-.496-.592-.744-1.396-.744-2.412 0-.656.112-1.232.336-1.728.224-.504.548-.892.972-1.164.424-.28.932-.42 1.524-.42zm0 .888c-1.096 0-1.644.808-1.644 2.424 0 1.608.544 2.412 1.632 2.412 1.088 0 1.632-.808 1.632-2.424 0-1.608-.54-2.412-1.62-2.412zm8.599-.744l-.132.9h-2.028v5.424h-1.104v-5.424h-2.088v-.9h5.352zm4.921 4.848c0 .256.044.448.132.576.088.12.22.212.396.276l-.252.768c-.328-.04-.592-.132-.792-.276-.2-.144-.348-.368-.444-.672-.424.632-1.052.948-1.884.948-.624 0-1.116-.176-1.476-.528-.36-.352-.54-.812-.54-1.38 0-.672.24-1.188.72-1.548.488-.36 1.176-.54 2.064-.54h.972v-.468c0-.448-.108-.768-.324-.96-.216-.192-.548-.288-.996-.288-.464 0-1.032.112-1.704.336l-.276-.804c.784-.288 1.512-.432 2.184-.432.744 0 1.3.184 1.668.552.368.36.552.876.552 1.548v2.892zm-2.592.792c.632 0 1.128-.328 1.488-.984v-1.452h-.828c-1.168 0-1.752.432-1.752 1.296 0 .376.092.66.276.852.184.192.456.288.816.288zm9.636-2.664c0 .184-.008.372-.024.564h-4.032c.048.696.224 1.208.528 1.536.304.328.696.492 1.176.492.304 0 .584-.044.84-.132.256-.088.524-.228.804-.42l.48.66c-.672.528-1.408.792-2.208.792-.88 0-1.568-.288-2.064-.864-.488-.576-.732-1.368-.732-2.376 0-.656.104-1.236.312-1.74.216-.512.52-.912.912-1.2.4-.288.868-.432 1.404-.432.84 0 1.484.276 1.932.828.448.552.672 1.316.672 2.292zm-1.092-.324c0-.624-.124-1.1-.372-1.428-.248-.328-.62-.492-1.116-.492-.904 0-1.396.664-1.476 1.992h2.964v-.072zm9.047 3.672h-1.08l-.288-2.988a12.85 12.85 0 01-.06-1.032 59.545 59.545 0 01-.012-1.236l-1.44 4.56h-1.044l-1.344-4.548c0 1.056-.016 1.804-.048 2.244l-.228 3h-1.068l.564-6.324h1.428l1.236 4.524 1.356-4.524h1.452l.576 6.324zm-48.384 7.532c.376 0 .72.056 1.032.168.312.104.612.276.9.516l-.528.696a2.512 2.512 0 00-.66-.348c-.208-.08-.44-.12-.696-.12-.512 0-.912.204-1.2.612-.28.408-.42 1.012-.42 1.812s.14 1.392.42 1.776c.28.376.68.564 1.2.564.248 0 .476-.036.684-.108.208-.08.44-.204.696-.372l.504.72a3.004 3.004 0 01-1.932.696c-.856 0-1.532-.288-2.028-.864-.488-.576-.732-1.372-.732-2.388 0-.672.112-1.26.336-1.764.224-.504.54-.896.948-1.176.416-.28.908-.42 1.476-.42zm8.198-1.68c.48 0 .9.096 1.26.288a2.092 2.092 0 011.152 1.908 3.1 3.1 0 01-.336 1.404c-.216.448-.552.932-1.008 1.452-.456.52-1.148 1.244-2.076 2.172h3.612l-.132.924h-4.74v-.876c1.072-1.112 1.832-1.924 2.28-2.436.448-.52.768-.972.96-1.356.192-.384.288-.796.288-1.236 0-.416-.12-.74-.36-.972-.24-.24-.56-.36-.96-.36-.328 0-.616.068-.864.204-.248.136-.512.36-.792.672l-.72-.576c.328-.408.692-.712 1.092-.912.4-.2.848-.3 1.344-.3zm6.553 0c.888 0 1.556.356 2.004 1.068.456.704.684 1.728.684 3.072s-.228 2.372-.684 3.084c-.448.712-1.116 1.068-2.004 1.068-.888 0-1.56-.356-2.016-1.068-.448-.712-.672-1.74-.672-3.084s.224-2.368.672-3.072c.456-.712 1.128-1.068 2.016-1.068zm0 .876c-.52 0-.908.256-1.164.768-.248.512-.372 1.344-.372 2.496s.124 1.988.372 2.508c.256.512.644.768 1.164.768.512 0 .896-.256 1.152-.768.256-.52.384-1.356.384-2.508 0-1.144-.128-1.972-.384-2.484-.256-.52-.64-.78-1.152-.78zm6.915-.756v8.028h-1.104v-6.852l-1.872 1.14-.48-.78 2.484-1.536h.972zm6.355.864h-3.132v2.364a2.79 2.79 0 011.284-.312c.688 0 1.24.228 1.656.684.416.448.624 1.068.624 1.86 0 .528-.116 1-.348 1.416-.232.408-.56.728-.984.96-.416.224-.9.336-1.452.336-.488 0-.924-.084-1.308-.252a3.575 3.575 0 01-1.068-.768l.648-.636c.256.256.52.448.792.576.272.12.58.18.924.18.512 0 .912-.16 1.2-.48.296-.32.444-.772.444-1.356 0-.584-.132-1.008-.396-1.272s-.62-.396-1.068-.396c-.208 0-.4.024-.576.072-.176.04-.364.108-.564.204h-.864v-4.044h4.344l-.156.864zm6.392 7.164h-1.104v-6.324h3.948l-.144.912h-2.7v5.412zm6.112-6.468c.888 0 1.576.296 2.064.888.496.592.744 1.396.744 2.412 0 .656-.112 1.236-.336 1.74a2.68 2.68 0 01-.972 1.164c-.424.272-.928.408-1.512.408-.888 0-1.58-.296-2.076-.888-.496-.592-.744-1.396-.744-2.412 0-.656.112-1.232.336-1.728.224-.504.548-.892.972-1.164.424-.28.932-.42 1.524-.42zm0 .888c-1.096 0-1.644.808-1.644 2.424 0 1.608.544 2.412 1.632 2.412 1.088 0 1.632-.808 1.632-2.424 0-1.608-.54-2.412-1.62-2.412zm9.59 4.692v2.688h-.9l-.18-1.8h-4.056l-.18 1.8h-.9v-2.688h.444c.192-.128.344-.272.456-.432.112-.168.212-.456.3-.864.096-.408.172-1.004.228-1.788l.168-2.352h3.96v5.436h.66zm-1.764-4.56h-1.86l-.096 1.332c-.056.744-.12 1.316-.192 1.716-.072.4-.176.708-.312.924a1.953 1.953 0 01-.564.588h3.024v-4.56zm7.64 3.972c0 .256.044.448.132.576.088.12.22.212.396.276l-.252.768c-.328-.04-.592-.132-.792-.276-.2-.144-.348-.368-.444-.672-.424.632-1.052.948-1.884.948-.624 0-1.116-.176-1.476-.528-.36-.352-.54-.812-.54-1.38 0-.672.24-1.188.72-1.548.488-.36 1.176-.54 2.064-.54h.972v-.468c0-.448-.108-.768-.324-.96-.216-.192-.548-.288-.996-.288-.464 0-1.032.112-1.704.336l-.276-.804c.784-.288 1.512-.432 2.184-.432.744 0 1.3.184 1.668.552.368.36.552.876.552 1.548v2.892zm-2.592.792c.632 0 1.128-.328 1.488-.984v-1.452h-.828c-1.168 0-1.752.432-1.752 1.296 0 .376.092.66.276.852.184.192.456.288.816.288z" fill="#566A7D"/></g><g filter="url(#filter2_d_0_5652)"><rect x="207.583" y="225.54" width="124" height="38" rx="5" fill="#fff"/><path d="M219.483 233.272v8.268h-1.14v-7.296h-3.42v7.296h-1.14v-8.268h5.7zm5.242 1.8c.808 0 1.4.288 1.776.864.376.576.564 1.388.564 2.436 0 .992-.216 1.792-.648 2.4-.432.608-1.044.912-1.836.912-.704 0-1.256-.24-1.656-.72v3l-1.104.132v-8.88h.948l.084.852c.232-.32.512-.564.84-.732a2.153 2.153 0 011.032-.264zm-.408 5.712c1.04 0 1.56-.804 1.56-2.412 0-1.616-.476-2.424-1.428-2.424-.312 0-.596.092-.852.276-.256.184-.48.42-.672.708v3.084c.16.248.36.44.6.576.24.128.504.192.792.192zm7.005-5.712c.888 0 1.576.296 2.064.888.496.592.744 1.396.744 2.412 0 .656-.112 1.236-.336 1.74a2.68 2.68 0 01-.972 1.164c-.424.272-.928.408-1.512.408-.888 0-1.58-.296-2.076-.888-.496-.592-.744-1.396-.744-2.412 0-.656.112-1.232.336-1.728.224-.504.548-.892.972-1.164.424-.28.932-.42 1.524-.42zm0 .888c-1.096 0-1.644.808-1.644 2.424 0 1.608.544 2.412 1.632 2.412 1.088 0 1.632-.808 1.632-2.424 0-1.608-.54-2.412-1.62-2.412zm10.392-.888c.768 0 1.316.284 1.644.852.336.568.504 1.384.504 2.448 0 1.008-.192 1.812-.576 2.412-.384.6-.916.9-1.596.9-.6 0-1.084-.268-1.452-.804v3.084l-1.056.132v-3.216c-.176.256-.4.456-.672.6a1.932 1.932 0 01-.876.204c-.64 0-1.148-.3-1.524-.9-.368-.6-.552-1.404-.552-2.412 0-1.056.16-1.868.48-2.436.328-.576.864-.864 1.608-.864.648 0 1.16.232 1.536.696v-3.228l1.056.132v3.12c.368-.48.86-.72 1.476-.72zm-3.828 5.736c.256 0 .492-.068.708-.204.224-.144.42-.34.588-.588v-3.348c-.36-.48-.796-.72-1.308-.72-.368 0-.648.204-.84.612-.192.4-.288 1.004-.288 1.812s.1 1.416.3 1.824c.2.408.48.612.84.612zm3.6 0c.376 0 .668-.204.876-.612.208-.408.312-1.016.312-1.824 0-1.616-.396-2.424-1.188-2.424-.504 0-.92.248-1.248.744v3.336c.168.256.352.452.552.588.2.128.432.192.696.192zm9.041-2.616c0 .184-.008.372-.024.564h-4.032c.048.696.224 1.208.528 1.536.304.328.696.492 1.176.492.304 0 .584-.044.84-.132.256-.088.524-.228.804-.42l.48.66c-.672.528-1.408.792-2.208.792-.88 0-1.568-.288-2.064-.864-.488-.576-.732-1.368-.732-2.376 0-.656.104-1.236.312-1.74.216-.512.52-.912.912-1.2.4-.288.868-.432 1.404-.432.84 0 1.484.276 1.932.828.448.552.672 1.316.672 2.292zm-1.092-.324c0-.624-.124-1.1-.372-1.428-.248-.328-.62-.492-1.116-.492-.904 0-1.396.664-1.476 1.992h2.964v-.072zm5.159-2.796c.376 0 .72.056 1.032.168.312.104.612.276.9.516l-.528.696a2.512 2.512 0 00-.66-.348c-.208-.08-.44-.12-.696-.12-.512 0-.912.204-1.2.612-.28.408-.42 1.012-.42 1.812s.14 1.392.42 1.776c.28.376.68.564 1.2.564.248 0 .476-.036.684-.108.208-.08.44-.204.696-.372l.504.72a3.003 3.003 0 01-1.932.696c-.856 0-1.532-.288-2.028-.864-.488-.576-.732-1.372-.732-2.388 0-.672.112-1.26.336-1.764.224-.504.54-.896.948-1.176.416-.28.908-.42 1.476-.42zm5.496 0c.376 0 .72.056 1.032.168.312.104.612.276.9.516l-.528.696a2.512 2.512 0 00-.66-.348c-.208-.08-.44-.12-.696-.12-.512 0-.912.204-1.2.612-.28.408-.42 1.012-.42 1.812s.14 1.392.42 1.776c.28.376.68.564 1.2.564.248 0 .476-.036.684-.108.208-.08.44-.204.696-.372l.504.72a3.003 3.003 0 01-1.932.696c-.856 0-1.532-.288-2.028-.864-.488-.576-.732-1.372-.732-2.388 0-.672.112-1.26.336-1.764.224-.504.54-.896.948-1.176.416-.28.908-.42 1.476-.42zm8.346 6.468h-1.092v-2.856c0-.48.016-.936.048-1.368.032-.432.06-.716.084-.852l-2.652 5.076h-1.308v-6.324h1.092v2.856c0 .424-.016.864-.048 1.32-.032.448-.056.736-.072.864l2.616-5.04h1.332v6.324zm4.652-6.468c.888 0 1.576.296 2.064.888.496.592.744 1.396.744 2.412 0 .656-.112 1.236-.336 1.74a2.68 2.68 0 01-.972 1.164c-.424.272-.928.408-1.512.408-.888 0-1.58-.296-2.076-.888-.496-.592-.744-1.396-.744-2.412 0-.656.112-1.232.336-1.728.224-.504.548-.892.972-1.164.424-.28.932-.42 1.524-.42zm0 .888c-1.096 0-1.644.808-1.644 2.424 0 1.608.544 2.412 1.632 2.412 1.088 0 1.632-.808 1.632-2.424 0-1.608-.54-2.412-1.62-2.412zm8.363 5.58v-2.784h-2.628v2.784h-1.104v-6.324h1.104v2.652h2.628v-2.652h1.104v6.324h-1.104zm7.642-1.476c0 .256.044.448.132.576.088.12.22.212.396.276l-.252.768c-.328-.04-.592-.132-.792-.276-.2-.144-.348-.368-.444-.672-.424.632-1.052.948-1.884.948-.624 0-1.116-.176-1.476-.528-.36-.352-.54-.812-.54-1.38 0-.672.24-1.188.72-1.548.488-.36 1.176-.54 2.064-.54h.972v-.468c0-.448-.108-.768-.324-.96-.216-.192-.548-.288-.996-.288-.464 0-1.032.112-1.704.336l-.276-.804c.784-.288 1.512-.432 2.184-.432.744 0 1.3.184 1.668.552.368.36.552.876.552 1.548v2.892zm-2.592.792c.632 0 1.128-.328 1.488-.984v-1.452h-.828c-1.168 0-1.752.432-1.752 1.296 0 .376.092.66.276.852.184.192.456.288.816.288zm9.491-5.64v6.324h-1.104v-5.424h-1.956l-.18 2.112c-.072.856-.164 1.496-.276 1.92-.104.424-.272.752-.504.984-.224.224-.568.408-1.032.552l-.276-.876c.272-.096.464-.22.576-.372.112-.152.196-.384.252-.696.056-.312.116-.856.18-1.632l.252-2.892h4.068zm4.226 2.04c.944 0 1.628.184 2.052.552.424.368.636.892.636 1.572 0 .712-.24 1.252-.72 1.62-.472.36-1.06.54-1.764.54h-2.148v-6.324h1.104v2.04h.84zm.108 3.42c.448 0 .792-.1 1.032-.3.248-.2.372-.532.372-.996 0-.44-.116-.764-.348-.972-.224-.208-.616-.312-1.176-.312h-.828v2.58h.948zm7.868.864v-2.784h-2.628v2.784h-1.104v-6.324h1.104v2.652h2.628v-2.652h1.104v6.324h-1.104zm5.205-4.284c.944 0 1.628.184 2.052.552.424.368.636.892.636 1.572 0 .712-.24 1.252-.72 1.62-.472.36-1.06.54-1.764.54h-2.028v-6.324h1.104v2.04h.72zm3.6-2.04h1.104v6.324h-1.104v-6.324zm-3.492 5.46c.448 0 .792-.1 1.032-.3.248-.2.372-.532.372-.996 0-.44-.116-.764-.348-.972-.224-.208-.616-.312-1.176-.312h-.708v2.58h.828zm11.656-2.484c0 .184-.008.372-.024.564h-4.032c.048.696.224 1.208.528 1.536.304.328.696.492 1.176.492.304 0 .584-.044.84-.132.256-.088.524-.228.804-.42l.48.66c-.672.528-1.408.792-2.208.792-.88 0-1.568-.288-2.064-.864-.488-.576-.732-1.368-.732-2.376 0-.656.104-1.236.312-1.74.216-.512.52-.912.912-1.2.4-.288.868-.432 1.404-.432.84 0 1.484.276 1.932.828.448.552.672 1.316.672 2.292zm-1.092-.324c0-.624-.124-1.1-.372-1.428-.248-.328-.62-.492-1.116-.492-.904 0-1.396.664-1.476 1.992h2.964v-.072zm-106.088 16.196c0 .256.044.448.132.576.088.12.22.212.396.276l-.252.768c-.328-.04-.592-.132-.792-.276-.2-.144-.348-.368-.444-.672-.424.632-1.052.948-1.884.948-.624 0-1.116-.176-1.476-.528-.36-.352-.54-.812-.54-1.38 0-.672.24-1.188.72-1.548.488-.36 1.176-.54 2.064-.54h.972v-.468c0-.448-.108-.768-.324-.96-.216-.192-.548-.288-.996-.288-.464 0-1.032.112-1.704.336l-.276-.804c.784-.288 1.512-.432 2.184-.432.744 0 1.3.184 1.668.552.368.36.552.876.552 1.548v2.892zm-2.592.792c.632 0 1.128-.328 1.488-.984v-1.452h-.828c-1.168 0-1.752.432-1.752 1.296 0 .376.092.66.276.852.184.192.456.288.816.288zm9.6-5.64l-1.92 2.928 2.148 3.396h-1.308l-1.752-2.916h-.804v2.916h-1.104v-6.324h1.104v2.544h.828l1.596-2.544h1.212zm5.754 0l-.132.9h-2.028v5.424h-1.104v-5.424h-2.088v-.9h5.352zm5.614 2.976c0 .184-.008.372-.024.564h-4.032c.048.696.224 1.208.528 1.536.304.328.696.492 1.176.492.304 0 .584-.044.84-.132.256-.088.524-.228.804-.42l.48.66c-.672.528-1.408.792-2.208.792-.88 0-1.568-.288-2.064-.864-.488-.576-.732-1.368-.732-2.376 0-.656.104-1.236.312-1.74.216-.512.52-.912.912-1.2.4-.288.868-.432 1.404-.432.84 0 1.484.276 1.932.828.448.552.672 1.316.672 2.292zm-1.092-.324c0-.624-.124-1.1-.372-1.428-.248-.328-.62-.492-1.116-.492-.904 0-1.396.664-1.476 1.992h2.964v-.072zm-2.736-5.544c.192 0 .352.068.48.204a.632.632 0 01.204.48.67.67 0 01-.204.492.651.651 0 01-.48.192.707.707 0 01-.504-.192.692.692 0 01-.192-.492c0-.192.064-.352.192-.48a.685.685 0 01.504-.204zm2.508 0c.2 0 .364.068.492.204a.632.632 0 01.204.48.67.67 0 01-.204.492.666.666 0 01-.492.192.692.692 0 01-.492-.192.692.692 0 01-.192-.492c0-.192.064-.352.192-.48a.67.67 0 01.492-.204zm5.987 2.748c.808 0 1.4.288 1.776.864.376.576.564 1.388.564 2.436 0 .992-.216 1.792-.648 2.4-.432.608-1.044.912-1.836.912-.704 0-1.256-.24-1.656-.72v3l-1.104.132v-8.88h.948l.084.852c.232-.32.512-.564.84-.732a2.153 2.153 0 011.032-.264zm-.408 5.712c1.04 0 1.56-.804 1.56-2.412 0-1.616-.476-2.424-1.428-2.424-.312 0-.596.092-.852.276-.256.184-.48.42-.672.708v3.084c.16.248.36.44.6.576.24.128.504.192.792.192zm6.453-3.528c.944 0 1.628.184 2.052.552.424.368.636.892.636 1.572 0 .712-.24 1.252-.72 1.62-.472.36-1.06.54-1.764.54h-2.028v-6.324h1.104v2.04h.72zm3.6-2.04h1.104v6.324h-1.104v-6.324zm-3.492 5.46c.448 0 .792-.1 1.032-.3.248-.2.372-.532.372-.996 0-.44-.116-.764-.348-.972-.224-.208-.616-.312-1.176-.312h-.708v2.58h.828z" fill="#516A7F"/></g><g filter="url(#filter3_d_0_5652)"><rect x="7.511" y="154.142" width="72.377" height="38" rx="5" fill="#fff"/><path d="M19.486 161.874l-.168.984H15.85v7.284h-1.14v-8.268h4.776zm4.162 1.8c.808 0 1.4.288 1.776.864.376.576.564 1.388.564 2.436 0 .992-.216 1.792-.648 2.4-.432.608-1.044.912-1.836.912-.704 0-1.256-.24-1.656-.72v3l-1.104.132v-8.88h.948l.084.852c.232-.32.512-.564.84-.732a2.153 2.153 0 011.032-.264zm-.408 5.712c1.04 0 1.56-.804 1.56-2.412 0-1.616-.476-2.424-1.428-2.424-.312 0-.596.092-.852.276-.256.184-.48.42-.672.708v3.084c.16.248.36.44.6.576.24.128.504.192.792.192zm8.772-.72c0 .256.044.448.132.576.088.12.22.212.396.276l-.252.768c-.328-.04-.592-.132-.792-.276-.2-.144-.348-.368-.444-.672-.424.632-1.052.948-1.884.948-.624 0-1.116-.176-1.476-.528-.36-.352-.54-.812-.54-1.38 0-.672.24-1.188.72-1.548.488-.36 1.176-.54 2.064-.54h.972v-.468c0-.448-.108-.768-.324-.96-.216-.192-.548-.288-.996-.288-.464 0-1.032.112-1.704.336l-.276-.804c.784-.288 1.512-.432 2.184-.432.744 0 1.3.184 1.668.552.368.36.552.876.552 1.548v2.892zm-2.592.792c.632 0 1.128-.328 1.488-.984v-1.452h-.828c-1.168 0-1.752.432-1.752 1.296 0 .376.092.66.276.852.184.192.456.288.816.288zm11.051.684h-1.08l-.288-2.988a12.85 12.85 0 01-.06-1.032 59.545 59.545 0 01-.012-1.236l-1.44 4.56h-1.044l-1.344-4.548c0 1.056-.016 1.804-.048 2.244l-.228 3H33.86l.564-6.324h1.428l1.236 4.524 1.356-4.524h1.452l.576 6.324zm4.235-6.468c.888 0 1.576.296 2.064.888.496.592.744 1.396.744 2.412 0 .656-.112 1.236-.336 1.74a2.68 2.68 0 01-.972 1.164c-.424.272-.928.408-1.512.408-.888 0-1.58-.296-2.076-.888-.496-.592-.744-1.396-.744-2.412 0-.656.112-1.232.336-1.728.224-.504.548-.892.972-1.164.424-.28.932-.42 1.524-.42zm0 .888c-1.096 0-1.644.808-1.644 2.424 0 1.608.544 2.412 1.632 2.412 1.088 0 1.632-.808 1.632-2.424 0-1.608-.54-2.412-1.62-2.412zm8.599-.744l-.132.9h-2.028v5.424h-1.104v-5.424h-2.088v-.9h5.352zm4.875 6.324v-2.784h-2.63v2.784h-1.104v-6.324h1.104v2.652h2.628v-2.652h1.104v6.324H58.18zm7.64-1.476c0 .256.045.448.133.576.088.12.22.212.396.276l-.252.768c-.328-.04-.592-.132-.792-.276-.2-.144-.348-.368-.444-.672-.424.632-1.052.948-1.884.948-.624 0-1.116-.176-1.476-.528-.36-.352-.54-.812-.54-1.38 0-.672.24-1.188.72-1.548.488-.36 1.176-.54 2.064-.54h.972v-.468c0-.448-.108-.768-.324-.96-.216-.192-.548-.288-.996-.288-.464 0-1.032.112-1.704.336l-.276-.804c.784-.288 1.512-.432 2.184-.432.744 0 1.3.184 1.668.552.368.36.552.876.552 1.548v2.892zm-2.591.792c.632 0 1.128-.328 1.488-.984v-1.452h-.828c-1.168 0-1.752.432-1.752 1.296 0 .376.092.66.276.852.184.192.456.288.816.288zm9.191-5.64v6.324h-1.104v-2.424h-1.38l-1.332 2.424h-1.236l1.512-2.676c-.744-.352-1.116-.924-1.116-1.716 0-.624.224-1.1.672-1.428.448-.336 1.076-.504 1.884-.504h2.1zm-1.104 3.06v-2.208h-1.02c-.456 0-.8.088-1.032.264-.224.168-.336.44-.336.816 0 .4.104.688.312.864.216.176.56.264 1.032.264h1.044zm-53.761 10.796c.808 0 1.4.288 1.776.864.375.576.564 1.388.564 2.436 0 .992-.216 1.792-.648 2.4-.433.608-1.044.912-1.837.912-.704 0-1.256-.24-1.655-.72v3l-1.105.132v-8.88h.948l.084.852a2.37 2.37 0 01.84-.732 2.153 2.153 0 011.033-.264zm-.409 5.712c1.04 0 1.56-.804 1.56-2.412 0-1.616-.476-2.424-1.427-2.424-.313 0-.596.092-.852.276-.256.184-.48.42-.672.708v3.084c.16.248.36.44.6.576.24.128.503.192.791.192zm9.406-2.592c0 .184-.008.372-.024.564h-4.032c.048.696.224 1.208.527 1.536.305.328.697.492 1.177.492.303 0 .584-.044.84-.132.256-.088.524-.228.803-.42l.48.66c-.672.528-1.407.792-2.207.792-.88 0-1.569-.288-2.064-.864-.488-.576-.732-1.368-.732-2.376 0-.656.104-1.236.311-1.74.216-.512.52-.912.913-1.2.4-.288.867-.432 1.404-.432.84 0 1.483.276 1.931.828.448.552.672 1.316.672 2.292zm-1.093-.324c0-.624-.123-1.1-.372-1.428-.247-.328-.62-.492-1.116-.492-.904 0-1.395.664-1.476 1.992h2.964v-.072zm9.771-2.652l-1.585 2.964 1.812 3.36h-1.212l-1.5-2.868h-.84v2.868H30.85v-2.868h-.828l-1.512 2.868h-1.2l1.812-3.36-1.584-2.964h1.152l1.32 2.592h.84v-2.592h1.056v2.592h.852l1.332-2.592h1.14zm6.524 6.324h-1.092v-2.856c0-.48.016-.936.048-1.368.032-.432.06-.716.084-.852l-2.652 5.076h-1.308v-6.324h1.092v2.856c0 .424-.016.864-.048 1.32-.032.448-.056.736-.072.864l2.616-5.04h1.332v6.324zm4.579-6.468c.376 0 .72.056 1.032.168.312.104.612.276.9.516l-.528.696a2.512 2.512 0 00-.66-.348c-.208-.08-.44-.12-.696-.12-.512 0-.912.204-1.2.612-.28.408-.42 1.012-.42 1.812s.14 1.392.42 1.776c.28.376.68.564 1.2.564.248 0 .476-.036.684-.108.208-.08.44-.204.696-.372l.504.72a3.003 3.003 0 01-1.932.696c-.856 0-1.532-.288-2.028-.864-.488-.576-.732-1.372-.732-2.388 0-.672.112-1.26.336-1.764.224-.504.54-.896.948-1.176.416-.28.908-.42 1.476-.42zm5.497 0c.376 0 .72.056 1.032.168.311.104.611.276.9.516l-.529.696a2.512 2.512 0 00-.66-.348c-.208-.08-.44-.12-.696-.12-.512 0-.912.204-1.2.612-.28.408-.42 1.012-.42 1.812s.14 1.392.42 1.776c.28.376.68.564 1.2.564.248 0 .476-.036.684-.108.209-.08.44-.204.697-.372l.503.72a3.003 3.003 0 01-1.931.696c-.856 0-1.532-.288-2.029-.864-.488-.576-.732-1.372-.732-2.388 0-.672.112-1.26.337-1.764.224-.504.54-.896.947-1.176.416-.28.908-.42 1.477-.42zm5.958 6.504c-.248.736-.596 1.316-1.044 1.74-.44.432-1.072.692-1.896.78l-.12-.864c.416-.072.748-.176.996-.312s.444-.312.588-.528c.152-.208.292-.492.42-.852h-.372l-2.124-6.324h1.176l1.692 5.52 1.656-5.52h1.14l-2.112 6.36zm6.278-6.504c.808 0 1.4.288 1.776.864.376.576.564 1.388.564 2.436 0 .992-.216 1.792-.648 2.4-.432.608-1.044.912-1.836.912-.704 0-1.256-.24-1.656-.72v3l-1.104.132v-8.88h.948l.084.852c.232-.32.512-.564.84-.732a2.153 2.153 0 011.032-.264zm-.408 5.712c1.04 0 1.56-.804 1.56-2.412 0-1.616-.476-2.424-1.428-2.424-.312 0-.596.092-.852.276-.256.184-.48.42-.672.708v3.084c.16.248.36.44.6.576.24.128.504.192.792.192zm8.772-.72c0 .256.044.448.132.576.088.12.22.212.396.276l-.252.768c-.328-.04-.592-.132-.792-.276-.2-.144-.348-.368-.444-.672-.424.632-1.052.948-1.884.948-.624 0-1.116-.176-1.476-.528-.36-.352-.54-.812-.54-1.38 0-.672.24-1.188.72-1.548.488-.36 1.176-.54 2.064-.54h.972v-.468c0-.448-.108-.768-.324-.96-.216-.192-.548-.288-.996-.288-.464 0-1.032.112-1.704.336l-.276-.804c.784-.288 1.512-.432 2.184-.432.744 0 1.3.184 1.668.552.368.36.552.876.552 1.548v2.892zm-2.592.792c.632 0 1.128-.328 1.488-.984v-1.452h-.828c-1.168 0-1.752.432-1.752 1.296 0 .376.092.66.276.852.184.192.456.288.816.288z" fill="#5A6A7B"/></g><circle cx="86.112" cy="57.484" r="2.106" fill="#00BADF"/><circle cx="59.903" cy="195.082" r="2.106" fill="#00BADF"/><circle cx="256.003" cy="109.435" r="2.106" fill="#00BADF"/><circle cx="234.474" cy="224.099" r="2.106" fill="#00BADF"/><defs><filter id="filter0_d_0_5652" x="223" y="66" width="117" height="52" filterUnits="userSpaceOnUse" color-interpolation-filters="sRGB"><feFlood flood-opacity="0" result="BackgroundImageFix"/><feColorMatrix in="SourceAlpha" values="0 0 0 0 0 0 0 0 0 0 0 0 0 0 0 0 0 0 127 0" result="hardAlpha"/><feOffset dy="4"/><feGaussianBlur stdDeviation="3.5"/><feColorMatrix values="0 0 0 0 0.721569 0 0 0 0 0.541176 0 0 0 0 0.768627 0 0 0 0.52641 0"/><feBlend in2="BackgroundImageFix" result="effect1_dropShadow_0_5652"/><feBlend in="SourceGraphic" in2="effect1_dropShadow_0_5652" result="shape"/></filter><filter id="filter1_d_0_5652" x="80.75" y="33.705" width="87" height="50.987" filterUnits="userSpaceOnUse" color-interpolation-filters="sRGB"><feFlood flood-opacity="0" result="BackgroundImageFix"/><feColorMatrix in="SourceAlpha" values="0 0 0 0 0 0 0 0 0 0 0 0 0 0 0 0 0 0 127 0" result="hardAlpha"/><feOffset dy="4"/><feGaussianBlur stdDeviation="3.5"/><feColorMatrix values="0 0 0 0 0.721569 0 0 0 0 0.541176 0 0 0 0 0.768627 0 0 0 0.52641 0"/><feBlend in2="BackgroundImageFix" result="effect1_dropShadow_0_5652"/><feBlend in="SourceGraphic" in2="effect1_dropShadow_0_5652" result="shape"/></filter><filter id="filter2_d_0_5652" x="200.583" y="222.54" width="138" height="52" filterUnits="userSpaceOnUse" color-interpolation-filters="sRGB"><feFlood flood-opacity="0" result="BackgroundImageFix"/><feColorMatrix in="SourceAlpha" values="0 0 0 0 0 0 0 0 0 0 0 0 0 0 0 0 0 0 127 0" result="hardAlpha"/><feOffset dy="4"/><feGaussianBlur stdDeviation="3.5"/><feColorMatrix values="0 0 0 0 0.721569 0 0 0 0 0.541176 0 0 0 0 0.768627 0 0 0 0.52641 0"/><feBlend in2="BackgroundImageFix" result="effect1_dropShadow_0_5652"/><feBlend in="SourceGraphic" in2="effect1_dropShadow_0_5652" result="shape"/></filter><filter id="filter3_d_0_5652" x=".51" y="151.142" width="86.377" height="52" filterUnits="userSpaceOnUse" color-interpolation-filters="sRGB"><feFlood flood-opacity="0" result="BackgroundImageFix"/><feColorMatrix in="SourceAlpha" values="0 0 0 0 0 0 0 0 0 0 0 0 0 0 0 0 0 0 127 0" result="hardAlpha"/><feOffset dy="4"/><feGaussianBlur stdDeviation="3.5"/><feColorMatrix values="0 0 0 0 0.721569 0 0 0 0 0.541176 0 0 0 0 0.768627 0 0 0 0.52641 0"/><feBlend in2="BackgroundImageFix" result="effect1_dropShadow_0_5652"/><feBlend in="SourceGraphic" in2="effect1_dropShadow_0_5652" result="shape"/></filter></defs></svg>