<svg width="656" height="466" viewBox="0 0 656 466" fill="none" xmlns="http://www.w3.org/2000/svg">
<g filter="url(#filter0_d_6_2224)">
<path d="M38 14C38 11.2386 40.2386 9 43 9H145C147.761 9 150 11.2386 150 14V62C150 64.7614 147.761 67 145 67H43C40.2386 67 38 64.7614 38 62V14Z" fill="white"/>
<path d="M55.934 24.3543C57.1287 24.3543 58.0527 24.6063 58.706 25.1103C59.3593 25.605 59.686 26.347 59.686 27.3363C59.686 28.391 59.3453 29.175 58.664 29.6883C57.9827 30.2017 57.0773 30.4583 55.948 30.4583H54.73V34.0003H53.4V24.3543H55.934ZM55.892 29.4083C56.6667 29.4083 57.2547 29.259 57.656 28.9603C58.0667 28.6617 58.272 28.125 58.272 27.3503C58.272 26.6597 58.0667 26.1603 57.656 25.8523C57.2547 25.5443 56.676 25.3903 55.92 25.3903H54.73V29.4083H55.892Z" fill="#566A7D"/>
<path d="M65.6691 32.2783C65.6691 32.577 65.7205 32.801 65.8231 32.9503C65.9258 33.0903 66.0798 33.1977 66.2851 33.2723L65.9911 34.1683C65.6085 34.1217 65.3005 34.0143 65.0671 33.8463C64.8338 33.6783 64.6611 33.417 64.5491 33.0623C64.0545 33.7997 63.3218 34.1683 62.3511 34.1683C61.6231 34.1683 61.0491 33.963 60.6291 33.5523C60.2091 33.1417 59.9991 32.605 59.9991 31.9423C59.9991 31.1583 60.2791 30.5563 60.8391 30.1363C61.4085 29.7163 62.2111 29.5063 63.2471 29.5063H64.3811V28.9603C64.3811 28.4377 64.2551 28.0643 64.0031 27.8403C63.7511 27.6163 63.3638 27.5043 62.8411 27.5043C62.2998 27.5043 61.6371 27.635 60.8531 27.8963L60.5311 26.9583C61.4458 26.6223 62.2951 26.4543 63.0791 26.4543C63.9471 26.4543 64.5958 26.669 65.0251 27.0983C65.4545 27.5183 65.6691 28.1203 65.6691 28.9043V32.2783ZM62.6451 33.2023C63.3825 33.2023 63.9611 32.8197 64.3811 32.0543V30.3603H63.4151C62.0525 30.3603 61.3711 30.8643 61.3711 31.8723C61.3711 32.311 61.4785 32.6423 61.6931 32.8663C61.9078 33.0903 62.2251 33.2023 62.6451 33.2023Z" fill="#566A7D"/>
<path d="M71.5344 27.0983C72.3744 27.0983 73.0417 27.4017 73.5364 28.0083C74.0404 28.615 74.2924 29.441 74.2924 30.4863C74.2924 31.653 73.9984 32.5583 73.4104 33.2023C72.8224 33.8463 72.0337 34.1683 71.0444 34.1683C70.055 34.1683 69.2617 33.8183 68.6644 33.1183C68.0764 32.4183 67.7824 31.359 67.7824 29.9403C67.7824 28.867 67.8617 27.9897 68.0204 27.3083C68.1884 26.6177 68.473 26.053 68.8744 25.6143C69.285 25.1663 69.859 24.8163 70.5964 24.5643C71.147 24.3777 71.5857 24.2097 71.9124 24.0603C72.2484 23.911 72.589 23.7197 72.9344 23.4863L73.4804 24.4523C73.1537 24.6577 72.813 24.849 72.4584 25.0263C72.113 25.1943 71.6977 25.3577 71.2124 25.5163C70.7457 25.675 70.377 25.857 70.1064 26.0623C69.8357 26.2583 69.6164 26.5477 69.4484 26.9303C69.2897 27.3037 69.1824 27.817 69.1264 28.4703C69.3877 28.041 69.7237 27.705 70.1344 27.4623C70.545 27.2197 71.0117 27.0983 71.5344 27.0983ZM71.0444 33.1323C71.6137 33.1323 72.0664 32.941 72.4024 32.5583C72.7384 32.1663 72.9064 31.4897 72.9064 30.5283C72.9064 29.679 72.7664 29.0677 72.4864 28.6943C72.2157 28.321 71.819 28.1343 71.2964 28.1343C70.867 28.1343 70.4657 28.251 70.0924 28.4843C69.719 28.7083 69.411 29.0537 69.1684 29.5203V30.4163C69.1684 31.2843 69.3317 31.9563 69.6584 32.4323C69.9944 32.899 70.4564 33.1323 71.0444 33.1323Z" fill="#566A7D"/>
<path d="M79.1938 26.4543C80.2298 26.4543 81.0325 26.7997 81.6018 27.4903C82.1805 28.181 82.4698 29.119 82.4698 30.3043C82.4698 31.0697 82.3391 31.7463 82.0778 32.3343C81.8165 32.913 81.4385 33.3657 80.9438 33.6923C80.4491 34.0097 79.8611 34.1683 79.1798 34.1683C78.1438 34.1683 77.3365 33.823 76.7578 33.1323C76.1791 32.4417 75.8898 31.5037 75.8898 30.3183C75.8898 29.553 76.0205 28.881 76.2818 28.3023C76.5431 27.7143 76.9211 27.2617 77.4158 26.9443C77.9105 26.6177 78.5031 26.4543 79.1938 26.4543ZM79.1938 27.4903C77.9151 27.4903 77.2758 28.433 77.2758 30.3183C77.2758 32.1943 77.9105 33.1323 79.1798 33.1323C80.4491 33.1323 81.0838 32.1897 81.0838 30.3043C81.0838 28.4283 80.4538 27.4903 79.1938 27.4903Z" fill="#566A7D"/>
<path d="M89.2261 26.6223L89.0721 27.6723H86.7061V34.0003H85.4181V27.6723H82.9821V26.6223H89.2261Z" fill="#566A7D"/>
<path d="M94.968 32.2783C94.968 32.577 95.0193 32.801 95.122 32.9503C95.2246 33.0903 95.3786 33.1977 95.584 33.2723L95.29 34.1683C94.9073 34.1217 94.5993 34.0143 94.366 33.8463C94.1326 33.6783 93.96 33.417 93.848 33.0623C93.3533 33.7997 92.6206 34.1683 91.65 34.1683C90.922 34.1683 90.348 33.963 89.928 33.5523C89.508 33.1417 89.298 32.605 89.298 31.9423C89.298 31.1583 89.578 30.5563 90.138 30.1363C90.7073 29.7163 91.51 29.5063 92.546 29.5063H93.68V28.9603C93.68 28.4377 93.554 28.0643 93.302 27.8403C93.05 27.6163 92.6626 27.5043 92.14 27.5043C91.5986 27.5043 90.936 27.635 90.152 27.8963L89.83 26.9583C90.7446 26.6223 91.594 26.4543 92.378 26.4543C93.246 26.4543 93.8946 26.669 94.324 27.0983C94.7533 27.5183 94.968 28.1203 94.968 28.9043V32.2783ZM91.944 33.2023C92.6813 33.2023 93.26 32.8197 93.68 32.0543V30.3603H92.714C91.3513 30.3603 90.67 30.8643 90.67 31.8723C90.67 32.311 90.7773 32.6423 90.992 32.8663C91.2066 33.0903 91.524 33.2023 91.944 33.2023Z" fill="#566A7D"/>
<path d="M103.185 30.0943C103.185 30.309 103.176 30.5283 103.157 30.7523H98.4532C98.5092 31.5643 98.7145 32.1617 99.0692 32.5443C99.4239 32.927 99.8812 33.1183 100.441 33.1183C100.796 33.1183 101.123 33.067 101.421 32.9643C101.72 32.8617 102.033 32.6983 102.359 32.4743L102.919 33.2443C102.135 33.8603 101.277 34.1683 100.343 34.1683C99.3165 34.1683 98.5139 33.8323 97.9352 33.1603C97.3659 32.4883 97.0812 31.5643 97.0812 30.3883C97.0812 29.623 97.2025 28.9463 97.4452 28.3583C97.6972 27.761 98.0519 27.2943 98.5092 26.9583C98.9759 26.6223 99.5219 26.4543 100.147 26.4543C101.127 26.4543 101.879 26.7763 102.401 27.4203C102.924 28.0643 103.185 28.9557 103.185 30.0943ZM101.911 29.7163C101.911 28.9883 101.767 28.433 101.477 28.0503C101.188 27.6677 100.754 27.4763 100.175 27.4763C99.1205 27.4763 98.5465 28.251 98.4532 29.8003H101.911V29.7163Z" fill="#566A7D"/>
<path d="M112.466 34.0003H111.206L110.87 30.5143C110.833 30.1503 110.809 29.749 110.8 29.3103C110.791 28.8623 110.786 28.3817 110.786 27.8683L109.106 33.1883H107.888L106.32 27.8823C106.32 29.1143 106.301 29.987 106.264 30.5003L105.998 34.0003H104.752L105.41 26.6223H107.076L108.518 31.9003L110.1 26.6223H111.794L112.466 34.0003Z" fill="#566A7D"/>
<path d="M122.652 34.0003V27.6723H119.628V34.0003H118.34V26.6223H123.94V34.0003H122.652Z" fill="#566A7D"/>
<path d="M129.37 26.4543C130.406 26.4543 131.208 26.7997 131.778 27.4903C132.356 28.181 132.646 29.119 132.646 30.3043C132.646 31.0697 132.515 31.7463 132.254 32.3343C131.992 32.913 131.614 33.3657 131.12 33.6923C130.625 34.0097 130.037 34.1683 129.356 34.1683C128.32 34.1683 127.512 33.823 126.934 33.1323C126.355 32.4417 126.066 31.5037 126.066 30.3183C126.066 29.553 126.196 28.881 126.458 28.3023C126.719 27.7143 127.097 27.2617 127.592 26.9443C128.086 26.6177 128.679 26.4543 129.37 26.4543ZM129.37 27.4903C128.091 27.4903 127.452 28.433 127.452 30.3183C127.452 32.1943 128.086 33.1323 129.356 33.1323C130.625 33.1323 131.26 32.1897 131.26 30.3043C131.26 28.4283 130.63 27.4903 129.37 27.4903Z" fill="#566A7D"/>
<path d="M59.252 49.9643V53.1003H58.202L57.992 51.0003H53.26L53.05 53.1003H52V49.9643H52.518C52.742 49.815 52.9193 49.647 53.05 49.4603C53.1807 49.2643 53.2973 48.9283 53.4 48.4523C53.512 47.9763 53.6007 47.281 53.666 46.3663L53.862 43.6223H58.482V49.9643H59.252ZM57.194 44.6443H55.024L54.912 46.1983C54.8467 47.0663 54.772 47.7337 54.688 48.2003C54.604 48.667 54.4827 49.0263 54.324 49.2783C54.1747 49.5303 53.9553 49.759 53.666 49.9643H57.194V44.6443Z" fill="#566A7D"/>
<path d="M63.8813 43.4543C64.9173 43.4543 65.72 43.7997 66.2893 44.4903C66.868 45.181 67.1573 46.119 67.1573 47.3043C67.1573 48.0697 67.0266 48.7463 66.7653 49.3343C66.504 49.913 66.126 50.3657 65.6313 50.6923C65.1366 51.0097 64.5486 51.1683 63.8673 51.1683C62.8313 51.1683 62.024 50.823 61.4453 50.1323C60.8666 49.4417 60.5773 48.5037 60.5773 47.3183C60.5773 46.553 60.708 45.881 60.9693 45.3023C61.2306 44.7143 61.6086 44.2617 62.1033 43.9443C62.598 43.6177 63.1906 43.4543 63.8813 43.4543ZM63.8813 44.4903C62.6026 44.4903 61.9633 45.433 61.9633 47.3183C61.9633 49.1943 62.598 50.1323 63.8673 50.1323C65.1366 50.1323 65.7713 49.1897 65.7713 47.3043C65.7713 45.4283 65.1413 44.4903 63.8813 44.4903Z" fill="#566A7D"/>
<path d="M70.5731 51.0003H69.2851V43.6223H73.8911L73.7231 44.6863H70.5731V51.0003Z" fill="#566A7D"/>
<path d="M77.7036 43.4543C78.7396 43.4543 79.5422 43.7997 80.1116 44.4903C80.6902 45.181 80.9796 46.119 80.9796 47.3043C80.9796 48.0697 80.8489 48.7463 80.5876 49.3343C80.3262 49.913 79.9482 50.3657 79.4536 50.6923C78.9589 51.0097 78.3709 51.1683 77.6896 51.1683C76.6536 51.1683 75.8462 50.823 75.2676 50.1323C74.6889 49.4417 74.3996 48.5037 74.3996 47.3183C74.3996 46.553 74.5302 45.881 74.7916 45.3023C75.0529 44.7143 75.4309 44.2617 75.9256 43.9443C76.4202 43.6177 77.0129 43.4543 77.7036 43.4543ZM77.7036 44.4903C76.4249 44.4903 75.7856 45.433 75.7856 47.3183C75.7856 49.1943 76.4202 50.1323 77.6896 50.1323C78.9589 50.1323 79.5936 49.1897 79.5936 47.3043C79.5936 45.4283 78.9636 44.4903 77.7036 44.4903Z" fill="#566A7D"/>
<path d="M86.9993 46.9963C88.25 47.1177 88.8753 47.6963 88.8753 48.7323C88.8753 49.507 88.5907 50.081 88.0213 50.4543C87.4613 50.8183 86.71 51.0003 85.7673 51.0003H83.1073V43.7203C83.9753 43.543 84.7827 43.4543 85.5293 43.4543C86.444 43.4543 87.1673 43.627 87.6993 43.9723C88.2313 44.3177 88.4973 44.8123 88.4973 45.4563C88.4973 45.8763 88.3713 46.217 88.1193 46.4783C87.8673 46.7397 87.494 46.9123 86.9993 46.9963ZM85.5433 44.4483C85.1513 44.4483 84.7687 44.4763 84.3953 44.5323V46.6183H85.7813C86.2293 46.6183 86.5747 46.5343 86.8173 46.3663C87.06 46.1983 87.1813 45.9137 87.1813 45.5123C87.1813 45.139 87.046 44.8683 86.7753 44.7003C86.5047 44.5323 86.094 44.4483 85.5433 44.4483ZM85.7673 49.9923C86.318 49.9923 86.7473 49.899 87.0553 49.7123C87.3633 49.5257 87.5173 49.1897 87.5173 48.7043C87.5173 48.303 87.3867 48.0137 87.1253 47.8363C86.864 47.659 86.4207 47.5703 85.7953 47.5703H84.3953V49.9923H85.7673Z" fill="#566A7D"/>
<path d="M93.727 43.4543C94.763 43.4543 95.5657 43.7997 96.135 44.4903C96.7137 45.181 97.003 46.119 97.003 47.3043C97.003 48.0697 96.8723 48.7463 96.611 49.3343C96.3497 49.913 95.9717 50.3657 95.477 50.6923C94.9823 51.0097 94.3943 51.1683 93.713 51.1683C92.677 51.1683 91.8697 50.823 91.291 50.1323C90.7123 49.4417 90.423 48.5037 90.423 47.3183C90.423 46.553 90.5537 45.881 90.815 45.3023C91.0763 44.7143 91.4543 44.2617 91.949 43.9443C92.4437 43.6177 93.0363 43.4543 93.727 43.4543ZM93.727 44.4903C92.4483 44.4903 91.809 45.433 91.809 47.3183C91.809 49.1943 92.4437 50.1323 93.713 50.1323C94.9823 50.1323 95.617 49.1897 95.617 47.3043C95.617 45.4283 94.987 44.4903 93.727 44.4903Z" fill="#566A7D"/>
<path d="M102.519 43.4543C103.461 43.4543 104.152 43.7903 104.591 44.4623C105.029 45.1343 105.249 46.0817 105.249 47.3043C105.249 48.4617 104.997 49.395 104.493 50.1043C103.989 50.8137 103.275 51.1683 102.351 51.1683C101.529 51.1683 100.885 50.8883 100.419 50.3283V53.8283L99.1308 53.9823V43.6223H100.237L100.335 44.6163C100.605 44.243 100.932 43.9583 101.315 43.7623C101.697 43.557 102.099 43.4543 102.519 43.4543ZM102.043 50.1183C103.256 50.1183 103.863 49.1803 103.863 47.3043C103.863 45.419 103.307 44.4763 102.197 44.4763C101.833 44.4763 101.501 44.5837 101.203 44.7983C100.904 45.013 100.643 45.2883 100.419 45.6243V49.2223C100.605 49.5117 100.839 49.7357 101.119 49.8943C101.399 50.0437 101.707 50.1183 102.043 50.1183Z" fill="#566A7D"/>
<path d="M110.343 51.0423C110.053 51.901 109.647 52.5777 109.125 53.0723C108.611 53.5763 107.874 53.8797 106.913 53.9823L106.773 52.9743C107.258 52.8903 107.645 52.769 107.935 52.6103C108.224 52.4517 108.453 52.2463 108.621 51.9943C108.798 51.7517 108.961 51.4203 109.111 51.0003H108.677L106.199 43.6223H107.571L109.545 50.0623L111.477 43.6223H112.807L110.343 51.0423Z" fill="#566A7D"/>
</g>
<g filter="url(#filter1_d_6_2224)">
<path d="M542 335C542 332.239 544.239 330 547 330H644C646.761 330 649 332.239 649 335V382C649 384.761 646.761 387 644 387H547C544.239 387 542 384.761 542 382V335Z" fill="white"/>
<path d="M560.774 345.186C561.353 345.186 561.838 345.261 562.23 345.41C562.631 345.56 563.037 345.802 563.448 346.138L562.72 346.992C562.132 346.516 561.511 346.278 560.858 346.278C560.055 346.278 559.407 346.586 558.912 347.202C558.427 347.818 558.184 348.808 558.184 350.17C558.184 351.496 558.427 352.476 558.912 353.11C559.397 353.736 560.041 354.048 560.844 354.048C561.255 354.048 561.614 353.978 561.922 353.838C562.23 353.698 562.557 353.502 562.902 353.25L563.56 354.09C563.261 354.398 562.879 354.655 562.412 354.86C561.945 355.066 561.409 355.168 560.802 355.168C560.018 355.168 559.318 354.977 558.702 354.594C558.095 354.202 557.619 353.633 557.274 352.886C556.938 352.13 556.77 351.225 556.77 350.17C556.77 349.116 556.947 348.215 557.302 347.468C557.657 346.712 558.137 346.143 558.744 345.76C559.351 345.378 560.027 345.186 560.774 345.186Z" fill="#566A7D"/>
<path d="M569.451 347.622L569.297 348.672H566.931V355H565.643V348.672H563.207V347.622H569.451Z" fill="#566A7D"/>
<path d="M575.193 353.278C575.193 353.577 575.244 353.801 575.347 353.95C575.449 354.09 575.603 354.198 575.809 354.272L575.515 355.168C575.132 355.122 574.824 355.014 574.591 354.846C574.357 354.678 574.185 354.417 574.073 354.062C573.578 354.8 572.845 355.168 571.875 355.168C571.147 355.168 570.573 354.963 570.153 354.552C569.733 354.142 569.523 353.605 569.523 352.942C569.523 352.158 569.803 351.556 570.363 351.136C570.932 350.716 571.735 350.506 572.771 350.506H573.905V349.96C573.905 349.438 573.779 349.064 573.527 348.84C573.275 348.616 572.887 348.504 572.365 348.504C571.823 348.504 571.161 348.635 570.377 348.896L570.055 347.958C570.969 347.622 571.819 347.454 572.603 347.454C573.471 347.454 574.119 347.669 574.549 348.098C574.978 348.518 575.193 349.12 575.193 349.904V353.278ZM572.169 354.202C572.906 354.202 573.485 353.82 573.905 353.054V351.36H572.939C571.576 351.36 570.895 351.864 570.895 352.872C570.895 353.311 571.002 353.642 571.217 353.866C571.431 354.09 571.749 354.202 572.169 354.202Z" fill="#566A7D"/>
<path d="M581.058 348.098C581.898 348.098 582.565 348.402 583.06 349.008C583.564 349.615 583.816 350.441 583.816 351.486C583.816 352.653 583.522 353.558 582.934 354.202C582.346 354.846 581.557 355.168 580.568 355.168C579.578 355.168 578.785 354.818 578.188 354.118C577.6 353.418 577.306 352.359 577.306 350.94C577.306 349.867 577.385 348.99 577.544 348.308C577.712 347.618 577.996 347.053 578.398 346.614C578.808 346.166 579.382 345.816 580.12 345.564C580.67 345.378 581.109 345.21 581.436 345.06C581.772 344.911 582.112 344.72 582.458 344.486L583.004 345.452C582.677 345.658 582.336 345.849 581.982 346.026C581.636 346.194 581.221 346.358 580.736 346.516C580.269 346.675 579.9 346.857 579.63 347.062C579.359 347.258 579.14 347.548 578.972 347.93C578.813 348.304 578.706 348.817 578.65 349.47C578.911 349.041 579.247 348.705 579.658 348.462C580.068 348.22 580.535 348.098 581.058 348.098ZM580.568 354.132C581.137 354.132 581.59 353.941 581.926 353.558C582.262 353.166 582.43 352.49 582.43 351.528C582.43 350.679 582.29 350.068 582.01 349.694C581.739 349.321 581.342 349.134 580.82 349.134C580.39 349.134 579.989 349.251 579.616 349.484C579.242 349.708 578.934 350.054 578.692 350.52V351.416C578.692 352.284 578.855 352.956 579.182 353.432C579.518 353.899 579.98 354.132 580.568 354.132Z" fill="#566A7D"/>
<path d="M591.685 355H590.411V351.668C590.411 351.108 590.43 350.576 590.467 350.072C590.505 349.568 590.537 349.237 590.565 349.078L587.471 355H585.945V347.622H587.219V350.954C587.219 351.449 587.201 351.962 587.163 352.494C587.126 353.017 587.098 353.353 587.079 353.502L590.131 347.622H591.685V355Z" fill="#566A7D"/>
<path d="M599.744 347.622V355H598.456V348.672H596.174L595.964 351.136C595.88 352.135 595.772 352.882 595.642 353.376C595.52 353.871 595.324 354.254 595.054 354.524C594.792 354.786 594.391 355 593.85 355.168L593.528 354.146C593.845 354.034 594.069 353.89 594.2 353.712C594.33 353.535 594.428 353.264 594.494 352.9C594.559 352.536 594.629 351.902 594.704 350.996L594.998 347.622H599.744Z" fill="#566A7D"/>
<path d="M604.674 350.002C605.776 350.002 606.574 350.217 607.068 350.646C607.563 351.076 607.81 351.687 607.81 352.48C607.81 353.311 607.53 353.941 606.97 354.37C606.42 354.79 605.734 355 604.912 355H602.406V347.622H603.694V350.002H604.674ZM604.8 353.992C605.323 353.992 605.724 353.876 606.004 353.642C606.294 353.409 606.438 353.022 606.438 352.48C606.438 351.967 606.303 351.589 606.032 351.346C605.771 351.104 605.314 350.982 604.66 350.982H603.694V353.992H604.8Z" fill="#566A7D"/>
<path d="M613.979 355V351.752H610.913V355H609.625V347.622H610.913V350.716H613.979V347.622H615.267V355H613.979Z" fill="#566A7D"/>
<path d="M620.696 347.454C621.732 347.454 622.534 347.8 623.104 348.49C623.682 349.181 623.972 350.119 623.972 351.304C623.972 352.07 623.841 352.746 623.58 353.334C623.318 353.913 622.94 354.366 622.446 354.692C621.951 355.01 621.363 355.168 620.682 355.168C619.646 355.168 618.838 354.823 618.26 354.132C617.681 353.442 617.392 352.504 617.392 351.318C617.392 350.553 617.522 349.881 617.784 349.302C618.045 348.714 618.423 348.262 618.918 347.944C619.412 347.618 620.005 347.454 620.696 347.454ZM620.696 348.49C619.417 348.49 618.778 349.433 618.778 351.318C618.778 353.194 619.412 354.132 620.682 354.132C621.951 354.132 622.586 353.19 622.586 351.304C622.586 349.428 621.956 348.49 620.696 348.49Z" fill="#566A7D"/>
<path d="M631.672 351.094C631.672 351.309 631.662 351.528 631.644 351.752H626.94C626.996 352.564 627.201 353.162 627.556 353.544C627.91 353.927 628.368 354.118 628.928 354.118C629.282 354.118 629.609 354.067 629.908 353.964C630.206 353.862 630.519 353.698 630.846 353.474L631.406 354.244C630.622 354.86 629.763 355.168 628.83 355.168C627.803 355.168 627 354.832 626.422 354.16C625.852 353.488 625.568 352.564 625.568 351.388C625.568 350.623 625.689 349.946 625.932 349.358C626.184 348.761 626.538 348.294 626.996 347.958C627.462 347.622 628.008 347.454 628.634 347.454C629.614 347.454 630.365 347.776 630.888 348.42C631.41 349.064 631.672 349.956 631.672 351.094ZM630.398 350.716C630.398 349.988 630.253 349.433 629.964 349.05C629.674 348.668 629.24 348.476 628.662 348.476C627.607 348.476 627.033 349.251 626.94 350.8H630.398V350.716Z" fill="#566A7D"/>
<path d="M562.86 364.622L560.62 368.038L563.126 372H561.6L559.556 368.598H558.618V372H557.33V364.622H558.618V367.59H559.584L561.446 364.622H562.86Z" fill="#566A7D"/>
<path d="M569.355 370.278C569.355 370.577 569.406 370.801 569.509 370.95C569.611 371.09 569.765 371.198 569.971 371.272L569.677 372.168C569.294 372.122 568.986 372.014 568.753 371.846C568.519 371.678 568.347 371.417 568.235 371.062C567.74 371.8 567.007 372.168 566.037 372.168C565.309 372.168 564.735 371.963 564.315 371.552C563.895 371.142 563.685 370.605 563.685 369.942C563.685 369.158 563.965 368.556 564.525 368.136C565.094 367.716 565.897 367.506 566.933 367.506H568.067V366.96C568.067 366.438 567.941 366.064 567.689 365.84C567.437 365.616 567.049 365.504 566.527 365.504C565.985 365.504 565.323 365.635 564.539 365.896L564.217 364.958C565.131 364.622 565.981 364.454 566.765 364.454C567.633 364.454 568.281 364.669 568.711 365.098C569.14 365.518 569.355 366.12 569.355 366.904V370.278ZM566.331 371.202C567.068 371.202 567.647 370.82 568.067 370.054V368.36H567.101C565.738 368.36 565.057 368.864 565.057 369.872C565.057 370.311 565.164 370.642 565.379 370.866C565.593 371.09 565.911 371.202 566.331 371.202Z" fill="#566A7D"/>
<path d="M577.068 364.622V372H575.78V368.92C575.509 369.172 575.173 369.373 574.772 369.522C574.38 369.662 573.974 369.732 573.554 369.732C572.854 369.732 572.327 369.546 571.972 369.172C571.617 368.79 571.44 368.248 571.44 367.548V364.622H572.728V367.394C572.728 367.861 572.821 368.202 573.008 368.416C573.204 368.622 573.503 368.724 573.904 368.724C574.231 368.724 574.571 368.65 574.926 368.5C575.29 368.351 575.575 368.16 575.78 367.926V364.622H577.068Z" fill="#566A7D"/>
<path d="M585.297 368.094C585.297 368.309 585.287 368.528 585.269 368.752H580.565C580.621 369.564 580.826 370.162 581.181 370.544C581.535 370.927 581.993 371.118 582.553 371.118C582.907 371.118 583.234 371.067 583.533 370.964C583.831 370.862 584.144 370.698 584.471 370.474L585.031 371.244C584.247 371.86 583.388 372.168 582.455 372.168C581.428 372.168 580.625 371.832 580.047 371.16C579.477 370.488 579.193 369.564 579.193 368.388C579.193 367.623 579.314 366.946 579.557 366.358C579.809 365.761 580.163 365.294 580.621 364.958C581.087 364.622 581.633 364.454 582.259 364.454C583.239 364.454 583.99 364.776 584.513 365.42C585.035 366.064 585.297 366.956 585.297 368.094ZM584.023 367.716C584.023 366.988 583.878 366.433 583.589 366.05C583.299 365.668 582.865 365.476 582.287 365.476C581.232 365.476 580.658 366.251 580.565 367.8H584.023V367.716Z" fill="#566A7D"/>
<path d="M590.041 364.454C590.48 364.454 590.881 364.52 591.245 364.65C591.609 364.772 591.959 364.972 592.295 365.252L591.679 366.064C591.418 365.878 591.161 365.742 590.909 365.658C590.667 365.565 590.396 365.518 590.097 365.518C589.5 365.518 589.033 365.756 588.697 366.232C588.371 366.708 588.207 367.413 588.207 368.346C588.207 369.28 588.371 369.97 588.697 370.418C589.024 370.857 589.491 371.076 590.097 371.076C590.387 371.076 590.653 371.034 590.895 370.95C591.138 370.857 591.409 370.712 591.707 370.516L592.295 371.356C591.623 371.898 590.872 372.168 590.041 372.168C589.043 372.168 588.254 371.832 587.675 371.16C587.106 370.488 586.821 369.56 586.821 368.374C586.821 367.59 586.952 366.904 587.213 366.316C587.475 365.728 587.843 365.271 588.319 364.944C588.805 364.618 589.379 364.454 590.041 364.454Z" fill="#566A7D"/>
<path d="M599.023 364.622L598.869 365.672H596.503V372H595.215V365.672H592.779V364.622H599.023Z" fill="#566A7D"/>
<path d="M604.247 367.996C605.498 368.118 606.123 368.696 606.123 369.732C606.123 370.507 605.839 371.081 605.269 371.454C604.709 371.818 603.958 372 603.015 372H600.355V364.72C601.223 364.543 602.031 364.454 602.777 364.454C603.692 364.454 604.415 364.627 604.947 364.972C605.479 365.318 605.745 365.812 605.745 366.456C605.745 366.876 605.619 367.217 605.367 367.478C605.115 367.74 604.742 367.912 604.247 367.996ZM602.791 365.448C602.399 365.448 602.017 365.476 601.643 365.532V367.618H603.029C603.477 367.618 603.823 367.534 604.065 367.366C604.308 367.198 604.429 366.914 604.429 366.512C604.429 366.139 604.294 365.868 604.023 365.7C603.753 365.532 603.342 365.448 602.791 365.448ZM603.015 370.992C603.566 370.992 603.995 370.899 604.303 370.712C604.611 370.526 604.765 370.19 604.765 369.704C604.765 369.303 604.635 369.014 604.373 368.836C604.112 368.659 603.669 368.57 603.043 368.57H601.643V370.992H603.015Z" fill="#566A7D"/>
<path d="M610.975 364.454C612.011 364.454 612.814 364.8 613.383 365.49C613.962 366.181 614.251 367.119 614.251 368.304C614.251 369.07 614.12 369.746 613.859 370.334C613.598 370.913 613.22 371.366 612.725 371.692C612.23 372.01 611.642 372.168 610.961 372.168C609.925 372.168 609.118 371.823 608.539 371.132C607.96 370.442 607.671 369.504 607.671 368.318C607.671 367.553 607.802 366.881 608.063 366.302C608.324 365.714 608.702 365.262 609.197 364.944C609.692 364.618 610.284 364.454 610.975 364.454ZM610.975 365.49C609.696 365.49 609.057 366.433 609.057 368.318C609.057 370.194 609.692 371.132 610.961 371.132C612.23 371.132 612.865 370.19 612.865 368.304C612.865 366.428 612.235 365.49 610.975 365.49Z" fill="#566A7D"/>
</g>
<g filter="url(#filter2_d_6_2224)">
<path d="M7 325C7 322.239 9.23858 320 12 320H127C129.761 320 132 322.239 132 325V392C132 394.761 129.761 397 127 397H12C9.23858 397 7 394.761 7 392V325Z" fill="white"/>
<path d="M30.05 336.354V346H28.72V337.488H24.73V346H23.4V336.354H30.05Z" fill="#566A7D"/>
<path d="M35.5493 338.454C36.5853 338.454 37.3879 338.799 37.9573 339.49C38.5359 340.18 38.8253 341.118 38.8253 342.304C38.8253 343.069 38.6946 343.746 38.4333 344.334C38.1719 344.912 37.7939 345.365 37.2993 345.692C36.8046 346.009 36.2166 346.168 35.5353 346.168C34.4993 346.168 33.6919 345.822 33.1133 345.132C32.5346 344.441 32.2453 343.503 32.2453 342.318C32.2453 341.552 32.3759 340.88 32.6373 340.302C32.8986 339.714 33.2766 339.261 33.7713 338.944C34.2659 338.617 34.8586 338.454 35.5493 338.454ZM35.5493 339.49C34.2706 339.49 33.6313 340.432 33.6313 342.318C33.6313 344.194 34.2659 345.132 35.5353 345.132C36.8046 345.132 37.4393 344.189 37.4393 342.304C37.4393 340.428 36.8093 339.49 35.5493 339.49Z" fill="#566A7D"/>
<path d="M46.2203 338.622V346H44.9323V339.672H42.6503L42.4403 342.136C42.3563 343.134 42.249 343.881 42.1183 344.376C41.997 344.87 41.801 345.253 41.5303 345.524C41.269 345.785 40.8677 346 40.3263 346.168L40.0043 345.146C40.3217 345.034 40.5457 344.889 40.6763 344.712C40.807 344.534 40.905 344.264 40.9703 343.9C41.0357 343.536 41.1057 342.901 41.1803 341.996L41.4743 338.622H46.2203Z" fill="#566A7D"/>
<path d="M53.2367 346V342.752H50.1707V346H48.8827V338.622H50.1707V341.716H53.2367V338.622H54.5247V346H53.2367Z" fill="#566A7D"/>
<path d="M59.3096 341.002C60.4109 341.002 61.2089 341.216 61.7036 341.646C62.1982 342.075 62.4456 342.686 62.4456 343.48C62.4456 344.31 62.1656 344.94 61.6056 345.37C61.0549 345.79 60.3689 346 59.5476 346H57.1816V338.622H58.4696V341.002H59.3096ZM63.5096 338.622H64.7976V346H63.5096V338.622ZM59.4356 344.992C59.9582 344.992 60.3596 344.875 60.6396 344.642C60.9289 344.408 61.0736 344.021 61.0736 343.48C61.0736 342.966 60.9382 342.588 60.6676 342.346C60.4062 342.103 59.9489 341.982 59.2956 341.982H58.4696V344.992H59.4356Z" fill="#566A7D"/>
<path d="M73.2028 346H71.9288V342.668C71.9288 342.108 71.9475 341.576 71.9848 341.072C72.0221 340.568 72.0548 340.236 72.0828 340.078L68.9888 346H67.4628V338.622H68.7368V341.954C68.7368 342.448 68.7181 342.962 68.6808 343.494C68.6435 344.016 68.6155 344.352 68.5968 344.502L71.6488 338.622H73.2028V346ZM70.3048 336.998C69.7355 336.998 69.2548 336.853 68.8628 336.564C68.4801 336.265 68.2608 335.864 68.2048 335.36L69.0588 335.178C69.1521 335.476 69.2968 335.691 69.4928 335.822C69.6981 335.952 69.9688 336.018 70.3048 336.018C70.6408 336.018 70.9161 335.952 71.1308 335.822C71.3455 335.682 71.4995 335.467 71.5928 335.178L72.4468 335.36C72.3908 335.864 72.1621 336.265 71.7608 336.564C71.3688 336.853 70.8835 336.998 70.3048 336.998Z" fill="#566A7D"/>
<path d="M83.8744 346V339.672H80.8504V346H79.5624V338.622H85.1624V346H83.8744Z" fill="#566A7D"/>
<path d="M92.7902 344.278C92.7902 344.576 92.8416 344.8 92.9442 344.95C93.0469 345.09 93.2009 345.197 93.4062 345.272L93.1122 346.168C92.7296 346.121 92.4216 346.014 92.1882 345.846C91.9549 345.678 91.7822 345.416 91.6702 345.062C91.1756 345.799 90.4429 346.168 89.4722 346.168C88.7442 346.168 88.1702 345.962 87.7502 345.552C87.3302 345.141 87.1202 344.604 87.1202 343.942C87.1202 343.158 87.4002 342.556 87.9602 342.136C88.5296 341.716 89.3322 341.506 90.3682 341.506H91.5022V340.96C91.5022 340.437 91.3762 340.064 91.1242 339.84C90.8722 339.616 90.4849 339.504 89.9622 339.504C89.4209 339.504 88.7582 339.634 87.9742 339.896L87.6522 338.958C88.5669 338.622 89.4162 338.454 90.2002 338.454C91.0682 338.454 91.7169 338.668 92.1462 339.098C92.5756 339.518 92.7902 340.12 92.7902 340.904V344.278ZM89.7662 345.202C90.5036 345.202 91.0822 344.819 91.5022 344.054V342.36H90.5362C89.1736 342.36 88.4922 342.864 88.4922 343.872C88.4922 344.31 88.5996 344.642 88.8142 344.866C89.0289 345.09 89.3462 345.202 89.7662 345.202Z" fill="#566A7D"/>
<path d="M100.965 338.622L98.7255 342.038L101.231 346H99.7055L97.6615 342.598H96.7235V346H95.4355V338.622H96.7235V341.59H97.6895L99.5515 338.622H100.965Z" fill="#566A7D"/>
<path d="M108.144 342.094C108.144 342.308 108.135 342.528 108.116 342.752H103.412C103.468 343.564 103.674 344.161 104.028 344.544C104.383 344.926 104.84 345.118 105.4 345.118C105.755 345.118 106.082 345.066 106.38 344.964C106.679 344.861 106.992 344.698 107.318 344.474L107.878 345.244C107.094 345.86 106.236 346.168 105.302 346.168C104.276 346.168 103.473 345.832 102.894 345.16C102.325 344.488 102.04 343.564 102.04 342.388C102.04 341.622 102.162 340.946 102.404 340.358C102.656 339.76 103.011 339.294 103.468 338.958C103.935 338.622 104.481 338.454 105.106 338.454C106.086 338.454 106.838 338.776 107.36 339.42C107.883 340.064 108.144 340.955 108.144 342.094ZM106.87 341.716C106.87 340.988 106.726 340.432 106.436 340.05C106.147 339.667 105.713 339.476 105.134 339.476C104.08 339.476 103.506 340.25 103.412 341.8H106.87V341.716Z" fill="#566A7D"/>
<path d="M114.83 338.622L114.676 339.672H112.31V346H111.022V339.672H108.586V338.622H114.83Z" fill="#566A7D"/>
<path d="M25.15 355.454C25.6167 355.454 26.0507 355.533 26.452 355.692C26.8627 355.841 27.1893 356.065 27.432 356.364C27.684 356.662 27.81 357.022 27.81 357.442C27.81 357.852 27.6887 358.188 27.446 358.45C27.2127 358.711 26.8393 358.912 26.326 359.052C26.942 359.154 27.4087 359.346 27.726 359.626C28.0433 359.906 28.202 360.307 28.202 360.83C28.202 361.595 27.9033 362.178 27.306 362.58C26.718 362.972 25.9667 363.168 25.052 363.168C23.9413 363.168 22.994 362.86 22.21 362.244L22.882 361.446C23.2087 361.679 23.5353 361.852 23.862 361.964C24.198 362.076 24.5807 362.132 25.01 362.132C26.214 362.132 26.816 361.693 26.816 360.816C26.816 360.386 26.6433 360.088 26.298 359.92C25.962 359.742 25.4907 359.654 24.884 359.654H23.904L23.988 358.646H24.744C25.2667 358.646 25.6867 358.552 26.004 358.366C26.3213 358.179 26.48 357.89 26.48 357.498C26.48 357.134 26.3447 356.872 26.074 356.714C25.8033 356.546 25.4487 356.462 25.01 356.462C24.6273 356.462 24.2867 356.513 23.988 356.616C23.6987 356.709 23.4047 356.858 23.106 357.064L22.49 356.294C22.8633 356.014 23.2647 355.804 23.694 355.664C24.1233 355.524 24.6087 355.454 25.15 355.454Z" fill="#566A7D"/>
<path d="M35.1633 361.278C35.1633 361.576 35.2146 361.8 35.3173 361.95C35.4199 362.09 35.5739 362.197 35.7793 362.272L35.4853 363.168C35.1026 363.121 34.7946 363.014 34.5613 362.846C34.3279 362.678 34.1553 362.416 34.0433 362.062C33.5486 362.799 32.8159 363.168 31.8453 363.168C31.1173 363.168 30.5433 362.962 30.1233 362.552C29.7033 362.141 29.4933 361.604 29.4933 360.942C29.4933 360.158 29.7733 359.556 30.3333 359.136C30.9026 358.716 31.7053 358.506 32.7413 358.506H33.8753V357.96C33.8753 357.437 33.7493 357.064 33.4973 356.84C33.2453 356.616 32.8579 356.504 32.3353 356.504C31.7939 356.504 31.1313 356.634 30.3473 356.896L30.0253 355.958C30.9399 355.622 31.7893 355.454 32.5733 355.454C33.4413 355.454 34.0899 355.668 34.5193 356.098C34.9486 356.518 35.1633 357.12 35.1633 357.904V361.278ZM32.1393 362.202C32.8766 362.202 33.4553 361.819 33.8753 361.054V359.36H32.9093C31.5466 359.36 30.8653 359.864 30.8653 360.872C30.8653 361.31 30.9726 361.642 31.1873 361.866C31.4019 362.09 31.7193 362.202 32.1393 362.202Z" fill="#566A7D"/>
<path d="M43.3385 355.622L41.0985 359.038L43.6045 363H42.0785L40.0345 359.598H39.0965V363H37.8085V355.622H39.0965V358.59H40.0625L41.9245 355.622H43.3385Z" fill="#566A7D"/>
<path d="M48.4563 355.454C49.3989 355.454 50.0896 355.79 50.5283 356.462C50.9669 357.134 51.1863 358.081 51.1863 359.304C51.1863 360.461 50.9343 361.394 50.4303 362.104C49.9263 362.813 49.2123 363.168 48.2883 363.168C47.4669 363.168 46.8229 362.888 46.3563 362.328V365.828L45.0683 365.982V355.622H46.1743L46.2723 356.616C46.5429 356.242 46.8696 355.958 47.2523 355.762C47.6349 355.556 48.0363 355.454 48.4563 355.454ZM47.9803 362.118C49.1936 362.118 49.8003 361.18 49.8003 359.304C49.8003 357.418 49.2449 356.476 48.1343 356.476C47.7703 356.476 47.4389 356.583 47.1403 356.798C46.8416 357.012 46.5803 357.288 46.3563 357.624V361.222C46.5429 361.511 46.7763 361.735 47.0563 361.894C47.3363 362.043 47.6443 362.118 47.9803 362.118Z" fill="#566A7D"/>
<path d="M55.5088 358.002C56.6101 358.002 57.4081 358.216 57.9028 358.646C58.3974 359.075 58.6448 359.686 58.6448 360.48C58.6448 361.31 58.3648 361.94 57.8048 362.37C57.2541 362.79 56.5681 363 55.7468 363H53.3808V355.622H54.6688V358.002H55.5088ZM59.7088 355.622H60.9968V363H59.7088V355.622ZM55.6348 361.992C56.1574 361.992 56.5588 361.875 56.8388 361.642C57.1281 361.408 57.2728 361.021 57.2728 360.48C57.2728 359.966 57.1374 359.588 56.8668 359.346C56.6054 359.103 56.1481 358.982 55.4948 358.982H54.6688V361.992H55.6348Z" fill="#566A7D"/>
<path d="M67.554 358.996C68.8047 359.117 69.43 359.696 69.43 360.732C69.43 361.506 69.1454 362.08 68.576 362.454C68.016 362.818 67.2647 363 66.322 363H63.662V355.72C64.53 355.542 65.3374 355.454 66.084 355.454C66.9987 355.454 67.722 355.626 68.254 355.972C68.786 356.317 69.052 356.812 69.052 357.456C69.052 357.876 68.926 358.216 68.674 358.478C68.422 358.739 68.0487 358.912 67.554 358.996ZM66.098 356.448C65.706 356.448 65.3234 356.476 64.95 356.532V358.618H66.336C66.784 358.618 67.1294 358.534 67.372 358.366C67.6147 358.198 67.736 357.913 67.736 357.512C67.736 357.138 67.6007 356.868 67.33 356.7C67.0594 356.532 66.6487 356.448 66.098 356.448ZM66.322 361.992C66.8727 361.992 67.302 361.898 67.61 361.712C67.918 361.525 68.072 361.189 68.072 360.704C68.072 360.302 67.9414 360.013 67.68 359.836C67.4187 359.658 66.9754 359.57 66.35 359.57H64.95V361.992H66.322Z" fill="#566A7D"/>
<path d="M76.3977 361.278C76.3977 361.576 76.449 361.8 76.5517 361.95C76.6543 362.09 76.8083 362.197 77.0137 362.272L76.7197 363.168C76.337 363.121 76.029 363.014 75.7957 362.846C75.5623 362.678 75.3897 362.416 75.2777 362.062C74.783 362.799 74.0503 363.168 73.0797 363.168C72.3517 363.168 71.7777 362.962 71.3577 362.552C70.9377 362.141 70.7277 361.604 70.7277 360.942C70.7277 360.158 71.0077 359.556 71.5677 359.136C72.137 358.716 72.9397 358.506 73.9757 358.506H75.1097V357.96C75.1097 357.437 74.9837 357.064 74.7317 356.84C74.4797 356.616 74.0923 356.504 73.5697 356.504C73.0283 356.504 72.3657 356.634 71.5817 356.896L71.2597 355.958C72.1743 355.622 73.0237 355.454 73.8077 355.454C74.6757 355.454 75.3243 355.668 75.7537 356.098C76.183 356.518 76.3977 357.12 76.3977 357.904V361.278ZM73.3737 362.202C74.111 362.202 74.6897 361.819 75.1097 361.054V359.36H74.1437C72.781 359.36 72.0997 359.864 72.0997 360.872C72.0997 361.31 72.207 361.642 72.4217 361.866C72.6363 362.09 72.9537 362.202 73.3737 362.202Z" fill="#566A7D"/>
<path d="M84.7409 355.454C85.3849 355.454 85.9449 355.612 86.4209 355.93C86.8969 356.247 87.2609 356.695 87.5129 357.274C87.7742 357.852 87.9049 358.529 87.9049 359.304C87.9049 360.032 87.7789 360.69 87.5269 361.278C87.2842 361.856 86.9202 362.318 86.4349 362.664C85.9589 363 85.3896 363.168 84.7269 363.168C83.8309 363.168 83.1122 362.855 82.5709 362.23C82.0296 361.595 81.7216 360.769 81.6469 359.752H80.3309V363H79.0429V355.622H80.3309V358.716H81.6609C81.7636 357.754 82.0856 356.97 82.6269 356.364C83.1776 355.757 83.8822 355.454 84.7409 355.454ZM84.7269 362.132C85.3616 362.132 85.8189 361.894 86.0989 361.418C86.3789 360.942 86.5189 360.237 86.5189 359.304C86.5189 358.408 86.3649 357.717 86.0569 357.232C85.7489 356.746 85.3102 356.504 84.7409 356.504C83.5556 356.504 82.9629 357.442 82.9629 359.318C82.9629 360.214 83.1122 360.909 83.4109 361.404C83.7096 361.889 84.1482 362.132 84.7269 362.132Z" fill="#566A7D"/>
<path d="M98.5191 361.964H99.6391V365.1H98.5891L98.3791 363H90.0351V355.622H91.2951V361.964H93.6611V355.622H94.8931V361.964H97.2591V355.622H98.5191V361.964Z" fill="#566A7D"/>
<path d="M106.918 363H105.644V359.668C105.644 359.108 105.662 358.576 105.7 358.072C105.737 357.568 105.77 357.236 105.798 357.078L102.704 363H101.178V355.622H102.452V358.954C102.452 359.448 102.433 359.962 102.396 360.494C102.358 361.016 102.33 361.352 102.312 361.502L105.364 355.622H106.918V363Z" fill="#566A7D"/>
<path d="M112.4 359.052L114.962 363H113.408L111.602 359.878L109.768 363H108.312L110.888 359.108L108.606 355.622H110.118L111.658 358.324L113.212 355.622H114.668L112.4 359.052Z" fill="#566A7D"/>
<path d="M29.252 378.964V382.1H28.202L27.992 380H23.26L23.05 382.1H22V378.964H22.518C22.742 378.814 22.9193 378.646 23.05 378.46C23.1807 378.264 23.2973 377.928 23.4 377.452C23.512 376.976 23.6007 376.28 23.666 375.366L23.862 372.622H28.482V378.964H29.252ZM27.194 373.644H25.024L24.912 375.198C24.8467 376.066 24.772 376.733 24.688 377.2C24.604 377.666 24.4827 378.026 24.324 378.278C24.1747 378.53 23.9553 378.758 23.666 378.964H27.194V373.644Z" fill="#566A7D"/>
<path d="M33.8813 372.454C34.9173 372.454 35.72 372.799 36.2893 373.49C36.868 374.18 37.1573 375.118 37.1573 376.304C37.1573 377.069 37.0266 377.746 36.7653 378.334C36.504 378.912 36.126 379.365 35.6313 379.692C35.1366 380.009 34.5486 380.168 33.8673 380.168C32.8313 380.168 32.024 379.822 31.4453 379.132C30.8666 378.441 30.5773 377.503 30.5773 376.318C30.5773 375.552 30.708 374.88 30.9693 374.302C31.2306 373.714 31.6086 373.261 32.1033 372.944C32.598 372.617 33.1906 372.454 33.8813 372.454ZM33.8813 373.49C32.6026 373.49 31.9633 374.432 31.9633 376.318C31.9633 378.194 32.598 379.132 33.8673 379.132C35.1366 379.132 35.7713 378.189 35.7713 376.304C35.7713 374.428 35.1413 373.49 33.8813 373.49Z" fill="#566A7D"/>
<path d="M44.8151 372.622L42.5751 376.038L45.0811 380H43.5551L41.5111 376.598H40.5731V380H39.2851V372.622H40.5731V375.59H41.5391L43.4011 372.622H44.8151Z" fill="#566A7D"/>
<path d="M49.4988 380.042C49.2095 380.9 48.8035 381.577 48.2808 382.072C47.7675 382.576 47.0302 382.879 46.0688 382.982L45.9288 381.974C46.4142 381.89 46.8015 381.768 47.0908 381.61C47.3802 381.451 47.6088 381.246 47.7768 380.994C47.9542 380.751 48.1175 380.42 48.2668 380H47.8328L45.3548 372.622H46.7268L48.7008 379.062L50.6328 372.622H51.9628L49.4988 380.042Z" fill="#566A7D"/>
<path d="M60.6048 380H59.3448L59.0088 376.514C58.9714 376.15 58.9481 375.748 58.9388 375.31C58.9294 374.862 58.9248 374.381 58.9248 373.868L57.2448 379.188H56.0268L54.4588 373.882C54.4588 375.114 54.4401 375.986 54.4028 376.5L54.1368 380H52.8908L53.5488 372.622H55.2148L56.6568 377.9L58.2388 372.622H59.9328L60.6048 380Z" fill="#566A7D"/>
<path d="M68.3454 376.094C68.3454 376.308 68.336 376.528 68.3174 376.752H63.6134C63.6694 377.564 63.8747 378.161 64.2294 378.544C64.584 378.926 65.0414 379.118 65.6014 379.118C65.956 379.118 66.2827 379.066 66.5814 378.964C66.88 378.861 67.1927 378.698 67.5194 378.474L68.0794 379.244C67.2954 379.86 66.4367 380.168 65.5034 380.168C64.4767 380.168 63.674 379.832 63.0954 379.16C62.526 378.488 62.2414 377.564 62.2414 376.388C62.2414 375.622 62.3627 374.946 62.6054 374.358C62.8574 373.76 63.212 373.294 63.6694 372.958C64.136 372.622 64.682 372.454 65.3074 372.454C66.2874 372.454 67.0387 372.776 67.5614 373.42C68.084 374.064 68.3454 374.955 68.3454 376.094ZM67.0714 375.716C67.0714 374.988 66.9267 374.432 66.6374 374.05C66.348 373.667 65.914 373.476 65.3354 373.476C64.2807 373.476 63.7067 374.25 63.6134 375.8H67.0714V375.716Z" fill="#566A7D"/>
<path d="M74.7563 380V376.752H71.6903V380H70.4023V372.622H71.6903V375.716H74.7563V372.622H76.0443V380H74.7563Z" fill="#566A7D"/>
<path d="M83.6851 372.622L83.5311 373.672H81.1651V380H79.8771V373.672H77.4411V372.622H83.6851Z" fill="#566A7D"/>
<path d="M87.434 372.454C88.47 372.454 89.2727 372.799 89.842 373.49C90.4207 374.18 90.71 375.118 90.71 376.304C90.71 377.069 90.5794 377.746 90.318 378.334C90.0567 378.912 89.6787 379.365 89.184 379.692C88.6894 380.009 88.1014 380.168 87.42 380.168C86.384 380.168 85.5767 379.822 84.998 379.132C84.4194 378.441 84.13 377.503 84.13 376.318C84.13 375.552 84.2607 374.88 84.522 374.302C84.7834 373.714 85.1614 373.261 85.656 372.944C86.1507 372.617 86.7434 372.454 87.434 372.454ZM87.434 373.49C86.1554 373.49 85.516 374.432 85.516 376.318C85.516 378.194 86.1507 379.132 87.42 379.132C88.6894 379.132 89.324 378.189 89.324 376.304C89.324 374.428 88.694 373.49 87.434 373.49Z" fill="#566A7D"/>
<path d="M96.7298 375.996C97.9805 376.117 98.6058 376.696 98.6058 377.732C98.6058 378.506 98.3211 379.08 97.7518 379.454C97.1918 379.818 96.4405 380 95.4978 380H92.8378V372.72C93.7058 372.542 94.5131 372.454 95.2598 372.454C96.1745 372.454 96.8978 372.626 97.4298 372.972C97.9618 373.317 98.2278 373.812 98.2278 374.456C98.2278 374.876 98.1018 375.216 97.8498 375.478C97.5978 375.739 97.2245 375.912 96.7298 375.996ZM95.2738 373.448C94.8818 373.448 94.4991 373.476 94.1258 373.532V375.618H95.5118C95.9598 375.618 96.3051 375.534 96.5478 375.366C96.7905 375.198 96.9118 374.913 96.9118 374.512C96.9118 374.138 96.7765 373.868 96.5058 373.7C96.2351 373.532 95.8245 373.448 95.2738 373.448ZM95.4978 378.992C96.0485 378.992 96.4778 378.898 96.7858 378.712C97.0938 378.525 97.2478 378.189 97.2478 377.704C97.2478 377.302 97.1171 377.013 96.8558 376.836C96.5945 376.658 96.1511 376.57 95.5258 376.57H94.1258V378.992H95.4978Z" fill="#566A7D"/>
</g>
<g filter="url(#filter3_d_6_2224)">
<path d="M513 8C513 5.23858 515.239 3 518 3H625C627.761 3 630 5.23858 630 8V74C630 76.7614 627.761 79 625 79H518C515.239 79 513 76.7614 513 74V8Z" fill="white"/>
<path d="M534.84 19.3535L532.166 23.8755L535.106 28.9995H533.566L531.046 24.4775H529.73V28.9995H528.4V19.3535H529.73V23.3855H531.06L533.44 19.3535H534.84Z" fill="#566A7D"/>
<path d="M539.155 21.4535C540.191 21.4535 540.993 21.7988 541.563 22.4895C542.141 23.1802 542.431 24.1182 542.431 25.3035C542.431 26.0688 542.3 26.7455 542.039 27.3335C541.777 27.9122 541.399 28.3648 540.905 28.6915C540.41 29.0088 539.822 29.1675 539.141 29.1675C538.105 29.1675 537.297 28.8222 536.719 28.1315C536.14 27.4408 535.851 26.5028 535.851 25.3175C535.851 24.5522 535.981 23.8802 536.243 23.3015C536.504 22.7135 536.882 22.2608 537.377 21.9435C537.871 21.6168 538.464 21.4535 539.155 21.4535ZM539.155 22.4895C537.876 22.4895 537.237 23.4322 537.237 25.3175C537.237 27.1935 537.871 28.1315 539.141 28.1315C540.41 28.1315 541.045 27.1888 541.045 25.3035C541.045 23.4275 540.415 22.4895 539.155 22.4895Z" fill="#566A7D"/>
<path d="M551.783 28.9995H550.523L550.187 25.5135C550.149 25.1495 550.126 24.7482 550.117 24.3095C550.107 23.8615 550.103 23.3808 550.103 22.8675L548.423 28.1875H547.205L545.637 22.8815C545.637 24.1135 545.618 24.9862 545.581 25.4995L545.315 28.9995H544.069L544.727 21.6215H546.393L547.835 26.8995L549.417 21.6215H551.111L551.783 28.9995Z" fill="#566A7D"/>
<path d="M558.263 28.9995V22.6715H555.239V28.9995H553.951V21.6215H559.551V28.9995H558.263Z" fill="#566A7D"/>
<path d="M567.613 21.6215V28.9995H566.325V22.6715H564.043L563.833 25.1355C563.749 26.1342 563.642 26.8808 563.511 27.3755C563.39 27.8702 563.194 28.2528 562.923 28.5235C562.662 28.7848 562.26 28.9995 561.719 29.1675L561.397 28.1455C561.714 28.0335 561.938 27.8888 562.069 27.7115C562.2 27.5342 562.298 27.2635 562.363 26.8995C562.428 26.5355 562.498 25.9008 562.573 24.9955L562.867 21.6215H567.613Z" fill="#566A7D"/>
<path d="M575.847 25.0935C575.847 25.3082 575.838 25.5275 575.819 25.7515H571.115C571.171 26.5635 571.377 27.1608 571.731 27.5435C572.086 27.9262 572.543 28.1175 573.103 28.1175C573.458 28.1175 573.785 28.0662 574.083 27.9635C574.382 27.8608 574.695 27.6975 575.021 27.4735L575.581 28.2435C574.797 28.8595 573.939 29.1675 573.005 29.1675C571.979 29.1675 571.176 28.8315 570.597 28.1595C570.028 27.4875 569.743 26.5635 569.743 25.3875C569.743 24.6222 569.865 23.9455 570.107 23.3575C570.359 22.7602 570.714 22.2935 571.171 21.9575C571.638 21.6215 572.184 21.4535 572.809 21.4535C573.789 21.4535 574.541 21.7755 575.063 22.4195C575.586 23.0635 575.847 23.9548 575.847 25.0935ZM574.573 24.7155C574.573 23.9875 574.429 23.4322 574.139 23.0495C573.85 22.6668 573.416 22.4755 572.837 22.4755C571.783 22.4755 571.209 23.2502 571.115 24.7995H574.573V24.7155Z" fill="#566A7D"/>
<path d="M583.434 21.6215L581.194 25.0375L583.7 28.9995H582.174L580.13 25.5975H579.192V28.9995H577.904V21.6215H579.192V24.5895H580.158L582.02 21.6215H583.434Z" fill="#566A7D"/>
<path d="M587.729 21.4535C588.168 21.4535 588.569 21.5188 588.933 21.6495C589.297 21.7708 589.647 21.9715 589.983 22.2515L589.367 23.0635C589.106 22.8768 588.849 22.7415 588.597 22.6575C588.354 22.5642 588.084 22.5175 587.785 22.5175C587.188 22.5175 586.721 22.7555 586.385 23.2315C586.058 23.7075 585.895 24.4122 585.895 25.3455C585.895 26.2788 586.058 26.9695 586.385 27.4175C586.712 27.8562 587.178 28.0755 587.785 28.0755C588.074 28.0755 588.34 28.0335 588.583 27.9495C588.826 27.8562 589.096 27.7115 589.395 27.5155L589.983 28.3555C589.311 28.8968 588.56 29.1675 587.729 29.1675C586.73 29.1675 585.942 28.8315 585.363 28.1595C584.794 27.4875 584.509 26.5588 584.509 25.3735C584.509 24.5895 584.64 23.9035 584.901 23.3155C585.162 22.7275 585.531 22.2702 586.007 21.9435C586.492 21.6168 587.066 21.4535 587.729 21.4535Z" fill="#566A7D"/>
<path d="M596.08 28.9995V25.7515H593.014V28.9995H591.726V21.6215H593.014V24.7155H596.08V21.6215H597.368V28.9995H596.08Z" fill="#566A7D"/>
<path d="M602.797 21.4535C603.833 21.4535 604.636 21.7988 605.205 22.4895C605.784 23.1802 606.073 24.1182 606.073 25.3035C606.073 26.0688 605.943 26.7455 605.681 27.3335C605.42 27.9122 605.042 28.3648 604.547 28.6915C604.053 29.0088 603.465 29.1675 602.783 29.1675C601.747 29.1675 600.94 28.8222 600.361 28.1315C599.783 27.4408 599.493 26.5028 599.493 25.3175C599.493 24.5522 599.624 23.8802 599.885 23.3015C600.147 22.7135 600.525 22.2608 601.019 21.9435C601.514 21.6168 602.107 21.4535 602.797 21.4535ZM602.797 22.4895C601.519 22.4895 600.879 23.4322 600.879 25.3175C600.879 27.1935 601.514 28.1315 602.783 28.1315C604.053 28.1315 604.687 27.1888 604.687 25.3035C604.687 23.4275 604.057 22.4895 602.797 22.4895Z" fill="#566A7D"/>
<path d="M613.773 25.0935C613.773 25.3082 613.764 25.5275 613.745 25.7515H609.041C609.097 26.5635 609.302 27.1608 609.657 27.5435C610.012 27.9262 610.469 28.1175 611.029 28.1175C611.384 28.1175 611.71 28.0662 612.009 27.9635C612.308 27.8608 612.62 27.6975 612.947 27.4735L613.507 28.2435C612.723 28.8595 611.864 29.1675 610.931 29.1675C609.904 29.1675 609.102 28.8315 608.523 28.1595C607.954 27.4875 607.669 26.5635 607.669 25.3875C607.669 24.6222 607.79 23.9455 608.033 23.3575C608.285 22.7602 608.64 22.2935 609.097 21.9575C609.564 21.6215 610.11 21.4535 610.735 21.4535C611.715 21.4535 612.466 21.7755 612.989 22.4195C613.512 23.0635 613.773 23.9548 613.773 25.0935ZM612.499 24.7155C612.499 23.9875 612.354 23.4322 612.065 23.0495C611.776 22.6668 611.342 22.4755 610.763 22.4755C609.708 22.4755 609.134 23.2502 609.041 24.7995H612.499V24.7155Z" fill="#566A7D"/>
<path d="M531.718 38.4535C532.661 38.4535 533.351 38.7895 533.79 39.4615C534.229 40.1335 534.448 41.0808 534.448 42.3035C534.448 43.4608 534.196 44.3942 533.692 45.1035C533.188 45.8128 532.474 46.1675 531.55 46.1675C530.729 46.1675 530.085 45.8875 529.618 45.3275V48.8275L528.33 48.9815V38.6215H529.436L529.534 39.6155C529.805 39.2422 530.131 38.9575 530.514 38.7615C530.897 38.5562 531.298 38.4535 531.718 38.4535ZM531.242 45.1175C532.455 45.1175 533.062 44.1795 533.062 42.3035C533.062 40.4182 532.507 39.4755 531.396 39.4755C531.032 39.4755 530.701 39.5828 530.402 39.7975C530.103 40.0122 529.842 40.2875 529.618 40.6235V44.2215C529.805 44.5108 530.038 44.7348 530.318 44.8935C530.598 45.0428 530.906 45.1175 531.242 45.1175Z" fill="#566A7D"/>
<path d="M542.215 42.0935C542.215 42.3082 542.205 42.5275 542.187 42.7515H537.483C537.539 43.5635 537.744 44.1608 538.099 44.5435C538.453 44.9262 538.911 45.1175 539.471 45.1175C539.825 45.1175 540.152 45.0662 540.451 44.9635C540.749 44.8608 541.062 44.6975 541.389 44.4735L541.949 45.2435C541.165 45.8595 540.306 46.1675 539.373 46.1675C538.346 46.1675 537.543 45.8315 536.965 45.1595C536.395 44.4875 536.111 43.5635 536.111 42.3875C536.111 41.6222 536.232 40.9455 536.475 40.3575C536.727 39.7602 537.081 39.2935 537.539 38.9575C538.005 38.6215 538.551 38.4535 539.177 38.4535C540.157 38.4535 540.908 38.7755 541.431 39.4195C541.953 40.0635 542.215 40.9548 542.215 42.0935ZM540.941 41.7155C540.941 40.9875 540.796 40.4322 540.507 40.0495C540.217 39.6668 539.783 39.4755 539.205 39.4755C538.15 39.4755 537.576 40.2502 537.483 41.7995H540.941V41.7155Z" fill="#566A7D"/>
<path d="M552.755 38.6215V45.9995H544.271V38.6215H545.531V44.9635H547.897V38.6215H549.129V44.9635H551.495V38.6215H552.755Z" fill="#566A7D"/>
<path d="M560.986 42.0935C560.986 42.3082 560.977 42.5275 560.958 42.7515H556.254C556.31 43.5635 556.515 44.1608 556.87 44.5435C557.225 44.9262 557.682 45.1175 558.242 45.1175C558.597 45.1175 558.923 45.0662 559.222 44.9635C559.521 44.8608 559.833 44.6975 560.16 44.4735L560.72 45.2435C559.936 45.8595 559.077 46.1675 558.144 46.1675C557.117 46.1675 556.315 45.8315 555.736 45.1595C555.167 44.4875 554.882 43.5635 554.882 42.3875C554.882 41.6222 555.003 40.9455 555.246 40.3575C555.498 39.7602 555.853 39.2935 556.31 38.9575C556.777 38.6215 557.323 38.4535 557.948 38.4535C558.928 38.4535 559.679 38.7755 560.202 39.4195C560.725 40.0635 560.986 40.9548 560.986 42.0935ZM559.712 41.7155C559.712 40.9875 559.567 40.4322 559.278 40.0495C558.989 39.6668 558.555 39.4755 557.976 39.4755C556.921 39.4755 556.347 40.2502 556.254 41.7995H559.712V41.7155Z" fill="#566A7D"/>
<path d="M567.397 45.9995V42.7515H564.331V45.9995H563.043V38.6215H564.331V41.7155H567.397V38.6215H568.685V45.9995H567.397Z" fill="#566A7D"/>
<path d="M577.082 45.9995H575.808V42.6675C575.808 42.1075 575.826 41.5755 575.864 41.0715C575.901 40.5675 575.934 40.2362 575.962 40.0775L572.868 45.9995H571.342V38.6215H572.616V41.9535C572.616 42.4482 572.597 42.9615 572.56 43.4935C572.522 44.0162 572.494 44.3522 572.476 44.5015L575.528 38.6215H577.082V45.9995Z" fill="#566A7D"/>
<path d="M585.308 42.0935C585.308 42.3082 585.299 42.5275 585.28 42.7515H580.576C580.632 43.5635 580.838 44.1608 581.192 44.5435C581.547 44.9262 582.004 45.1175 582.564 45.1175C582.919 45.1175 583.246 45.0662 583.544 44.9635C583.843 44.8608 584.156 44.6975 584.482 44.4735L585.042 45.2435C584.258 45.8595 583.4 46.1675 582.466 46.1675C581.44 46.1675 580.637 45.8315 580.058 45.1595C579.489 44.4875 579.204 43.5635 579.204 42.3875C579.204 41.6222 579.326 40.9455 579.568 40.3575C579.82 39.7602 580.175 39.2935 580.632 38.9575C581.099 38.6215 581.645 38.4535 582.27 38.4535C583.25 38.4535 584.002 38.7755 584.524 39.4195C585.047 40.0635 585.308 40.9548 585.308 42.0935ZM584.034 41.7155C584.034 40.9875 583.89 40.4322 583.6 40.0495C583.311 39.6668 582.877 39.4755 582.298 39.4755C581.244 39.4755 580.67 40.2502 580.576 41.7995H584.034V41.7155Z" fill="#566A7D"/>
<path d="M595.382 45.9995V39.6715H592.358V45.9995H591.07V38.6215H596.67V45.9995H595.382Z" fill="#566A7D"/>
<path d="M602.1 38.4535C603.136 38.4535 603.939 38.7988 604.508 39.4895C605.087 40.1802 605.376 41.1182 605.376 42.3035C605.376 43.0688 605.245 43.7455 604.984 44.3335C604.723 44.9122 604.345 45.3648 603.85 45.6915C603.355 46.0088 602.767 46.1675 602.086 46.1675C601.05 46.1675 600.243 45.8222 599.664 45.1315C599.085 44.4408 598.796 43.5028 598.796 42.3175C598.796 41.5522 598.927 40.8802 599.188 40.3015C599.449 39.7135 599.827 39.2608 600.322 38.9435C600.817 38.6168 601.409 38.4535 602.1 38.4535ZM602.1 39.4895C600.821 39.4895 600.182 40.4322 600.182 42.3175C600.182 44.1935 600.817 45.1315 602.086 45.1315C603.355 45.1315 603.99 44.1888 603.99 42.3035C603.99 40.4275 603.36 39.4895 602.1 39.4895Z" fill="#566A7D"/>
<path d="M613.289 44.9635V48.0995H612.239L612.029 45.9995H607.297L607.087 48.0995H606.037V44.9635H606.555C606.779 44.8142 606.956 44.6462 607.087 44.4595C607.218 44.2635 607.334 43.9275 607.437 43.4515C607.549 42.9755 607.638 42.2802 607.703 41.3655L607.899 38.6215H612.519V44.9635H613.289ZM611.231 39.6435H609.061L608.949 41.1975C608.884 42.0655 608.809 42.7328 608.725 43.1995C608.641 43.6662 608.52 44.0255 608.361 44.2775C608.212 44.5295 607.992 44.7582 607.703 44.9635H611.231V39.6435Z" fill="#566A7D"/>
<path d="M532.222 58.9955C533.473 59.1168 534.098 59.6955 534.098 60.7315C534.098 61.5062 533.813 62.0802 533.244 62.4535C532.684 62.8175 531.933 62.9995 530.99 62.9995H528.33V55.7195C529.198 55.5422 530.005 55.4535 530.752 55.4535C531.667 55.4535 532.39 55.6262 532.922 55.9715C533.454 56.3168 533.72 56.8115 533.72 57.4555C533.72 57.8755 533.594 58.2162 533.342 58.4775C533.09 58.7388 532.717 58.9115 532.222 58.9955ZM530.766 56.4475C530.374 56.4475 529.991 56.4755 529.618 56.5315V58.6175H531.004C531.452 58.6175 531.797 58.5335 532.04 58.3655C532.283 58.1975 532.404 57.9129 532.404 57.5115C532.404 57.1382 532.269 56.8675 531.998 56.6995C531.727 56.5315 531.317 56.4475 530.766 56.4475ZM530.99 61.9915C531.541 61.9915 531.97 61.8982 532.278 61.7115C532.586 61.5248 532.74 61.1888 532.74 60.7035C532.74 60.3022 532.609 60.0128 532.348 59.8355C532.087 59.6582 531.643 59.5695 531.018 59.5695H529.618V61.9915H530.99Z" fill="#566A7D"/>
<path d="M541.066 61.2775C541.066 61.5762 541.117 61.8002 541.22 61.9495C541.322 62.0895 541.476 62.1968 541.682 62.2715L541.388 63.1675C541.005 63.1208 540.697 63.0135 540.464 62.8455C540.23 62.6775 540.058 62.4162 539.946 62.0615C539.451 62.7988 538.718 63.1675 537.748 63.1675C537.02 63.1675 536.446 62.9622 536.026 62.5515C535.606 62.1408 535.396 61.6042 535.396 60.9415C535.396 60.1575 535.676 59.5555 536.236 59.1355C536.805 58.7155 537.608 58.5055 538.644 58.5055H539.778V57.9595C539.778 57.4368 539.652 57.0635 539.4 56.8395C539.148 56.6155 538.76 56.5035 538.238 56.5035C537.696 56.5035 537.034 56.6342 536.25 56.8955L535.928 55.9575C536.842 55.6215 537.692 55.4535 538.476 55.4535C539.344 55.4535 539.992 55.6682 540.422 56.0975C540.851 56.5175 541.066 57.1195 541.066 57.9035V61.2775ZM538.042 62.2015C538.779 62.2015 539.358 61.8188 539.778 61.0535V59.3595H538.812C537.449 59.3595 536.768 59.8635 536.768 60.8715C536.768 61.3102 536.875 61.6415 537.09 61.8655C537.304 62.0895 537.622 62.2015 538.042 62.2015Z" fill="#566A7D"/>
<path d="M552.195 55.6215V62.9995H543.711V55.6215H544.971V61.9635H547.337V55.6215H548.569V61.9635H550.935V55.6215H552.195Z" fill="#566A7D"/>
<path d="M560.593 62.9995H559.319V59.6675C559.319 59.1075 559.338 58.5755 559.375 58.0715C559.413 57.5675 559.445 57.2362 559.473 57.0775L556.379 62.9995H554.853V55.6215H556.127V58.9535C556.127 59.4482 556.109 59.9615 556.071 60.4935C556.034 61.0162 556.006 61.3522 555.987 61.5015L559.039 55.6215H560.593V62.9995Z" fill="#566A7D"/>
<path d="M568.773 55.4535C569.24 55.4535 569.674 55.5329 570.075 55.6915C570.486 55.8408 570.812 56.0648 571.055 56.3635C571.307 56.6622 571.433 57.0215 571.433 57.4415C571.433 57.8522 571.312 58.1882 571.069 58.4495C570.836 58.7108 570.462 58.9115 569.949 59.0515C570.565 59.1542 571.032 59.3455 571.349 59.6255C571.666 59.9055 571.825 60.3069 571.825 60.8295C571.825 61.5949 571.526 62.1782 570.929 62.5795C570.341 62.9715 569.59 63.1675 568.675 63.1675C567.564 63.1675 566.617 62.8595 565.833 62.2435L566.505 61.4455C566.832 61.6788 567.158 61.8515 567.485 61.9635C567.821 62.0755 568.204 62.1315 568.633 62.1315C569.837 62.1315 570.439 61.6928 570.439 60.8155C570.439 60.3862 570.266 60.0875 569.921 59.9195C569.585 59.7422 569.114 59.6535 568.507 59.6535H567.527L567.611 58.6455H568.367C568.89 58.6455 569.31 58.5522 569.627 58.3655C569.944 58.1789 570.103 57.8895 570.103 57.4975C570.103 57.1335 569.968 56.8722 569.697 56.7135C569.426 56.5455 569.072 56.4615 568.633 56.4615C568.25 56.4615 567.91 56.5129 567.611 56.6155C567.322 56.7089 567.028 56.8582 566.729 57.0635L566.113 56.2935C566.486 56.0135 566.888 55.8035 567.317 55.6635C567.746 55.5235 568.232 55.4535 568.773 55.4535Z" fill="#566A7D"/>
<path d="M578.786 61.2775C578.786 61.5762 578.838 61.8002 578.94 61.9495C579.043 62.0895 579.197 62.1968 579.402 62.2715L579.108 63.1675C578.726 63.1208 578.418 63.0135 578.184 62.8455C577.951 62.6775 577.778 62.4162 577.666 62.0615C577.172 62.7988 576.439 63.1675 575.468 63.1675C574.74 63.1675 574.166 62.9622 573.746 62.5515C573.326 62.1408 573.116 61.6042 573.116 60.9415C573.116 60.1575 573.396 59.5555 573.956 59.1355C574.526 58.7155 575.328 58.5055 576.364 58.5055H577.498V57.9595C577.498 57.4368 577.372 57.0635 577.12 56.8395C576.868 56.6155 576.481 56.5035 575.958 56.5035C575.417 56.5035 574.754 56.6342 573.97 56.8955L573.648 55.9575C574.563 55.6215 575.412 55.4535 576.196 55.4535C577.064 55.4535 577.713 55.6682 578.142 56.0975C578.572 56.5175 578.786 57.1195 578.786 57.9035V61.2775ZM575.762 62.2015C576.5 62.2015 577.078 61.8188 577.498 61.0535V59.3595H576.532C575.17 59.3595 574.488 59.8635 574.488 60.8715C574.488 61.3102 574.596 61.6415 574.81 61.8655C575.025 62.0895 575.342 62.2015 575.762 62.2015Z" fill="#566A7D"/>
<path d="M587.354 61.9635V65.0995H586.304L586.094 62.9995H581.362L581.152 65.0995H580.102V61.9635H580.62C580.844 61.8142 581.021 61.6462 581.152 61.4595C581.282 61.2635 581.399 60.9275 581.502 60.4515C581.614 59.9755 581.702 59.2802 581.768 58.3655L581.964 55.6215H586.584V61.9635H587.354ZM585.296 56.6435H583.126L583.014 58.1975C582.948 59.0655 582.874 59.7328 582.79 60.1995C582.706 60.6662 582.584 61.0255 582.426 61.2775C582.276 61.5295 582.057 61.7582 581.768 61.9635H585.296V56.6435Z" fill="#566A7D"/>
<path d="M594.208 61.2775C594.208 61.5762 594.26 61.8002 594.362 61.9495C594.465 62.0895 594.619 62.1968 594.824 62.2715L594.53 63.1675C594.148 63.1208 593.84 63.0135 593.606 62.8455C593.373 62.6775 593.2 62.4162 593.088 62.0615C592.594 62.7988 591.861 63.1675 590.89 63.1675C590.162 63.1675 589.588 62.9622 589.168 62.5515C588.748 62.1408 588.538 61.6042 588.538 60.9415C588.538 60.1575 588.818 59.5555 589.378 59.1355C589.948 58.7155 590.75 58.5055 591.786 58.5055H592.92V57.9595C592.92 57.4368 592.794 57.0635 592.542 56.8395C592.29 56.6155 591.903 56.5035 591.38 56.5035C590.839 56.5035 590.176 56.6342 589.392 56.8955L589.07 55.9575C589.985 55.6215 590.834 55.4535 591.618 55.4535C592.486 55.4535 593.135 55.6682 593.564 56.0975C593.994 56.5175 594.208 57.1195 594.208 57.9035V61.2775ZM591.184 62.2015C591.922 62.2015 592.5 61.8188 592.92 61.0535V59.3595H591.954C590.592 59.3595 589.91 59.8635 589.91 60.8715C589.91 61.3102 590.018 61.6415 590.232 61.8655C590.447 62.0895 590.764 62.2015 591.184 62.2015Z" fill="#566A7D"/>
<path d="M601.921 55.6215V62.9995H600.633V59.9195C600.363 60.1715 600.027 60.3722 599.625 60.5215C599.233 60.6615 598.827 60.7315 598.407 60.7315C597.707 60.7315 597.18 60.5448 596.825 60.1715C596.471 59.7888 596.293 59.2475 596.293 58.5475V55.6215H597.581V58.3935C597.581 58.8602 597.675 59.2008 597.861 59.4155C598.057 59.6208 598.356 59.7235 598.757 59.7235C599.084 59.7235 599.425 59.6488 599.779 59.4995C600.143 59.3502 600.428 59.1588 600.633 58.9255V55.6215H601.921Z" fill="#566A7D"/>
<path d="M610.318 62.9995H609.044V59.6675C609.044 59.1075 609.063 58.5755 609.1 58.0715C609.137 57.5675 609.17 57.2362 609.198 57.0775L606.104 62.9995H604.578V55.6215H605.852V58.9535C605.852 59.4482 605.833 59.9615 605.796 60.4935C605.759 61.0162 605.731 61.3522 605.712 61.5015L608.764 55.6215H610.318V62.9995Z" fill="#566A7D"/>
</g>
<g filter="url(#filter4_d_6_2224)">
<path d="M237 365C237 362.239 239.239 360 242 360H400C402.761 360 405 362.239 405 365V450C405 452.761 402.761 455 400 455H242C239.239 455 237 452.761 237 450V365Z" fill="white"/>
<path d="M257.79 387V382.478H253.73V387H252.4V377.354H253.73V381.386H257.79V377.354H259.12V387H257.79Z" fill="#566A7D"/>
<path d="M266.816 385.278C266.816 385.577 266.867 385.801 266.97 385.95C267.072 386.09 267.226 386.197 267.432 386.272L267.138 387.168C266.755 387.121 266.447 387.014 266.214 386.846C265.98 386.678 265.808 386.417 265.696 386.062C265.201 386.799 264.468 387.168 263.498 387.168C262.77 387.168 262.196 386.963 261.776 386.552C261.356 386.141 261.146 385.605 261.146 384.942C261.146 384.158 261.426 383.556 261.986 383.136C262.555 382.716 263.358 382.506 264.394 382.506H265.528V381.96C265.528 381.437 265.402 381.064 265.15 380.84C264.898 380.616 264.51 380.504 263.988 380.504C263.446 380.504 262.784 380.635 262 380.896L261.678 379.958C262.592 379.622 263.442 379.454 264.226 379.454C265.094 379.454 265.742 379.669 266.172 380.098C266.601 380.518 266.816 381.12 266.816 381.904V385.278ZM263.792 386.202C264.529 386.202 265.108 385.819 265.528 385.054V383.36H264.562C263.199 383.36 262.518 383.864 262.518 384.872C262.518 385.311 262.625 385.642 262.84 385.866C263.054 386.09 263.372 386.202 263.792 386.202Z" fill="#566A7D"/>
<path d="M274.865 379.622V387H273.577V380.672H271.295L271.085 383.136C271.001 384.135 270.894 384.881 270.763 385.376C270.642 385.871 270.446 386.253 270.175 386.524C269.914 386.785 269.512 387 268.971 387.168L268.649 386.146C268.966 386.034 269.19 385.889 269.321 385.712C269.452 385.535 269.55 385.264 269.615 384.9C269.68 384.536 269.75 383.901 269.825 382.996L270.119 379.622H274.865Z" fill="#566A7D"/>
<path d="M283.267 387H281.993V383.668C281.993 383.108 282.012 382.576 282.049 382.072C282.087 381.568 282.119 381.237 282.147 381.078L279.053 387H277.527V379.622H278.801V382.954C278.801 383.449 278.783 383.962 278.745 384.494C278.708 385.017 278.68 385.353 278.661 385.502L281.713 379.622H283.267V387Z" fill="#566A7D"/>
<path d="M290.99 379.622V387H289.702V383.92C289.431 384.172 289.095 384.373 288.694 384.522C288.302 384.662 287.896 384.732 287.476 384.732C286.776 384.732 286.248 384.545 285.894 384.172C285.539 383.789 285.362 383.248 285.362 382.548V379.622H286.65V382.394C286.65 382.861 286.743 383.201 286.93 383.416C287.126 383.621 287.424 383.724 287.826 383.724C288.152 383.724 288.493 383.649 288.848 383.5C289.212 383.351 289.496 383.159 289.702 382.926V379.622H290.99Z" fill="#566A7D"/>
<path d="M299.218 383.094C299.218 383.309 299.209 383.528 299.19 383.752H294.486C294.542 384.564 294.748 385.161 295.102 385.544C295.457 385.927 295.914 386.118 296.474 386.118C296.829 386.118 297.156 386.067 297.454 385.964C297.753 385.861 298.066 385.698 298.392 385.474L298.952 386.244C298.168 386.86 297.31 387.168 296.376 387.168C295.35 387.168 294.547 386.832 293.968 386.16C293.399 385.488 293.114 384.564 293.114 383.388C293.114 382.623 293.236 381.946 293.478 381.358C293.73 380.761 294.085 380.294 294.542 379.958C295.009 379.622 295.555 379.454 296.18 379.454C297.16 379.454 297.912 379.776 298.434 380.42C298.957 381.064 299.218 381.955 299.218 383.094ZM297.944 382.716C297.944 381.988 297.8 381.433 297.51 381.05C297.221 380.667 296.787 380.476 296.208 380.476C295.154 380.476 294.58 381.251 294.486 382.8H297.944V382.716Z" fill="#566A7D"/>
<path d="M307.668 379.454C308.107 379.454 308.508 379.519 308.872 379.65C309.236 379.771 309.586 379.972 309.922 380.252L309.306 381.064C309.045 380.877 308.788 380.742 308.536 380.658C308.294 380.565 308.023 380.518 307.724 380.518C307.127 380.518 306.66 380.756 306.324 381.232C305.998 381.708 305.834 382.413 305.834 383.346C305.834 384.279 305.998 384.97 306.324 385.418C306.651 385.857 307.118 386.076 307.724 386.076C308.014 386.076 308.28 386.034 308.522 385.95C308.765 385.857 309.036 385.712 309.334 385.516L309.922 386.356C309.25 386.897 308.499 387.168 307.668 387.168C306.67 387.168 305.881 386.832 305.302 386.16C304.733 385.488 304.448 384.559 304.448 383.374C304.448 382.59 304.579 381.904 304.84 381.316C305.102 380.728 305.47 380.271 305.946 379.944C306.432 379.617 307.006 379.454 307.668 379.454Z" fill="#566A7D"/>
<path d="M316.965 383.094C316.965 383.309 316.955 383.528 316.937 383.752H312.232C312.288 384.564 312.494 385.161 312.848 385.544C313.203 385.927 313.661 386.118 314.221 386.118C314.575 386.118 314.902 386.067 315.201 385.964C315.499 385.861 315.812 385.698 316.139 385.474L316.699 386.244C315.915 386.86 315.056 387.168 314.123 387.168C313.096 387.168 312.293 386.832 311.715 386.16C311.145 385.488 310.861 384.564 310.861 383.388C310.861 382.623 310.982 381.946 311.224 381.358C311.476 380.761 311.831 380.294 312.289 379.958C312.755 379.622 313.301 379.454 313.926 379.454C314.906 379.454 315.658 379.776 316.181 380.42C316.703 381.064 316.965 381.955 316.965 383.094ZM315.69 382.716C315.69 381.988 315.546 381.433 315.257 381.05C314.967 380.667 314.533 380.476 313.955 380.476C312.9 380.476 312.326 381.251 312.232 382.8H315.69V382.716Z" fill="#566A7D"/>
<path d="M322.409 379.454C323.352 379.454 324.043 379.79 324.481 380.462C324.92 381.134 325.139 382.081 325.139 383.304C325.139 384.461 324.887 385.395 324.383 386.104C323.879 386.813 323.165 387.168 322.241 387.168C321.42 387.168 320.776 386.888 320.309 386.328V389.828L319.021 389.982V379.622H320.127L320.225 380.616C320.496 380.243 320.823 379.958 321.205 379.762C321.588 379.557 321.989 379.454 322.409 379.454ZM321.933 386.118C323.147 386.118 323.753 385.18 323.753 383.304C323.753 381.419 323.198 380.476 322.087 380.476C321.723 380.476 321.392 380.583 321.093 380.798C320.795 381.013 320.533 381.288 320.309 381.624V385.222C320.496 385.511 320.729 385.735 321.009 385.894C321.289 386.043 321.597 386.118 321.933 386.118Z" fill="#566A7D"/>
<path d="M331.962 379.622L331.808 380.672H329.442V387H328.154V380.672H325.718V379.622H331.962Z" fill="#566A7D"/>
<path d="M339.035 387H337.761V383.668C337.761 383.108 337.78 382.576 337.817 382.072C337.854 381.568 337.887 381.237 337.915 381.078L334.821 387H333.295V379.622H334.569V382.954C334.569 383.449 334.55 383.962 334.513 384.494C334.476 385.017 334.448 385.353 334.429 385.502L337.481 379.622H339.035V387Z" fill="#566A7D"/>
<path d="M348.409 379.454C349.305 379.454 349.945 379.785 350.327 380.448C350.719 381.111 350.915 382.063 350.915 383.304C350.915 384.48 350.691 385.418 350.243 386.118C349.795 386.818 349.175 387.168 348.381 387.168C347.681 387.168 347.117 386.855 346.687 386.23V389.828L345.455 389.982V386.23C345.25 386.529 344.989 386.762 344.671 386.93C344.354 387.089 344.013 387.168 343.649 387.168C342.903 387.168 342.31 386.818 341.871 386.118C341.442 385.418 341.227 384.48 341.227 383.304C341.227 382.072 341.414 381.125 341.787 380.462C342.17 379.79 342.795 379.454 343.663 379.454C344.419 379.454 345.017 379.725 345.455 380.266V376.5L346.687 376.654V380.294C347.117 379.734 347.691 379.454 348.409 379.454ZM343.943 386.146C344.242 386.146 344.517 386.067 344.769 385.908C345.031 385.74 345.259 385.511 345.455 385.222V381.316C345.035 380.756 344.527 380.476 343.929 380.476C343.5 380.476 343.173 380.714 342.949 381.19C342.725 381.657 342.613 382.361 342.613 383.304C342.613 384.247 342.73 384.956 342.963 385.432C343.197 385.908 343.523 386.146 343.943 386.146ZM348.143 386.146C348.582 386.146 348.923 385.908 349.165 385.432C349.408 384.956 349.529 384.247 349.529 383.304C349.529 381.419 349.067 380.476 348.143 380.476C347.555 380.476 347.07 380.765 346.687 381.344V385.236C346.883 385.535 347.098 385.763 347.331 385.922C347.565 386.071 347.835 386.146 348.143 386.146Z" fill="#566A7D"/>
<path d="M358.859 387H357.585V383.668C357.585 383.108 357.604 382.576 357.641 382.072C357.678 381.568 357.711 381.237 357.739 381.078L354.645 387H353.119V379.622H354.393V382.954C354.393 383.449 354.374 383.962 354.337 384.494C354.3 385.017 354.272 385.353 354.253 385.502L357.305 379.622H358.859V387Z" fill="#566A7D"/>
<path d="M367.044 379.622L364.804 383.038L367.31 387H365.784L363.74 383.598H362.802V387H361.514V379.622H362.802V382.59H363.768L365.63 379.622H367.044Z" fill="#566A7D"/>
<path d="M373.538 385.278C373.538 385.577 373.59 385.801 373.692 385.95C373.795 386.09 373.949 386.197 374.154 386.272L373.86 387.168C373.478 387.121 373.17 387.014 372.936 386.846C372.703 386.678 372.53 386.417 372.418 386.062C371.924 386.799 371.191 387.168 370.22 387.168C369.492 387.168 368.918 386.963 368.498 386.552C368.078 386.141 367.868 385.605 367.868 384.942C367.868 384.158 368.148 383.556 368.708 383.136C369.278 382.716 370.08 382.506 371.116 382.506H372.25V381.96C372.25 381.437 372.124 381.064 371.872 380.84C371.62 380.616 371.233 380.504 370.71 380.504C370.169 380.504 369.506 380.635 368.722 380.896L368.4 379.958C369.315 379.622 370.164 379.454 370.948 379.454C371.816 379.454 372.465 379.669 372.894 380.098C373.324 380.518 373.538 381.12 373.538 381.904V385.278ZM370.514 386.202C371.252 386.202 371.83 385.819 372.25 385.054V383.36H371.284C369.922 383.36 369.24 383.864 369.24 384.872C369.24 385.311 369.348 385.642 369.562 385.866C369.777 386.09 370.094 386.202 370.514 386.202Z" fill="#566A7D"/>
<path d="M380.894 379.622L380.74 380.672H378.374V387H377.086V380.672H374.65V379.622H380.894Z" fill="#566A7D"/>
<path d="M386.636 385.278C386.636 385.577 386.687 385.801 386.79 385.95C386.893 386.09 387.047 386.197 387.252 386.272L386.958 387.168C386.575 387.121 386.267 387.014 386.034 386.846C385.801 386.678 385.628 386.417 385.516 386.062C385.021 386.799 384.289 387.168 383.318 387.168C382.59 387.168 382.016 386.963 381.596 386.552C381.176 386.141 380.966 385.605 380.966 384.942C380.966 384.158 381.246 383.556 381.806 383.136C382.375 382.716 383.178 382.506 384.214 382.506H385.348V381.96C385.348 381.437 385.222 381.064 384.97 380.84C384.718 380.616 384.331 380.504 383.808 380.504C383.267 380.504 382.604 380.635 381.82 380.896L381.498 379.958C382.413 379.622 383.262 379.454 384.046 379.454C384.914 379.454 385.563 379.669 385.992 380.098C386.421 380.518 386.636 381.12 386.636 381.904V385.278ZM383.612 386.202C384.349 386.202 384.928 385.819 385.348 385.054V383.36H384.382C383.019 383.36 382.338 383.864 382.338 384.872C382.338 385.311 382.445 385.642 382.66 385.866C382.875 386.09 383.192 386.202 383.612 386.202Z" fill="#566A7D"/>
<path d="M255.018 396.454C255.457 396.454 255.858 396.519 256.222 396.65C256.586 396.771 256.936 396.972 257.272 397.252L256.656 398.064C256.395 397.877 256.138 397.742 255.886 397.658C255.643 397.565 255.373 397.518 255.074 397.518C254.477 397.518 254.01 397.756 253.674 398.232C253.347 398.708 253.184 399.413 253.184 400.346C253.184 401.279 253.347 401.97 253.674 402.418C254.001 402.857 254.467 403.076 255.074 403.076C255.363 403.076 255.629 403.034 255.872 402.95C256.115 402.857 256.385 402.712 256.684 402.516L257.272 403.356C256.6 403.897 255.849 404.168 255.018 404.168C254.019 404.168 253.231 403.832 252.652 403.16C252.083 402.488 251.798 401.559 251.798 400.374C251.798 399.59 251.929 398.904 252.19 398.316C252.451 397.728 252.82 397.271 253.296 396.944C253.781 396.617 254.355 396.454 255.018 396.454Z" fill="#566A7D"/>
<path d="M261.514 396.454C262.55 396.454 263.353 396.799 263.922 397.49C264.501 398.181 264.79 399.119 264.79 400.304C264.79 401.069 264.659 401.746 264.398 402.334C264.137 402.913 263.759 403.365 263.264 403.692C262.769 404.009 262.181 404.168 261.5 404.168C260.464 404.168 259.657 403.823 259.078 403.132C258.499 402.441 258.21 401.503 258.21 400.318C258.21 399.553 258.341 398.881 258.602 398.302C258.863 397.714 259.241 397.261 259.736 396.944C260.231 396.617 260.823 396.454 261.514 396.454ZM261.514 397.49C260.235 397.49 259.596 398.433 259.596 400.318C259.596 402.194 260.231 403.132 261.5 403.132C262.769 403.132 263.404 402.189 263.404 400.304C263.404 398.428 262.774 397.49 261.514 397.49Z" fill="#566A7D"/>
<path d="M269.69 396.454C270.726 396.454 271.529 396.799 272.098 397.49C272.677 398.181 272.966 399.119 272.966 400.304C272.966 401.069 272.835 401.746 272.574 402.334C272.313 402.913 271.935 403.365 271.44 403.692C270.945 404.009 270.357 404.168 269.676 404.168C268.64 404.168 267.833 403.823 267.254 403.132C266.675 402.441 266.386 401.503 266.386 400.318C266.386 399.553 266.517 398.881 266.778 398.302C267.039 397.714 267.417 397.261 267.912 396.944C268.407 396.617 268.999 396.454 269.69 396.454ZM269.69 397.49C268.411 397.49 267.772 398.433 267.772 400.318C267.772 402.194 268.407 403.132 269.676 403.132C270.945 403.132 271.58 402.189 271.58 400.304C271.58 398.428 270.95 397.49 269.69 397.49Z" fill="#566A7D"/>
<path d="M279.722 396.622L279.568 397.672H277.202V404H275.914V397.672H273.478V396.622H279.722Z" fill="#566A7D"/>
<path d="M284.947 399.996C286.197 400.117 286.823 400.696 286.823 401.732C286.823 402.507 286.538 403.081 285.969 403.454C285.409 403.818 284.657 404 283.715 404H281.055V396.72C281.923 396.543 282.73 396.454 283.477 396.454C284.391 396.454 285.115 396.627 285.647 396.972C286.179 397.317 286.445 397.812 286.445 398.456C286.445 398.876 286.319 399.217 286.067 399.478C285.815 399.739 285.441 399.912 284.947 399.996ZM283.491 397.448C283.099 397.448 282.716 397.476 282.343 397.532V399.618H283.729C284.177 399.618 284.522 399.534 284.765 399.366C285.007 399.198 285.129 398.913 285.129 398.512C285.129 398.139 284.993 397.868 284.723 397.7C284.452 397.532 284.041 397.448 283.491 397.448ZM283.715 402.992C284.265 402.992 284.695 402.899 285.003 402.712C285.311 402.525 285.465 402.189 285.465 401.704C285.465 401.303 285.334 401.013 285.073 400.836C284.811 400.659 284.368 400.57 283.743 400.57H282.343V402.992H283.715Z" fill="#566A7D"/>
<path d="M294.474 400.094C294.474 400.309 294.465 400.528 294.446 400.752H289.742C289.798 401.564 290.004 402.161 290.358 402.544C290.713 402.927 291.17 403.118 291.73 403.118C292.085 403.118 292.412 403.067 292.71 402.964C293.009 402.861 293.322 402.698 293.648 402.474L294.208 403.244C293.424 403.86 292.566 404.168 291.632 404.168C290.606 404.168 289.803 403.832 289.224 403.16C288.655 402.488 288.37 401.564 288.37 400.388C288.37 399.623 288.492 398.946 288.734 398.358C288.986 397.761 289.341 397.294 289.798 396.958C290.265 396.622 290.811 396.454 291.436 396.454C292.416 396.454 293.168 396.776 293.69 397.42C294.213 398.064 294.474 398.955 294.474 400.094ZM293.2 399.716C293.2 398.988 293.056 398.433 292.766 398.05C292.477 397.667 292.043 397.476 291.464 397.476C290.41 397.476 289.836 398.251 289.742 399.8H293.2V399.716Z" fill="#566A7D"/>
<path d="M301.16 396.622L301.006 397.672H298.64V404H297.352V397.672H294.916V396.622H301.16Z" fill="#566A7D"/>
<path d="M304.825 396.454C305.263 396.454 305.665 396.519 306.029 396.65C306.393 396.771 306.743 396.972 307.079 397.252L306.463 398.064C306.201 397.877 305.945 397.742 305.693 397.658C305.45 397.565 305.179 397.518 304.881 397.518C304.283 397.518 303.817 397.756 303.481 398.232C303.154 398.708 302.991 399.413 302.991 400.346C302.991 401.279 303.154 401.97 303.481 402.418C303.807 402.857 304.274 403.076 304.881 403.076C305.17 403.076 305.436 403.034 305.679 402.95C305.921 402.857 306.192 402.712 306.491 402.516L307.079 403.356C306.407 403.897 305.655 404.168 304.825 404.168C303.826 404.168 303.037 403.832 302.459 403.16C301.889 402.488 301.605 401.559 301.605 400.374C301.605 399.59 301.735 398.904 301.997 398.316C302.258 397.728 302.627 397.271 303.103 396.944C303.588 396.617 304.162 396.454 304.825 396.454Z" fill="#566A7D"/>
<path d="M313.806 396.622L313.652 397.672H311.286V404H309.998V397.672H307.562V396.622H313.806Z" fill="#566A7D"/>
<path d="M319.031 399.996C320.281 400.117 320.907 400.696 320.907 401.732C320.907 402.507 320.622 403.081 320.053 403.454C319.493 403.818 318.741 404 317.799 404H315.139V396.72C316.007 396.543 316.814 396.454 317.561 396.454C318.475 396.454 319.199 396.627 319.731 396.972C320.263 397.317 320.529 397.812 320.529 398.456C320.529 398.876 320.403 399.217 320.151 399.478C319.899 399.739 319.525 399.912 319.031 399.996ZM317.575 397.448C317.183 397.448 316.8 397.476 316.427 397.532V399.618H317.813C318.261 399.618 318.606 399.534 318.849 399.366C319.091 399.198 319.213 398.913 319.213 398.512C319.213 398.139 319.077 397.868 318.807 397.7C318.536 397.532 318.125 397.448 317.575 397.448ZM317.799 402.992C318.349 402.992 318.779 402.899 319.087 402.712C319.395 402.525 319.549 402.189 319.549 401.704C319.549 401.303 319.418 401.013 319.157 400.836C318.895 400.659 318.452 400.57 317.827 400.57H316.427V402.992H317.799Z" fill="#566A7D"/>
<path d="M328.781 404H327.507V400.668C327.507 400.108 327.526 399.576 327.563 399.072C327.6 398.568 327.633 398.237 327.661 398.078L324.567 404H323.041V396.622H324.315V399.954C324.315 400.449 324.296 400.962 324.259 401.494C324.222 402.017 324.194 402.353 324.175 402.502L327.227 396.622H328.781V404Z" fill="#566A7D"/>
<path d="M336.489 396.622V404H335.201V401.172H333.591L332.037 404H330.595L332.359 400.878C331.491 400.467 331.057 399.8 331.057 398.876C331.057 398.148 331.319 397.593 331.841 397.21C332.364 396.818 333.097 396.622 334.039 396.622H336.489ZM335.201 400.192V397.616H334.011C333.479 397.616 333.078 397.719 332.807 397.924C332.546 398.12 332.415 398.437 332.415 398.876C332.415 399.343 332.537 399.679 332.779 399.884C333.031 400.089 333.433 400.192 333.983 400.192H335.201Z" fill="#566A7D"/>
<path d="M348.591 404H347.317V400.668C347.317 400.108 347.336 399.576 347.373 399.072C347.411 398.568 347.443 398.237 347.471 398.078L344.377 404H342.851V396.622H344.125V399.954C344.125 400.449 344.107 400.962 344.069 401.494C344.032 402.017 344.004 402.353 343.985 402.502L347.037 396.622H348.591V404Z" fill="#566A7D"/>
<path d="M358.843 399.996C360.094 400.117 360.719 400.696 360.719 401.732C360.719 402.507 360.434 403.081 359.865 403.454C359.305 403.818 358.554 404 357.611 404H354.951V396.72C355.819 396.543 356.626 396.454 357.373 396.454C358.288 396.454 359.011 396.627 359.543 396.972C360.075 397.317 360.341 397.812 360.341 398.456C360.341 398.876 360.215 399.217 359.963 399.478C359.711 399.739 359.338 399.912 358.843 399.996ZM357.387 397.448C356.995 397.448 356.612 397.476 356.239 397.532V399.618H357.625C358.073 399.618 358.418 399.534 358.661 399.366C358.904 399.198 359.025 398.913 359.025 398.512C359.025 398.139 358.89 397.868 358.619 397.7C358.348 397.532 357.938 397.448 357.387 397.448ZM357.611 402.992C358.162 402.992 358.591 402.899 358.899 402.712C359.207 402.525 359.361 402.189 359.361 401.704C359.361 401.303 359.23 401.013 358.969 400.836C358.708 400.659 358.264 400.57 357.639 400.57H356.239V402.992H357.611Z" fill="#566A7D"/>
<path d="M365.487 396.454C365.925 396.454 366.327 396.519 366.691 396.65C367.055 396.771 367.405 396.972 367.741 397.252L367.125 398.064C366.863 397.877 366.607 397.742 366.355 397.658C366.112 397.565 365.841 397.518 365.543 397.518C364.945 397.518 364.479 397.756 364.143 398.232C363.816 398.708 363.653 399.413 363.653 400.346C363.653 401.279 363.816 401.97 364.143 402.418C364.469 402.857 364.936 403.076 365.543 403.076C365.832 403.076 366.098 403.034 366.341 402.95C366.583 402.857 366.854 402.712 367.153 402.516L367.741 403.356C367.069 403.897 366.317 404.168 365.487 404.168C364.488 404.168 363.699 403.832 363.121 403.16C362.551 402.488 362.267 401.559 362.267 400.374C362.267 399.59 362.397 398.904 362.659 398.316C362.92 397.728 363.289 397.271 363.765 396.944C364.25 396.617 364.824 396.454 365.487 396.454Z" fill="#566A7D"/>
<path d="M374.783 400.094C374.783 400.309 374.774 400.528 374.755 400.752H370.051C370.107 401.564 370.312 402.161 370.667 402.544C371.022 402.927 371.479 403.118 372.039 403.118C372.394 403.118 372.72 403.067 373.019 402.964C373.318 402.861 373.63 402.698 373.957 402.474L374.517 403.244C373.733 403.86 372.874 404.168 371.941 404.168C370.914 404.168 370.112 403.832 369.533 403.16C368.964 402.488 368.679 401.564 368.679 400.388C368.679 399.623 368.8 398.946 369.043 398.358C369.295 397.761 369.65 397.294 370.107 396.958C370.574 396.622 371.12 396.454 371.745 396.454C372.725 396.454 373.476 396.776 373.999 397.42C374.522 398.064 374.783 398.955 374.783 400.094ZM373.509 399.716C373.509 398.988 373.364 398.433 373.075 398.05C372.786 397.667 372.352 397.476 371.773 397.476C370.718 397.476 370.144 398.251 370.051 399.8H373.509V399.716Z" fill="#566A7D"/>
<path d="M379.545 400.052L382.107 404H380.553L378.747 400.878L376.913 404H375.457L378.033 400.108L375.751 396.622H377.263L378.803 399.324L380.357 396.622H381.813L379.545 400.052Z" fill="#566A7D"/>
<path d="M255.718 413.454C256.661 413.454 257.351 413.79 257.79 414.462C258.229 415.134 258.448 416.081 258.448 417.304C258.448 418.461 258.196 419.395 257.692 420.104C257.188 420.813 256.474 421.168 255.55 421.168C254.729 421.168 254.085 420.888 253.618 420.328V423.828L252.33 423.982V413.622H253.436L253.534 414.616C253.805 414.243 254.131 413.958 254.514 413.762C254.897 413.557 255.298 413.454 255.718 413.454ZM255.242 420.118C256.455 420.118 257.062 419.18 257.062 417.304C257.062 415.419 256.507 414.476 255.396 414.476C255.032 414.476 254.701 414.583 254.402 414.798C254.103 415.013 253.842 415.288 253.618 415.624V419.222C253.805 419.511 254.038 419.735 254.318 419.894C254.598 420.043 254.906 420.118 255.242 420.118Z" fill="#566A7D"/>
<path d="M265.476 419.278C265.476 419.577 265.527 419.801 265.63 419.95C265.732 420.09 265.886 420.197 266.092 420.272L265.798 421.168C265.415 421.121 265.107 421.014 264.874 420.846C264.64 420.678 264.468 420.417 264.356 420.062C263.861 420.799 263.128 421.168 262.158 421.168C261.43 421.168 260.856 420.963 260.436 420.552C260.016 420.141 259.806 419.605 259.806 418.942C259.806 418.158 260.086 417.556 260.646 417.136C261.215 416.716 262.018 416.506 263.054 416.506H264.188V415.96C264.188 415.437 264.062 415.064 263.81 414.84C263.558 414.616 263.17 414.504 262.648 414.504C262.106 414.504 261.444 414.635 260.66 414.896L260.338 413.958C261.252 413.622 262.102 413.454 262.886 413.454C263.754 413.454 264.402 413.669 264.832 414.098C265.261 414.518 265.476 415.12 265.476 415.904V419.278ZM262.452 420.202C263.189 420.202 263.768 419.819 264.188 419.054V417.36H263.222C261.859 417.36 261.178 417.864 261.178 418.872C261.178 419.311 261.285 419.642 261.5 419.866C261.714 420.09 262.032 420.202 262.452 420.202Z" fill="#566A7D"/>
<path d="M269.941 413.454C270.408 413.454 270.842 413.533 271.243 413.692C271.654 413.841 271.98 414.065 272.223 414.364C272.475 414.663 272.601 415.022 272.601 415.442C272.601 415.853 272.48 416.189 272.237 416.45C272.004 416.711 271.63 416.912 271.117 417.052C271.733 417.155 272.2 417.346 272.517 417.626C272.834 417.906 272.993 418.307 272.993 418.83C272.993 419.595 272.694 420.179 272.097 420.58C271.509 420.972 270.758 421.168 269.843 421.168C268.732 421.168 267.785 420.86 267.001 420.244L267.673 419.446C268 419.679 268.326 419.852 268.653 419.964C268.989 420.076 269.372 420.132 269.801 420.132C271.005 420.132 271.607 419.693 271.607 418.816C271.607 418.387 271.434 418.088 271.089 417.92C270.753 417.743 270.282 417.654 269.675 417.654H268.695L268.779 416.646H269.535C270.058 416.646 270.478 416.553 270.795 416.366C271.112 416.179 271.271 415.89 271.271 415.498C271.271 415.134 271.136 414.873 270.865 414.714C270.594 414.546 270.24 414.462 269.801 414.462C269.418 414.462 269.078 414.513 268.779 414.616C268.49 414.709 268.196 414.859 267.897 415.064L267.281 414.294C267.654 414.014 268.056 413.804 268.485 413.664C268.914 413.524 269.4 413.454 269.941 413.454Z" fill="#566A7D"/>
<path d="M278.509 413.454C279.452 413.454 280.142 413.79 280.581 414.462C281.02 415.134 281.239 416.081 281.239 417.304C281.239 418.461 280.987 419.395 280.483 420.104C279.979 420.813 279.265 421.168 278.341 421.168C277.52 421.168 276.876 420.888 276.409 420.328V423.828L275.121 423.982V413.622H276.227L276.325 414.616C276.596 414.243 276.922 413.958 277.305 413.762C277.688 413.557 278.089 413.454 278.509 413.454ZM278.033 420.118C279.246 420.118 279.853 419.18 279.853 417.304C279.853 415.419 279.298 414.476 278.187 414.476C277.823 414.476 277.492 414.583 277.193 414.798C276.894 415.013 276.633 415.288 276.409 415.624V419.222C276.596 419.511 276.829 419.735 277.109 419.894C277.389 420.043 277.697 420.118 278.033 420.118Z" fill="#566A7D"/>
<path d="M289.006 417.094C289.006 417.309 288.996 417.528 288.978 417.752H284.274C284.33 418.564 284.535 419.161 284.89 419.544C285.244 419.927 285.702 420.118 286.262 420.118C286.616 420.118 286.943 420.067 287.242 419.964C287.54 419.861 287.853 419.698 288.18 419.474L288.74 420.244C287.956 420.86 287.097 421.168 286.164 421.168C285.137 421.168 284.334 420.832 283.756 420.16C283.186 419.488 282.902 418.564 282.902 417.388C282.902 416.623 283.023 415.946 283.266 415.358C283.518 414.761 283.872 414.294 284.33 413.958C284.796 413.622 285.342 413.454 285.968 413.454C286.948 413.454 287.699 413.776 288.222 414.42C288.744 415.064 289.006 415.955 289.006 417.094ZM287.732 416.716C287.732 415.988 287.587 415.433 287.298 415.05C287.008 414.667 286.574 414.476 285.996 414.476C284.941 414.476 284.367 415.251 284.274 416.8H287.732V416.716Z" fill="#566A7D"/>
<path d="M299.546 413.622V421H291.062V413.622H292.322V419.964H294.688V413.622H295.92V419.964H298.286V413.622H299.546Z" fill="#566A7D"/>
<path d="M307.945 421H306.671V417.668C306.671 417.108 306.69 416.576 306.727 416.072C306.764 415.568 306.797 415.237 306.825 415.078L303.731 421H302.205V413.622H303.479V416.954C303.479 417.449 303.46 417.962 303.423 418.494C303.386 419.017 303.358 419.353 303.339 419.502L306.391 413.622H307.945V421Z" fill="#566A7D"/>
<path d="M315.584 413.622L315.43 414.672H313.064V421H311.776V414.672H309.34V413.622H315.584Z" fill="#566A7D"/>
<path d="M322.132 417.094C322.132 417.309 322.123 417.528 322.104 417.752H317.4C317.456 418.564 317.662 419.161 318.016 419.544C318.371 419.927 318.828 420.118 319.388 420.118C319.743 420.118 320.07 420.067 320.368 419.964C320.667 419.861 320.98 419.698 321.306 419.474L321.866 420.244C321.082 420.86 320.224 421.168 319.29 421.168C318.264 421.168 317.461 420.832 316.882 420.16C316.313 419.488 316.028 418.564 316.028 417.388C316.028 416.623 316.15 415.946 316.392 415.358C316.644 414.761 316.999 414.294 317.456 413.958C317.923 413.622 318.469 413.454 319.094 413.454C320.074 413.454 320.826 413.776 321.348 414.42C321.871 415.064 322.132 415.955 322.132 417.094ZM320.858 416.716C320.858 415.988 320.714 415.433 320.424 415.05C320.135 414.667 319.701 414.476 319.122 414.476C318.068 414.476 317.494 415.251 317.4 416.8H320.858V416.716Z" fill="#566A7D"/>
<path d="M329.457 413.622V421H328.169V414.672H325.887L325.677 417.136C325.593 418.135 325.485 418.881 325.355 419.376C325.233 419.871 325.037 420.253 324.767 420.524C324.505 420.785 324.104 421 323.563 421.168L323.241 420.146C323.558 420.034 323.782 419.889 323.913 419.712C324.043 419.535 324.141 419.264 324.207 418.9C324.272 418.536 324.342 417.901 324.417 416.996L324.711 413.622H329.457Z" fill="#566A7D"/>
<path d="M334.387 416.002C335.488 416.002 336.286 416.217 336.781 416.646C337.276 417.075 337.523 417.687 337.523 418.48C337.523 419.311 337.243 419.941 336.683 420.37C336.132 420.79 335.446 421 334.625 421H332.119V413.622H333.407V416.002H334.387ZM334.513 419.992C335.036 419.992 335.437 419.875 335.717 419.642C336.006 419.409 336.151 419.021 336.151 418.48C336.151 417.967 336.016 417.589 335.745 417.346C335.484 417.103 335.026 416.982 334.373 416.982H333.407V419.992H334.513Z" fill="#566A7D"/>
<path d="M343.692 421V417.752H340.626V421H339.338V413.622H340.626V416.716H343.692V413.622H344.98V421H343.692Z" fill="#566A7D"/>
<path d="M349.765 416.002C350.866 416.002 351.664 416.217 352.159 416.646C352.653 417.075 352.901 417.687 352.901 418.48C352.901 419.311 352.621 419.941 352.061 420.37C351.51 420.79 350.824 421 350.003 421H347.637V413.622H348.925V416.002H349.765ZM353.965 413.622H355.253V421H353.965V413.622ZM349.891 419.992C350.413 419.992 350.815 419.875 351.095 419.642C351.384 419.409 351.529 419.021 351.529 418.48C351.529 417.967 351.393 417.589 351.123 417.346C350.861 417.103 350.404 416.982 349.751 416.982H348.925V419.992H349.891Z" fill="#566A7D"/>
<path d="M360.746 417.052L363.308 421H361.754L359.948 417.878L358.114 421H356.658L359.234 417.108L356.952 413.622H358.464L360.004 416.324L361.558 413.622H363.014L360.746 417.052Z" fill="#566A7D"/>
<path d="M258.252 436.964V440.1H257.202L256.992 438H252.26L252.05 440.1H251V436.964H251.518C251.742 436.815 251.919 436.647 252.05 436.46C252.181 436.264 252.297 435.928 252.4 435.452C252.512 434.976 252.601 434.281 252.666 433.366L252.862 430.622H257.482V436.964H258.252ZM256.194 431.644H254.024L253.912 433.198C253.847 434.066 253.772 434.733 253.688 435.2C253.604 435.667 253.483 436.026 253.324 436.278C253.175 436.53 252.955 436.759 252.666 436.964H256.194V431.644Z" fill="#566A7D"/>
<path d="M262.881 430.454C263.917 430.454 264.72 430.799 265.289 431.49C265.868 432.181 266.157 433.119 266.157 434.304C266.157 435.069 266.027 435.746 265.765 436.334C265.504 436.913 265.126 437.365 264.631 437.692C264.137 438.009 263.549 438.168 262.867 438.168C261.831 438.168 261.024 437.823 260.445 437.132C259.867 436.441 259.577 435.503 259.577 434.318C259.577 433.553 259.708 432.881 259.969 432.302C260.231 431.714 260.609 431.261 261.103 430.944C261.598 430.617 262.191 430.454 262.881 430.454ZM262.881 431.49C261.603 431.49 260.963 432.433 260.963 434.318C260.963 436.194 261.598 437.132 262.867 437.132C264.137 437.132 264.771 436.189 264.771 434.304C264.771 432.428 264.141 431.49 262.881 431.49Z" fill="#566A7D"/>
<path d="M273.815 430.622L271.575 434.038L274.081 438H272.555L270.511 434.598H269.573V438H268.285V430.622H269.573V433.59H270.539L272.401 430.622H273.815Z" fill="#566A7D"/>
<path d="M278.499 438.042C278.21 438.901 277.804 439.577 277.281 440.072C276.768 440.576 276.03 440.879 275.069 440.982L274.929 439.974C275.414 439.89 275.802 439.769 276.091 439.61C276.38 439.451 276.609 439.246 276.777 438.994C276.954 438.751 277.118 438.42 277.267 438H276.833L274.355 430.622H275.727L277.701 437.062L279.633 430.622H280.963L278.499 438.042Z" fill="#566A7D"/>
<path d="M289.605 438H288.345L288.009 434.514C287.971 434.15 287.948 433.749 287.939 433.31C287.929 432.862 287.925 432.381 287.925 431.868L286.245 437.188H285.027L283.459 431.882C283.459 433.114 283.44 433.987 283.403 434.5L283.137 438H281.891L282.549 430.622H284.215L285.657 435.9L287.239 430.622H288.933L289.605 438Z" fill="#566A7D"/>
<path d="M297.345 434.094C297.345 434.309 297.336 434.528 297.317 434.752H292.613C292.669 435.564 292.875 436.161 293.229 436.544C293.584 436.927 294.041 437.118 294.601 437.118C294.956 437.118 295.283 437.067 295.581 436.964C295.88 436.861 296.193 436.698 296.519 436.474L297.079 437.244C296.295 437.86 295.437 438.168 294.503 438.168C293.477 438.168 292.674 437.832 292.095 437.16C291.526 436.488 291.241 435.564 291.241 434.388C291.241 433.623 291.363 432.946 291.605 432.358C291.857 431.761 292.212 431.294 292.669 430.958C293.136 430.622 293.682 430.454 294.307 430.454C295.287 430.454 296.039 430.776 296.561 431.42C297.084 432.064 297.345 432.955 297.345 434.094ZM296.071 433.716C296.071 432.988 295.927 432.433 295.637 432.05C295.348 431.667 294.914 431.476 294.335 431.476C293.281 431.476 292.707 432.251 292.613 433.8H296.071V433.716Z" fill="#566A7D"/>
<path d="M303.756 438V434.752H300.69V438H299.402V430.622H300.69V433.716H303.756V430.622H305.044V438H303.756Z" fill="#566A7D"/>
<path d="M312.685 430.622L312.531 431.672H310.165V438H308.877V431.672H306.441V430.622H312.685Z" fill="#566A7D"/>
<path d="M316.434 430.454C317.47 430.454 318.273 430.799 318.842 431.49C319.421 432.181 319.71 433.119 319.71 434.304C319.71 435.069 319.579 435.746 319.318 436.334C319.057 436.913 318.679 437.365 318.184 437.692C317.689 438.009 317.101 438.168 316.42 438.168C315.384 438.168 314.577 437.823 313.998 437.132C313.419 436.441 313.13 435.503 313.13 434.318C313.13 433.553 313.261 432.881 313.522 432.302C313.783 431.714 314.161 431.261 314.656 430.944C315.151 430.617 315.743 430.454 316.434 430.454ZM316.434 431.49C315.155 431.49 314.516 432.433 314.516 434.318C314.516 436.194 315.151 437.132 316.42 437.132C317.689 437.132 318.324 436.189 318.324 434.304C318.324 432.428 317.694 431.49 316.434 431.49Z" fill="#566A7D"/>
<path d="M325.73 433.996C326.98 434.117 327.606 434.696 327.606 435.732C327.606 436.507 327.321 437.081 326.752 437.454C326.192 437.818 325.44 438 324.498 438H321.838V430.72C322.706 430.543 323.513 430.454 324.26 430.454C325.174 430.454 325.898 430.627 326.43 430.972C326.962 431.317 327.228 431.812 327.228 432.456C327.228 432.876 327.102 433.217 326.85 433.478C326.598 433.739 326.224 433.912 325.73 433.996ZM324.274 431.448C323.882 431.448 323.499 431.476 323.126 431.532V433.618H324.512C324.96 433.618 325.305 433.534 325.548 433.366C325.79 433.198 325.912 432.913 325.912 432.512C325.912 432.139 325.776 431.868 325.506 431.7C325.235 431.532 324.824 431.448 324.274 431.448ZM324.498 436.992C325.048 436.992 325.478 436.899 325.786 436.712C326.094 436.525 326.248 436.189 326.248 435.704C326.248 435.303 326.117 435.013 325.856 434.836C325.594 434.659 325.151 434.57 324.526 434.57H323.126V436.992H324.498Z" fill="#566A7D"/>
</g>
<defs>
<filter id="filter0_d_6_2224" x="31" y="6" width="126" height="72" filterUnits="userSpaceOnUse" color-interpolation-filters="sRGB">
<feFlood flood-opacity="0" result="BackgroundImageFix"/>
<feColorMatrix in="SourceAlpha" type="matrix" values="0 0 0 0 0 0 0 0 0 0 0 0 0 0 0 0 0 0 127 0" result="hardAlpha"/>
<feOffset dy="4"/>
<feGaussianBlur stdDeviation="3.5"/>
<feColorMatrix type="matrix" values="0 0 0 0 0.721569 0 0 0 0 0.541176 0 0 0 0 0.768627 0 0 0 0.52641 0"/>
<feBlend mode="normal" in2="BackgroundImageFix" result="effect1_dropShadow_6_2224"/>
<feBlend mode="normal" in="SourceGraphic" in2="effect1_dropShadow_6_2224" result="shape"/>
</filter>
<filter id="filter1_d_6_2224" x="535" y="327" width="121" height="71" filterUnits="userSpaceOnUse" color-interpolation-filters="sRGB">
<feFlood flood-opacity="0" result="BackgroundImageFix"/>
<feColorMatrix in="SourceAlpha" type="matrix" values="0 0 0 0 0 0 0 0 0 0 0 0 0 0 0 0 0 0 127 0" result="hardAlpha"/>
<feOffset dy="4"/>
<feGaussianBlur stdDeviation="3.5"/>
<feColorMatrix type="matrix" values="0 0 0 0 0.721569 0 0 0 0 0.541176 0 0 0 0 0.768627 0 0 0 0.52641 0"/>
<feBlend mode="normal" in2="BackgroundImageFix" result="effect1_dropShadow_6_2224"/>
<feBlend mode="normal" in="SourceGraphic" in2="effect1_dropShadow_6_2224" result="shape"/>
</filter>
<filter id="filter2_d_6_2224" x="0" y="317" width="139" height="91" filterUnits="userSpaceOnUse" color-interpolation-filters="sRGB">
<feFlood flood-opacity="0" result="BackgroundImageFix"/>
<feColorMatrix in="SourceAlpha" type="matrix" values="0 0 0 0 0 0 0 0 0 0 0 0 0 0 0 0 0 0 127 0" result="hardAlpha"/>
<feOffset dy="4"/>
<feGaussianBlur stdDeviation="3.5"/>
<feColorMatrix type="matrix" values="0 0 0 0 0.721569 0 0 0 0 0.541176 0 0 0 0 0.768627 0 0 0 0.52641 0"/>
<feBlend mode="normal" in2="BackgroundImageFix" result="effect1_dropShadow_6_2224"/>
<feBlend mode="normal" in="SourceGraphic" in2="effect1_dropShadow_6_2224" result="shape"/>
</filter>
<filter id="filter3_d_6_2224" x="506" y="0" width="131" height="90" filterUnits="userSpaceOnUse" color-interpolation-filters="sRGB">
<feFlood flood-opacity="0" result="BackgroundImageFix"/>
<feColorMatrix in="SourceAlpha" type="matrix" values="0 0 0 0 0 0 0 0 0 0 0 0 0 0 0 0 0 0 127 0" result="hardAlpha"/>
<feOffset dy="4"/>
<feGaussianBlur stdDeviation="3.5"/>
<feColorMatrix type="matrix" values="0 0 0 0 0.721569 0 0 0 0 0.541176 0 0 0 0 0.768627 0 0 0 0.52641 0"/>
<feBlend mode="normal" in2="BackgroundImageFix" result="effect1_dropShadow_6_2224"/>
<feBlend mode="normal" in="SourceGraphic" in2="effect1_dropShadow_6_2224" result="shape"/>
</filter>
<filter id="filter4_d_6_2224" x="230" y="357" width="182" height="109" filterUnits="userSpaceOnUse" color-interpolation-filters="sRGB">
<feFlood flood-opacity="0" result="BackgroundImageFix"/>
<feColorMatrix in="SourceAlpha" type="matrix" values="0 0 0 0 0 0 0 0 0 0 0 0 0 0 0 0 0 0 127 0" result="hardAlpha"/>
<feOffset dy="4"/>
<feGaussianBlur stdDeviation="3.5"/>
<feColorMatrix type="matrix" values="0 0 0 0 0.721569 0 0 0 0 0.541176 0 0 0 0 0.768627 0 0 0 0.52641 0"/>
<feBlend mode="normal" in2="BackgroundImageFix" result="effect1_dropShadow_6_2224"/>
<feBlend mode="normal" in="SourceGraphic" in2="effect1_dropShadow_6_2224" result="shape"/>
</filter>
</defs>
</svg>
