<svg width="656" height="466" fill="none" xmlns="http://www.w3.org/2000/svg"><g filter="url(#filter0_d_6_2224)"><path d="M38 14a5 5 0 015-5h102a5 5 0 015 5v48a5 5 0 01-5 5H43a5 5 0 01-5-5V14z" fill="#fff"/><path d="M55.934 24.354c1.195 0 2.119.252 2.772.756.653.495.98 1.237.98 2.226 0 1.055-.34 1.839-1.022 2.352-.681.514-1.587.77-2.716.77H54.73V34H53.4v-9.646h2.534zm-.042 5.054c.775 0 1.363-.149 1.764-.448.41-.298.616-.835.616-1.61 0-.69-.205-1.19-.616-1.498-.401-.308-.98-.462-1.736-.462h-1.19v4.018h1.162zm9.778 2.87c0 .299.05.523.153.672.103.14.257.248.462.322l-.294.896c-.382-.046-.69-.154-.924-.322-.233-.168-.406-.429-.518-.784-.495.738-1.227 1.106-2.198 1.106-.728 0-1.302-.205-1.722-.616-.42-.41-.63-.947-.63-1.61 0-.784.28-1.386.84-1.806.57-.42 1.372-.63 2.408-.63h1.134v-.546c0-.522-.126-.896-.378-1.12-.252-.224-.64-.336-1.162-.336-.541 0-1.204.131-1.988.392l-.322-.938c.915-.336 1.764-.504 2.548-.504.868 0 1.517.215 1.946.644.43.42.644 1.022.644 1.806v3.374zm-3.025.924c.737 0 1.316-.382 1.736-1.148V30.36h-.966c-1.362 0-2.044.504-2.044 1.512 0 .439.107.77.322.994.215.224.532.336.952.336zm8.889-6.104c.84 0 1.508.304 2.002.91.504.607.756 1.433.756 2.478 0 1.167-.294 2.072-.882 2.716-.588.644-1.376.966-2.366.966-.989 0-1.782-.35-2.38-1.05-.588-.7-.882-1.759-.882-3.178 0-1.073.08-1.95.238-2.632.168-.69.453-1.255.854-1.694.411-.448.985-.798 1.722-1.05.551-.186.99-.354 1.316-.504a6.67 6.67 0 001.022-.574l.546.966c-.326.206-.667.397-1.022.574-.345.168-.76.332-1.246.49-.466.159-.835.341-1.106.546-.27.196-.49.486-.658.868-.158.374-.266.887-.322 1.54a2.912 2.912 0 011.008-1.008 2.7 2.7 0 011.4-.364zm-.49 6.034c.57 0 1.022-.191 1.358-.574.336-.392.504-1.068.504-2.03 0-.849-.14-1.46-.42-1.834-.27-.373-.667-.56-1.19-.56-.429 0-.83.117-1.204.35-.373.224-.681.57-.924 1.036v.896c0 .868.164 1.54.49 2.016.336.467.798.7 1.386.7zm8.15-6.678c1.036 0 1.838.346 2.408 1.036.578.691.868 1.629.868 2.814 0 .766-.13 1.442-.392 2.03a3.125 3.125 0 01-1.134 1.358c-.495.318-1.083.476-1.764.476-1.036 0-1.844-.345-2.422-1.036-.579-.69-.868-1.628-.868-2.814 0-.765.13-1.437.392-2.016.261-.588.64-1.04 1.134-1.358.495-.326 1.087-.49 1.778-.49zm0 1.036c-1.279 0-1.918.943-1.918 2.828 0 1.876.635 2.814 1.904 2.814 1.27 0 1.904-.942 1.904-2.828 0-1.876-.63-2.814-1.89-2.814zm10.032-.868l-.154 1.05h-2.366V34h-1.288v-6.328h-2.436v-1.05h6.244zm5.742 5.656c0 .299.051.523.154.672.103.14.257.248.462.322l-.294.896c-.383-.046-.69-.154-.924-.322-.233-.168-.406-.429-.518-.784-.495.738-1.227 1.106-2.198 1.106-.728 0-1.302-.205-1.722-.616-.42-.41-.63-.947-.63-1.61 0-.784.28-1.386.84-1.806.57-.42 1.372-.63 2.408-.63h1.134v-.546c0-.522-.126-.896-.378-1.12-.252-.224-.64-.336-1.162-.336-.541 0-1.204.131-1.988.392l-.322-.938c.915-.336 1.764-.504 2.548-.504.868 0 1.517.215 1.946.644.43.42.644 1.022.644 1.806v3.374zm-3.024.924c.737 0 1.316-.382 1.736-1.148V30.36h-.966c-1.363 0-2.044.504-2.044 1.512 0 .439.107.77.322.994.215.224.532.336.952.336zm11.241-3.108c0 .215-.009.434-.028.658h-4.704c.056.812.261 1.41.616 1.792.355.383.812.574 1.372.574.355 0 .682-.051.98-.154a3.93 3.93 0 00.938-.49l.56.77c-.784.616-1.642.924-2.576.924-1.026 0-1.83-.336-2.408-1.008-.57-.672-.854-1.596-.854-2.772 0-.765.121-1.442.364-2.03.252-.597.607-1.064 1.064-1.4.467-.336 1.013-.504 1.638-.504.98 0 1.732.322 2.254.966.523.644.784 1.536.784 2.674zm-1.274-.378c0-.728-.144-1.283-.434-1.666-.289-.382-.723-.574-1.302-.574-1.054 0-1.629.775-1.722 2.324h3.458v-.084zM112.466 34h-1.26l-.336-3.486a14.991 14.991 0 01-.07-1.204 71.867 71.867 0 01-.014-1.442l-1.68 5.32h-1.218l-1.568-5.306c0 1.232-.019 2.105-.056 2.618l-.266 3.5h-1.246l.658-7.378h1.666l1.442 5.278 1.582-5.278h1.694l.672 7.378zm10.186 0v-6.328h-3.024V34h-1.288v-7.378h5.6V34h-1.288zm6.718-7.546c1.036 0 1.838.346 2.408 1.036.578.691.868 1.629.868 2.814 0 .766-.131 1.442-.392 2.03a3.134 3.134 0 01-1.134 1.358c-.495.318-1.083.476-1.764.476-1.036 0-1.844-.345-2.422-1.036-.579-.69-.868-1.628-.868-2.814 0-.765.13-1.437.392-2.016.261-.588.639-1.04 1.134-1.358.494-.326 1.087-.49 1.778-.49zm0 1.036c-1.279 0-1.918.943-1.918 2.828 0 1.876.634 2.814 1.904 2.814 1.269 0 1.904-.942 1.904-2.828 0-1.876-.63-2.814-1.89-2.814zM59.252 49.964V53.1h-1.05l-.21-2.1H53.26l-.21 2.1H52v-3.136h.518a1.97 1.97 0 00.532-.504c.13-.196.247-.532.35-1.008.112-.476.2-1.171.266-2.086l.196-2.744h4.62v6.342h.77zm-2.058-5.32h-2.17l-.112 1.554c-.065.868-.14 1.536-.224 2.002-.084.467-.205.826-.364 1.078-.15.252-.369.481-.658.686h3.528v-5.32zm6.687-1.19c1.036 0 1.839.346 2.408 1.036.579.691.868 1.629.868 2.814 0 .766-.13 1.442-.392 2.03a3.125 3.125 0 01-1.134 1.358c-.494.318-1.082.476-1.764.476-1.036 0-1.843-.345-2.422-1.036-.578-.69-.868-1.628-.868-2.814 0-.765.131-1.437.392-2.016.262-.588.64-1.04 1.134-1.358.495-.326 1.088-.49 1.778-.49zm0 1.036c-1.278 0-1.918.943-1.918 2.828 0 1.876.635 2.814 1.904 2.814 1.27 0 1.904-.942 1.904-2.828 0-1.876-.63-2.814-1.89-2.814zM70.573 51h-1.288v-7.378h4.606l-.168 1.064h-3.15V51zm7.131-7.546c1.036 0 1.838.346 2.408 1.036.578.691.868 1.629.868 2.814 0 .766-.131 1.442-.392 2.03a3.126 3.126 0 01-1.134 1.358c-.495.318-1.083.476-1.764.476-1.036 0-1.844-.345-2.422-1.036-.58-.69-.868-1.628-.868-2.814 0-.765.13-1.437.392-2.016.26-.588.639-1.04 1.134-1.358.494-.326 1.087-.49 1.778-.49zm0 1.036c-1.28 0-1.918.943-1.918 2.828 0 1.876.634 2.814 1.904 2.814 1.269 0 1.904-.942 1.904-2.828 0-1.876-.63-2.814-1.89-2.814zM87 46.996c1.25.122 1.875.7 1.875 1.736 0 .775-.284 1.349-.854 1.722-.56.364-1.311.546-2.254.546h-2.66v-7.28a12.15 12.15 0 012.422-.266c.915 0 1.638.173 2.17.518.532.346.798.84.798 1.484 0 .42-.126.761-.378 1.022-.252.262-.625.434-1.12.518zm-1.457-2.548a7.73 7.73 0 00-1.148.084v2.086h1.386c.448 0 .794-.084 1.036-.252.243-.168.364-.452.364-.854 0-.373-.135-.644-.406-.812-.27-.168-.681-.252-1.232-.252zm.224 5.544c.551 0 .98-.093 1.288-.28.308-.186.462-.522.462-1.008 0-.401-.13-.69-.392-.868-.261-.177-.704-.266-1.33-.266h-1.4v2.422h1.372zm7.96-6.538c1.036 0 1.839.346 2.408 1.036.579.691.868 1.629.868 2.814 0 .766-.13 1.442-.392 2.03a3.125 3.125 0 01-1.134 1.358c-.495.318-1.083.476-1.764.476-1.036 0-1.843-.345-2.422-1.036-.579-.69-.868-1.628-.868-2.814 0-.765.13-1.437.392-2.016.261-.588.64-1.04 1.134-1.358.495-.326 1.087-.49 1.778-.49zm0 1.036c-1.279 0-1.918.943-1.918 2.828 0 1.876.635 2.814 1.904 2.814 1.27 0 1.904-.942 1.904-2.828 0-1.876-.63-2.814-1.89-2.814zm8.792-1.036c.942 0 1.633.336 2.072 1.008.438.672.658 1.62.658 2.842 0 1.158-.252 2.091-.756 2.8-.504.71-1.218 1.064-2.142 1.064-.822 0-1.466-.28-1.932-.84v3.5l-1.288.154v-10.36h1.106l.098.994a2.75 2.75 0 01.98-.854 2.51 2.51 0 011.204-.308zm-.476 6.664c1.213 0 1.82-.938 1.82-2.814 0-1.885-.556-2.828-1.666-2.828-.364 0-.696.108-.994.322-.299.215-.56.49-.784.826v3.598c.186.29.42.514.7.672.28.15.588.224.924.224zm8.3.924c-.29.859-.696 1.536-1.218 2.03-.514.504-1.251.808-2.212.91l-.14-1.008c.485-.084.872-.205 1.162-.364.289-.158.518-.364.686-.616.177-.242.34-.574.49-.994h-.434l-2.478-7.378h1.372l1.974 6.44 1.932-6.44h1.33l-2.464 7.42z" fill="#566A7D"/></g><g filter="url(#filter1_d_6_2224)"><path d="M542 335a5 5 0 015-5h97a5 5 0 015 5v47a5 5 0 01-5 5h-97a5 5 0 01-5-5v-47z" fill="#fff"/><path d="M560.774 345.186c.579 0 1.064.075 1.456.224.401.15.807.392 1.218.728l-.728.854c-.588-.476-1.209-.714-1.862-.714-.803 0-1.451.308-1.946.924-.485.616-.728 1.606-.728 2.968 0 1.326.243 2.306.728 2.94.485.626 1.129.938 1.932.938.411 0 .77-.07 1.078-.21a5.65 5.65 0 00.98-.588l.658.84a3.583 3.583 0 01-1.148.77c-.467.206-1.003.308-1.61.308-.784 0-1.484-.191-2.1-.574-.607-.392-1.083-.961-1.428-1.708-.336-.756-.504-1.661-.504-2.716 0-1.054.177-1.955.532-2.702.355-.756.835-1.325 1.442-1.708a3.732 3.732 0 012.03-.574z" fill="#566A7D"/><path d="M569.451 347.622l-.154 1.05h-2.366V355h-1.288v-6.328h-2.436v-1.05h6.244zm5.742 5.656c0 .299.051.523.154.672.102.14.256.248.462.322l-.294.896c-.383-.046-.691-.154-.924-.322-.234-.168-.406-.429-.518-.784-.495.738-1.228 1.106-2.198 1.106-.728 0-1.302-.205-1.722-.616-.42-.41-.63-.947-.63-1.61 0-.784.28-1.386.84-1.806.569-.42 1.372-.63 2.408-.63h1.134v-.546c0-.522-.126-.896-.378-1.12-.252-.224-.64-.336-1.162-.336-.542 0-1.204.131-1.988.392l-.322-.938c.914-.336 1.764-.504 2.548-.504.868 0 1.516.215 1.946.644.429.42.644 1.022.644 1.806v3.374zm-3.024.924c.737 0 1.316-.382 1.736-1.148v-1.694h-.966c-1.363 0-2.044.504-2.044 1.512 0 .439.107.77.322.994.214.224.532.336.952.336zm8.889-6.104c.84 0 1.507.304 2.002.91.504.607.756 1.433.756 2.478 0 1.167-.294 2.072-.882 2.716-.588.644-1.377.966-2.366.966-.99 0-1.783-.35-2.38-1.05-.588-.7-.882-1.759-.882-3.178 0-1.073.079-1.95.238-2.632.168-.69.452-1.255.854-1.694.41-.448.984-.798 1.722-1.05.55-.186.989-.354 1.316-.504.336-.149.676-.34 1.022-.574l.546.966a11.9 11.9 0 01-1.022.574 9.892 9.892 0 01-1.246.49c-.467.159-.836.341-1.106.546-.271.196-.49.486-.658.868-.159.374-.266.887-.322 1.54a2.895 2.895 0 011.008-1.008c.41-.242.877-.364 1.4-.364zm-.49 6.034c.569 0 1.022-.191 1.358-.574.336-.392.504-1.068.504-2.03 0-.849-.14-1.46-.42-1.834-.271-.373-.668-.56-1.19-.56-.43 0-.831.117-1.204.35-.374.224-.682.57-.924 1.036v.896c0 .868.163 1.54.49 2.016.336.467.798.7 1.386.7zm11.117.868h-1.274v-3.332c0-.56.019-1.092.056-1.596.038-.504.07-.835.098-.994L587.471 355h-1.526v-7.378h1.274v3.332c0 .495-.018 1.008-.056 1.54-.037.523-.065.859-.084 1.008l3.052-5.88h1.554V355zm8.059-7.378V355h-1.288v-6.328h-2.282l-.21 2.464c-.084.999-.192 1.746-.322 2.24-.122.495-.318.878-.588 1.148-.262.262-.663.476-1.204.644l-.322-1.022c.317-.112.541-.256.672-.434.13-.177.228-.448.294-.812.065-.364.135-.998.21-1.904l.294-3.374h4.746zm4.93 2.38c1.102 0 1.9.215 2.394.644.495.43.742 1.041.742 1.834 0 .831-.28 1.461-.84 1.89-.55.42-1.236.63-2.058.63h-2.506v-7.378h1.288v2.38h.98zm.126 3.99c.523 0 .924-.116 1.204-.35.29-.233.434-.62.434-1.162 0-.513-.135-.891-.406-1.134-.261-.242-.718-.364-1.372-.364h-.966v3.01h1.106zm9.179 1.008v-3.248h-3.066V355h-1.288v-7.378h1.288v3.094h3.066v-3.094h1.288V355h-1.288zm6.717-7.546c1.036 0 1.838.346 2.408 1.036.578.691.868 1.629.868 2.814 0 .766-.131 1.442-.392 2.03a3.13 3.13 0 01-1.134 1.358c-.495.318-1.083.476-1.764.476-1.036 0-1.844-.345-2.422-1.036-.579-.69-.868-1.628-.868-2.814 0-.765.13-1.437.392-2.016.261-.588.639-1.04 1.134-1.358.494-.326 1.087-.49 1.778-.49zm0 1.036c-1.279 0-1.918.943-1.918 2.828 0 1.876.634 2.814 1.904 2.814 1.269 0 1.904-.942 1.904-2.828 0-1.876-.63-2.814-1.89-2.814zm10.976 2.604c0 .215-.01.434-.028.658h-4.704c.056.812.261 1.41.616 1.792.354.383.812.574 1.372.574.354 0 .681-.051.98-.154.298-.102.611-.266.938-.49l.56.77c-.784.616-1.643.924-2.576.924-1.027 0-1.83-.336-2.408-1.008-.57-.672-.854-1.596-.854-2.772 0-.765.121-1.442.364-2.03.252-.597.606-1.064 1.064-1.4.466-.336 1.012-.504 1.638-.504.98 0 1.731.322 2.254.966.522.644.784 1.536.784 2.674zm-1.274-.378c0-.728-.145-1.283-.434-1.666-.29-.382-.724-.574-1.302-.574-1.055 0-1.629.775-1.722 2.324h3.458v-.084zm-67.538 13.906l-2.24 3.416 2.506 3.962H561.6l-2.044-3.402h-.938V372h-1.288v-7.378h1.288v2.968h.966l1.862-2.968h1.414zm6.495 5.656c0 .299.051.523.154.672.102.14.256.248.462.322l-.294.896c-.383-.046-.691-.154-.924-.322-.234-.168-.406-.429-.518-.784-.495.738-1.228 1.106-2.198 1.106-.728 0-1.302-.205-1.722-.616-.42-.41-.63-.947-.63-1.61 0-.784.28-1.386.84-1.806.569-.42 1.372-.63 2.408-.63h1.134v-.546c0-.522-.126-.896-.378-1.12-.252-.224-.64-.336-1.162-.336-.542 0-1.204.131-1.988.392l-.322-.938c.914-.336 1.764-.504 2.548-.504.868 0 1.516.215 1.946.644.429.42.644 1.022.644 1.806v3.374zm-3.024.924c.737 0 1.316-.382 1.736-1.148v-1.694h-.966c-1.363 0-2.044.504-2.044 1.512 0 .439.107.77.322.994.214.224.532.336.952.336zm10.737-6.58V372h-1.288v-3.08a2.988 2.988 0 01-1.008.602c-.392.14-.798.21-1.218.21-.7 0-1.227-.186-1.582-.56-.355-.382-.532-.924-.532-1.624v-2.926h1.288v2.772c0 .467.093.808.28 1.022.196.206.495.308.896.308.327 0 .667-.074 1.022-.224.364-.149.649-.34.854-.574v-3.304h1.288zm8.229 3.472c0 .215-.01.434-.028.658h-4.704c.056.812.261 1.41.616 1.792.354.383.812.574 1.372.574.354 0 .681-.051.98-.154.298-.102.611-.266.938-.49l.56.77c-.784.616-1.643.924-2.576.924-1.027 0-1.83-.336-2.408-1.008-.57-.672-.854-1.596-.854-2.772 0-.765.121-1.442.364-2.03.252-.597.606-1.064 1.064-1.4.466-.336 1.012-.504 1.638-.504.98 0 1.731.322 2.254.966.522.644.784 1.536.784 2.674zm-1.274-.378c0-.728-.145-1.283-.434-1.666-.29-.382-.724-.574-1.302-.574-1.055 0-1.629.775-1.722 2.324h3.458v-.084zm6.018-3.262c.439 0 .84.066 1.204.196.364.122.714.322 1.05.602l-.616.812a2.945 2.945 0 00-.77-.406 2.25 2.25 0 00-.812-.14c-.597 0-1.064.238-1.4.714-.326.476-.49 1.181-.49 2.114 0 .934.164 1.624.49 2.072.327.439.794.658 1.4.658.29 0 .556-.042.798-.126.243-.093.514-.238.812-.434l.588.84c-.672.542-1.423.812-2.254.812-.998 0-1.787-.336-2.366-1.008-.569-.672-.854-1.6-.854-2.786 0-.784.131-1.47.392-2.058.262-.588.63-1.045 1.106-1.372.486-.326 1.06-.49 1.722-.49zm8.982.168l-.154 1.05h-2.366V372h-1.288v-6.328h-2.436v-1.05h6.244zm5.224 3.374c1.251.122 1.876.7 1.876 1.736 0 .775-.284 1.349-.854 1.722-.56.364-1.311.546-2.254.546h-2.66v-7.28a12.177 12.177 0 012.422-.266c.915 0 1.638.173 2.17.518.532.346.798.84.798 1.484 0 .42-.126.761-.378 1.022-.252.262-.625.434-1.12.518zm-1.456-2.548c-.392 0-.774.028-1.148.084v2.086h1.386c.448 0 .794-.084 1.036-.252.243-.168.364-.452.364-.854 0-.373-.135-.644-.406-.812-.27-.168-.681-.252-1.232-.252zm.224 5.544c.551 0 .98-.093 1.288-.28.308-.186.462-.522.462-1.008 0-.401-.13-.69-.392-.868-.261-.177-.704-.266-1.33-.266h-1.4v2.422h1.372zm7.96-6.538c1.036 0 1.839.346 2.408 1.036.579.691.868 1.629.868 2.814 0 .766-.131 1.442-.392 2.03a3.116 3.116 0 01-1.134 1.358c-.495.318-1.083.476-1.764.476-1.036 0-1.843-.345-2.422-1.036-.579-.69-.868-1.628-.868-2.814 0-.765.131-1.437.392-2.016.261-.588.639-1.04 1.134-1.358.495-.326 1.087-.49 1.778-.49zm0 1.036c-1.279 0-1.918.943-1.918 2.828 0 1.876.635 2.814 1.904 2.814s1.904-.942 1.904-2.828c0-1.876-.63-2.814-1.89-2.814z" fill="#566A7D"/></g><g filter="url(#filter2_d_6_2224)"><path d="M7 325a5 5 0 015-5h115a5 5 0 015 5v67a5 5 0 01-5 5H12a5 5 0 01-5-5v-67z" fill="#fff"/><path d="M30.05 336.354V346h-1.33v-8.512h-3.99V346H23.4v-9.646h6.65zm5.5 2.1c1.035 0 1.838.345 2.407 1.036.579.69.868 1.628.868 2.814 0 .765-.13 1.442-.392 2.03a3.133 3.133 0 01-1.134 1.358c-.494.317-1.082.476-1.764.476-1.036 0-1.843-.346-2.422-1.036-.578-.691-.868-1.629-.868-2.814 0-.766.13-1.438.392-2.016.262-.588.64-1.041 1.134-1.358.495-.327 1.088-.49 1.778-.49zm0 1.036c-1.28 0-1.919.942-1.919 2.828 0 1.876.635 2.814 1.904 2.814 1.27 0 1.904-.943 1.904-2.828 0-1.876-.63-2.814-1.89-2.814zm10.67-.868V346h-1.288v-6.328H42.65l-.21 2.464c-.084.998-.191 1.745-.322 2.24-.121.494-.317.877-.588 1.148-.261.261-.662.476-1.204.644l-.322-1.022c.318-.112.542-.257.672-.434.131-.178.229-.448.294-.812.066-.364.136-.999.21-1.904l.294-3.374h4.746zM53.237 346v-3.248H50.17V346h-1.288v-7.378h1.288v3.094h3.066v-3.094h1.288V346h-1.288zm6.073-4.998c1.1 0 1.899.214 2.394.644.494.429.742 1.04.742 1.834 0 .83-.28 1.46-.84 1.89-.551.42-1.237.63-2.058.63h-2.366v-7.378h1.288v2.38h.84zm4.2-2.38h1.288V346H63.51v-7.378zm-4.074 6.37c.522 0 .924-.117 1.204-.35.289-.234.434-.621.434-1.162 0-.514-.136-.892-.406-1.134-.262-.243-.72-.364-1.372-.364h-.826v3.01h.966zM73.203 346h-1.274v-3.332c0-.56.019-1.092.056-1.596.037-.504.07-.836.098-.994L68.989 346h-1.526v-7.378h1.274v3.332c0 .494-.019 1.008-.056 1.54-.037.522-.066.858-.084 1.008l3.052-5.88h1.554V346zm-2.898-9.002c-.57 0-1.05-.145-1.442-.434a1.702 1.702 0 01-.658-1.204l.854-.182c.093.298.238.513.434.644.205.13.476.196.812.196.336 0 .611-.066.826-.196.215-.14.368-.355.462-.644l.854.182a1.67 1.67 0 01-.686 1.204c-.392.289-.877.434-1.456.434zM83.874 346v-6.328H80.85V346h-1.288v-7.378h5.6V346h-1.288zm8.916-1.722c0 .298.052.522.154.672.103.14.257.247.462.322l-.294.896c-.382-.047-.69-.154-.924-.322-.233-.168-.406-.43-.518-.784-.494.737-1.227 1.106-2.198 1.106-.728 0-1.302-.206-1.722-.616-.42-.411-.63-.948-.63-1.61 0-.784.28-1.386.84-1.806.57-.42 1.372-.63 2.408-.63h1.134v-.546c0-.523-.126-.896-.378-1.12-.252-.224-.64-.336-1.162-.336-.541 0-1.204.13-1.988.392l-.322-.938c.915-.336 1.764-.504 2.548-.504.868 0 1.517.214 1.946.644.43.42.644 1.022.644 1.806v3.374zm-3.024.924c.738 0 1.316-.383 1.736-1.148v-1.694h-.966c-1.362 0-2.044.504-2.044 1.512 0 .438.108.77.322.994.215.224.532.336.952.336zm11.199-6.58l-2.24 3.416 2.506 3.962h-1.525l-2.044-3.402h-.939V346h-1.287v-7.378h1.287v2.968h.966l1.863-2.968h1.413zm7.179 3.472c0 .214-.009.434-.028.658h-4.704c.056.812.262 1.409.616 1.792.355.382.812.574 1.372.574.355 0 .682-.052.98-.154.299-.103.612-.266.938-.49l.56.77c-.784.616-1.642.924-2.576.924-1.026 0-1.829-.336-2.408-1.008-.569-.672-.854-1.596-.854-2.772 0-.766.122-1.442.364-2.03.252-.598.607-1.064 1.064-1.4.467-.336 1.013-.504 1.638-.504.98 0 1.732.322 2.254.966.523.644.784 1.535.784 2.674zm-1.274-.378c0-.728-.144-1.284-.434-1.666-.289-.383-.723-.574-1.302-.574-1.054 0-1.628.774-1.722 2.324h3.458v-.084zm7.96-3.094l-.154 1.05h-2.366V346h-1.288v-6.328h-2.436v-1.05h6.244zm-89.68 16.832c.467 0 .9.079 1.302.238.41.149.737.373.98.672.252.298.378.658.378 1.078 0 .41-.121.746-.364 1.008-.233.261-.607.462-1.12.602.616.102 1.083.294 1.4.574.317.28.476.681.476 1.204 0 .765-.299 1.348-.896 1.75-.588.392-1.34.588-2.254.588-1.11 0-2.058-.308-2.842-.924l.672-.798c.327.233.653.406.98.518.336.112.719.168 1.148.168 1.204 0 1.806-.439 1.806-1.316 0-.43-.173-.728-.518-.896-.336-.178-.807-.266-1.414-.266h-.98l.084-1.008h.756c.523 0 .943-.094 1.26-.28.317-.187.476-.476.476-.868 0-.364-.135-.626-.406-.784-.27-.168-.625-.252-1.064-.252-.383 0-.723.051-1.022.154-.29.093-.583.242-.882.448l-.616-.77c.373-.28.775-.49 1.204-.63.43-.14.915-.21 1.456-.21zm10.013 5.824c0 .298.052.522.154.672a.96.96 0 00.462.322l-.294.896c-.382-.047-.69-.154-.924-.322-.233-.168-.406-.43-.518-.784-.494.737-1.227 1.106-2.198 1.106-.728 0-1.302-.206-1.722-.616-.42-.411-.63-.948-.63-1.61 0-.784.28-1.386.84-1.806.57-.42 1.372-.63 2.408-.63h1.134v-.546c0-.523-.126-.896-.378-1.12-.252-.224-.64-.336-1.162-.336-.541 0-1.204.13-1.988.392l-.322-.938c.915-.336 1.764-.504 2.548-.504.868 0 1.517.214 1.946.644.43.42.644 1.022.644 1.806v3.374zm-3.024.924c.738 0 1.316-.383 1.736-1.148v-1.694h-.966c-1.362 0-2.044.504-2.044 1.512 0 .438.108.77.322.994.215.224.532.336.952.336zm11.2-6.58l-2.24 3.416L43.605 363h-1.526l-2.044-3.402h-.938V363h-1.288v-7.378h1.288v2.968h.965l1.863-2.968h1.414zm5.117-.168c.943 0 1.634.336 2.072 1.008.439.672.658 1.619.658 2.842 0 1.157-.252 2.09-.756 2.8-.504.709-1.218 1.064-2.142 1.064-.821 0-1.465-.28-1.932-.84v3.5l-1.288.154v-10.36h1.106l.098.994c.27-.374.598-.658.98-.854a2.504 2.504 0 011.204-.308zm-.476 6.664c1.214 0 1.82-.938 1.82-2.814 0-1.886-.555-2.828-1.666-2.828-.364 0-.695.107-.994.322-.298.214-.56.49-.784.826v3.598c.187.289.42.513.7.672.28.149.588.224.924.224zm7.529-4.116c1.101 0 1.9.214 2.394.644.494.429.742 1.04.742 1.834 0 .83-.28 1.46-.84 1.89-.55.42-1.237.63-2.058.63H53.38v-7.378h1.288v2.38h.84zm4.2-2.38h1.288V363h-1.288v-7.378zm-4.074 6.37c.522 0 .924-.117 1.204-.35.29-.234.434-.621.434-1.162 0-.514-.136-.892-.406-1.134-.262-.243-.719-.364-1.372-.364h-.826v3.01h.966zm11.919-2.996c1.25.121 1.876.7 1.876 1.736 0 .774-.285 1.348-.854 1.722-.56.364-1.311.546-2.254.546h-2.66v-7.28a12.098 12.098 0 012.422-.266c.915 0 1.638.172 2.17.518.532.345.798.84.798 1.484 0 .42-.126.76-.378 1.022-.252.261-.625.434-1.12.518zm-1.456-2.548a7.73 7.73 0 00-1.148.084v2.086h1.386c.448 0 .793-.084 1.036-.252.243-.168.364-.453.364-.854 0-.374-.135-.644-.406-.812-.27-.168-.681-.252-1.232-.252zm.224 5.544c.55 0 .98-.094 1.288-.28.308-.187.462-.523.462-1.008 0-.402-.13-.691-.392-.868-.261-.178-.705-.266-1.33-.266h-1.4v2.422h1.372zm10.076-.714c0 .298.051.522.154.672a.96.96 0 00.462.322l-.294.896c-.383-.047-.691-.154-.924-.322-.234-.168-.406-.43-.518-.784-.495.737-1.228 1.106-2.198 1.106-.728 0-1.302-.206-1.722-.616-.42-.411-.63-.948-.63-1.61 0-.784.28-1.386.84-1.806.569-.42 1.372-.63 2.408-.63h1.134v-.546c0-.523-.126-.896-.378-1.12-.252-.224-.64-.336-1.162-.336-.542 0-1.204.13-1.988.392l-.322-.938c.914-.336 1.764-.504 2.548-.504.868 0 1.516.214 1.946.644.429.42.644 1.022.644 1.806v3.374zm-3.024.924c.737 0 1.316-.383 1.736-1.148v-1.694h-.966c-1.363 0-2.044.504-2.044 1.512 0 .438.107.77.322.994.214.224.532.336.952.336zm11.366-6.748c.645 0 1.205.158 1.68.476.477.317.84.765 1.093 1.344.261.578.392 1.255.392 2.03 0 .728-.126 1.386-.378 1.974a3.168 3.168 0 01-1.092 1.386c-.476.336-1.045.504-1.708.504-.896 0-1.615-.313-2.156-.938-.541-.635-.85-1.461-.924-2.478H80.33V363h-1.288v-7.378h1.288v3.094h1.33c.103-.962.425-1.746.966-2.352.55-.607 1.255-.91 2.114-.91zm-.013 6.678c.635 0 1.092-.238 1.372-.714s.42-1.181.42-2.114c0-.896-.154-1.587-.462-2.072-.308-.486-.747-.728-1.316-.728-1.185 0-1.778.938-1.778 2.814 0 .896.15 1.591.448 2.086.299.485.737.728 1.316.728zm13.793-.168h1.12v3.136h-1.05l-.21-2.1h-8.345v-7.378h1.26v6.342h2.366v-6.342h1.232v6.342h2.366v-6.342h1.26v6.342zm8.398 1.036h-1.274v-3.332c0-.56.018-1.092.056-1.596.037-.504.07-.836.098-.994L102.704 363h-1.526v-7.378h1.274v3.332c0 .494-.019 1.008-.056 1.54-.038.522-.066.858-.084 1.008l3.052-5.88h1.554V363zm5.482-3.948l2.562 3.948h-1.554l-1.806-3.122-1.834 3.122h-1.456l2.576-3.892-2.282-3.486h1.512l1.54 2.702 1.554-2.702h1.456l-2.268 3.43zm-83.148 19.912v3.136h-1.05l-.21-2.1H23.26l-.21 2.1H22v-3.136h.518a2 2 0 00.532-.504c.13-.196.247-.532.35-1.008.112-.476.2-1.172.266-2.086l.196-2.744h4.62v6.342h.77zm-2.058-5.32h-2.17l-.112 1.554c-.065.868-.14 1.535-.224 2.002-.084.466-.205.826-.364 1.078-.15.252-.369.48-.658.686h3.528v-5.32zm6.687-1.19c1.036 0 1.839.345 2.408 1.036.579.69.868 1.628.868 2.814 0 .765-.13 1.442-.392 2.03a3.131 3.131 0 01-1.134 1.358c-.494.317-1.082.476-1.764.476-1.036 0-1.843-.346-2.422-1.036-.578-.691-.868-1.629-.868-2.814 0-.766.131-1.438.392-2.016.262-.588.64-1.041 1.134-1.358.495-.327 1.088-.49 1.778-.49zm0 1.036c-1.278 0-1.918.942-1.918 2.828 0 1.876.635 2.814 1.904 2.814 1.27 0 1.904-.943 1.904-2.828 0-1.876-.63-2.814-1.89-2.814zm10.934-.868l-2.24 3.416L45.081 380h-1.526l-2.044-3.402h-.938V380h-1.288v-7.378h1.288v2.968h.966l1.862-2.968h1.414zm4.684 7.42c-.29.858-.696 1.535-1.218 2.03-.514.504-1.25.807-2.212.91l-.14-1.008c.485-.084.872-.206 1.162-.364.29-.159.518-.364.686-.616.177-.243.34-.574.49-.994h-.434l-2.478-7.378h1.372l1.974 6.44 1.932-6.44h1.33l-2.464 7.42zM60.605 380h-1.26l-.336-3.486a15.01 15.01 0 01-.07-1.204 69.03 69.03 0 01-.014-1.442l-1.68 5.32h-1.218l-1.568-5.306c0 1.232-.019 2.104-.056 2.618l-.266 3.5H52.89l.658-7.378h1.666l1.442 5.278 1.582-5.278h1.694l.672 7.378zm7.74-3.906c0 .214-.009.434-.028.658h-4.704c.056.812.262 1.409.616 1.792.355.382.812.574 1.372.574.355 0 .682-.052.98-.154.299-.103.612-.266.938-.49l.56.77c-.784.616-1.642.924-2.576.924-1.026 0-1.829-.336-2.408-1.008-.569-.672-.854-1.596-.854-2.772 0-.766.122-1.442.364-2.03.252-.598.607-1.064 1.064-1.4.467-.336 1.013-.504 1.638-.504.98 0 1.732.322 2.254.966.523.644.784 1.535.784 2.674zm-1.274-.378c0-.728-.144-1.284-.434-1.666-.289-.383-.723-.574-1.302-.574-1.054 0-1.628.774-1.722 2.324h3.458v-.084zM74.756 380v-3.248H71.69V380h-1.288v-7.378h1.288v3.094h3.066v-3.094h1.288V380h-1.288zm8.929-7.378l-.154 1.05h-2.366V380h-1.288v-6.328h-2.436v-1.05h6.244zm3.749-.168c1.036 0 1.839.345 2.408 1.036.579.69.868 1.628.868 2.814 0 .765-.13 1.442-.392 2.03a3.131 3.131 0 01-1.134 1.358c-.495.317-1.083.476-1.764.476-1.036 0-1.843-.346-2.422-1.036-.579-.691-.868-1.629-.868-2.814 0-.766.13-1.438.392-2.016.261-.588.64-1.041 1.134-1.358.495-.327 1.087-.49 1.778-.49zm0 1.036c-1.279 0-1.918.942-1.918 2.828 0 1.876.635 2.814 1.904 2.814 1.27 0 1.904-.943 1.904-2.828 0-1.876-.63-2.814-1.89-2.814zm9.296 2.506c1.25.121 1.876.7 1.876 1.736 0 .774-.285 1.348-.854 1.722-.56.364-1.311.546-2.254.546h-2.66v-7.28a12.098 12.098 0 012.422-.266c.914 0 1.638.172 2.17.518.532.345.798.84.798 1.484 0 .42-.126.76-.378 1.022-.252.261-.625.434-1.12.518zm-1.456-2.548a7.73 7.73 0 00-1.148.084v2.086h1.386c.448 0 .793-.084 1.036-.252.242-.168.364-.453.364-.854 0-.374-.136-.644-.406-.812-.27-.168-.681-.252-1.232-.252zm.224 5.544c.55 0 .98-.094 1.288-.28.308-.187.462-.523.462-1.008 0-.402-.13-.691-.392-.868-.261-.178-.705-.266-1.33-.266h-1.4v2.422h1.372z" fill="#566A7D"/></g><g filter="url(#filter3_d_6_2224)"><path d="M513 8a5 5 0 015-5h107a5 5 0 015 5v66a5 5 0 01-5 5H518a5 5 0 01-5-5V8z" fill="#fff"/><path d="M534.84 19.354l-2.674 4.521 2.94 5.125h-1.54l-2.52-4.523h-1.316V29h-1.33v-9.646h1.33v4.032h1.33l2.38-4.032h1.4zm4.315 2.099c1.036 0 1.838.346 2.408 1.037.578.69.868 1.628.868 2.814 0 .765-.131 1.442-.392 2.03a3.135 3.135 0 01-1.134 1.358c-.495.317-1.083.476-1.764.476-1.036 0-1.844-.346-2.422-1.037-.579-.69-.868-1.628-.868-2.814 0-.765.13-1.437.392-2.015.261-.588.639-1.041 1.134-1.358.494-.327 1.087-.49 1.778-.49zm0 1.037c-1.279 0-1.918.942-1.918 2.828 0 1.875.634 2.813 1.904 2.813 1.269 0 1.904-.942 1.904-2.828 0-1.876-.63-2.814-1.89-2.814zM551.783 29h-1.26l-.336-3.486a14.542 14.542 0 01-.07-1.204c-.01-.448-.014-.93-.014-1.442l-1.68 5.32h-1.218l-1.568-5.306c0 1.231-.019 2.104-.056 2.617l-.266 3.5h-1.246l.658-7.377h1.666l1.442 5.277 1.582-5.277h1.694l.672 7.378zm6.48 0v-6.328h-3.024V29h-1.288v-7.378h5.6V29h-1.288zm9.35-7.378V29h-1.288v-6.328h-2.282l-.21 2.463c-.084 1-.191 1.746-.322 2.24-.121.495-.317.878-.588 1.148-.261.262-.663.477-1.204.645l-.322-1.023c.317-.111.541-.256.672-.433.131-.178.229-.448.294-.813.065-.364.135-.998.21-1.904l.294-3.373h4.746zm8.234 3.471c0 .215-.009.434-.028.659h-4.704c.056.812.262 1.409.616 1.792.355.382.812.573 1.372.573.355 0 .682-.05.98-.154.299-.102.612-.265.938-.49l.56.77c-.784.617-1.642.925-2.576.925-1.026 0-1.829-.337-2.408-1.008-.569-.672-.854-1.596-.854-2.773 0-.765.122-1.442.364-2.03.252-.597.607-1.063 1.064-1.4.467-.335 1.013-.504 1.638-.504.98 0 1.732.323 2.254.966.523.645.784 1.536.784 2.674zm-1.274-.378c0-.727-.144-1.283-.434-1.666-.289-.382-.723-.573-1.302-.573-1.054 0-1.628.774-1.722 2.323h3.458v-.084zm8.861-3.093l-2.24 3.416L583.7 29h-1.526l-2.044-3.402h-.938V29h-1.288v-7.378h1.288v2.968h.966l1.862-2.968h1.414zm4.295-.169c.439 0 .84.066 1.204.197.364.12.714.322 1.05.602l-.616.812a2.925 2.925 0 00-.77-.407 2.247 2.247 0 00-.812-.14c-.597 0-1.064.239-1.4.715-.327.476-.49 1.18-.49 2.114 0 .933.163 1.623.49 2.072.327.438.793.658 1.4.658.289 0 .555-.043.798-.127a4.37 4.37 0 00.812-.434l.588.84c-.672.542-1.423.813-2.254.813-.999 0-1.787-.337-2.366-1.008-.569-.672-.854-1.601-.854-2.787 0-.784.131-1.47.392-2.058.261-.588.63-1.045 1.106-1.372.485-.326 1.059-.49 1.722-.49zM596.08 29v-3.248h-3.066V29h-1.288v-7.378h1.288v3.093h3.066v-3.093h1.288V29h-1.288zm6.717-7.547c1.036 0 1.839.346 2.408 1.037.579.69.868 1.628.868 2.814 0 .765-.13 1.442-.392 2.03a3.122 3.122 0 01-1.134 1.358c-.494.317-1.082.476-1.764.476-1.036 0-1.843-.346-2.422-1.037-.578-.69-.868-1.628-.868-2.814 0-.765.131-1.437.392-2.015.262-.588.64-1.041 1.134-1.358.495-.327 1.088-.49 1.778-.49zm0 1.037c-1.278 0-1.918.942-1.918 2.828 0 1.875.635 2.813 1.904 2.813 1.27 0 1.904-.942 1.904-2.828 0-1.876-.63-2.814-1.89-2.814zm10.976 2.603c0 .215-.009.434-.028.659h-4.704c.056.812.261 1.409.616 1.792.355.382.812.573 1.372.573.355 0 .681-.05.98-.154.299-.102.611-.265.938-.49l.56.77c-.784.617-1.643.925-2.576.925-1.027 0-1.829-.337-2.408-1.008-.569-.672-.854-1.596-.854-2.773 0-.765.121-1.442.364-2.03.252-.597.607-1.063 1.064-1.4.467-.335 1.013-.504 1.638-.504.98 0 1.731.323 2.254.966.523.645.784 1.536.784 2.674zm-1.274-.378c0-.727-.145-1.283-.434-1.666-.289-.382-.723-.573-1.302-.573-1.055 0-1.629.774-1.722 2.323h3.458v-.084zm-80.781 13.738c.943 0 1.633.336 2.072 1.008.439.672.658 1.62.658 2.843 0 1.157-.252 2.09-.756 2.8-.504.709-1.218 1.063-2.142 1.063-.821 0-1.465-.28-1.932-.84v3.5l-1.288.154v-10.36h1.106l.098.994c.271-.373.597-.657.98-.854a2.513 2.513 0 011.204-.308zm-.476 6.664c1.213 0 1.82-.938 1.82-2.813 0-1.886-.555-2.829-1.666-2.829a1.67 1.67 0 00-.994.322c-.299.215-.56.49-.784.827v3.597c.187.29.42.514.7.673.28.149.588.224.924.224zm10.973-3.024c0 .215-.01.434-.028.658h-4.704c.056.813.261 1.41.616 1.793.354.382.812.574 1.372.574a3 3 0 00.98-.154c.298-.103.611-.267.938-.49l.56.77c-.784.615-1.643.923-2.576.923-1.027 0-1.83-.336-2.408-1.008-.57-.672-.854-1.596-.854-2.771 0-.766.121-1.442.364-2.03.252-.598.606-1.064 1.064-1.4.466-.337 1.012-.505 1.638-.505.98 0 1.731.322 2.254.966.522.645.784 1.536.784 2.675zm-1.274-.378c0-.728-.145-1.283-.434-1.666-.29-.382-.724-.574-1.302-.574-1.055 0-1.629.775-1.722 2.325h3.458v-.084zm11.814-3.094V46h-8.484v-7.378h1.26v6.343h2.366V38.62h1.232v6.343h2.366V38.62h1.26zm8.231 3.472c0 .215-.009.434-.028.658h-4.704c.056.813.261 1.41.616 1.793.355.382.812.574 1.372.574.355 0 .681-.052.98-.154.299-.103.611-.267.938-.49l.56.77c-.784.615-1.643.923-2.576.923-1.027 0-1.829-.336-2.408-1.008-.569-.672-.854-1.596-.854-2.771 0-.766.121-1.442.364-2.03.252-.598.607-1.064 1.064-1.4.467-.337 1.013-.505 1.638-.505.98 0 1.731.322 2.254.966.523.645.784 1.536.784 2.675zm-1.274-.378c0-.728-.145-1.283-.434-1.666-.289-.382-.723-.574-1.302-.574-1.055 0-1.629.775-1.722 2.325h3.458v-.084zM567.397 46v-3.248h-3.066v3.247h-1.288v-7.378h1.288v3.094h3.066v-3.094h1.288V46h-1.288zm9.685 0h-1.274v-3.333a21.278 21.278 0 01.154-2.59L572.868 46h-1.526v-7.378h1.274v3.332a28.066 28.066 0 01-.14 2.548l3.052-5.88h1.554V46zm8.226-3.907c0 .215-.009.434-.028.658h-4.704c.056.813.262 1.41.616 1.793.355.382.812.574 1.372.574.355 0 .682-.052.98-.154.299-.103.612-.267.938-.49l.56.77c-.784.615-1.642.923-2.576.923-1.026 0-1.829-.336-2.408-1.008-.569-.672-.854-1.596-.854-2.771 0-.766.122-1.442.364-2.03.252-.598.607-1.064 1.064-1.4.467-.337 1.013-.505 1.638-.505.98 0 1.732.322 2.254.966.523.645.784 1.536.784 2.675zm-1.274-.378c0-.728-.144-1.283-.434-1.666-.289-.382-.723-.574-1.302-.574-1.054 0-1.628.775-1.722 2.325h3.458v-.084zM595.382 46v-6.328h-3.024V46h-1.288v-7.38h5.6V46h-1.288zm6.718-7.547c1.036 0 1.839.346 2.408 1.036.579.691.868 1.63.868 2.815 0 .765-.131 1.441-.392 2.03a3.122 3.122 0 01-1.134 1.357c-.495.318-1.083.476-1.764.476-1.036 0-1.843-.345-2.422-1.035-.579-.691-.868-1.63-.868-2.814 0-.766.131-1.438.392-2.017.261-.587.639-1.04 1.134-1.358.495-.326 1.087-.49 1.778-.49zm0 1.036c-1.279 0-1.918.943-1.918 2.829 0 1.876.635 2.814 1.904 2.814s1.904-.943 1.904-2.828c0-1.877-.63-2.815-1.89-2.815zm11.189 5.475V48.1h-1.05l-.21-2.1h-4.732l-.21 2.1h-1.05v-3.136h.518c.224-.15.401-.318.532-.505.131-.196.247-.532.35-1.008.112-.476.201-1.17.266-2.086l.196-2.744h4.62v6.343h.77zm-2.058-5.32h-2.17l-.112 1.553c-.065.868-.14 1.536-.224 2.002-.084.467-.205.827-.364 1.079-.149.252-.369.48-.658.686h3.528v-5.32zm-79.009 19.351c1.251.122 1.876.7 1.876 1.736 0 .775-.285 1.35-.854 1.722-.56.364-1.311.546-2.254.546h-2.66v-7.28a12.147 12.147 0 012.422-.266c.915 0 1.638.173 2.17.518.532.346.798.84.798 1.485 0 .42-.126.76-.378 1.021-.252.262-.625.434-1.12.519zm-1.456-2.547c-.392 0-.775.027-1.148.084v2.086h1.386c.448 0 .793-.085 1.036-.253.243-.168.364-.452.364-.854 0-.373-.135-.644-.406-.812-.271-.167-.681-.252-1.232-.252zm.224 5.544c.551 0 .98-.094 1.288-.28.308-.187.462-.523.462-1.009 0-.4-.131-.69-.392-.867-.261-.178-.705-.267-1.33-.267h-1.4v2.422h1.372zm10.076-.714c0 .298.051.522.154.672.102.14.256.247.462.322l-.294.895c-.383-.046-.691-.154-.924-.322-.234-.167-.406-.429-.518-.783-.495.737-1.228 1.105-2.198 1.105-.728 0-1.302-.205-1.722-.616-.42-.41-.63-.947-.63-1.61 0-.784.28-1.386.84-1.806.569-.42 1.372-.63 2.408-.63h1.134v-.546c0-.522-.126-.896-.378-1.12-.252-.224-.64-.335-1.162-.335-.542 0-1.204.13-1.988.392l-.322-.938c.914-.337 1.764-.505 2.548-.505.868 0 1.516.215 1.946.644.429.42.644 1.023.644 1.806v3.375zm-3.024.924c.737 0 1.316-.383 1.736-1.148v-1.695h-.966c-1.363 0-2.044.505-2.044 1.512 0 .44.107.77.322.994.214.224.532.337.952.337zm14.153-6.581V63h-8.484v-7.378h1.26v6.343h2.366V55.62h1.232v6.343h2.366V55.62h1.26zM560.593 63h-1.274v-3.333c0-.56.019-1.092.056-1.596.038-.503.07-.835.098-.993l-3.094 5.921h-1.526v-7.378h1.274v3.332c0 .495-.018 1.008-.056 1.54-.037.523-.065.86-.084 1.008l3.052-5.88h1.554V63zm8.18-7.547c.467 0 .901.08 1.302.238.411.15.737.374.98.672.252.3.378.659.378 1.078 0 .411-.121.747-.364 1.008-.233.262-.607.462-1.12.602.616.103 1.083.294 1.4.575.317.28.476.68.476 1.204 0 .765-.299 1.348-.896 1.75-.588.392-1.339.587-2.254.587-1.111 0-2.058-.308-2.842-.924l.672-.797c.327.233.653.406.98.518.336.111.719.168 1.148.168 1.204 0 1.806-.44 1.806-1.316 0-.43-.173-.729-.518-.897-.336-.177-.807-.265-1.414-.265h-.98l.084-1.009h.756c.523 0 .943-.093 1.26-.28.317-.186.476-.476.476-.867 0-.364-.135-.626-.406-.784-.271-.169-.625-.252-1.064-.252-.383 0-.723.05-1.022.153a3.436 3.436 0 00-.882.448l-.616-.77c.373-.28.775-.49 1.204-.63.429-.14.915-.21 1.456-.21zm10.013 5.825c0 .298.052.522.154.672.103.14.257.247.462.322l-.294.895c-.382-.046-.69-.154-.924-.322-.233-.167-.406-.429-.518-.783-.494.737-1.227 1.105-2.198 1.105-.728 0-1.302-.205-1.722-.616-.42-.41-.63-.947-.63-1.61 0-.784.28-1.386.84-1.806.57-.42 1.372-.63 2.408-.63h1.134v-.546c0-.522-.126-.896-.378-1.12-.252-.224-.639-.335-1.162-.335-.541 0-1.204.13-1.988.392l-.322-.938c.915-.337 1.764-.505 2.548-.505.868 0 1.517.215 1.946.644.43.42.644 1.023.644 1.806v3.375zm-3.024.924c.738 0 1.316-.383 1.736-1.148v-1.695h-.966c-1.362 0-2.044.505-2.044 1.512 0 .44.108.77.322.994.215.224.532.337.952.337zm11.592-.238V65.1h-1.05l-.21-2.1h-4.732l-.21 2.1h-1.05v-3.136h.518c.224-.15.401-.318.532-.505.13-.196.247-.532.35-1.008.112-.476.2-1.17.266-2.086l.196-2.744h4.62v6.343h.77zm-2.058-5.32h-2.17l-.112 1.553c-.066.868-.14 1.536-.224 2.002-.084.467-.206.827-.364 1.079a2.29 2.29 0 01-.658.686h3.528v-5.32zm8.912 4.634c0 .298.052.522.154.672.103.14.257.247.462.322l-.294.895c-.382-.046-.69-.154-.924-.322-.233-.167-.406-.429-.518-.783-.494.737-1.227 1.105-2.198 1.105-.728 0-1.302-.205-1.722-.616-.42-.41-.63-.947-.63-1.61 0-.784.28-1.386.84-1.806.57-.42 1.372-.63 2.408-.63h1.134v-.546c0-.522-.126-.896-.378-1.12-.252-.224-.639-.335-1.162-.335-.541 0-1.204.13-1.988.392l-.322-.938c.915-.337 1.764-.505 2.548-.505.868 0 1.517.215 1.946.644.43.42.644 1.023.644 1.806v3.375zm-3.024.924c.738 0 1.316-.383 1.736-1.148v-1.695h-.966c-1.362 0-2.044.505-2.044 1.512 0 .44.108.77.322.994.215.224.532.337.952.337zm10.737-6.581V63h-1.288v-3.08a2.97 2.97 0 01-1.008.603c-.392.14-.798.21-1.218.21-.7 0-1.227-.187-1.582-.56-.354-.383-.532-.924-.532-1.624V55.62h1.288v2.773c0 .466.094.807.28 1.022.196.205.495.308.896.308.327 0 .668-.075 1.022-.224.364-.15.649-.341.854-.575v-3.303h1.288zM610.318 63h-1.274v-3.333c0-.56.019-1.092.056-1.596.037-.503.07-.835.098-.993l-3.094 5.921h-1.526v-7.378h1.274v3.332c0 .495-.019 1.008-.056 1.54-.037.523-.065.86-.084 1.008l3.052-5.88h1.554V63z" fill="#566A7D"/></g><g filter="url(#filter4_d_6_2224)"><path d="M237 365a5 5 0 015-5h158a5 5 0 015 5v85a5 5 0 01-5 5H242a5 5 0 01-5-5v-85z" fill="#fff"/><path d="M257.79 387v-4.522h-4.06V387h-1.33v-9.646h1.33v4.032h4.06v-4.032h1.33V387h-1.33zm9.026-1.722c0 .299.051.523.154.672.102.14.256.247.462.322l-.294.896c-.383-.047-.691-.154-.924-.322-.234-.168-.406-.429-.518-.784-.495.737-1.228 1.106-2.198 1.106-.728 0-1.302-.205-1.722-.616-.42-.411-.63-.947-.63-1.61 0-.784.28-1.386.84-1.806.569-.42 1.372-.63 2.408-.63h1.134v-.546c0-.523-.126-.896-.378-1.12-.252-.224-.64-.336-1.162-.336-.542 0-1.204.131-1.988.392l-.322-.938c.914-.336 1.764-.504 2.548-.504.868 0 1.516.215 1.946.644.429.42.644 1.022.644 1.806v3.374zm-3.024.924c.737 0 1.316-.383 1.736-1.148v-1.694h-.966c-1.363 0-2.044.504-2.044 1.512 0 .439.107.77.322.994.214.224.532.336.952.336zm11.073-6.58V387h-1.288v-6.328h-2.282l-.21 2.464c-.084.999-.191 1.745-.322 2.24-.121.495-.317.877-.588 1.148-.261.261-.663.476-1.204.644l-.322-1.022c.317-.112.541-.257.672-.434s.229-.448.294-.812c.065-.364.135-.999.21-1.904l.294-3.374h4.746zm8.402 7.378h-1.274v-3.332c0-.56.019-1.092.056-1.596.038-.504.07-.835.098-.994L279.053 387h-1.526v-7.378h1.274v3.332c0 .495-.018 1.008-.056 1.54-.037.523-.065.859-.084 1.008l3.052-5.88h1.554V387zm7.723-7.378V387h-1.288v-3.08a2.988 2.988 0 01-1.008.602c-.392.14-.798.21-1.218.21-.7 0-1.228-.187-1.582-.56-.355-.383-.532-.924-.532-1.624v-2.926h1.288v2.772c0 .467.093.807.28 1.022.196.205.494.308.896.308a2.64 2.64 0 001.022-.224c.364-.149.648-.341.854-.574v-3.304h1.288zm8.228 3.472c0 .215-.009.434-.028.658h-4.704c.056.812.262 1.409.616 1.792.355.383.812.574 1.372.574.355 0 .682-.051.98-.154.299-.103.612-.266.938-.49l.56.77c-.784.616-1.642.924-2.576.924-1.026 0-1.829-.336-2.408-1.008-.569-.672-.854-1.596-.854-2.772 0-.765.122-1.442.364-2.03.252-.597.607-1.064 1.064-1.4.467-.336 1.013-.504 1.638-.504.98 0 1.732.322 2.254.966.523.644.784 1.535.784 2.674zm-1.274-.378c0-.728-.144-1.283-.434-1.666-.289-.383-.723-.574-1.302-.574-1.054 0-1.628.775-1.722 2.324h3.458v-.084zm9.724-3.262c.439 0 .84.065 1.204.196a3.24 3.24 0 011.05.602l-.616.812a2.916 2.916 0 00-.77-.406 2.25 2.25 0 00-.812-.14c-.597 0-1.064.238-1.4.714-.326.476-.49 1.181-.49 2.114 0 .933.164 1.624.49 2.072.327.439.794.658 1.4.658.29 0 .556-.042.798-.126.243-.093.514-.238.812-.434l.588.84c-.672.541-1.423.812-2.254.812-.998 0-1.787-.336-2.366-1.008-.569-.672-.854-1.601-.854-2.786 0-.784.131-1.47.392-2.058.262-.588.63-1.045 1.106-1.372.486-.327 1.06-.49 1.722-.49zm9.297 3.64c0 .215-.01.434-.028.658h-4.705c.056.812.262 1.409.616 1.792.355.383.813.574 1.373.574.354 0 .681-.051.98-.154.298-.103.611-.266.938-.49l.56.77c-.784.616-1.643.924-2.576.924-1.027 0-1.83-.336-2.408-1.008-.57-.672-.854-1.596-.854-2.772 0-.765.121-1.442.363-2.03.252-.597.607-1.064 1.065-1.4.466-.336 1.012-.504 1.637-.504.98 0 1.732.322 2.255.966.522.644.784 1.535.784 2.674zm-1.275-.378c0-.728-.144-1.283-.433-1.666-.29-.383-.724-.574-1.302-.574-1.055 0-1.629.775-1.723 2.324h3.458v-.084zm6.719-3.262c.943 0 1.634.336 2.072 1.008.439.672.658 1.619.658 2.842 0 1.157-.252 2.091-.756 2.8-.504.709-1.218 1.064-2.142 1.064-.821 0-1.465-.28-1.932-.84v3.5l-1.288.154v-10.36h1.106l.098.994c.271-.373.598-.658.98-.854a2.517 2.517 0 011.204-.308zm-.476 6.664c1.214 0 1.82-.938 1.82-2.814 0-1.885-.555-2.828-1.666-2.828-.364 0-.695.107-.994.322a3.18 3.18 0 00-.784.826v3.598c.187.289.42.513.7.672.28.149.588.224.924.224zm10.029-6.496l-.154 1.05h-2.366V387h-1.288v-6.328h-2.436v-1.05h6.244zm7.073 7.378h-1.274v-3.332c0-.56.019-1.092.056-1.596.037-.504.07-.835.098-.994L334.821 387h-1.526v-7.378h1.274v3.332c0 .495-.019 1.008-.056 1.54-.037.523-.065.859-.084 1.008l3.052-5.88h1.554V387zm9.374-7.546c.896 0 1.536.331 1.918.994.392.663.588 1.615.588 2.856 0 1.176-.224 2.114-.672 2.814-.448.7-1.068 1.05-1.862 1.05-.7 0-1.264-.313-1.694-.938v3.598l-1.232.154v-3.752a2.161 2.161 0 01-.784.7 2.248 2.248 0 01-1.022.238c-.746 0-1.339-.35-1.778-1.05-.429-.7-.644-1.638-.644-2.814 0-1.232.187-2.179.56-2.842.383-.672 1.008-1.008 1.876-1.008.756 0 1.354.271 1.792.812V376.5l1.232.154v3.64c.43-.56 1.004-.84 1.722-.84zm-4.466 6.692c.299 0 .574-.079.826-.238.262-.168.49-.397.686-.686v-3.906c-.42-.56-.928-.84-1.526-.84-.429 0-.756.238-.98.714-.224.467-.336 1.171-.336 2.114 0 .943.117 1.652.35 2.128.234.476.56.714.98.714zm4.2 0c.439 0 .78-.238 1.022-.714.243-.476.364-1.185.364-2.128 0-1.885-.462-2.828-1.386-2.828-.588 0-1.073.289-1.456.868v3.892c.196.299.411.527.644.686.234.149.504.224.812.224zm10.716.854h-1.274v-3.332c0-.56.019-1.092.056-1.596.037-.504.07-.835.098-.994L354.645 387h-1.526v-7.378h1.274v3.332c0 .495-.019 1.008-.056 1.54-.037.523-.065.859-.084 1.008l3.052-5.88h1.554V387zm8.185-7.378l-2.24 3.416L367.31 387h-1.526l-2.044-3.402h-.938V387h-1.288v-7.378h1.288v2.968h.966l1.862-2.968h1.414zm6.494 5.656c0 .299.052.523.154.672.103.14.257.247.462.322l-.294.896c-.382-.047-.69-.154-.924-.322-.233-.168-.406-.429-.518-.784-.494.737-1.227 1.106-2.198 1.106-.728 0-1.302-.205-1.722-.616-.42-.411-.63-.947-.63-1.61 0-.784.28-1.386.84-1.806.57-.42 1.372-.63 2.408-.63h1.134v-.546c0-.523-.126-.896-.378-1.12-.252-.224-.639-.336-1.162-.336-.541 0-1.204.131-1.988.392l-.322-.938c.915-.336 1.764-.504 2.548-.504.868 0 1.517.215 1.946.644.43.42.644 1.022.644 1.806v3.374zm-3.024.924c.738 0 1.316-.383 1.736-1.148v-1.694h-.966c-1.362 0-2.044.504-2.044 1.512 0 .439.108.77.322.994.215.224.532.336.952.336zm10.38-6.58l-.154 1.05h-2.366V387h-1.288v-6.328h-2.436v-1.05h6.244zm5.742 5.656c0 .299.051.523.154.672.103.14.257.247.462.322l-.294.896c-.383-.047-.691-.154-.924-.322-.233-.168-.406-.429-.518-.784-.495.737-1.227 1.106-2.198 1.106-.728 0-1.302-.205-1.722-.616-.42-.411-.63-.947-.63-1.61 0-.784.28-1.386.84-1.806.569-.42 1.372-.63 2.408-.63h1.134v-.546c0-.523-.126-.896-.378-1.12-.252-.224-.639-.336-1.162-.336-.541 0-1.204.131-1.988.392l-.322-.938c.915-.336 1.764-.504 2.548-.504.868 0 1.517.215 1.946.644.429.42.644 1.022.644 1.806v3.374zm-3.024.924c.737 0 1.316-.383 1.736-1.148v-1.694h-.966c-1.363 0-2.044.504-2.044 1.512 0 .439.107.77.322.994.215.224.532.336.952.336zm-128.594 10.252c.439 0 .84.065 1.204.196a3.24 3.24 0 011.05.602l-.616.812a2.916 2.916 0 00-.77-.406 2.253 2.253 0 00-.812-.14c-.597 0-1.064.238-1.4.714-.327.476-.49 1.181-.49 2.114 0 .933.163 1.624.49 2.072.327.439.793.658 1.4.658.289 0 .555-.042.798-.126a4.37 4.37 0 00.812-.434l.588.84c-.672.541-1.423.812-2.254.812-.999 0-1.787-.336-2.366-1.008-.569-.672-.854-1.601-.854-2.786 0-.784.131-1.47.392-2.058.261-.588.63-1.045 1.106-1.372.485-.327 1.059-.49 1.722-.49zm6.496 0c1.036 0 1.839.345 2.408 1.036.579.691.868 1.629.868 2.814 0 .765-.131 1.442-.392 2.03a3.122 3.122 0 01-1.134 1.358c-.495.317-1.083.476-1.764.476-1.036 0-1.843-.345-2.422-1.036-.579-.691-.868-1.629-.868-2.814 0-.765.131-1.437.392-2.016.261-.588.639-1.041 1.134-1.358.495-.327 1.087-.49 1.778-.49zm0 1.036c-1.279 0-1.918.943-1.918 2.828 0 1.876.635 2.814 1.904 2.814s1.904-.943 1.904-2.828c0-1.876-.63-2.814-1.89-2.814zm8.176-1.036c1.036 0 1.839.345 2.408 1.036.579.691.868 1.629.868 2.814 0 .765-.131 1.442-.392 2.03a3.122 3.122 0 01-1.134 1.358c-.495.317-1.083.476-1.764.476-1.036 0-1.843-.345-2.422-1.036-.579-.691-.868-1.629-.868-2.814 0-.765.131-1.437.392-2.016.261-.588.639-1.041 1.134-1.358.495-.327 1.087-.49 1.778-.49zm0 1.036c-1.279 0-1.918.943-1.918 2.828 0 1.876.635 2.814 1.904 2.814s1.904-.943 1.904-2.828c0-1.876-.63-2.814-1.89-2.814zm10.032-.868l-.154 1.05h-2.366V404h-1.288v-6.328h-2.436v-1.05h6.244zm5.225 3.374c1.25.121 1.876.7 1.876 1.736 0 .775-.285 1.349-.854 1.722-.56.364-1.312.546-2.254.546h-2.66v-7.28a12.169 12.169 0 012.422-.266c.914 0 1.638.173 2.17.518.532.345.798.84.798 1.484 0 .42-.126.761-.378 1.022s-.626.434-1.12.518zm-1.456-2.548c-.392 0-.775.028-1.148.084v2.086h1.386c.448 0 .793-.084 1.036-.252.242-.168.364-.453.364-.854 0-.373-.136-.644-.406-.812-.271-.168-.682-.252-1.232-.252zm.224 5.544c.55 0 .98-.093 1.288-.28.308-.187.462-.523.462-1.008 0-.401-.131-.691-.392-.868-.262-.177-.705-.266-1.33-.266h-1.4v2.422h1.372zm10.759-2.898c0 .215-.009.434-.028.658h-4.704c.056.812.262 1.409.616 1.792.355.383.812.574 1.372.574.355 0 .682-.051.98-.154.299-.103.612-.266.938-.49l.56.77c-.784.616-1.642.924-2.576.924-1.026 0-1.829-.336-2.408-1.008-.569-.672-.854-1.596-.854-2.772 0-.765.122-1.442.364-2.03.252-.597.607-1.064 1.064-1.4.467-.336 1.013-.504 1.638-.504.98 0 1.732.322 2.254.966.523.644.784 1.535.784 2.674zm-1.274-.378c0-.728-.144-1.283-.434-1.666-.289-.383-.723-.574-1.302-.574-1.054 0-1.628.775-1.722 2.324h3.458v-.084zm7.96-3.094l-.154 1.05h-2.366V404h-1.288v-6.328h-2.436v-1.05h6.244zm3.665-.168c.438 0 .84.065 1.204.196a3.24 3.24 0 011.05.602l-.616.812a2.931 2.931 0 00-.77-.406 2.257 2.257 0 00-.812-.14c-.598 0-1.064.238-1.4.714-.327.476-.49 1.181-.49 2.114 0 .933.163 1.624.49 2.072.326.439.793.658 1.4.658.289 0 .555-.042.798-.126a4.4 4.4 0 00.812-.434l.588.84c-.672.541-1.424.812-2.254.812-.999 0-1.788-.336-2.366-1.008-.57-.672-.854-1.601-.854-2.786 0-.784.13-1.47.392-2.058.261-.588.63-1.045 1.106-1.372.485-.327 1.059-.49 1.722-.49zm8.981.168l-.154 1.05h-2.366V404h-1.288v-6.328h-2.436v-1.05h6.244zm5.225 3.374c1.25.121 1.876.7 1.876 1.736 0 .775-.285 1.349-.854 1.722-.56.364-1.312.546-2.254.546h-2.66v-7.28a12.169 12.169 0 012.422-.266c.914 0 1.638.173 2.17.518.532.345.798.84.798 1.484 0 .42-.126.761-.378 1.022s-.626.434-1.12.518zm-1.456-2.548c-.392 0-.775.028-1.148.084v2.086h1.386c.448 0 .793-.084 1.036-.252.242-.168.364-.453.364-.854 0-.373-.136-.644-.406-.812-.271-.168-.682-.252-1.232-.252zm.224 5.544c.55 0 .98-.093 1.288-.28.308-.187.462-.523.462-1.008 0-.401-.131-.691-.392-.868-.262-.177-.705-.266-1.33-.266h-1.4v2.422h1.372zM328.781 404h-1.274v-3.332c0-.56.019-1.092.056-1.596.037-.504.07-.835.098-.994L324.567 404h-1.526v-7.378h1.274v3.332c0 .495-.019 1.008-.056 1.54-.037.523-.065.859-.084 1.008l3.052-5.88h1.554V404zm7.708-7.378V404h-1.288v-2.828h-1.61L332.037 404h-1.442l1.764-3.122c-.868-.411-1.302-1.078-1.302-2.002 0-.728.262-1.283.784-1.666.523-.392 1.256-.588 2.198-.588h2.45zm-1.288 3.57v-2.576h-1.19c-.532 0-.933.103-1.204.308-.261.196-.392.513-.392.952 0 .467.122.803.364 1.008.252.205.654.308 1.204.308h1.218zm13.39 3.808h-1.274v-3.332c0-.56.019-1.092.056-1.596.038-.504.07-.835.098-.994L344.377 404h-1.526v-7.378h1.274v3.332c0 .495-.018 1.008-.056 1.54-.037.523-.065.859-.084 1.008l3.052-5.88h1.554V404zm10.252-4.004c1.251.121 1.876.7 1.876 1.736 0 .775-.285 1.349-.854 1.722-.56.364-1.311.546-2.254.546h-2.66v-7.28a12.169 12.169 0 012.422-.266c.915 0 1.638.173 2.17.518.532.345.798.84.798 1.484 0 .42-.126.761-.378 1.022s-.625.434-1.12.518zm-1.456-2.548c-.392 0-.775.028-1.148.084v2.086h1.386c.448 0 .793-.084 1.036-.252.243-.168.364-.453.364-.854 0-.373-.135-.644-.406-.812-.271-.168-.681-.252-1.232-.252zm.224 5.544c.551 0 .98-.093 1.288-.28.308-.187.462-.523.462-1.008 0-.401-.131-.691-.392-.868-.261-.177-.705-.266-1.33-.266h-1.4v2.422h1.372zm7.876-6.538c.438 0 .84.065 1.204.196a3.24 3.24 0 011.05.602l-.616.812a2.931 2.931 0 00-.77-.406 2.257 2.257 0 00-.812-.14c-.598 0-1.064.238-1.4.714-.327.476-.49 1.181-.49 2.114 0 .933.163 1.624.49 2.072.326.439.793.658 1.4.658.289 0 .555-.042.798-.126a4.4 4.4 0 00.812-.434l.588.84c-.672.541-1.424.812-2.254.812-.999 0-1.788-.336-2.366-1.008-.57-.672-.854-1.601-.854-2.786 0-.784.13-1.47.392-2.058.261-.588.63-1.045 1.106-1.372.485-.327 1.059-.49 1.722-.49zm9.296 3.64c0 .215-.009.434-.028.658h-4.704c.056.812.261 1.409.616 1.792s.812.574 1.372.574c.355 0 .681-.051.98-.154.299-.103.611-.266.938-.49l.56.77c-.784.616-1.643.924-2.576.924-1.027 0-1.829-.336-2.408-1.008-.569-.672-.854-1.596-.854-2.772 0-.765.121-1.442.364-2.03.252-.597.607-1.064 1.064-1.4.467-.336 1.013-.504 1.638-.504.98 0 1.731.322 2.254.966.523.644.784 1.535.784 2.674zm-1.274-.378c0-.728-.145-1.283-.434-1.666-.289-.383-.723-.574-1.302-.574-1.055 0-1.629.775-1.722 2.324h3.458v-.084zm6.036.336l2.562 3.948h-1.554l-1.806-3.122-1.834 3.122h-1.456l2.576-3.892-2.282-3.486h1.512l1.54 2.702 1.554-2.702h1.456l-2.268 3.43zm-123.827 13.402c.943 0 1.633.336 2.072 1.008.439.672.658 1.619.658 2.842 0 1.157-.252 2.091-.756 2.8-.504.709-1.218 1.064-2.142 1.064-.821 0-1.465-.28-1.932-.84v3.5l-1.288.154v-10.36h1.106l.098.994c.271-.373.597-.658.98-.854a2.517 2.517 0 011.204-.308zm-.476 6.664c1.213 0 1.82-.938 1.82-2.814 0-1.885-.555-2.828-1.666-2.828-.364 0-.695.107-.994.322-.299.215-.56.49-.784.826v3.598c.187.289.42.513.7.672.28.149.588.224.924.224zm10.234-.84c0 .299.051.523.154.672.102.14.256.247.462.322l-.294.896c-.383-.047-.691-.154-.924-.322-.234-.168-.406-.429-.518-.784-.495.737-1.228 1.106-2.198 1.106-.728 0-1.302-.205-1.722-.616-.42-.411-.63-.947-.63-1.61 0-.784.28-1.386.84-1.806.569-.42 1.372-.63 2.408-.63h1.134v-.546c0-.523-.126-.896-.378-1.12-.252-.224-.64-.336-1.162-.336-.542 0-1.204.131-1.988.392l-.322-.938c.914-.336 1.764-.504 2.548-.504.868 0 1.516.215 1.946.644.429.42.644 1.022.644 1.806v3.374zm-3.024.924c.737 0 1.316-.383 1.736-1.148v-1.694h-.966c-1.363 0-2.044.504-2.044 1.512 0 .439.107.77.322.994.214.224.532.336.952.336zm7.489-6.748a3.5 3.5 0 011.302.238c.411.149.737.373.98.672.252.299.378.658.378 1.078 0 .411-.121.747-.364 1.008-.233.261-.607.462-1.12.602.616.103 1.083.294 1.4.574.317.28.476.681.476 1.204 0 .765-.299 1.349-.896 1.75-.588.392-1.339.588-2.254.588-1.111 0-2.058-.308-2.842-.924l.672-.798c.327.233.653.406.98.518.336.112.719.168 1.148.168 1.204 0 1.806-.439 1.806-1.316 0-.429-.173-.728-.518-.896-.336-.177-.807-.266-1.414-.266h-.98l.084-1.008h.756c.523 0 .943-.093 1.26-.28.317-.187.476-.476.476-.868 0-.364-.135-.625-.406-.784-.271-.168-.625-.252-1.064-.252-.383 0-.723.051-1.022.154a3.433 3.433 0 00-.882.448l-.616-.77c.373-.28.775-.49 1.204-.63.429-.14.915-.21 1.456-.21zm8.568 0c.943 0 1.633.336 2.072 1.008.439.672.658 1.619.658 2.842 0 1.157-.252 2.091-.756 2.8-.504.709-1.218 1.064-2.142 1.064-.821 0-1.465-.28-1.932-.84v3.5l-1.288.154v-10.36h1.106l.098.994c.271-.373.597-.658.98-.854a2.517 2.517 0 011.204-.308zm-.476 6.664c1.213 0 1.82-.938 1.82-2.814 0-1.885-.555-2.828-1.666-2.828-.364 0-.695.107-.994.322-.299.215-.56.49-.784.826v3.598c.187.289.42.513.7.672.28.149.588.224.924.224zm10.973-3.024c0 .215-.01.434-.028.658h-4.704c.056.812.261 1.409.616 1.792.354.383.812.574 1.372.574.354 0 .681-.051.98-.154.298-.103.611-.266.938-.49l.56.77c-.784.616-1.643.924-2.576.924-1.027 0-1.83-.336-2.408-1.008-.57-.672-.854-1.596-.854-2.772 0-.765.121-1.442.364-2.03.252-.597.606-1.064 1.064-1.4.466-.336 1.012-.504 1.638-.504.98 0 1.731.322 2.254.966.522.644.784 1.535.784 2.674zm-1.274-.378c0-.728-.145-1.283-.434-1.666-.29-.383-.724-.574-1.302-.574-1.055 0-1.629.775-1.722 2.324h3.458v-.084zm11.814-3.094V421h-8.484v-7.378h1.26v6.342h2.366v-6.342h1.232v6.342h2.366v-6.342h1.26zm8.399 7.378h-1.274v-3.332c0-.56.019-1.092.056-1.596.037-.504.07-.835.098-.994L303.731 421h-1.526v-7.378h1.274v3.332c0 .495-.019 1.008-.056 1.54-.037.523-.065.859-.084 1.008l3.052-5.88h1.554V421zm7.639-7.378l-.154 1.05h-2.366V421h-1.288v-6.328h-2.436v-1.05h6.244zm6.548 3.472c0 .215-.009.434-.028.658H317.4c.056.812.262 1.409.616 1.792.355.383.812.574 1.372.574.355 0 .682-.051.98-.154.299-.103.612-.266.938-.49l.56.77c-.784.616-1.642.924-2.576.924-1.026 0-1.829-.336-2.408-1.008-.569-.672-.854-1.596-.854-2.772 0-.765.122-1.442.364-2.03.252-.597.607-1.064 1.064-1.4.467-.336 1.013-.504 1.638-.504.98 0 1.732.322 2.254.966.523.644.784 1.535.784 2.674zm-1.274-.378c0-.728-.144-1.283-.434-1.666-.289-.383-.723-.574-1.302-.574-1.054 0-1.628.775-1.722 2.324h3.458v-.084zm8.599-3.094V421h-1.288v-6.328h-2.282l-.21 2.464c-.084.999-.192 1.745-.322 2.24-.122.495-.318.877-.588 1.148-.262.261-.663.476-1.204.644l-.322-1.022c.317-.112.541-.257.672-.434.13-.177.228-.448.294-.812.065-.364.135-.999.21-1.904l.294-3.374h4.746zm4.93 2.38c1.101 0 1.899.215 2.394.644.495.429.742 1.041.742 1.834 0 .831-.28 1.461-.84 1.89-.551.42-1.237.63-2.058.63h-2.506v-7.378h1.288v2.38h.98zm.126 3.99c.523 0 .924-.117 1.204-.35.289-.233.434-.621.434-1.162 0-.513-.135-.891-.406-1.134-.261-.243-.719-.364-1.372-.364h-.966v3.01h1.106zm9.179 1.008v-3.248h-3.066V421h-1.288v-7.378h1.288v3.094h3.066v-3.094h1.288V421h-1.288zm6.073-4.998c1.101 0 1.899.215 2.394.644.494.429.742 1.041.742 1.834 0 .831-.28 1.461-.84 1.89-.551.42-1.237.63-2.058.63h-2.366v-7.378h1.288v2.38h.84zm4.2-2.38h1.288V421h-1.288v-7.378zm-4.074 6.37c.522 0 .924-.117 1.204-.35.289-.233.434-.621.434-1.162 0-.513-.136-.891-.406-1.134-.262-.243-.719-.364-1.372-.364h-.826v3.01h.966zm10.855-2.94l2.562 3.948h-1.554l-1.806-3.122-1.834 3.122h-1.456l2.576-3.892-2.282-3.486h1.512l1.54 2.702 1.554-2.702h1.456l-2.268 3.43zm-102.494 19.912v3.136h-1.05l-.21-2.1h-4.732l-.21 2.1H251v-3.136h.518a1.97 1.97 0 00.532-.504c.131-.196.247-.532.35-1.008.112-.476.201-1.171.266-2.086l.196-2.744h4.62v6.342h.77zm-2.058-5.32h-2.17l-.112 1.554c-.065.868-.14 1.535-.224 2.002-.084.467-.205.826-.364 1.078a2.274 2.274 0 01-.658.686h3.528v-5.32zm6.687-1.19c1.036 0 1.839.345 2.408 1.036.579.691.868 1.629.868 2.814 0 .765-.13 1.442-.392 2.03a3.122 3.122 0 01-1.134 1.358c-.494.317-1.082.476-1.764.476-1.036 0-1.843-.345-2.422-1.036-.578-.691-.868-1.629-.868-2.814 0-.765.131-1.437.392-2.016.262-.588.64-1.041 1.134-1.358.495-.327 1.088-.49 1.778-.49zm0 1.036c-1.278 0-1.918.943-1.918 2.828 0 1.876.635 2.814 1.904 2.814 1.27 0 1.904-.943 1.904-2.828 0-1.876-.63-2.814-1.89-2.814zm10.934-.868l-2.24 3.416 2.506 3.962h-1.526l-2.044-3.402h-.938V438h-1.288v-7.378h1.288v2.968h.966l1.862-2.968h1.414zm4.684 7.42c-.289.859-.695 1.535-1.218 2.03-.513.504-1.251.807-2.212.91l-.14-1.008c.485-.084.873-.205 1.162-.364.289-.159.518-.364.686-.616.177-.243.341-.574.49-.994h-.434l-2.478-7.378h1.372l1.974 6.44 1.932-6.44h1.33l-2.464 7.42zm11.106-.042h-1.26l-.336-3.486a14.534 14.534 0 01-.07-1.204c-.01-.448-.014-.929-.014-1.442l-1.68 5.32h-1.218l-1.568-5.306c0 1.232-.019 2.105-.056 2.618l-.266 3.5h-1.246l.658-7.378h1.666l1.442 5.278 1.582-5.278h1.694l.672 7.378zm7.74-3.906c0 .215-.009.434-.028.658h-4.704c.056.812.262 1.409.616 1.792.355.383.812.574 1.372.574.355 0 .682-.051.98-.154.299-.103.612-.266.938-.49l.56.77c-.784.616-1.642.924-2.576.924-1.026 0-1.829-.336-2.408-1.008-.569-.672-.854-1.596-.854-2.772 0-.765.122-1.442.364-2.03.252-.597.607-1.064 1.064-1.4.467-.336 1.013-.504 1.638-.504.98 0 1.732.322 2.254.966.523.644.784 1.535.784 2.674zm-1.274-.378c0-.728-.144-1.283-.434-1.666-.289-.383-.723-.574-1.302-.574-1.054 0-1.628.775-1.722 2.324h3.458v-.084zm7.685 4.284v-3.248h-3.066V438h-1.288v-7.378h1.288v3.094h3.066v-3.094h1.288V438h-1.288zm8.929-7.378l-.154 1.05h-2.366V438h-1.288v-6.328h-2.436v-1.05h6.244zm3.749-.168c1.036 0 1.839.345 2.408 1.036.579.691.868 1.629.868 2.814 0 .765-.131 1.442-.392 2.03a3.122 3.122 0 01-1.134 1.358c-.495.317-1.083.476-1.764.476-1.036 0-1.843-.345-2.422-1.036-.579-.691-.868-1.629-.868-2.814 0-.765.131-1.437.392-2.016.261-.588.639-1.041 1.134-1.358.495-.327 1.087-.49 1.778-.49zm0 1.036c-1.279 0-1.918.943-1.918 2.828 0 1.876.635 2.814 1.904 2.814s1.904-.943 1.904-2.828c0-1.876-.63-2.814-1.89-2.814zm9.296 2.506c1.25.121 1.876.7 1.876 1.736 0 .775-.285 1.349-.854 1.722-.56.364-1.312.546-2.254.546h-2.66v-7.28a12.169 12.169 0 012.422-.266c.914 0 1.638.173 2.17.518.532.345.798.84.798 1.484 0 .42-.126.761-.378 1.022s-.626.434-1.12.518zm-1.456-2.548c-.392 0-.775.028-1.148.084v2.086h1.386c.448 0 .793-.084 1.036-.252.242-.168.364-.453.364-.854 0-.373-.136-.644-.406-.812-.271-.168-.682-.252-1.232-.252zm.224 5.544c.55 0 .98-.093 1.288-.28.308-.187.462-.523.462-1.008 0-.401-.131-.691-.392-.868-.262-.177-.705-.266-1.33-.266h-1.4v2.422h1.372z" fill="#566A7D"/></g><defs><filter id="filter0_d_6_2224" x="31" y="6" width="126" height="72" filterUnits="userSpaceOnUse" color-interpolation-filters="sRGB"><feFlood flood-opacity="0" result="BackgroundImageFix"/><feColorMatrix in="SourceAlpha" values="0 0 0 0 0 0 0 0 0 0 0 0 0 0 0 0 0 0 127 0" result="hardAlpha"/><feOffset dy="4"/><feGaussianBlur stdDeviation="3.5"/><feColorMatrix values="0 0 0 0 0.721569 0 0 0 0 0.541176 0 0 0 0 0.768627 0 0 0 0.52641 0"/><feBlend in2="BackgroundImageFix" result="effect1_dropShadow_6_2224"/><feBlend in="SourceGraphic" in2="effect1_dropShadow_6_2224" result="shape"/></filter><filter id="filter1_d_6_2224" x="535" y="327" width="121" height="71" filterUnits="userSpaceOnUse" color-interpolation-filters="sRGB"><feFlood flood-opacity="0" result="BackgroundImageFix"/><feColorMatrix in="SourceAlpha" values="0 0 0 0 0 0 0 0 0 0 0 0 0 0 0 0 0 0 127 0" result="hardAlpha"/><feOffset dy="4"/><feGaussianBlur stdDeviation="3.5"/><feColorMatrix values="0 0 0 0 0.721569 0 0 0 0 0.541176 0 0 0 0 0.768627 0 0 0 0.52641 0"/><feBlend in2="BackgroundImageFix" result="effect1_dropShadow_6_2224"/><feBlend in="SourceGraphic" in2="effect1_dropShadow_6_2224" result="shape"/></filter><filter id="filter2_d_6_2224" x="0" y="317" width="139" height="91" filterUnits="userSpaceOnUse" color-interpolation-filters="sRGB"><feFlood flood-opacity="0" result="BackgroundImageFix"/><feColorMatrix in="SourceAlpha" values="0 0 0 0 0 0 0 0 0 0 0 0 0 0 0 0 0 0 127 0" result="hardAlpha"/><feOffset dy="4"/><feGaussianBlur stdDeviation="3.5"/><feColorMatrix values="0 0 0 0 0.721569 0 0 0 0 0.541176 0 0 0 0 0.768627 0 0 0 0.52641 0"/><feBlend in2="BackgroundImageFix" result="effect1_dropShadow_6_2224"/><feBlend in="SourceGraphic" in2="effect1_dropShadow_6_2224" result="shape"/></filter><filter id="filter3_d_6_2224" x="506" y="0" width="131" height="90" filterUnits="userSpaceOnUse" color-interpolation-filters="sRGB"><feFlood flood-opacity="0" result="BackgroundImageFix"/><feColorMatrix in="SourceAlpha" values="0 0 0 0 0 0 0 0 0 0 0 0 0 0 0 0 0 0 127 0" result="hardAlpha"/><feOffset dy="4"/><feGaussianBlur stdDeviation="3.5"/><feColorMatrix values="0 0 0 0 0.721569 0 0 0 0 0.541176 0 0 0 0 0.768627 0 0 0 0.52641 0"/><feBlend in2="BackgroundImageFix" result="effect1_dropShadow_6_2224"/><feBlend in="SourceGraphic" in2="effect1_dropShadow_6_2224" result="shape"/></filter><filter id="filter4_d_6_2224" x="230" y="357" width="182" height="109" filterUnits="userSpaceOnUse" color-interpolation-filters="sRGB"><feFlood flood-opacity="0" result="BackgroundImageFix"/><feColorMatrix in="SourceAlpha" values="0 0 0 0 0 0 0 0 0 0 0 0 0 0 0 0 0 0 127 0" result="hardAlpha"/><feOffset dy="4"/><feGaussianBlur stdDeviation="3.5"/><feColorMatrix values="0 0 0 0 0.721569 0 0 0 0 0.541176 0 0 0 0 0.768627 0 0 0 0.52641 0"/><feBlend in2="BackgroundImageFix" result="effect1_dropShadow_6_2224"/><feBlend in="SourceGraphic" in2="effect1_dropShadow_6_2224" result="shape"/></filter></defs></svg>