<svg width="91.919" height="76.536" xmlns:xlink="http://www.w3.org/1999/xlink" xmlns="http://www.w3.org/2000/svg"><defs><clipPath id="c"><use xlink:href="#a"/></clipPath><clipPath id="d"><use xlink:href="#b"/></clipPath><path d="M0 0h16.142v16.902H0V0z" id="a"/><path d="M0 0h10.243v10.24H0V0z" id="b"/></defs><path d="M3.01 33c2.537-3.015 7.037-3.396 10.054-.859a7.14 7.14 0 01.856 10.056 7.135 7.135 0 01-10.057.856C.852 40.511.466 36.008 3.01 33" fill="#B18DC0" fill-rule="evenodd"/><path d="M51.362 0l3.356 15.79-16.532 3.514-3.357-15.79L51.362 0z" fill="none"/><g clip-path="url(#c)" transform="rotate(78 25.681 31.713)"><path d="M10.105 0L5.938 4.173.139 3.104l2.67 5.257L0 13.548l5.832-.924 4.06 4.278.928-5.825 5.323-2.545-5.259-2.681L10.105 0z" fill="#4BB8DB" fill-rule="evenodd"/></g><path d="M74.305 68.551l-4.38-3.951.765-5.85-5.114 2.95-5.33-2.533 1.23 5.767-4.056 4.281v.001l5.864.624 2.82 5.18h.001l2.4-5.394 5.8-1.075z" fill="#2A307E" fill-rule="evenodd"/><path d="M89.966 36.654a4.63 4.63 0 01-7.078-5.968 4.628 4.628 0 016.522-.553 4.624 4.624 0 01.556 6.521" fill="#B18DC0" fill-rule="evenodd"/><path d="M41.15 58.434l2.13 10.019-10.017 2.13-2.13-10.02 10.017-2.13z" fill="none"/><g clip-path="url(#d)" transform="rotate(78 -15.505 54.625)"><path d="M1.076 8.264a5.123 5.123 0 018.09-6.286 5.119 5.119 0 01-.903 7.184 5.126 5.126 0 01-7.187-.898" fill="#4BB8DB" fill-rule="evenodd"/></g></svg>