<svg width="83" height="94.386" xmlns:xlink="http://www.w3.org/1999/xlink" xmlns="http://www.w3.org/2000/svg"><defs><clipPath id="c"><use xlink:href="#a"/></clipPath><clipPath id="d"><use xlink:href="#b"/></clipPath><path d="M0 0h18v17H0V0z" id="a"/><path d="M.173-.083h25v26h-25v-26z" id="b"/></defs><path d="M0 0h18v17H0V0z" fill="none"/><g clip-path="url(#c)"><path d="M3.422 16.983l5.562-2.893L14.537 17l-1.04-6.148L18 6.507l-6.22-.91L9.013 0 6.217 5.584 0 6.47l4.491 4.365-1.07 6.148z" fill="#EFCEDC" fill-rule="evenodd"/></g><path d="M62.229 40.617a5.552 5.552 0 014.61-10.1 5.55 5.55 0 01-4.61 10.1" fill="#4BB8DB" fill-rule="evenodd"/><path d="M6.974 93.685c-3.886-1.77-5.597-6.354-3.829-10.243a7.734 7.734 0 0114.073 6.419c-1.775 3.884-6.362 5.602-10.244 3.824" fill="#B18DC0" fill-rule="evenodd"/><path d="M58 66h25v26H58V66z" fill="none"/><g clip-path="url(#d)" transform="translate(57.828 66.083)"><path d="M15.988 19.491l8.994 1.635-4.159-8.085 4.35-7.982-9.033 1.427L9.835-.083 8.414 8.881.173 12.806l8.146 4.111 1.215 9 6.454-6.426z" fill="#EFCEDC" fill-rule="evenodd"/></g></svg>