<svg width="95.55" height="103.873" xmlns="http://www.w3.org/2000/svg"><g fill-rule="evenodd"><path d="M54.742 50.661A4.499 4.499 0 1158.31 42.4a4.499 4.499 0 11-3.567 8.262" fill="#4BB8DB"/><path d="M32.95 30.497a6.499 6.499 0 015.148-11.936 6.5 6.5 0 013.395 8.544c-1.424 3.295-5.25 4.817-8.542 3.392" fill="#B18DC0"/><path d="M29.608 55.357a3.995 3.995 0 012.088 5.26 4 4 0 11-2.088-5.26" fill="#2A307E"/><path d="M82.372 23.99l-1.53 5.162-5.035 1.745 4.332 2.965-.029 5.356 4.219-3.335 5.015 1.567-1.728-5.02 3.131-4.39-5.288.23-3.087-4.28zM50.864 94.168l7.389 1.245-3.591-6.55 3.363-6.55-7.346 1.252-5.31-5.293-.947 7.323-6.643 3.28 6.757 3.271 1.207 7.325 5.12-5.303z" fill="#EFCEDC"/></g></svg>