<svg width="137.004" height="98.336" xmlns="http://www.w3.org/2000/svg"><g fill-rule="evenodd"><path d="M49.453 84.723a6.303 6.303 0 01-3.704 8.108 6.302 6.302 0 11-4.406-11.806 6.308 6.308 0 018.11 3.698" fill="#4BB8DB"/><path d="M136.445 86.478c1.7 4.542-.606 9.6-5.15 11.302-4.538 1.695-9.605-.614-11.298-5.154-1.698-4.544.605-9.606 5.151-11.302 4.544-1.695 9.608.61 11.297 5.154" fill="#B18DC0"/><path d="M44.201 7.693A5.69 5.69 0 0147.55.362a5.695 5.695 0 113.98 10.673 5.694 5.694 0 01-7.329-3.342" fill="#2A307E"/><path d="M3.955 52.945l6.429-3.368 6.418 3.388-1.202-7.158 5.205-5.058-7.19-1.06-3.196-6.516-3.233 6.5L0 40.707l5.191 5.082-1.236 7.157zm72.55-13.114l-5.785-8.379-3.137 9.688-9.753 2.902 8.242 5.98-.243 10.175 8.229-5.99 9.6 3.381-3.155-9.677 6.18-8.093-10.178.013z" fill="#EFCEDC"/></g></svg>