<svg width="95.438" height="121.162" xmlns:xlink="http://www.w3.org/1999/xlink" xmlns="http://www.w3.org/2000/svg"><defs><clipPath id="c"><use xlink:href="#a"/></clipPath><clipPath id="d"><use xlink:href="#b"/></clipPath><path d="M0 0h20.805v19.792H0V0z" id="a"/><path d="M0 0h27.841v29.155H0V0z" id="b"/></defs><path d="M76.139 121.162l-20.35-4.326 4.115-19.359 20.35 4.325-4.115 19.36z" fill="none"/><g clip-path="url(#c)" transform="rotate(-168 44.437 56.58)"><path d="M3.955 19.772l6.429-3.368 6.418 3.388-1.202-7.158 5.205-5.058-7.19-1.06L10.419 0 7.186 6.501 0 7.533l5.19 5.082-1.235 7.157z" fill="#EFCEDC" fill-rule="evenodd"/></g><path d="M16.33 61.557A6.305 6.305 0 018.824 71.69a6.304 6.304 0 01-1.312-8.816 6.313 6.313 0 018.818-1.316" fill="#4BB8DB" fill-rule="evenodd"/><path d="M90.244 15.651c3.9 2.883 4.717 8.38 1.835 12.283-2.883 3.894-8.389 4.716-12.282 1.832-3.9-2.886-4.723-8.387-1.836-12.286 2.889-3.895 8.39-4.72 12.283-1.829" fill="#B18DC0" fill-rule="evenodd"/><path d="M27.233 34.306L0 28.518 6.062 0l27.232 5.788-6.061 28.518z" fill="none"/><g clip-path="url(#d)" transform="rotate(-168 15.42 15.722)"><path d="M17.613 21.949l10.017 1.833-4.632-9.066 4.844-8.95-10.059 1.6L10.761 0 9.178 10.052 0 14.453l9.073 4.61 1.353 10.092 7.187-7.206z" fill="#EFCEDC" fill-rule="evenodd"/></g></svg>