<svg width="81.737" height="69.935" xmlns:xlink="http://www.w3.org/1999/xlink" xmlns="http://www.w3.org/2000/svg"><defs><clipPath id="c"><use xlink:href="#a"/></clipPath><clipPath id="d"><use xlink:href="#b"/></clipPath><path d="M0 0h20.805v19.792H0V0z" id="a"/><path d="M0 0h27.841v29.155H0V0z" id="b"/></defs><path d="M0 0h20.805v19.792H0V0z" fill="none"/><g clip-path="url(#c)"><path d="M3.955 19.772l6.429-3.368 6.418 3.388-1.202-7.158 5.205-5.058-7.19-1.06L10.419 0 7.186 6.501 0 7.533l5.19 5.082-1.235 7.157z" fill="#EFCEDC" fill-rule="evenodd"/></g><path d="M51.895 15.867a6.305 6.305 0 015.234-11.47 6.304 6.304 0 013.117 8.35 6.313 6.313 0 01-8.352 3.12" fill="#4BB8DB" fill-rule="evenodd"/><path d="M17.14 69.138c-4.413-2.01-6.356-7.216-4.348-11.633 2.01-4.408 7.225-6.357 11.633-4.346 4.414 2.013 6.363 7.222 4.35 11.636-2.016 4.41-7.226 6.362-11.634 4.343" fill="#B18DC0" fill-rule="evenodd"/><path d="M53.896 31.79h27.84v29.154h-27.84V31.79z" fill="none"/><g clip-path="url(#d)" transform="translate(53.896 31.79)"><path d="M17.613 21.949l10.017 1.833-4.632-9.066 4.844-8.95-10.059 1.6L10.761 0 9.178 10.052 0 14.453l9.073 4.61 1.353 10.092 7.187-7.206z" fill="#EFCEDC" fill-rule="evenodd"/></g></svg>