<svg width="108.283" height="110.044" xmlns="http://www.w3.org/2000/svg"><g fill-rule="evenodd"><path d="M46.255 53.724a4.999 4.999 0 11-5.785 8.156 4.999 4.999 0 115.785-8.156" fill="#4BB8DB"/><path d="M65.158 79.985a6.999 6.999 0 01-8.094 11.421 7 7 0 118.094-11.421" fill="#B18DC0"/><path d="M73.011 54.782a3.995 3.995 0 01-.948-5.578 4 4 0 11.948 5.578" fill="#2A307E"/><path d="M11.352 75.584l2.507-4.787 5.461-.505-3.88-4.034 1.01-5.351-4.918 2.297-4.834-2.805.845 5.449-4.001 3.62 5.441 1.073 2.37 5.043zm48.55-64.841l-7.384-2.791 2.13 7.632-5.107 6.239 7.951.148 4.227 6.649 2.783-7.539 7.718-2.132-6.23-4.805.542-7.971-6.63 4.57z" fill="#EFCEDC"/></g></svg>