<svg width="165.727" height="147.023" xmlns:xlink="http://www.w3.org/1999/xlink" xmlns="http://www.w3.org/2000/svg"><defs><clipPath id="c"><use xlink:href="#a"/></clipPath><clipPath id="d"><use xlink:href="#b"/></clipPath><path d="M0 0h17.566v17.569H0V0z" id="a"/><path d="M0 0h20.805v19.792H0V0z" id="b"/></defs><path d="M85.102 33.237a6.303 6.303 0 01-.07-8.914 6.302 6.302 0 118.983 8.838 6.308 6.308 0 01-8.913.076" fill="#4BB8DB" fill-rule="evenodd"/><path d="M23.345 66.4l-15.92 7.423L0 57.9l15.92-7.423 7.425 15.922z" fill="none"/><g clip-path="url(#c)" transform="rotate(155 4.312 35.787)"><path d="M17.007 5.71c1.7 4.543-.606 9.6-5.15 11.303-4.538 1.695-9.605-.614-11.298-5.154-1.698-4.544.605-9.606 5.15-11.302 4.545-1.695 9.609.61 11.298 5.154" fill="#B18DC0" fill-rule="evenodd"/></g><path d="M122.416 100.83a5.69 5.69 0 01.063 8.06 5.695 5.695 0 11-8.118-7.991 5.694 5.694 0 018.055-.068" fill="#2A307E" fill-rule="evenodd"/><path d="M151.707 59.058l-18.855 8.792-8.365-17.937 18.856-8.793 8.364 17.938z" fill="none"/><g clip-path="url(#d)" transform="rotate(155 69.307 46.345)"><path d="M3.955 19.772l6.429-3.368 6.418 3.388-1.202-7.158 5.205-5.058-7.19-1.06L10.419 0 7.186 6.501 0 7.533l5.19 5.082-1.235 7.157z" fill="#EFCEDC" fill-rule="evenodd"/></g><path d="M79.556 85.355l8.785 5.15-1.252-10.107 7.613-6.752-9.997-1.936-4.08-9.324-4.926 8.906-10.13.993 6.95 7.437-2.182 9.947 9.22-4.314z" fill="#EFCEDC" fill-rule="evenodd"/></svg>