<svg width="103" height="111.231" xmlns="http://www.w3.org/2000/svg"><g fill-rule="evenodd"><path d="M3.422 75.983l5.562-2.893L14.537 76l-1.04-6.148L18 65.507l-6.22-.91L9.013 59l-2.797 5.584L0 65.47l4.491 4.365-1.07 6.148z" fill="#EFCEDC"/><path d="M43.48 103.74a5.55 5.55 0 01-10.401 3.882 5.549 5.549 0 013.26-7.138 5.553 5.553 0 017.14 3.256" fill="#4BB8DB"/><path d="M102.522 4.876a7.497 7.497 0 01-4.397 9.65c-3.876 1.446-8.202-.525-9.648-4.401a7.495 7.495 0 014.399-9.65c3.88-1.447 8.204.521 9.646 4.4" fill="#B18DC0"/><path d="M38.856 35.916a5.01 5.01 0 012.948-6.455 5.014 5.014 0 113.505 9.397 5.014 5.014 0 01-6.453-2.942" fill="#2A307E"/><path d="M67.299 64.213l-5.094-7.377-2.762 8.53-8.587 2.555 7.257 5.265-.214 8.96 7.245-5.275 8.454 2.977-2.779-8.52 5.442-7.126-8.962.011z" fill="#EFCEDC"/></g></svg>