<svg width="81.738" height="69.935" xmlns="http://www.w3.org/2000/svg"><g fill-rule="evenodd"><path d="M3.955 19.772l6.429-3.368 6.418 3.388-1.202-7.158 5.205-5.058-7.19-1.06L10.419 0 7.186 6.501 0 7.533l5.191 5.082-1.236 7.157z" fill="#EFCEDC"/><path d="M51.895 15.867a6.305 6.305 0 015.235-11.47 6.304 6.304 0 013.117 8.35 6.313 6.313 0 01-8.352 3.12" fill="#4BB8DB"/><path d="M17.14 69.138c-4.413-2.01-6.356-7.216-4.348-11.633 2.01-4.408 7.225-6.357 11.633-4.346 4.414 2.013 6.363 7.222 4.35 11.636-2.016 4.41-7.226 6.362-11.634 4.343" fill="#B18DC0"/><path d="M71.509 53.738l10.017 1.833-4.632-9.066 4.844-8.95-10.059 1.6-7.022-7.366-1.583 10.052-9.178 4.401 9.073 4.61 1.353 10.092 7.187-7.206z" fill="#EFCEDC"/></g></svg>