<svg width="52.899" height="73.011" xmlns="http://www.w3.org/2000/svg"><g fill-rule="evenodd"><path d="M31.488 33.025a3.965 3.965 0 01-.918-7.877 3.963 3.963 0 014.395 3.479 3.967 3.967 0 01-3.477 4.398" fill="#4BB8DB"/><path d="M6.166 27.143a5.524 5.524 0 114.846-6.126 5.523 5.523 0 01-4.846 6.126" fill="#B18DC0"/><path d="M14.71 46.86a3.58 3.58 0 013.975 3.146 3.582 3.582 0 11-7.117.83 3.583 3.583 0 013.142-3.976" fill="#2A307E"/><path d="M40.312.577l1.093 4.432-3.034 3.412 4.552.34 2.308 3.94 1.727-4.232 4.46-.974-3.485-2.95L48.382 0l-3.883 2.408L40.312.577zm6.6 66.216l5.987-2.275-5.445-3.37-.309-6.394-4.89 4.136-6.178-1.677 2.422 5.925-3.507 5.357 6.385-.474 4.014 4.99 1.521-6.218z" fill="#EFCEDC"/></g></svg>